<svg width="127" height="50" viewBox="0 0 127 50" fill="none" xmlns="http://www.w3.org/2000/svg">
<g id="Group">
<g id="OBJECTS">
<path id="Vector" d="M17.1742 14.1737L1.54509 21.2647C-0.112773 22.0177 -0.527239 24.3924 0.753839 25.7659L7.41544 32.8983C7.85252 33.3617 8.11627 33.9905 8.16148 34.6524L8.99041 46.5591C9.11852 48.4042 10.8367 49.5874 12.4041 48.9007L29.3294 41.5283C30.6934 40.9326 31.3038 39.1784 30.6406 37.7387L20.3543 15.4562C19.7665 14.1737 18.3724 13.6111 17.1667 14.1572L17.1742 14.1737Z" fill="url(#paint0_linear_9047_29294)"/>
<g id="Group_2" style="mix-blend-mode:multiply">
<path id="Vector_2" d="M17.1742 14.1737L1.54509 21.2647C-0.112773 22.0177 -0.527239 24.3924 0.753839 25.7659L7.41544 32.8983C7.85252 33.3617 8.11627 33.9905 8.16148 34.6524L8.99041 46.5591C9.11852 48.4042 10.8367 49.5874 12.4041 48.9007L29.3294 41.5283C30.6934 40.9326 31.3038 39.1784 30.6406 37.7387L20.3543 15.4562C19.7665 14.1737 18.3724 13.6111 17.1667 14.1572L17.1742 14.1737Z" fill="url(#paint1_linear_9047_29294)"/>
</g>
<path id="Vector_3" d="M109.826 14.1733L125.455 21.2725C127.113 22.0255 127.528 24.4002 126.247 25.7737L119.585 32.9061C119.148 33.3695 118.884 33.9983 118.839 34.6603L118.01 46.5669C117.882 48.412 116.164 49.5952 114.596 48.9085L97.671 41.5361C96.307 40.9404 95.6967 39.1863 96.3598 37.7465L106.639 15.464C107.226 14.1815 108.62 13.6189 109.826 14.165V14.1733Z" fill="url(#paint2_linear_9047_29294)"/>
<path id="Vector_4" style="mix-blend-mode:multiply" d="M109.826 14.1733L125.455 21.2725C127.113 22.0255 127.528 24.4002 126.247 25.7737L119.585 32.9061C119.148 33.3695 118.884 33.9983 118.839 34.6603L118.01 46.5669C117.882 48.412 116.164 49.5952 114.596 48.9085L97.671 41.5361C96.307 40.9404 95.6967 39.1863 96.3598 37.7465L106.639 15.464C107.226 14.1815 108.62 13.6189 109.826 14.165V14.1733Z" fill="url(#paint3_linear_9047_29294)"/>
<path id="Vector_5" d="M4.06941 12.4939L15.373 34.8509C15.9684 36.0259 17.2042 36.5968 18.3873 36.2741C30.7234 32.8899 53.828 31.0861 65.8701 31.0861C77.9122 31.0861 96.729 32.8899 108.605 36.2658C109.796 36.6051 111.032 36.0259 111.627 34.8509L122.938 12.4857C123.775 10.8391 122.999 8.77882 121.348 8.23272C105.418 2.95376 82.4111 0.107422 65.8701 0.107422C49.3291 0.107422 22.1251 2.95376 5.66699 8.23272C4.00912 8.76227 3.23294 10.8391 4.06941 12.4939Z" fill="url(#paint4_linear_9047_29294)"/>
</g>
</g>
<defs>
<linearGradient id="paint0_linear_9047_29294" x1="24.7703" y1="27.1643" x2="6.3149" y2="34.1184" gradientUnits="userSpaceOnUse">
<stop stop-color="#DC7E22"/>
<stop offset="1" stop-color="#F6BA26"/>
</linearGradient>
<linearGradient id="paint1_linear_9047_29294" x1="32.7582" y1="10.6903" x2="6.03391" y2="37.2152" gradientUnits="userSpaceOnUse">
<stop stop-color="#D29876"/>
<stop offset="0.13" stop-color="#D29A78" stop-opacity="0.98"/>
<stop offset="0.26" stop-color="#D5A081" stop-opacity="0.92"/>
<stop offset="0.41" stop-color="#DAAB8F" stop-opacity="0.81"/>
<stop offset="0.55" stop-color="#E1BAA3" stop-opacity="0.67"/>
<stop offset="0.7" stop-color="#E9CDBD" stop-opacity="0.48"/>
<stop offset="0.86" stop-color="#F3E5DC" stop-opacity="0.25"/>
<stop offset="1" stop-color="white" stop-opacity="0"/>
</linearGradient>
<linearGradient id="paint2_linear_9047_29294" x1="102.268" y1="23.9534" x2="121.766" y2="36.918" gradientUnits="userSpaceOnUse">
<stop stop-color="#DC7E22"/>
<stop offset="1" stop-color="#F6BA26"/>
</linearGradient>
<linearGradient id="paint3_linear_9047_29294" x1="90.1805" y1="16.0846" x2="120.783" y2="34.2796" gradientUnits="userSpaceOnUse">
<stop stop-color="#D29876"/>
<stop offset="0.13" stop-color="#D29A78" stop-opacity="0.98"/>
<stop offset="0.26" stop-color="#D5A081" stop-opacity="0.92"/>
<stop offset="0.41" stop-color="#DAAB8F" stop-opacity="0.81"/>
<stop offset="0.55" stop-color="#E1BAA3" stop-opacity="0.67"/>
<stop offset="0.7" stop-color="#E9CDBD" stop-opacity="0.48"/>
<stop offset="0.86" stop-color="#F3E5DC" stop-opacity="0.25"/>
<stop offset="1" stop-color="white" stop-opacity="0"/>
</linearGradient>
<linearGradient id="paint4_linear_9047_29294" x1="59.4798" y1="43.5968" x2="65.3904" y2="3.91205" gradientUnits="userSpaceOnUse">
<stop stop-color="#E69627"/>
<stop offset="1" stop-color="#F5DD4D"/>
</linearGradient>
</defs>
</svg>
