<svg width="215" height="197" viewBox="0 0 215 197" fill="none" xmlns="http://www.w3.org/2000/svg">
<g id="light">
<path id="Vector" opacity="0.2" d="M109.08 97.8607L118.08 0.628906H100.079L109.08 97.8607L118.08 0.628906H100.079L109.08 97.8607Z" fill="url(#paint0_linear_9047_29276)"/>
<path id="Vector_2" opacity="0.2" d="M108.645 97.3942L73.8022 5.20703L57.3518 11.9287L108.645 97.3942L73.8022 5.20703L57.3518 11.9287L108.645 97.3942Z" fill="url(#paint1_linear_9047_29276)"/>
<path id="Vector_3" opacity="0.2" d="M108.036 97.1281L35.3793 25.918L23.3206 38.2034L108.036 97.1281L35.3793 25.918L23.3206 38.2034L108.036 97.1281Z" fill="url(#paint2_linear_9047_29276)"/>
<path id="Vector_4" opacity="0.2" d="M107.355 97.1164L9.43536 59.1953L3.88428 74.9281L107.355 97.1164L9.43536 59.1953L3.88428 74.9281L107.355 97.1164Z" fill="url(#paint3_linear_9047_29276)"/>
<path id="Vector_5" opacity="0.2" d="M106.732 97.3535L0.49292 99.2835L2.3771 115.735L106.732 97.3535L0.49292 99.2835L2.3771 115.735L106.732 97.3535Z" fill="url(#paint4_linear_9047_29276)"/>
<path id="Vector_6" opacity="0.2" d="M106.267 97.7949L10.0728 139.257L19.0733 153.578L106.267 97.7949L10.0728 139.257L19.0733 153.578L106.267 97.7949Z" fill="url(#paint5_linear_9047_29276)"/>
<path id="Vector_7" opacity="0.2" d="M106.051 98.3809L36.5244 172.186L51.0906 181.903L106.051 98.3809L36.5244 172.186L51.0906 181.903L106.051 98.3809Z" fill="url(#paint6_linear_9047_29276)"/>
<path id="Vector_8" opacity="0.2" d="M106.094 98.9922L75.2805 192.391L92.8904 195.825L106.094 98.9922L75.2805 192.391L92.8904 195.825L106.094 98.9922Z" fill="url(#paint7_linear_9047_29276)"/>
<path id="Vector_9" opacity="0.2" d="M106.427 99.5391L119.631 196.372L137.241 192.937L106.427 99.5391L119.631 196.372L137.241 192.937L106.427 99.5391Z" fill="url(#paint8_linear_9047_29276)"/>
<path id="Vector_10" opacity="0.2" d="M106.964 99.9238L161.909 183.446L176.475 173.716L106.964 99.9238L161.909 183.446L176.475 173.716L106.964 99.9238Z" fill="url(#paint9_linear_9047_29276)"/>
<path id="Vector_11" opacity="0.2" d="M107.616 100.055L194.796 155.838L203.811 141.516L107.616 100.055L194.796 155.838L203.811 141.516L107.616 100.055Z" fill="url(#paint10_linear_9047_29276)"/>
<path id="Vector_12" opacity="0.2" d="M108.268 99.9492L212.623 118.344L214.507 101.893L108.268 99.9492L212.623 118.344L214.507 101.893L108.268 99.9492Z" fill="url(#paint11_linear_9047_29276)"/>
<path id="Vector_13" opacity="0.2" d="M108.833 99.5913L212.304 77.4164L206.738 61.6836L108.833 99.5913L212.304 77.4164L206.738 61.6836L108.833 99.5913Z" fill="url(#paint12_linear_9047_29276)"/>
<path id="Vector_14" opacity="0.2" d="M109.181 99.0715L193.882 40.1601L181.838 27.8613L109.181 99.0715L193.882 40.1601L181.838 27.8613L109.181 99.0715Z" fill="url(#paint13_linear_9047_29276)"/>
<path id="Vector_15" opacity="0.2" d="M109.268 98.4606L160.562 12.9951L144.111 6.27344L109.268 98.4606L160.562 12.9951L144.111 6.27344L109.268 98.4606Z" fill="url(#paint14_linear_9047_29276)"/>
</g>
<defs>
<linearGradient id="paint0_linear_9047_29276" x1="109.08" y1="49.1616" x2="109.08" y2="3.69417" gradientUnits="userSpaceOnUse">
<stop stop-color="#FFAAC9"/>
<stop offset="1" stop-color="#FFAAC9" stop-opacity="0"/>
</linearGradient>
<linearGradient id="paint1_linear_9047_29276" x1="82.9984" y1="51.2218" x2="71.9717" y2="12.3502" gradientUnits="userSpaceOnUse">
<stop stop-color="#FFAAC9"/>
<stop offset="1" stop-color="#FFAAC9" stop-opacity="0"/>
</linearGradient>
<linearGradient id="paint2_linear_9047_29276" x1="65.6784" y1="61.4621" x2="33.3082" y2="33.7017" gradientUnits="userSpaceOnUse">
<stop stop-color="#FFAAC9"/>
<stop offset="1" stop-color="#FFAAC9" stop-opacity="0"/>
</linearGradient>
<linearGradient id="paint3_linear_9047_29276" x1="55.6195" y1="78.1234" x2="3.88428" y2="67.7486" gradientUnits="userSpaceOnUse">
<stop stop-color="#FFAAC9"/>
<stop offset="1" stop-color="#FFAAC9" stop-opacity="0"/>
</linearGradient>
<linearGradient id="paint4_linear_9047_29276" x1="53.6123" y1="106.529" x2="-3.62415" y2="106.544" gradientUnits="userSpaceOnUse">
<stop stop-color="#FFAAC9"/>
<stop offset="1" stop-color="#FFAAC9" stop-opacity="0"/>
</linearGradient>
<linearGradient id="paint5_linear_9047_29276" x1="58.1701" y1="125.639" x2="16.5732" y2="147.384" gradientUnits="userSpaceOnUse">
<stop stop-color="#FFAAC9"/>
<stop offset="1" stop-color="#FFAAC9" stop-opacity="0"/>
</linearGradient>
<linearGradient id="paint6_linear_9047_29276" x1="71.2875" y1="140.071" x2="40.81" y2="178.546" gradientUnits="userSpaceOnUse">
<stop stop-color="#FFAAC9"/>
<stop offset="1" stop-color="#FFAAC9" stop-opacity="0"/>
</linearGradient>
<linearGradient id="paint7_linear_9047_29276" x1="90.6873" y1="147.326" x2="84.6672" y2="177.391" gradientUnits="userSpaceOnUse">
<stop stop-color="#FFAAC9"/>
<stop offset="1" stop-color="#FFAAC9" stop-opacity="0"/>
</linearGradient>
<linearGradient id="paint8_linear_9047_29276" x1="121.834" y1="147.872" x2="126.793" y2="180.854" gradientUnits="userSpaceOnUse">
<stop stop-color="#FFAAC9"/>
<stop offset="1" stop-color="#FFAAC9" stop-opacity="0"/>
</linearGradient>
<linearGradient id="paint9_linear_9047_29276" x1="141.72" y1="141.613" x2="176.475" y2="174.506" gradientUnits="userSpaceOnUse">
<stop stop-color="#FFAAC9"/>
<stop offset="1" stop-color="#FFAAC9" stop-opacity="0"/>
</linearGradient>
<linearGradient id="paint10_linear_9047_29276" x1="155.714" y1="127.899" x2="193.733" y2="143.922" gradientUnits="userSpaceOnUse">
<stop stop-color="#FFAAC9"/>
<stop offset="1" stop-color="#FFAAC9" stop-opacity="0"/>
</linearGradient>
<linearGradient id="paint11_linear_9047_29276" x1="161.388" y1="109.131" x2="197.772" y2="109.147" gradientUnits="userSpaceOnUse">
<stop stop-color="#FFAAC9"/>
<stop offset="1" stop-color="#FFAAC9" stop-opacity="0"/>
</linearGradient>
<linearGradient id="paint12_linear_9047_29276" x1="160.568" y1="80.605" x2="202.966" y2="70.634" gradientUnits="userSpaceOnUse">
<stop stop-color="#FFAAC9"/>
<stop offset="1" stop-color="#FFAAC9" stop-opacity="0"/>
</linearGradient>
<linearGradient id="paint13_linear_9047_29276" x1="151.532" y1="63.4055" x2="186.231" y2="36.0099" gradientUnits="userSpaceOnUse">
<stop stop-color="#FFAAC9"/>
<stop offset="1" stop-color="#FFAAC9" stop-opacity="0"/>
</linearGradient>
<linearGradient id="paint14_linear_9047_29276" x1="134.915" y1="52.2882" x2="152.761" y2="14.0814" gradientUnits="userSpaceOnUse">
<stop stop-color="#FFAAC9"/>
<stop offset="1" stop-color="#FFAAC9" stop-opacity="0"/>
</linearGradient>
</defs>
</svg>
