<svg width="80" height="80" viewBox="0 0 80 80" fill="none" xmlns="http://www.w3.org/2000/svg">
<g clip-path="url(#clip0_14012_69334)">
<path d="M40 80C62.0914 80 80 62.0914 80 40C80 17.9086 62.0914 0 40 0C17.9086 0 0 17.9086 0 40C0 62.0914 17.9086 80 40 80Z" fill="#FFDA24"/>
<path d="M24.4078 35.5293H55.5906C57.9813 35.5293 59.9219 37.4699 59.9219 39.8605V39.9371C59.9219 50.8902 51.0297 59.7824 40.0766 59.7824H40C29.0047 59.7824 20.0781 50.8559 20.0781 39.8605C20.0781 37.4699 22.0188 35.5293 24.4094 35.5293H24.4078Z" fill="#473535"/>
<path d="M52.3117 55.5645C48.9398 58.2066 44.693 59.7832 40.0758 59.7832H39.9992C35.3602 59.7832 31.093 58.1988 27.707 55.5395C30.4867 51.7738 34.9586 49.3301 39.9992 49.3301C45.0398 49.3301 49.532 51.7832 52.3117 55.5645Z" fill="#FF7E27"/>
<path d="M57.7547 36.1109V37.2625C57.7547 40.1313 55.4281 42.4594 52.5578 42.4594H27.4391C24.5687 42.4594 22.2422 40.1313 22.2422 37.2625V36.1109C22.8797 35.7422 23.6188 35.5312 24.4078 35.5312H55.5906C56.3781 35.5312 57.1187 35.7422 57.7562 36.1109H57.7547Z" fill="white"/>
<path d="M65.2129 1.39318L66.152 9.94786C66.2083 10.4588 66.5129 10.9104 66.9645 11.1541L74.5442 15.2291C75.6848 15.8432 75.627 17.4979 74.4458 18.0291L66.6004 21.5666C66.1317 21.7776 65.7973 22.2072 65.7051 22.7119L64.1708 31.1791C63.9395 32.4541 62.3473 32.9104 61.477 31.951L55.6895 25.5822C55.3442 25.201 54.8333 25.0151 54.3223 25.0854L45.7958 26.2432C44.5129 26.4182 43.5864 25.0447 44.2286 23.9197L48.4958 16.4479C48.7504 16.001 48.7692 15.4572 48.5458 14.9947L44.8098 7.24318C44.2473 6.07599 45.2676 4.7713 46.5348 5.03536L54.9598 6.78536C55.4629 6.89005 55.9864 6.74005 56.3583 6.3838L62.5801 0.435364C63.5161 -0.459948 65.0723 0.107239 65.2129 1.39318Z" fill="#FF7E27"/>
<path d="M14.7904 1.39318L13.8514 9.94786C13.7951 10.4588 13.4904 10.9104 13.0389 11.1541L5.45919 15.2291C4.31856 15.8432 4.37638 17.4979 5.55763 18.0291L13.4029 21.5666C13.8717 21.7776 14.2061 22.2072 14.2983 22.7119L15.8326 31.1791C16.0639 32.4541 17.6561 32.9104 18.5264 31.951L24.3139 25.5822C24.6592 25.201 25.1701 25.0151 25.6811 25.0854L34.2076 26.2432C35.4904 26.4182 36.417 25.0447 35.7748 23.9197L31.5076 16.4479C31.2529 16.001 31.2342 15.4572 31.4576 14.9947L35.1936 7.24318C35.7561 6.07599 34.7358 4.7713 33.4686 5.03536L25.0436 6.78536C24.5404 6.89005 24.017 6.74005 23.6451 6.3838L17.4233 0.435364C16.4873 -0.459948 14.9311 0.107239 14.7904 1.39318Z" fill="#FF7E27"/>
</g>
<defs>
<clipPath id="clip0_14012_69334">
<rect width="80" height="80" fill="white"/>
</clipPath>
</defs>
</svg>
