<svg width="11" height="11" viewBox="0 0 11 11" fill="none" xmlns="http://www.w3.org/2000/svg">
<path fill-rule="evenodd" clip-rule="evenodd" d="M9.5556 1.72924e-05C10.0734 1.76296e-05 10.4931 0.41975 10.4931 0.937518L10.4931 8.89247C10.4931 9.41024 10.0734 9.82997 9.5556 9.82997C9.03783 9.82997 8.6181 9.41024 8.6181 8.89247V3.20084L1.60065 10.2183C1.23453 10.5844 0.64094 10.5844 0.274824 10.2183C-0.0912928 9.85218 -0.0912928 9.25859 0.274824 8.89247L7.29228 1.87502L1.60065 1.87502C1.08288 1.87502 0.663149 1.45528 0.663149 0.937518C0.663149 0.41975 1.08288 1.76296e-05 1.60065 1.72924e-05H9.5556Z" fill="#222222"/>
</svg>
