<svg width="32" height="33" viewBox="0 0 32 33" fill="none" xmlns="http://www.w3.org/2000/svg">
<g id="Frame" clip-path="url(#clip0_10608_100064)">
<path id="Vector" opacity="0.5" d="M32 16.5002C32 13.4202 31.8438 10.6338 31.3813 9.02191C30.8375 7.13517 30.2437 5.41086 28.5875 3.88647C26.6125 2.06845 24.8188 1.45619 22.2188 0.950146C20.2875 0.575296 18.0375 0.494078 16.6313 0.500326H15.375C13.9688 0.494078 11.7188 0.575296 9.7875 0.950146C7.1875 1.45619 5.39375 2.06845 3.41875 3.88647C1.7625 5.41086 1.16875 7.13517 0.625 9.02191C0.15625 10.6338 0 13.4202 0 16.4939V16.5064C0 19.5802 0.15625 22.3666 0.61875 23.9784C1.1625 25.8652 1.75625 27.5895 3.4125 29.1139C5.3875 30.9319 7.18125 31.5441 9.78125 32.0502C12.0312 32.4875 14.7063 32.525 15.9812 32.4875L15.9937 32.5L16.0063 32.4875C17.2875 32.525 19.9625 32.4813 22.2062 32.0502C24.8062 31.5441 26.6 30.9319 28.575 29.1139C30.2313 27.5895 30.825 25.8652 31.3687 23.9784C31.8438 22.3666 32 19.5802 32 16.5002Z" fill="#473388"/>
<path id="Union" d="M18.3352 11.2113C18.2796 10.9832 18.25 10.745 18.25 10.5C18.25 8.84554 19.5955 7.5 21.25 7.5C22.9045 7.5 24.25 8.84554 24.25 10.5C24.25 12.1545 22.9045 13.5 21.25 13.5C20.3792 13.5 19.5941 13.1274 19.0456 12.5331L13.6203 15.6261C13.7047 15.9027 13.75 16.1961 13.75 16.5C13.75 16.8037 13.7047 17.097 13.6204 17.3735L19.0459 20.4666C19.5944 19.8725 20.3794 19.5 21.25 19.5C22.9045 19.5 24.25 20.8455 24.25 22.5C24.25 24.1545 22.9045 25.5 21.25 25.5C19.5954 25.5 18.25 24.1545 18.25 22.5C18.25 22.2549 18.2796 22.0165 18.3353 21.7883L12.8368 18.6536C12.2964 19.1773 11.5603 19.5 10.75 19.5C9.09554 19.5 7.75 18.1545 7.75 16.5C7.75 14.8455 9.09554 13.5 10.75 13.5C11.5601 13.5 12.2962 13.8226 12.8365 14.3461L18.3352 11.2113Z" fill="white"/>
</g>
<defs>
<clipPath id="clip0_10608_100064">
<rect width="32" height="32" fill="white" transform="translate(0 0.5)"/>
</clipPath>
</defs>
</svg>
