<svg width="24" height="31" viewBox="0 0 24 31" fill="none" xmlns="http://www.w3.org/2000/svg">
<path d="M13.3535 2.10626C15.5806 2.10626 18.1794 1.93973 20.3584 2.10333C22.2468 2.24451 23.723 3.64435 23.9961 5.50763H23.9971L24 26.7967C23.3205 31.0679 19.1467 30.2592 15.915 30.2752C12.8936 30.2905 9.30512 30.5005 6.34863 30.2791C4.47303 30.1386 2.97488 28.731 2.71094 26.8738L2.70801 5.5838C2.93295 3.68533 4.44039 2.24628 6.34863 2.10333C8.52675 1.93968 11.1264 2.10624 13.3535 2.10626ZM10.6465 0.0750122C12.8735 0.074976 15.4726 -0.0915594 17.6514 0.0720825C18.8575 0.162455 19.8941 0.767539 20.5576 1.67755C20.2041 1.54375 19.8252 1.45533 19.4277 1.4256C17.2489 1.262 14.6498 1.42852 12.4229 1.42853C10.1959 1.42851 7.59602 1.26198 5.41797 1.4256C3.50974 1.56856 2.00228 3.00858 1.77734 4.90704L1.78027 26.1971C1.87555 26.867 2.13359 27.4776 2.50977 27.992C1.18769 27.4873 0.211981 26.3065 0.00390625 24.8426L0 3.55255C0.225013 1.65421 1.7325 0.215075 3.64062 0.0720825C5.81882 -0.0915428 8.41939 0.0750122 10.6465 0.0750122ZM11.5938 4.66779C10.1289 4.6734 7.96915 4.48778 6.59961 4.67462C5.90563 4.7693 5.33274 5.38092 5.26855 6.06525C5.05275 8.3573 5.27727 11.3369 5.27246 13.7108V19.6326C5.27725 21.671 5.0519 24.4562 5.27246 26.3943C5.30276 26.6608 5.42031 26.9084 5.5918 27.116C5.60032 27.1263 5.60938 27.1362 5.61816 27.1463C5.64472 27.1769 5.67235 27.2065 5.70117 27.2352C5.71309 27.247 5.72502 27.2588 5.7373 27.2703C5.81609 27.3441 5.90194 27.4106 5.99316 27.4686C6.00477 27.4759 6.01655 27.483 6.02832 27.4901C6.06184 27.5102 6.09614 27.5289 6.13086 27.5467C6.14655 27.5547 6.16183 27.5636 6.17773 27.5711C6.22378 27.593 6.27081 27.6122 6.31836 27.6297C6.32997 27.634 6.34183 27.6374 6.35352 27.6414C6.3916 27.6544 6.43003 27.6656 6.46875 27.6756C6.48661 27.6802 6.5045 27.6843 6.52246 27.6883C6.57216 27.6992 6.62172 27.71 6.67188 27.7156C6.91909 27.7435 7.18037 27.7631 7.45215 27.7781C7.70894 27.7924 7.97517 27.8013 8.24805 27.8065C8.53448 27.8118 8.82821 27.8134 9.12598 27.8113C10.0074 27.8051 10.9241 27.7726 11.791 27.7469C12.0832 27.7382 12.3698 27.7291 12.6475 27.7234C12.9192 27.7179 13.1829 27.7158 13.4346 27.7156C14.4292 27.7149 15.6058 27.7679 16.7705 27.7947C17.062 27.8015 17.3527 27.8063 17.6396 27.8084C18.0699 27.8116 18.4916 27.8089 18.8945 27.7947C19.2972 27.7806 19.6811 27.7556 20.0361 27.7156C20.0783 27.7109 20.1203 27.7036 20.1621 27.6951C20.4123 27.6445 20.6542 27.5287 20.8594 27.367C20.8935 27.3401 20.927 27.3124 20.959 27.283C21.0232 27.224 21.0829 27.1604 21.1367 27.0926C21.1636 27.0588 21.189 27.0239 21.2129 26.9881C21.2844 26.8809 21.3421 26.7656 21.3818 26.6443C21.3951 26.604 21.4058 26.5629 21.415 26.5213C21.4242 26.4796 21.4317 26.437 21.4365 26.3943C21.4552 26.2302 21.4691 26.0588 21.4805 25.8817C21.4941 25.6704 21.5026 25.4509 21.5078 25.2254C21.5085 25.1939 21.5102 25.1624 21.5107 25.1307C21.5127 25.0241 21.5122 24.9162 21.5127 24.8074C21.5144 24.4545 21.5114 24.0913 21.5029 23.7264C21.4801 22.7464 21.4337 21.7532 21.4365 20.9119L21.4395 19.8631C21.4448 17.4128 21.4421 14.9588 21.4365 12.5096H21.4355C21.4311 10.6307 21.5974 8.311 21.4688 6.43341C21.4602 6.30842 21.4498 6.18508 21.4385 6.06427C21.4314 5.9886 21.4198 5.91723 21.4062 5.84943C21.3839 5.73744 21.3539 5.63579 21.3154 5.54376C21.2726 5.44105 21.2196 5.35078 21.1592 5.27032C21.1529 5.26192 21.1471 5.25311 21.1406 5.24493C21.1281 5.22909 21.1148 5.21404 21.1016 5.19904C21.0912 5.18723 21.0811 5.17518 21.0703 5.16388C21.0269 5.11837 20.9799 5.07762 20.9307 5.03986C20.9255 5.0359 20.9203 5.03201 20.915 5.02814C20.8196 4.95724 20.7136 4.9018 20.6006 4.85529C20.5788 4.84634 20.5575 4.8361 20.5352 4.82794C20.4904 4.81156 20.4442 4.79836 20.3975 4.78497C20.3776 4.77928 20.3581 4.77161 20.3379 4.76642V4.7674C19.7347 4.61236 18.9925 4.67502 18.3945 4.66681V4.66876C17.7035 4.65917 17.0073 4.67277 16.3154 4.66876L11.5938 4.66779Z" fill="#565C6A"/>
<path d="M6.59961 4.67529C7.96915 4.48844 10.1289 4.67309 11.5938 4.66748L16.3154 4.66846C17.0073 4.67246 17.7035 4.65887 18.3945 4.66846V4.6665C19.5635 4.68255 21.2844 4.4219 21.4385 6.06494C21.6197 8.00054 21.4308 10.5055 21.4355 12.5093L21.4375 12.5103H21.4365C21.4421 14.9593 21.4448 17.4127 21.4395 19.8628L21.4365 20.9126V21.0698C21.4421 22.7107 21.6106 24.8671 21.4365 26.395C21.3586 27.0777 20.7084 27.6399 20.0361 27.7153C18.1421 27.9287 15.4242 27.7138 13.4346 27.7153C11.3999 27.7169 8.60783 27.9335 6.67188 27.7153C6.00136 27.6397 5.35038 27.0791 5.27246 26.395C5.05183 24.4567 5.27727 21.6709 5.27246 19.6323V13.7104C5.27724 11.3366 5.05275 8.35687 5.26855 6.06494C5.33289 5.38075 5.90574 4.76996 6.59961 4.67529ZM6.17773 26.646H7.38184V22.9146H6.17773V26.646ZM12.71 12.7739C10.4177 10.2557 6.06421 12.7285 7.25586 16.1646C7.28897 16.2599 7.32946 16.3479 7.36914 16.4282C7.24185 16.5219 7.09846 16.6327 6.97949 16.7427C6.91791 16.7996 6.83149 16.8848 6.75586 16.9888C6.72928 17.0253 6.69666 17.0787 6.66309 17.144C6.1987 17.7809 6.43856 18.5087 6.69043 18.8726C6.88306 19.1506 7.15728 19.3408 7.42871 19.4478C7.70208 19.5554 8.04662 19.607 8.40137 19.5181C8.41315 19.5152 8.42269 19.5148 8.42871 19.5132C8.48516 19.4978 8.531 19.4799 8.55664 19.4692C8.58318 19.4582 8.60729 19.4448 8.62891 19.4341C8.93516 20.2162 9.49451 20.8821 10.3076 21.3354C11.2341 21.8514 12.4777 22.0667 13.6367 22.0493C14.7931 22.0319 16.04 21.7804 16.9551 21.1968L16.9561 21.1958C17.6274 20.767 18.1044 20.134 18.3789 19.4302L18.4414 19.4663L18.5186 19.4937C18.8219 19.601 19.1582 19.631 19.4971 19.5269C19.8234 19.4265 20.0635 19.2287 20.2324 19.0415C20.5391 18.7014 20.6269 18.2917 20.6289 17.9771C20.6308 17.6714 20.5535 17.3383 20.3818 17.0659L20.3037 16.9419L20.1924 16.8481L19.6445 16.4146C19.927 15.782 20.0102 15.1325 19.9082 14.5132C19.766 13.6507 19.2806 12.9189 18.6357 12.4302C17.9907 11.9414 17.1547 11.6721 16.2861 11.7739C15.5697 11.858 14.8828 12.1884 14.3037 12.769C13.7603 12.6952 13.221 12.7088 12.71 12.7739ZM19.2939 10.4253H20.291V8.64404H19.2939V10.4253ZM19.2939 6.44482V7.59717H20.291V6.44482H19.2939Z" fill="#FF3875"/>
<path d="M12.116 13.7778C12.8804 13.6238 13.6887 13.5798 14.4512 13.7798C16.4957 11.057 20.2755 13.9234 18.2426 16.6507C18.2426 16.6507 19.3056 17.4853 19.3992 17.5632C19.5247 17.7624 19.5713 18.1771 19.3444 18.4285C19.1489 18.6451 18.9255 18.7352 18.6244 18.6285C18.4487 18.5291 17.5287 17.9185 17.5287 17.9185C17.55 18.8977 17.0912 19.8912 16.2569 20.4238C14.8214 21.3396 12.0306 21.3564 10.5549 20.5345C9.57503 19.9883 9.07667 19.0434 9.07085 17.9192C9.07085 17.9192 8.04841 18.6376 7.97511 18.6292C7.70836 18.6961 7.39094 18.5606 7.24683 18.3525C7.1049 18.1475 7.0447 17.8471 7.26835 17.6182C7.23858 17.4513 8.19905 16.852 8.36538 16.7174C8.26377 16.4048 8.03724 16.188 7.92592 15.867C7.00299 13.2057 10.5976 11.4369 12.116 13.7778ZM9.89217 14.06C9.07214 14.2127 8.87409 15.3363 9.49154 15.8521C9.60933 15.8773 9.90123 15.3285 10.0054 15.2062C10.2514 14.9182 10.5789 14.6341 10.8779 14.3991C10.7329 14.0367 10.2358 13.9959 9.89217 14.06ZM15.7204 14.4308C16.3139 14.724 16.6944 15.3142 17.0446 15.8527C17.6018 15.5815 17.607 14.6955 17.1721 14.3033C16.7915 13.961 15.9281 13.8749 15.7204 14.4308ZM16.0427 16.9497C15.1528 14.3098 11.4526 14.3299 10.5549 16.9497H16.0427ZM16.1721 18.2408H10.4261C10.5789 19.4291 11.8953 19.7372 12.9089 19.7935C14.0583 19.8569 16.0194 19.6847 16.1721 18.2408Z" fill="#FF3875"/>
<path d="M16.0428 16.9497H10.5557C11.4534 14.3299 15.1535 14.3098 16.0434 16.9497H16.0428Z" fill="white"/>
<path d="M16.1718 18.2408C16.019 19.6847 14.058 19.8568 12.9085 19.7934C11.895 19.7371 10.5792 19.429 10.4258 18.2408H16.1718Z" fill="white"/>
<path d="M9.89241 14.0601C10.2361 13.9961 10.7331 14.0368 10.8781 14.3986C10.5798 14.6342 10.2516 14.9177 10.0057 15.2057C9.90082 15.328 9.60958 15.8768 9.49178 15.8516C8.87434 15.3357 9.07238 14.2122 9.89241 14.0595V14.0601Z" fill="white"/>
<path d="M15.7207 14.4308C15.9285 13.8755 16.7918 13.9609 17.1724 14.3033C17.608 14.6955 17.6028 15.5815 17.0449 15.8526C16.6941 15.3142 16.3136 14.7239 15.7207 14.4308Z" fill="white"/>
</svg>
