<svg width="16" height="16" viewBox="0 0 16 16" fill="none" xmlns="http://www.w3.org/2000/svg">
<g id="Add image">
<path id="Vector" fill-rule="evenodd" clip-rule="evenodd" d="M3.66675 5.66602C3.66675 4.56145 4.56218 3.66602 5.66675 3.66602C6.77135 3.66602 7.66675 4.56145 7.66675 5.66602C7.66675 6.77062 6.77135 7.66602 5.66675 7.66602C4.56218 7.66602 3.66675 6.77062 3.66675 5.66602Z" fill="#222222"/>
<path id="Vector_2" fill-rule="evenodd" clip-rule="evenodd" d="M8.33201 2.00391H5.17115C4.63452 2.0039 4.1916 2.00389 3.83081 2.0304C3.45608 2.05794 3.11161 2.11704 2.78805 2.26531C2.28629 2.49524 1.87834 2.86214 1.62268 3.31341C1.45782 3.60441 1.39211 3.91422 1.36149 4.25124C1.33202 4.57573 1.33202 4.97406 1.33203 5.4567V10.5427C1.33202 11.0254 1.33202 11.4237 1.36149 11.7482C1.39211 12.0852 1.45782 12.395 1.62268 12.686C1.87834 13.1373 2.28629 13.5041 2.78805 13.7341C3.11161 13.8824 3.45608 13.9415 3.83081 13.969C3.94773 13.9776 4.07328 13.9834 4.20785 13.9873C4.34739 13.9957 4.51429 13.9956 4.68632 13.9956C6.90155 13.9956 9.11674 13.9955 11.332 13.9955C11.363 13.9955 11.3936 13.9955 11.4237 13.9955C11.954 13.9958 12.3477 13.996 12.6889 13.9138C13.6091 13.692 14.3279 13.0455 14.5745 12.2179C14.6913 11.8256 14.6655 11.4056 14.6653 11.0033C14.6665 10.8898 14.6654 10.7762 14.6654 10.6627C14.6657 10.3816 14.6661 10.1338 14.5935 9.89719C14.5299 9.68944 14.4253 9.49368 14.2847 9.3192C14.1245 9.12044 13.9092 8.96587 13.6649 8.79049L11.7775 7.43256C11.6643 7.35108 11.5523 7.2705 11.4506 7.20808C11.3375 7.13865 11.1983 7.06652 11.0241 7.02635C10.7793 6.96987 10.5215 6.97718 10.2811 7.04745C10.1101 7.0974 9.97621 7.17726 9.86821 7.25293C9.77108 7.32104 9.66501 7.4078 9.55768 7.49558L3.88566 12.1331C3.74335 12.2494 3.60577 12.3619 3.50463 12.4603C3.46407 12.4998 3.40247 12.5611 3.34489 12.6423C3.11621 12.5266 2.93018 12.3525 2.81069 12.1416C2.75756 12.0478 2.71427 11.9134 2.69039 11.6505C2.66588 11.3807 2.66536 11.0315 2.66536 10.5179V5.48147C2.66536 4.96788 2.66588 4.61875 2.69039 4.34889C2.71427 4.08602 2.75756 3.95159 2.81069 3.85782C2.93851 3.63219 3.14249 3.44873 3.39337 3.33377C3.49764 3.28599 3.64711 3.24706 3.93938 3.22558C4.23944 3.20353 4.62764 3.20307 5.19869 3.20307H8.33201C8.70021 3.20307 8.99868 2.93463 8.99868 2.60349C8.99868 2.27235 8.70021 2.00391 8.33201 2.00391Z" fill="#222222"/>
<path id="Exclude" fill-rule="evenodd" clip-rule="evenodd" d="M9.61768 3.31211C9.61768 1.71307 10.9186 0.412109 12.5177 0.412109C14.1167 0.412109 15.4177 1.71307 15.4177 3.31211C15.4177 4.91115 14.1167 6.21211 12.5177 6.21211C10.9186 6.21211 9.61768 4.91115 9.61768 3.31211ZM12.9488 1.89896C12.9488 1.67552 12.7612 1.49235 12.5006 1.49235C12.24 1.49235 12.0574 1.67493 12.0574 1.90943V2.86817L11.0569 2.8577C10.8422 2.8577 10.6969 3.03862 10.6969 3.30445C10.6969 3.57027 10.8436 3.75033 11.0569 3.75033L12.0574 3.7608V4.71039C12.0574 4.94584 12.2148 5.13171 12.5006 5.13171C12.7864 5.13171 12.9488 4.94408 12.9488 4.69992V3.75033H13.9449C14.1826 3.75033 14.3383 3.55516 14.3383 3.30445C14.3383 3.05374 14.1826 2.8577 13.9449 2.8577L12.9488 2.8577V1.89896Z" fill="#222222"/>
</g>
</svg>
