<svg width="20" height="20" viewBox="0 0 20 20" fill="none" xmlns="http://www.w3.org/2000/svg">
<g id="Shopping">
<g id="Vector">
<path d="M13.3111 7.79006C13.3678 7.85246 13.4088 7.92756 13.4305 8.00906C13.445 8.09138 13.445 8.1756 13.4305 8.25792C13.2674 9.05266 12.8342 9.76644 12.2046 10.2781C11.5749 10.7898 10.7877 11.0679 9.97634 11.0651C10.7972 11.07 11.5943 10.7899 12.2315 10.2724C12.8688 9.75502 13.3067 9.03242 13.4703 8.22805C13.4852 8.13907 13.4852 8.04826 13.4703 7.95928C13.4409 7.876 13.3971 7.7985 13.3409 7.73033C13.2811 7.66117 13.2062 7.60668 13.1219 7.57106C13.0415 7.53131 12.9529 7.51086 12.8631 7.51134C12.9497 7.51092 13.0351 7.53141 13.112 7.57106C13.1969 7.62479 13.2657 7.70045 13.3111 7.79006Z" fill="#222222" fill-opacity="0.6"/>
<path d="M7.7565 10.3085C8.39152 10.8197 9.18108 11.1004 9.99625 11.1049C10.8076 11.1077 11.5949 10.8296 12.2245 10.3179C12.8541 9.80626 13.2873 9.09248 13.4504 8.29774C13.4649 8.21542 13.4649 8.13119 13.4504 8.04888C13.4245 7.96911 13.384 7.89485 13.331 7.82988C13.2757 7.76935 13.2077 7.72176 13.1319 7.69052C13.055 7.65086 12.9696 7.63037 12.883 7.63078C12.7363 7.62907 12.5943 7.68234 12.4849 7.7801C12.3681 7.87091 12.2899 8.00245 12.2659 8.14842C12.1591 8.66207 11.8777 9.12287 11.4695 9.45245C11.0622 9.78133 10.5546 9.96072 10.0311 9.96072C9.50761 9.96072 8.99994 9.78133 8.59268 9.45245C8.18449 9.12287 7.90308 8.66207 7.79632 8.14842C7.77581 8.0036 7.7011 7.87196 7.58728 7.7801C7.47338 7.68328 7.32864 7.63032 7.17914 7.63078C7.0894 7.63031 7.00079 7.65076 6.92033 7.69052C6.8361 7.72614 6.76118 7.78063 6.70134 7.84978C6.64516 7.91796 6.60137 7.99545 6.57193 8.07874C6.55219 8.16724 6.55219 8.259 6.57193 8.3475C6.73734 9.11487 7.15424 9.80504 7.7565 10.3085Z" fill="#222222" fill-opacity="0.6"/>
<path d="M16.9544 16.8287L16.4865 6.87425C16.4649 6.4146 16.2691 5.9804 15.939 5.65981C15.6063 5.34345 15.1638 5.16857 14.7047 5.17204H13.5599V4.77387C13.5599 3.83928 13.1887 2.94297 12.5278 2.28212C11.867 1.62126 10.9707 1.25 10.0361 1.25C9.10147 1.25 8.20516 1.62126 7.54431 2.28212C6.88346 2.94297 6.51219 3.83928 6.51219 4.77387V5.17204H5.29775C4.83793 5.1691 4.39498 5.34504 4.06248 5.66267C3.72998 5.98031 3.53399 6.41477 3.51592 6.87425L3.04806 16.8884C3.0347 17.1291 3.072 17.3698 3.15756 17.5952C3.24105 17.8212 3.36976 18.0278 3.53582 18.2024C3.70028 18.3787 3.90052 18.5179 4.12313 18.6105C4.3431 18.7052 4.58049 18.7527 4.81995 18.7499H15.1626C15.2771 18.7414 15.3905 18.7214 15.501 18.6902C15.9151 18.5844 16.2824 18.3443 16.5454 18.0075C16.8084 17.6706 16.9523 17.256 16.9544 16.8287ZM12.2758 5.13223H7.71668V4.73405C7.71668 4.12947 7.95685 3.54965 8.38435 3.12215C8.81185 2.69465 9.39167 2.4554 9.99624 2.4554C10.6008 2.4554 11.1806 2.69465 11.6081 3.12215C12.0356 3.54965 12.2758 4.12947 12.2758 4.73405V5.13223ZM4.31227 16.9083L4.78013 6.95388C4.78268 6.81212 4.84014 6.67687 4.9404 6.57661C5.04066 6.47635 5.1759 6.4189 5.31767 6.41634H14.7147C14.8585 6.41416 14.9976 6.46766 15.1029 6.56566C15.1968 6.67345 15.2497 6.81093 15.2522 6.95388L15.73 16.968C15.7442 17.037 15.7442 17.1081 15.73 17.1771C15.7097 17.2482 15.6721 17.3132 15.6205 17.3662C15.5698 17.4181 15.5088 17.4589 15.4413 17.4857C15.3691 17.5007 15.2945 17.5007 15.2223 17.4857H4.8299C4.75755 17.4994 4.68326 17.4994 4.6109 17.4857C4.54474 17.4565 4.48412 17.4161 4.43172 17.3662C4.38729 17.3081 4.35049 17.2445 4.32222 17.1771C4.28928 17.1056 4.27887 17.0257 4.29236 16.9481L4.31227 16.9083ZM10.0162 1.25C9.78889 1.25295 9.56235 1.27627 9.33926 1.31968C9.55698 1.29077 9.7768 1.28078 9.99624 1.28982L10.0162 1.25ZM7.647 2.19567C7.93741 1.91445 8.27416 1.68546 8.64244 1.51877C8.24994 1.6913 7.89233 1.93421 7.58727 2.23549L7.647 2.19567Z" fill="#222222" fill-opacity="0.6"/>
</g>
</g>
</svg>
