<svg width="32" height="33" viewBox="0 0 32 33" fill="none" xmlns="http://www.w3.org/2000/svg">
<g id="Frame" clip-path="url(#clip0_10467_59135)">
<path id="Vector" opacity="0.5" d="M32 16.5002C32 13.4202 31.8438 10.6338 31.3813 9.02191C30.8375 7.13517 30.2437 5.41086 28.5875 3.88647C26.6125 2.06845 24.8188 1.45619 22.2188 0.950146C20.2875 0.575296 18.0375 0.494078 16.6313 0.500326H15.375C13.9688 0.494078 11.7188 0.575296 9.7875 0.950146C7.1875 1.45619 5.39375 2.06845 3.41875 3.88647C1.7625 5.41086 1.16875 7.13517 0.625 9.02191C0.15625 10.6338 0 13.4202 0 16.4939V16.5064C0 19.5802 0.15625 22.3666 0.61875 23.9784C1.1625 25.8652 1.75625 27.5895 3.4125 29.1139C5.3875 30.9319 7.18125 31.5441 9.78125 32.0502C12.0312 32.4875 14.7063 32.525 15.9812 32.4875L15.9937 32.5L16.0063 32.4875C17.2875 32.525 19.9625 32.4813 22.2062 32.0502C24.8062 31.5441 26.6 30.9319 28.575 29.1139C30.2313 27.5895 30.825 25.8652 31.3687 23.9784C31.8438 22.3666 32 19.5802 32 16.5002Z" fill="#473388"/>
<path id="Vector_2" d="M24.1794 15.2474H10.8567L16.2525 9.85374C16.7472 9.35923 16.7472 8.5657 16.2525 8.07694C15.7578 7.58243 14.964 7.58243 14.475 8.07694L6.93353 15.6097C6.43882 16.1042 6.43882 16.8977 6.93353 17.3865L14.4808 24.9307C14.7281 25.1779 15.0445 25.2987 15.3724 25.2987C15.6945 25.2987 16.0167 25.1779 16.264 24.9307C16.7587 24.4362 16.7587 23.6426 16.264 23.1539L10.8682 17.7602H24.1794C24.8755 17.7602 25.4392 17.2024 25.4392 16.5009C25.4335 15.8052 24.8755 15.2474 24.1794 15.2474Z" fill="white"/>
</g>
<defs>
<clipPath id="clip0_10467_59135">
<rect width="32" height="32" fill="white" transform="translate(0 0.5)"/>
</clipPath>
</defs>
</svg>
