<svg width="26" height="26" viewBox="0 0 26 26" fill="none" xmlns="http://www.w3.org/2000/svg">
<ellipse cx="6.57969" cy="5.94023" rx="3.9918" ry="4.04728" fill="#565C6A"/>
<ellipse cx="19.1461" cy="10.737" rx="3.9918" ry="4.04728" fill="#FF3875"/>
<path d="M6.83789 10.9619C3.06143 10.9619 0 14.0659 0 17.8948H13.6758C13.6758 14.0659 10.6144 10.9619 6.83789 10.9619Z" fill="#FF3875"/>
<path d="M19.1621 16.2833C15.3856 16.2833 12.3242 19.3873 12.3242 23.2163H26C26 19.3873 22.9386 16.2833 19.1621 16.2833Z" fill="#565C6A"/>
<path d="M26.0003 0V3.87597H23.9728V2.05576H15.3027V0H26.0003Z" fill="#565C6A"/>
<path d="M0.000638962 26L0.000639296 22.124L2.02822 22.124L2.02822 23.9442L10.6982 23.9442L10.6982 26L0.000638962 26Z" fill="#565C6A"/>
</svg>
