<svg width="17" height="17" viewBox="0 0 17 17" fill="none" xmlns="http://www.w3.org/2000/svg">
<path fill-rule="evenodd" clip-rule="evenodd" d="M8.25 0C3.69365 0 0 3.69365 0 8.25C0 12.8063 3.69365 16.5 8.25 16.5C12.8063 16.5 16.5 12.8063 16.5 8.25C16.5 3.69365 12.8063 0 8.25 0ZM8.25015 2.25C8.4708 2.25001 8.6802 2.34714 8.8227 2.51555L12.9475 7.39058C13.0993 7.56998 13.1583 7.81013 13.1068 8.0394C13.0553 8.26868 12.8993 8.46053 12.6853 8.5578L8.5605 10.4328C8.36332 10.5224 8.13698 10.5224 7.9398 10.4328L3.81466 8.5578C3.60073 8.46053 3.44474 8.26868 3.39324 8.0394C3.34174 7.81013 3.40068 7.5699 3.55248 7.3905L7.6776 2.51553C7.8201 2.34713 8.02958 2.24999 8.25015 2.25ZM3.44222 10.5645C3.61362 10.1874 4.05826 10.0207 4.43534 10.1921L8.25015 11.926L12.0647 10.1921C12.4418 10.0207 12.8864 10.1874 13.0578 10.5644C13.2292 10.9415 13.0624 11.3862 12.6853 11.5576L8.5605 13.4326C8.36332 13.5222 8.13698 13.5222 7.9398 13.4326L3.81466 11.5576C3.43757 11.3862 3.27083 10.9415 3.44222 10.5645Z" fill="white"/>
</svg>
