<svg width="20" height="20" viewBox="0 0 20 20" fill="none" xmlns="http://www.w3.org/2000/svg">
<g id="invite-people" clip-path="url(#clip0_7463_57824)">
<g id="Vector">
<path d="M12.7002 10.0014C11.9277 10.0014 11.1852 9.65637 10.6002 9.03387C10.034 8.42637 9.68521 7.61262 9.62521 6.74637C9.56146 5.82387 9.84271 4.97262 10.4165 4.35387C10.9902 3.73887 11.8002 3.40137 12.7002 3.40137C13.5927 3.40137 14.4027 3.74262 14.9765 4.35762C15.5577 4.98012 15.839 5.82762 15.7715 6.74262C15.7077 7.60887 15.3627 8.42262 14.7965 9.03012C14.2152 9.65637 13.4727 10.0014 12.7002 10.0014ZM12.7002 4.60137C12.1377 4.60137 11.639 4.80387 11.2977 5.17137C10.9452 5.55012 10.784 6.06387 10.8252 6.66012C10.8665 7.25262 11.099 7.80762 11.4815 8.21637C11.834 8.59512 12.269 8.80137 12.7002 8.80137C13.1352 8.80137 13.5665 8.59137 13.919 8.21637C14.3015 7.80762 14.534 7.25637 14.5752 6.66012C14.6165 6.08262 14.4477 5.55387 14.0952 5.17887C13.754 4.80387 13.2552 4.60137 12.7002 4.60137Z" fill="#222222"/>
<path d="M17.6427 16.6014H7.75773C7.43148 16.6014 7.13148 16.4552 6.93273 16.2002C6.72648 15.9339 6.65148 15.5739 6.73398 15.2327C7.04898 13.9652 7.83273 12.9152 8.99523 12.1914C10.0265 11.5502 11.3427 11.1977 12.6965 11.1977C14.0765 11.1977 15.359 11.5352 16.3977 12.1764C17.564 12.8927 18.3477 13.9502 18.6627 15.2327C18.7452 15.5739 18.6702 15.9339 18.464 16.2002C18.269 16.4552 17.969 16.6014 17.6427 16.6014ZM7.93398 15.4014H17.4702C16.8515 13.1889 14.5302 12.4014 12.7002 12.4014C10.8777 12.4014 8.56023 13.1889 7.93398 15.4014Z" fill="#222222"/>
<path d="M5.61271 10.1513C4.29271 10.1513 3.13396 8.92504 3.02521 7.41754C2.96896 6.64504 3.20896 5.93254 3.69646 5.40754C4.18021 4.89004 4.85896 4.60504 5.60896 4.60504C6.35521 4.60504 7.03396 4.89379 7.51771 5.41504C8.00896 5.94379 8.24896 6.65629 8.19271 7.42129C8.09146 8.92504 6.92896 10.1513 5.61271 10.1513ZM5.61271 5.80129C5.20021 5.80129 4.83271 5.95129 4.57771 6.22504C4.31521 6.50629 4.19146 6.88879 4.22521 7.33129C4.28896 8.20879 4.92271 8.95129 5.61271 8.95129C6.30271 8.95129 6.94021 8.20879 7.00021 7.33129C7.03021 6.90004 6.90271 6.51004 6.64396 6.22879C6.38896 5.95129 6.02146 5.80129 5.61271 5.80129Z" fill="#222222"/>
<path d="M5.87522 15.4013H1.66397C1.36772 15.4013 1.09397 15.2663 0.910224 15.0375C0.722724 14.7975 0.655224 14.4675 0.730224 14.16C0.988974 13.1138 1.63397 12.2513 2.59022 11.6588C3.43397 11.1375 4.50647 10.8488 5.60897 10.8488C6.55397 10.8488 7.36022 11.0063 8.07272 11.3325C8.37272 11.4713 8.50772 11.8275 8.36897 12.1275C8.23022 12.4275 7.87397 12.5625 7.57397 12.4238C7.02272 12.1725 6.38147 12.0488 5.61272 12.0488C4.24397 12.0488 2.51522 12.6188 1.96772 14.205H5.87522C6.20522 14.205 6.47522 14.475 6.47522 14.805C6.47522 15.135 6.20522 15.4013 5.87522 15.4013Z" fill="#222222"/>
</g>
<path id="Vector_2" d="M17.1328 4.54666V3.48532H18.1941C18.4276 3.48532 18.6187 3.29428 18.6187 3.06079C18.6187 2.8273 18.4276 2.63626 18.1941 2.63626H17.1328V1.57492C17.1328 1.34143 16.9417 1.15039 16.7083 1.15039C16.4748 1.15039 16.2837 1.34143 16.2837 1.57492V2.63626H15.2224C14.9889 2.63626 14.7979 2.8273 14.7979 3.06079C14.7979 3.29428 14.9889 3.48532 15.2224 3.48532H16.2837V4.54666C16.2837 4.78015 16.4748 4.97119 16.7083 4.97119C16.9417 4.97119 17.1328 4.78015 17.1328 4.54666Z" fill="#1F1F1F"/>
</g>
<defs>
<clipPath id="clip0_7463_57824">
<rect width="19.2" height="19.2" fill="white" transform="translate(0.100586 0.401367)"/>
</clipPath>
</defs>
</svg>
