<svg width="25" height="28" viewBox="0 0 25 28" fill="none" xmlns="http://www.w3.org/2000/svg">
<g clip-path="url(#clip0_4791_161724)">
<path d="M0 25.1013H25V27.0833H0V25.1013Z" fill="#565C6A"/>
<path d="M24.1836 23.5144H0.817451C1.4398 22.4617 1.77224 21.2567 1.77224 19.9999V7.08346C1.77224 5.82662 1.4398 4.62109 0.817451 3.56897H24.1836C23.5612 4.62162 23.2288 5.82662 23.2288 7.08346V19.9999C23.2288 21.2567 23.5612 22.4622 24.1836 23.5144ZM12.5003 7.14058C8.99043 7.14058 6.14496 10.0066 6.14496 13.5417C6.14496 17.0768 8.99043 19.9427 12.5003 19.9427C16.0101 19.9427 18.8556 17.0768 18.8556 13.5417C18.8556 10.0066 16.0101 7.14058 12.5003 7.14058Z" fill="#565C6A"/>
<path d="M0 0H25V1.98206H0V0Z" fill="#565C6A"/>
<path d="M14.9688 13.9303C14.838 14.7781 14.2734 15.5253 13.4834 15.858C11.9455 16.5062 10.285 15.5314 10.0322 13.9303H7.1416C7.23224 15.5149 8.08346 17.0206 9.35547 17.942C11.1405 19.2354 13.533 19.3035 15.3877 18.1139C16.7996 17.2089 17.7615 15.6238 17.8574 13.9303H14.9688ZM13.7334 8.26624C10.4915 7.50435 7.35837 9.85267 7.14453 13.15H10.0303C10.1826 12.1568 10.9235 11.3331 11.9033 11.0944C13.3484 10.7426 14.7444 11.7122 14.9688 13.15H17.8604C17.7242 10.8072 16.001 8.79901 13.7334 8.26624Z" fill="#FF3875"/>
<path d="M12.7414 11.6798C10.1845 11.3734 9.90927 15.2744 12.3729 15.4176C14.7876 15.5579 15.0491 11.9564 12.7414 11.6798ZM12.6586 12.7437C13.6044 12.9056 13.4389 14.4579 12.4192 14.3502C11.3553 14.2377 11.5388 12.5519 12.6586 12.7437Z" fill="#FF3875"/>
</g>
<defs>
<clipPath id="clip0_4791_161724">
<rect width="25" height="27.0833" fill="white" transform="matrix(-1 0 0 1 25 0)"/>
</clipPath>
</defs>
</svg>
