<svg width="33" height="33" viewBox="0 0 33 33" fill="none" xmlns="http://www.w3.org/2000/svg">
<g id="vending-machine 1" clip-path="url(#clip0_7869_24497)">
<g id="37.Vending Machine">
<path id="Vector" d="M25.6812 0.976562H8.17059C7.32869 0.976563 6.52128 1.311 5.92597 1.90632C5.33066 2.50163 4.99622 3.30904 4.99622 4.15094V28.4272C4.99622 29.2691 5.33066 30.0765 5.92597 30.6718C6.52128 31.2671 7.32869 31.6016 8.17059 31.6016H25.6812C26.5231 31.6016 27.3305 31.2671 27.9258 30.6718C28.5211 30.0765 28.8556 29.2691 28.8556 28.4272V4.15094C28.8556 3.30904 28.5211 2.50163 27.9258 1.90632C27.3305 1.311 26.5231 0.976563 25.6812 0.976562ZM8.16059 6.64156C8.16059 6.14428 8.35813 5.66737 8.70977 5.31574C9.0614 4.96411 9.53831 4.76656 10.0356 4.76656H20.1606C20.6579 4.76656 21.1348 4.96411 21.4864 5.31574C21.838 5.66737 22.0356 6.14428 22.0356 6.64156V18.0309C22.0356 18.5282 21.838 19.0051 21.4864 19.3568C21.1348 19.7084 20.6579 19.9059 20.1606 19.9059H10.0356C9.53831 19.9059 9.0614 19.7084 8.70977 19.3568C8.35813 19.0051 8.16059 18.5282 8.16059 18.0309V6.64156ZM25.9337 24.2666C25.9337 24.7141 25.7559 25.1433 25.4395 25.4598C25.123 25.7763 24.6938 25.9541 24.2462 25.9541H9.25372C8.80616 25.9541 8.37694 25.7763 8.06047 25.4598C7.74401 25.1433 7.56622 24.7141 7.56622 24.2666C7.56622 23.819 7.74401 23.3898 8.06047 23.0733C8.37694 22.7569 8.80616 22.5791 9.25372 22.5791H24.2462C24.6938 22.5791 25.123 22.7569 25.4395 23.0733C25.7559 23.3898 25.9337 23.819 25.9337 24.2666ZM25.1912 17.6528C24.9225 17.6528 24.6598 17.5731 24.4363 17.4238C24.2129 17.2745 24.0387 17.0623 23.9359 16.814C23.8331 16.5658 23.8061 16.2926 23.8586 16.029C23.911 15.7654 24.0404 15.5233 24.2304 15.3333C24.4205 15.1433 24.6626 15.0138 24.9261 14.9614C25.1897 14.909 25.4629 14.9359 25.7112 15.0387C25.9595 15.1416 26.1717 15.3157 26.321 15.5392C26.4703 15.7626 26.55 16.0253 26.55 16.2941C26.55 16.6544 26.4068 17 26.152 17.2548C25.8972 17.5097 25.5516 17.6528 25.1912 17.6528ZM25.1912 13.2778C24.9225 13.2778 24.6598 13.1981 24.4363 13.0488C24.2129 12.8995 24.0387 12.6873 23.9359 12.439C23.8331 12.1908 23.8061 11.9176 23.8586 11.654C23.911 11.3904 24.0404 11.1483 24.2304 10.9583C24.4205 10.7683 24.6626 10.6388 24.9261 10.5864C25.1897 10.534 25.4629 10.5609 25.7112 10.6637C25.9595 10.7666 26.1717 10.9407 26.321 11.1642C26.4703 11.3876 26.55 11.6503 26.55 11.9191C26.55 12.2794 26.4068 12.625 26.152 12.8798C25.8972 13.1347 25.5516 13.2778 25.1912 13.2778ZM25.1912 8.90281C24.9225 8.90281 24.6598 8.82312 24.4363 8.67382C24.2129 8.52452 24.0387 8.31231 23.9359 8.06403C23.8331 7.81575 23.8061 7.54255 23.8586 7.27898C23.911 7.01541 24.0404 6.77331 24.2304 6.58328C24.4205 6.39326 24.6626 6.26385 24.9261 6.21142C25.1897 6.15899 25.4629 6.1859 25.7112 6.28874C25.9595 6.39158 26.1717 6.56574 26.321 6.78918C26.4703 7.01263 26.55 7.27533 26.55 7.54406C26.55 7.90443 26.4068 8.25003 26.152 8.50484C25.8972 8.75966 25.5516 8.90281 25.1912 8.90281Z" fill="#868196"/>
<path id="Vector_2" d="M22.0349 10.3672H8.15991C8.06046 10.3672 7.96507 10.3277 7.89475 10.2574C7.82442 10.187 7.78491 10.0916 7.78491 9.99219C7.78491 9.89273 7.82442 9.79735 7.89475 9.72702C7.96507 9.6567 8.06046 9.61719 8.15991 9.61719H22.0349C22.1344 9.61719 22.2298 9.6567 22.3001 9.72702C22.3704 9.79735 22.4099 9.89273 22.4099 9.99219C22.4099 10.0916 22.3704 10.187 22.3001 10.2574C22.2298 10.3277 22.1344 10.3672 22.0349 10.3672Z" fill="#868196"/>
<path id="Vector_3" d="M22.0349 15.0547H8.15991C8.06046 15.0547 7.96507 15.0152 7.89475 14.9449C7.82442 14.8745 7.78491 14.7791 7.78491 14.6797C7.78491 14.5802 7.82442 14.4848 7.89475 14.4145C7.96507 14.3442 8.06046 14.3047 8.15991 14.3047H22.0349C22.1344 14.3047 22.2298 14.3442 22.3001 14.4145C22.3704 14.4848 22.4099 14.5802 22.4099 14.6797C22.4099 14.7791 22.3704 14.8745 22.3001 14.9449C22.2298 15.0152 22.1344 15.0547 22.0349 15.0547Z" fill="#868196"/>
</g>
</g>
<defs>
<clipPath id="clip0_7869_24497">
<rect width="32" height="32" fill="white" transform="translate(0.75 0.5)"/>
</clipPath>
</defs>
</svg>
