<svg width="35" height="25" viewBox="0 0 35 25" fill="none" xmlns="http://www.w3.org/2000/svg">
<rect x="0.5" y="1" width="34" height="23" rx="3.5" fill="white" stroke="#D9D9D9"/>
<path d="M22.5029 9.43997C23.7425 9.44006 24.9109 10.5569 24.918 12.606C24.918 14.8457 23.7639 15.8636 22.4961 15.8638C21.873 15.8638 21.4972 15.6022 21.2422 15.4185L21.2344 17.4175L19.4639 17.7925V9.55325H21.0225L21.1143 9.99173C21.3622 9.76562 21.8088 9.43997 22.5029 9.43997ZM7.39453 9.43997C7.98216 9.44001 8.56276 9.53218 9.15039 9.76517V11.4263C8.61221 11.1367 7.93274 10.9742 7.39453 10.9742C7.01925 10.9742 6.79216 11.0797 6.79199 11.355C6.79199 12.1464 9.4906 11.7723 9.49805 13.8775C9.49805 15.1423 8.48502 15.8706 7.01172 15.8706C6.40256 15.8706 5.73686 15.7499 5.07812 15.4673V13.7857C5.67312 14.1107 6.42381 14.3511 7.01172 14.3511C7.40829 14.3511 7.69132 14.2453 7.69141 13.9204C7.69141 13.0796 5 13.3902 5 11.44C5.00007 10.1894 5.95666 9.43997 7.39453 9.43997ZM11.5732 9.56009H12.9189V11.0659H11.5732V13.5738C11.5732 14.6195 12.6922 14.2945 12.9189 14.2027V15.6372C12.6852 15.7644 12.2604 15.8706 11.6797 15.8706C10.6313 15.8706 9.84473 15.1 9.84473 14.0542L9.85156 8.39505L11.5801 8.02689L11.5732 9.56009ZM27.9424 9.43997C29.621 9.43997 30.4999 10.8676 30.5 12.6763C30.5 12.8457 30.4854 13.2128 30.4854 13.3052H27.0225C27.1004 14.139 27.7094 14.3794 28.3965 14.3794C29.0976 14.3794 29.6502 14.231 30.1318 13.9908V15.4038C29.6502 15.6723 29.0126 15.8637 28.1699 15.8638C26.4416 15.8638 25.2373 14.7894 25.2373 12.6626C25.2373 10.868 26.2568 9.44025 27.9424 9.43997ZM15.1221 10.0835C15.54 9.32039 16.369 9.4753 16.5957 9.56009V11.1861C16.3761 11.1083 15.6679 11.0093 15.25 11.5533V15.7437H13.4785V9.56009H15.0088L15.1221 10.0835ZM18.8057 15.7437H17.0273V9.56009H18.8057V15.7437ZM22.0781 11.0093C21.6744 11.0093 21.4185 11.1501 21.2344 11.355L21.2422 13.9771C21.4122 14.1607 21.6604 14.3091 22.0781 14.3091C22.7295 14.3089 23.1688 13.6023 23.1689 12.6558C23.1689 11.7303 22.7225 11.0096 22.0781 11.0093ZM27.9355 10.8745C27.4894 10.8746 27.001 11.2071 27.001 12.0054H28.8281C28.8281 11.2069 28.3676 10.8745 27.9355 10.8745ZM18.8057 8.64212L17.0273 9.02396V7.58157L18.8057 7.20755V8.64212Z" fill="#6461FC"/>
</svg>
