<svg width="74" height="74" viewBox="0 0 74 74" fill="none" xmlns="http://www.w3.org/2000/svg">
<path d="M17.0278 16.6383C22.9334 4.04384 41.8294 -2.91476 59.7354 4.59971L61.8247 0L68.7579 13.9929L53.6615 17.982L55.759 13.357C42.0189 6.73516 26.5179 9.83983 17.0278 16.6383ZM56.968 57.3619C51.0625 69.9521 32.1708 76.9148 14.2605 69.4003L12.1712 74L5.24219 60.0071L20.3386 56.018L18.2368 60.643C31.977 67.2648 47.4786 64.1603 56.968 57.3619Z" fill="#0288D1"/>
<path fill-rule="evenodd" clip-rule="evenodd" d="M15.1445 37.0001C15.1445 24.9606 24.9633 15.147 36.9977 15.147C49.0361 15.147 58.8505 24.9617 58.8508 37.0001C58.8508 49.0345 49.0361 58.8532 36.9977 58.8532C24.9631 58.8532 15.1445 49.0343 15.1445 37.0001ZM49.7184 49.7209C46.7754 52.6636 42.9031 54.4948 38.7613 54.9026C34.6195 55.3104 30.4645 54.2694 27.0041 51.9571C23.5437 49.6448 20.9922 46.2042 19.7842 42.2215C18.5762 38.2389 18.7865 33.9606 20.3792 30.1156C21.972 26.2706 24.8487 23.0968 28.5191 21.135C32.1895 19.1732 36.4267 18.5447 40.5085 19.3567C44.5904 20.1687 48.2644 22.3709 50.9046 25.588C53.5449 28.8052 54.9879 32.8383 54.9879 37.0001C54.9912 39.3631 54.5274 41.7034 53.6231 43.8865C52.7187 46.0696 51.3918 48.0524 49.7184 49.7209ZM26.8961 24.6973C29.7442 22.3616 33.3142 21.0857 36.9977 21.0872C39.0877 21.0847 41.1576 21.4954 43.0885 22.2957C45.0193 23.0959 46.7728 24.2698 48.2484 25.7501C50.853 28.3547 52.4738 31.7818 52.8347 35.4476C53.1955 39.1133 52.2741 42.7907 50.2273 45.8532C48.1806 48.9156 45.1353 51.1736 41.6103 52.2423C38.0853 53.3111 34.2988 53.1244 30.896 51.7141C27.4932 50.3038 24.6848 47.7572 22.9492 44.5083C21.2137 41.2593 20.6584 37.5091 21.3781 33.8966C22.0978 30.2842 24.0479 27.0331 26.8961 24.6973ZM38.038 46.731C39.1004 46.5244 40.0763 46.0034 40.8392 45.2356V45.2346C41.5993 44.4749 42.117 43.5068 42.3268 42.4528C42.5367 41.3988 42.4292 40.3062 42.0179 39.3133C41.6067 38.3204 40.9102 37.4718 40.0166 36.8748C39.123 36.2778 38.0723 35.9593 36.9977 35.9595C36.3825 35.9594 35.7792 35.7902 35.2537 35.4705C34.7281 35.1508 34.3005 34.6929 34.0176 34.1467C33.7346 33.6005 33.6072 32.987 33.6492 32.3733C33.6912 31.7596 33.9011 31.1692 34.2558 30.6667C34.6106 30.1641 35.0966 29.7687 35.6608 29.5236C36.225 29.2786 36.8457 29.1932 37.4551 29.2769C38.0646 29.3607 38.6393 29.6102 39.1165 29.9984C39.5937 30.3866 39.9551 30.8984 40.1612 31.478C40.2064 31.6075 40.2768 31.7267 40.3683 31.8288C40.4599 31.931 40.5707 32.014 40.6944 32.0731C40.8182 32.1323 40.9524 32.1664 41.0893 32.1734C41.2263 32.1805 41.3633 32.1604 41.4925 32.1142C41.6216 32.0681 41.7404 31.9969 41.8419 31.9047C41.9434 31.8125 42.0257 31.7012 42.084 31.577C42.1424 31.4529 42.1755 31.3185 42.1817 31.1815C42.1878 31.0445 42.1668 30.9076 42.1198 30.7787C41.7996 29.8917 41.2555 29.1025 40.5404 28.4878C39.8252 27.873 38.9633 27.4535 38.0383 27.27V24.8943C38.0383 24.6183 37.9286 24.3536 37.7335 24.1585C37.5383 23.9633 37.2736 23.8537 36.9977 23.8537C36.7217 23.8537 36.457 23.9633 36.2618 24.1585C36.0667 24.3536 35.957 24.6183 35.957 24.8943V27.2701C34.6314 27.5293 33.4498 28.2728 32.6424 29.3556C31.835 30.4385 31.4596 31.7832 31.5895 33.1277C31.7194 34.4721 32.3452 35.7201 33.345 36.6283C34.3448 37.5366 35.6469 38.0401 36.9977 38.0407C37.6123 38.0407 38.215 38.2096 38.7402 38.5288C39.2654 38.8481 39.6927 39.3055 39.9757 39.8511C40.2586 40.3967 40.3862 41.0096 40.3445 41.6228C40.3028 42.236 40.0935 42.8259 39.7393 43.3282C39.3852 43.8305 38.8999 44.2259 38.3363 44.4712C37.7728 44.7164 37.1527 44.8022 36.5437 44.719C35.9348 44.6359 35.3604 44.387 34.8832 43.9996C34.4061 43.6122 34.0445 43.1012 33.8381 42.5223C33.744 42.2644 33.5517 42.054 33.3032 41.9373C33.0547 41.8205 32.77 41.8068 32.5114 41.8991C32.2528 41.9914 32.0412 42.1823 31.9228 42.4301C31.8044 42.6778 31.7888 42.9624 31.8794 43.2216C32.1982 44.1087 32.7413 44.8982 33.4558 45.513C34.1704 46.1279 35.032 46.5473 35.9567 46.7302V49.106C35.9567 49.382 36.0664 49.6467 36.2615 49.8419C36.4567 50.037 36.7214 50.1467 36.9974 50.1467C37.2734 50.1467 37.538 50.037 37.7332 49.8419C37.9284 49.6467 38.038 49.382 38.038 49.106V46.731Z" fill="#F7BA03"/>
</svg>
