<svg width="20" height="20" viewBox="0 0 20 20" fill="none" xmlns="http://www.w3.org/2000/svg">
<g id="ticket">
<g id="Vector">
<path fill-rule="evenodd" clip-rule="evenodd" d="M18.5283 14.4076V11.9697C18.527 11.7743 18.4525 11.5866 18.3196 11.4434C18.1866 11.3002 18.0049 11.2121 17.8102 11.1963C17.5093 11.1721 17.2286 11.0358 17.0236 10.8144C16.8185 10.593 16.7041 10.3026 16.7031 10.0009C16.7042 9.69917 16.8186 9.40891 17.0236 9.18756C17.2285 8.96621 17.5092 8.82992 17.8099 8.80567C18.0046 8.7899 18.1864 8.70174 18.3193 8.55858C18.4522 8.41542 18.5267 8.22764 18.528 8.03228L18.5283 5.59193C18.5281 5.38592 18.4462 5.18841 18.3005 5.04273C18.1548 4.89706 17.9573 4.81514 17.7513 4.81494H2.24745C2.04144 4.81514 1.84392 4.89706 1.69825 5.04273C1.55258 5.18841 1.47066 5.38592 1.47046 5.59193L1.47184 8.03117C1.47317 8.22653 1.54764 8.41431 1.68058 8.55747C1.81351 8.70064 1.99527 8.7888 2.19 8.80457C2.49153 8.82725 2.77336 8.96304 2.979 9.18473C3.18465 9.40642 3.29892 9.69764 3.29892 10C3.29892 10.3024 3.18465 10.5936 2.979 10.8153C2.77336 11.037 2.49153 11.1728 2.19 11.1955C1.99527 11.2112 1.81351 11.2994 1.68058 11.4426C1.54764 11.5857 1.47317 11.7735 1.47184 11.9689V14.4067C1.47204 14.6127 1.55396 14.8103 1.69963 14.9559C1.8453 15.1016 2.04282 15.1835 2.24883 15.1837H17.7527C17.9583 15.1832 18.1554 15.1012 18.3007 14.9557C18.4461 14.8103 18.5279 14.6132 18.5283 14.4076ZM8 13C6.61929 13 5.5 11.8807 5.5 10.5V9.5C5.5 8.11929 6.61929 7 8 7H12C13.3807 7 14.5 8.11929 14.5 9.5V10.5C14.5 11.8807 13.3807 13 12 13H8Z" fill="#FF3875"/>
<path d="M8 11.75C7.30964 11.75 6.75 11.1904 6.75 10.5V9.5C6.75 8.80964 7.30964 8.25 8 8.25H12C12.6904 8.25 13.25 8.80964 13.25 9.5V10.5C13.25 11.1904 12.6904 11.75 12 11.75H8Z" fill="#FF3875"/>
</g>
</g>
</svg>
