<svg width="40" height="40" viewBox="0 0 40 40" fill="none" xmlns="http://www.w3.org/2000/svg">
<g clip-path="url(#clip0_5062_178630)">
<path d="M27.301 12.7272V3.63647C27.301 1.62797 25.6727 0 23.6646 0H3.66446C1.65629 0 0.0283203 1.62797 0.0283203 3.63647V30.9092H23.6646C25.6727 30.9092 27.301 29.2809 27.301 27.2727V12.7272Z" fill="#9A54F5"/>
<path d="M27.3016 27.2727H25.4832V3.63647C25.4822 2.63272 24.6689 1.81907 23.6651 1.81807H3.66504V0H23.6651C25.6726 0.00233044 27.2993 1.62897 27.3016 3.63647V27.2727Z" fill="#B480F7"/>
<path d="M7.30078 3.63647H29.119V32.7273H7.30078V3.63647Z" fill="#CFDBF2"/>
<path d="M9.11914 5.45459H27.3012V30.9092H9.11914V5.45459Z" fill="#34234C"/>
<path d="M18.21 7.27258H40.0281V36.3637H18.21V7.27258Z" fill="#E6ECF8"/>
<path d="M20.0283 9.09106H38.2104V34.5454H20.0283V9.09106Z" fill="#6B40AC"/>
<path d="M34.5734 26.3636C34.5734 28.8741 32.5383 30.9093 30.0281 30.9093C27.5176 30.9093 25.4824 28.8741 25.4824 26.3636C25.4824 23.8534 27.5176 21.8182 30.0281 21.8182C32.5383 21.8182 34.5734 23.8534 34.5734 26.3636Z" fill="#F2E9CF"/>
<path d="M38.2099 23.6362C32.1847 23.6362 27.3008 28.5205 27.3008 34.5453H38.2099V23.6362Z" fill="#DECE66"/>
<path d="M21.8465 13.7483C21.8465 12.0797 20.7109 10.6252 19.0919 10.2207L1.40527 5.79884C0.595947 5.59642 0.0283203 4.86933 0.0283203 4.03503V31.9247C0.0283203 33.4897 1.02974 34.8793 2.51456 35.3744L17.7702 39.8704C18.731 40.1538 19.7694 39.967 20.5718 39.3671C21.3741 38.7671 21.8465 37.824 21.8465 36.8222V13.7483Z" fill="#B480F7"/>
<path d="M2.51456 35.3744L3.66446 35.7133V6.3638L1.40527 5.79884C0.595947 5.59642 0.0283203 4.86933 0.0283203 4.03503V31.9247C0.0283203 33.4897 1.02974 34.8793 2.51456 35.3744Z" fill="#A76BF6"/>
<path d="M1.84668 9.09106H3.66475V32.7273H1.84668V9.09106Z" fill="#9A54F5"/>
<path d="M3.66504 10.9091H5.48344V34.5453H3.66504V10.9091Z" fill="#C49BF9"/>
<path d="M18.6681 39.9999H18.21V38.1818H18.6681C19.4189 38.1808 20.0271 37.5726 20.0281 36.8218V13.7482C20.0288 12.9133 19.4605 12.1852 18.6505 11.9834L2.78223 8.00504C1.16291 7.60154 0.0269898 6.14668 0.0283215 4.47809V3.63647C0.0306519 1.62897 1.65729 0.00233044 3.66446 0V1.81807C2.66071 1.81907 1.84739 2.63272 1.84639 3.63647V4.47809C1.84573 5.31272 2.41435 6.04048 3.22434 6.2419L19.0926 10.2203C20.7119 10.6241 21.8475 12.0793 21.8465 13.7482V36.8218C21.8445 38.5763 20.4226 39.9979 18.6681 39.9999Z" fill="#C49BF9"/>
<path d="M17.1485 24.697C15.9554 23.5051 14.2428 23.2854 13.3233 24.2059C12.4038 25.1264 12.6252 26.8386 13.818 28.0305C15.0112 29.222 16.7237 29.442 17.6433 28.5215C18.5628 27.601 18.3414 25.8888 17.1485 24.697Z" fill="#CFDBF2"/>
<path d="M15.6178 26.2283C14.7955 25.4067 13.6619 25.2082 13.0853 25.7849C12.509 26.3618 12.7084 27.4954 13.5307 28.317C14.3527 29.1387 15.4866 29.3371 16.0629 28.7605C16.6395 28.1835 16.4401 27.0499 15.6178 26.2283Z" fill="#AFC3E9"/>
</g>
<defs>
<clipPath id="clip0_5062_178630">
<rect width="40" height="40" fill="white"/>
</clipPath>
</defs>
</svg>
