<svg width="61" height="60" viewBox="0 0 61 60" fill="none" xmlns="http://www.w3.org/2000/svg">
<g id="Frame">
<path id="Vector" d="M56.8796 31.7298C56.8796 46.3875 44.9978 58.2693 30.3402 58.2693C15.6825 58.2693 3.80078 46.3875 3.80078 31.7298C3.80078 17.0722 15.6825 5.19043 30.3402 5.19043C44.9978 5.19043 56.8796 17.0722 56.8796 31.7298Z" fill="url(#paint0_linear_10463_79908)"/>
<path id="Vector_2" d="M56.8799 31.7294C56.8799 46.3853 44.9946 58.2706 30.3388 58.2706C23.0329 58.2706 16.4152 55.3147 11.6152 50.5412L48.877 12.7412C53.8182 17.5589 56.8799 24.2824 56.8799 31.7294Z" fill="url(#paint1_linear_10463_79908)"/>
<path id="Vector_3" d="M30.3398 31.7299H50.0825C50.0825 26.2867 47.8678 21.3508 44.2934 17.7764L30.3398 31.7299Z" fill="white"/>
<path id="Vector_4" d="M44.2934 17.7764C40.7181 14.2011 35.7831 11.9873 30.3398 11.9873V31.73L44.2934 17.7764Z" fill="#FF3875"/>
<path id="Vector_5" d="M30.3402 31.73V11.9873C24.897 11.9873 19.962 14.202 16.3867 17.7755L30.3402 31.73Z" fill="white"/>
<path id="Vector_6" d="M50.0825 31.7295H30.3398L44.2934 45.683C47.8687 42.1086 50.0825 37.1727 50.0825 31.7295Z" fill="#FF3875"/>
<path id="Vector_7" d="M30.3398 51.4721C35.7831 51.4721 40.719 49.2574 44.2934 45.683L30.3398 31.7295V51.4721Z" fill="white"/>
<path id="Vector_8" d="M30.3403 31.7299L16.3868 17.7764C12.8115 21.3508 10.5977 26.2867 10.5977 31.7299H30.3403Z" fill="#FF3875"/>
<path id="Vector_9" d="M10.5977 31.7295C10.5977 37.1727 12.8124 42.1086 16.3859 45.683L30.3403 31.7295H10.5977Z" fill="white"/>
<path id="Vector_10" d="M30.3402 31.7295L16.3867 45.683C19.9611 49.2583 24.897 51.4721 30.3402 51.4721V31.7295Z" fill="#FF3875"/>
<path id="Vector_11" d="M35.8447 7.02361C35.8447 9.50302 33.0477 16.4471 31.4418 19.6589C30.9918 20.5677 29.6947 20.5677 29.2359 19.6589C27.63 16.4471 24.8418 9.50302 24.8418 7.02361C24.8418 3.54714 27.3036 1.72949 30.3389 1.72949C33.3742 1.72949 35.8447 3.54714 35.8447 7.02361Z" fill="#FFD80C"/>
<path id="Vector_12" d="M35.8432 7.02361C35.8432 9.50302 33.0461 16.4471 31.4403 19.6589C30.9903 20.5677 29.6932 20.5677 29.2344 19.6589C30.8403 16.4471 33.6373 9.50302 33.6373 7.02361C33.6373 3.97949 31.7491 2.20596 29.2432 1.81773C29.5961 1.75596 29.9667 1.72949 30.3373 1.72949C33.3726 1.72949 35.8432 3.54714 35.8432 7.02361Z" fill="#FFBE00"/>
<path id="Vector_13" d="M30.3426 8.82876C31.5609 8.82876 32.5485 7.84115 32.5485 6.62287C32.5485 5.4046 31.5609 4.41699 30.3426 4.41699C29.1243 4.41699 28.1367 5.4046 28.1367 6.62287C28.1367 7.84115 29.1243 8.82876 30.3426 8.82876Z" fill="white"/>
<path id="Vector_14" d="M35.8428 7.02361C35.8428 9.50302 33.0457 16.4471 31.4398 19.6589C30.9898 20.5677 29.6928 20.5677 29.234 19.6589C27.6281 16.4471 24.8398 9.50302 24.8398 7.02361C24.8398 3.54714 27.3016 1.72949 30.3369 1.72949C33.3722 1.72949 35.8428 3.54714 35.8428 7.02361Z" fill="#FFD80C"/>
<path id="Vector_15" d="M35.8451 7.02361C35.8451 9.50302 33.0481 16.4471 31.4422 19.6589C30.9922 20.5677 29.6952 20.5677 29.2363 19.6589C30.8422 16.4471 33.6393 9.50302 33.6393 7.02361C33.6393 3.97949 31.751 2.20596 29.2452 1.81773C29.5981 1.75596 29.9687 1.72949 30.3393 1.72949C33.3746 1.72949 35.8451 3.54714 35.8451 7.02361Z" fill="#FFBE00"/>
<path id="Vector_16" d="M30.3426 8.82876C31.5609 8.82876 32.5485 7.84115 32.5485 6.62287C32.5485 5.4046 31.5609 4.41699 30.3426 4.41699C29.1243 4.41699 28.1367 5.4046 28.1367 6.62287C28.1367 7.84115 29.1243 8.82876 30.3426 8.82876Z" fill="white"/>
</g>
<defs>
<linearGradient id="paint0_linear_10463_79908" x1="30.3402" y1="5.19043" x2="30.3402" y2="58.2693" gradientUnits="userSpaceOnUse">
<stop stop-color="#8757E7"/>
<stop offset="1" stop-color="#CE0692"/>
</linearGradient>
<linearGradient id="paint1_linear_10463_79908" x1="34.2476" y1="12.7412" x2="34.2476" y2="58.2706" gradientUnits="userSpaceOnUse">
<stop stop-color="#6633CC"/>
<stop offset="1" stop-color="#BC0A86"/>
</linearGradient>
</defs>
</svg>
