<svg width="167" height="155" viewBox="0 0 167 155" fill="none" xmlns="http://www.w3.org/2000/svg">
<g id="Frame 1000004415">
<g id="Group">
<ellipse id="Ellipse 3231" cx="83.5" cy="77.5" rx="77.9022" ry="77.5" fill="#F3EEFF"/>
<g id="Mask group">
<mask id="mask0_9874_60161" style="mask-type:alpha" maskUnits="userSpaceOnUse" x="5" y="0" width="157" height="155">
<ellipse id="Ellipse 3232" cx="83.5" cy="77.5" rx="77.9022" ry="77.5" fill="#F3EEFF"/>
</mask>
<g mask="url(#mask0_9874_60161)">
<path id="Union" fill-rule="evenodd" clip-rule="evenodd" d="M118.407 80.7113C118.449 80.2575 118.483 79.8032 118.509 79.3478C118.542 78.7086 118.557 78.0683 118.555 77.4277V76.5592L118.563 76.559C118.557 76.2161 118.548 75.8768 118.532 75.5411L179.993 72.6521L179.993 75.1108L179.993 80.7113L179.993 96.7622L117.89 84.3553C118.127 83.1497 118.301 81.9334 118.412 80.7113H118.407ZM-12 57.9488L50.1034 70.3556C49.866 71.5612 49.6918 72.7775 49.5813 73.9996H49.5863C49.5445 74.4535 49.5104 74.9077 49.4845 75.3632C49.4516 76.0024 49.436 76.6426 49.4378 77.2833V78.1518L49.4305 78.1519C49.4359 78.4948 49.4457 78.8341 49.4609 79.1698L-12 82.0589L-12 73.9996L-12 57.9488ZM117.334 67.9979C116.659 65.5727 115.714 63.2303 114.518 61.0141L179.993 25.814V50.6865L117.334 67.9979ZM-12 34.3663V5.36327L56.301 56.6205C54.7587 58.6669 53.4493 60.8781 52.3971 63.2134L-12 34.3663ZM104.361 49.3914L175.232 -47H179.993V-6.03716L110.108 54.674C108.393 52.7072 106.466 50.9356 104.361 49.3914ZM-12 -47H18.9493L68.0586 46.6352C65.7707 47.8305 63.6241 49.2777 61.6589 50.9496L-12 -35.5281V-47ZM90.5372 43.3783L107.548 -47H138.041L97.7305 45.5828C95.4229 44.5819 93.01 43.8424 90.5372 43.3783ZM51.0403 -47H79.5142L82.6885 42.8061C80.12 42.8932 77.5692 43.2651 75.083 43.9147L51.0403 -47ZM50.6589 86.713C51.3344 89.1382 52.2788 91.4806 53.4748 93.6968L-12 128.897L-12 104.024L50.6589 86.713ZM179.993 120.345V149.348L111.692 98.0905C113.235 96.0441 114.544 93.8328 115.596 91.4975L179.993 120.345ZM63.6325 105.319L-7.23857 201.711H-12L-12 160.748L57.8855 100.037C59.6003 102.004 61.5277 103.775 63.6325 105.319ZM179.993 201.711H149.044L99.9346 108.076C102.223 106.88 104.369 105.433 106.334 103.761L179.993 190.239V201.711ZM77.456 111.333L60.4454 201.711H29.9518L70.2627 109.128C72.5703 110.129 74.9832 110.868 77.456 111.333ZM116.953 201.711L88.479 201.711L85.3047 111.905C87.8732 111.818 90.4241 111.446 92.9102 110.796L116.953 201.711Z" fill="#EDE5FF"/>
</g>
</g>
<g id="body">
<path id="Vector" fill-rule="evenodd" clip-rule="evenodd" d="M82.762 75.962L28.3235 54.5293C29.873 74.8848 30.6758 95.8903 30.4517 115.577C30.4517 116.116 30.7691 116.561 31.2358 116.784L80.7271 140.873C81.3805 141.189 82.0713 141.356 82.7434 141.356C83.4154 141.356 84.1062 141.189 84.7596 140.873L134.251 116.784C134.736 116.543 135.054 116.097 135.035 115.577C134.811 95.8717 135.614 74.8662 137.163 54.5293L82.7247 75.962H82.762Z" fill="#9747FF"/>
<path id="Vector_2" fill-rule="evenodd" clip-rule="evenodd" d="M82.762 75.962L28.3235 54.5293C29.873 74.8848 30.6758 95.8903 30.4517 115.577C30.4517 116.116 30.7691 116.561 31.2358 116.784L80.7271 140.873C81.3805 141.189 82.0713 141.356 82.7434 141.356V75.962H82.762Z" fill="#473388"/>
<g id="Group_2" style="mix-blend-mode:screen" opacity="0.65">
<path id="Vector_3" fill-rule="evenodd" clip-rule="evenodd" d="M82.762 75.9639L28.3235 54.5312C29.873 74.8867 30.6758 95.8922 30.4517 115.579C30.4517 116.118 30.7691 116.563 31.2358 116.786L80.7271 140.875C81.3805 141.191 82.0713 141.358 82.7434 141.358V75.9639H82.762Z" fill="#614DA2"/>
</g>
<path id="Vector_4" fill-rule="evenodd" clip-rule="evenodd" d="M82.7621 75.962L137.201 54.5293C135.651 74.8848 134.848 95.8903 135.072 115.577C135.072 116.116 134.755 116.561 134.288 116.784L84.797 140.873C84.1436 141.189 83.4528 141.356 82.7808 141.356V75.962H82.7621Z" fill="#51399F"/>
<g id="Vector_5" style="mix-blend-mode:screen" opacity="0.3">
<path fill-rule="evenodd" clip-rule="evenodd" d="M90.0616 134.8C91.4991 134.113 92.6753 131.717 92.6939 129.47C92.6939 127.223 91.5551 125.941 90.099 126.628C88.6428 127.297 87.4666 129.693 87.4666 131.959C87.4666 134.224 88.6241 135.506 90.0616 134.8ZM101.114 121.242C102.066 120.797 102.868 119.236 102.868 117.769C102.868 116.302 102.122 115.466 101.17 115.912C100.218 116.358 99.4334 117.899 99.4147 119.366C99.4147 120.834 100.162 121.669 101.114 121.224V121.242ZM93.9821 119.348C94.7289 119.014 95.3449 117.788 95.3449 116.636C95.3449 115.485 94.7475 114.835 94.0008 115.169C93.254 115.503 92.6379 116.711 92.6379 117.881C92.6379 119.032 93.2167 119.682 93.9634 119.348H93.9821ZM88.1574 107.164C89.1842 106.719 90.0056 105.084 90.0056 103.506C90.0056 101.945 89.1842 101.017 88.1574 101.463C87.1306 101.908 86.2905 103.543 86.2905 105.121C86.2905 106.7 87.1119 107.61 88.1387 107.164H88.1574ZM96.2784 108.52C97.6225 107.926 98.724 105.771 98.7427 103.728C98.7613 101.685 97.6972 100.497 96.353 101.091C95.0089 101.667 93.9074 103.821 93.8888 105.883C93.8888 107.944 94.9529 109.114 96.297 108.52H96.2784ZM104.941 126.368C105.557 126.071 106.061 125.068 106.08 124.121C106.08 123.174 105.613 122.654 104.997 122.951C104.381 123.248 103.877 124.232 103.858 125.18C103.858 126.127 104.325 126.665 104.941 126.368ZM121.799 119.051C122.975 118.475 123.964 116.581 124.02 114.798C124.076 113.015 123.143 112.03 121.967 112.587C120.791 113.145 119.801 115.058 119.745 116.841C119.708 118.624 120.623 119.626 121.799 119.051ZM91.8165 94.9436C92.5819 94.6279 93.198 93.4392 93.2167 92.2877C93.2167 91.1362 92.6193 90.4676 91.8538 90.7834C91.0884 91.0991 90.4723 92.2877 90.4723 93.4392C90.4723 94.5907 91.0697 95.2779 91.8352 94.9436H91.8165ZM89.6322 84.8773C90.8271 84.3944 91.8165 82.5186 91.8165 80.7171C91.8165 78.897 90.8644 77.8198 89.6696 78.3026C88.4748 78.7855 87.4853 80.6613 87.4853 82.4815C87.4853 84.3016 88.4374 85.3788 89.6322 84.8959V84.8773ZM97.2492 89.2233C98.2946 88.7775 99.1534 87.1617 99.172 85.5831C99.1907 84.0044 98.3693 83.0758 97.3238 83.5215C96.2784 83.9673 95.4196 85.6016 95.4009 87.1803C95.4009 88.759 96.2224 89.6876 97.2492 89.2418V89.2233ZM99.9561 79.7699C101.263 79.2313 102.346 77.2069 102.364 75.2567C102.383 73.3066 101.338 72.1366 100.031 72.6566C98.724 73.1766 97.6412 75.201 97.6225 77.1697C97.6039 79.1384 98.6493 80.3085 99.9561 79.7699ZM103.541 110.34C104.549 109.876 105.389 108.26 105.426 106.719C105.445 105.177 104.642 104.304 103.634 104.75C102.626 105.196 101.767 106.811 101.748 108.372C101.73 109.913 102.532 110.805 103.541 110.34ZM129.696 112.885C131.133 112.197 132.365 109.913 132.44 107.759C132.515 105.604 131.395 104.416 129.938 105.084C128.482 105.753 127.25 108.074 127.194 110.229C127.138 112.383 128.258 113.572 129.696 112.885ZM98.2946 131.921C98.9107 131.624 99.4147 130.603 99.4334 129.656C99.4334 128.708 98.948 128.17 98.332 128.467C97.7159 128.764 97.2118 129.786 97.2118 130.733C97.2118 131.68 97.6972 132.219 98.3133 131.921H98.2946ZM127.754 89.8733C128.37 89.5762 128.874 88.5547 128.893 87.6075C128.893 86.6603 128.408 86.1217 127.791 86.4188C127.175 86.716 126.671 87.7375 126.671 88.6847C126.671 89.6319 127.157 90.1705 127.773 89.8733H127.754ZM108.619 79.6213C109.459 79.2684 110.168 77.9683 110.205 76.6868C110.224 75.4239 109.552 74.6624 108.693 75.0153C107.834 75.3682 107.144 76.6683 107.125 77.9498C107.106 79.2127 107.778 79.9742 108.619 79.6213ZM119.764 109.653C120.716 109.207 121.519 107.684 121.556 106.254C121.593 104.824 120.847 104.007 119.876 104.453C118.924 104.898 118.121 106.421 118.084 107.852C118.046 109.282 118.793 110.099 119.745 109.653H119.764ZM86.0105 120.016C86.6452 119.719 87.1679 118.679 87.1679 117.676C87.1679 116.673 86.6452 116.116 86.0105 116.395C85.3757 116.692 84.853 117.714 84.853 118.716C84.853 119.719 85.3757 120.295 86.0105 119.998V120.016ZM117.486 79.677C118.681 79.1755 119.671 77.3554 119.727 75.5911C119.764 73.8267 118.83 72.8052 117.636 73.2881C116.441 73.7895 115.433 75.6096 115.395 77.374C115.358 79.1384 116.291 80.1599 117.486 79.6584V79.677ZM127.157 99.6982C128.482 99.0853 129.621 97.0052 129.677 95.0179C129.733 93.0306 128.706 91.9349 127.362 92.5292C126.018 93.1235 124.898 95.2222 124.842 97.2095C124.786 99.1967 125.831 100.311 127.157 99.6982ZM130.629 83.4844C132.104 82.8343 133.355 80.5871 133.429 78.4326C133.504 76.2782 132.347 75.0525 130.872 75.6653C129.397 76.2968 128.146 78.5441 128.072 80.7171C128.016 82.89 129.154 84.1158 130.629 83.4844ZM127.231 72.9538C128.688 72.3594 129.92 70.1493 129.994 68.032C130.05 65.9148 128.912 64.689 127.455 65.2647C125.999 65.859 124.767 68.0506 124.692 70.1864C124.636 72.3223 125.775 73.5481 127.231 72.9538ZM82.7621 90.9691V98.6953C83.7702 97.6738 84.4983 95.8537 84.4983 94.0893C84.4983 92.3249 83.7702 91.1362 82.7621 90.9691ZM115.339 64.1875C115.321 65.4319 116.422 67.5677 117.86 66.9734C119.297 66.3977 120.529 63.3518 120.567 62.126C120.604 60.9002 120.548 61.4202 120.492 61.0859C118.812 61.7545 117.132 62.4046 115.47 63.0732C115.395 63.4446 115.358 62.9432 115.339 64.1875ZM132.888 58.8015C133.616 58.5043 134.176 59.1172 134.139 60.1759C134.102 61.2345 133.486 62.3303 132.757 62.6274C132.029 62.9246 131.469 62.2931 131.488 61.2531C131.525 60.213 132.141 59.1172 132.869 58.8201L132.888 58.8015Z" fill="#473388"/>
</g>
<path id="Vector_6" fill-rule="evenodd" clip-rule="evenodd" d="M33.5322 112.142C32.9161 95.8163 32.1694 70.5577 29.089 65.3945C30.1344 82.2769 30.6572 99.3637 30.4705 115.559C30.4705 116.097 30.7879 116.543 31.2546 116.766L66.8002 134.076C58.1565 128.764 40.6077 119.608 35.1564 115.67C33.2895 114.315 33.6069 114.259 33.5322 112.123V112.142Z" fill="#7A5CC7"/>
<g id="Vector_7" style="mix-blend-mode:screen" opacity="0.3">
<path fill-rule="evenodd" clip-rule="evenodd" d="M34.5029 61.9966C35.9964 62.5909 37.2472 64.8382 37.3219 66.9926C37.3779 69.147 36.2391 70.4285 34.7456 69.797C33.252 69.1841 32.0012 66.9554 31.9265 64.801C31.8519 62.6466 33.0093 61.3837 34.5029 61.9966ZM46.0402 74.6445C47.011 75.0531 47.8325 76.5574 47.8698 78.0061C47.9071 79.4547 47.123 80.2719 46.1523 79.8633C45.1815 79.4547 44.36 77.9504 44.3227 76.5203C44.2854 75.0902 45.0508 74.2359 46.0402 74.6445ZM38.834 76.6874C39.5995 77.0032 40.2342 78.1547 40.2715 79.269C40.3089 80.3834 39.7115 81.0334 38.9461 80.6991C38.1806 80.3648 37.5459 79.2133 37.5272 78.0989C37.4899 76.9846 38.0873 76.3531 38.834 76.6689V76.6874ZM34.4282 89.3725C35.455 89.8182 36.3137 91.4154 36.3697 92.9012C36.4071 94.4056 35.623 95.2414 34.6149 94.7956C33.5881 94.3313 32.7293 92.7712 32.692 91.2669C32.636 89.7625 33.4201 88.9082 34.4468 89.3725H34.4282ZM43.2399 88.0538C44.5841 88.6481 45.7229 90.7283 45.7602 92.7341C45.7975 94.7214 44.7708 95.8543 43.4266 95.26C42.0824 94.6656 40.9623 92.5669 40.9063 90.5797C40.8503 88.5924 41.8957 87.4595 43.2586 88.0538H43.2399ZM52.9664 66.8997C53.6011 67.1597 54.1425 68.1255 54.1612 69.0541C54.1612 70.0013 53.6758 70.5399 53.0411 70.2985C52.4063 70.0385 51.8836 69.0727 51.8649 68.1441C51.8463 67.2155 52.3503 66.6397 52.9851 66.8997H52.9664ZM63.7384 71.8772C64.9518 72.36 65.96 74.2359 65.9786 76.0745C65.9973 77.8947 65.0265 78.9719 63.813 78.489C62.5996 77.9875 61.5914 76.1117 61.5728 74.2916C61.5541 72.4715 62.5249 71.3943 63.7384 71.8772ZM39.9915 102.15C40.7383 102.485 41.373 103.673 41.4103 104.788C41.4477 105.902 40.8503 106.515 40.1222 106.181C39.3754 105.828 38.7407 104.658 38.722 103.543C38.6847 102.448 39.2634 101.816 40.0102 102.15H39.9915ZM34.1668 108.075C35.623 108.762 36.8551 111.065 36.9111 113.22C36.9672 115.374 35.847 116.563 34.4095 115.875C32.972 115.188 31.7399 112.867 31.6652 110.731C31.5905 108.595 32.7106 107.406 34.1668 108.075ZM47.2164 102.949C48.2432 103.413 49.1206 105.048 49.1579 106.608C49.1953 108.149 48.3925 109.041 47.3471 108.558C46.3203 108.075 45.4615 106.441 45.4242 104.899C45.3868 103.358 46.1896 102.485 47.2164 102.968V102.949ZM44.6961 114.854C45.5735 115.281 46.3203 116.693 46.3576 118.03C46.3949 119.367 45.7042 120.11 44.8268 119.683C43.9493 119.256 43.2026 117.844 43.1652 116.507C43.1279 115.17 43.8186 114.445 44.6961 114.873V114.854ZM51.3609 84.7479C52.3877 85.1937 53.2464 86.7723 53.2651 88.3138C53.2838 89.8554 52.481 90.7283 51.4729 90.2825C50.4461 89.8368 49.5873 88.2581 49.55 86.7352C49.5127 85.2122 50.3341 84.3207 51.3609 84.7665V84.7479ZM74.9397 76.446C76.4332 77.0403 77.6467 79.3433 77.6654 81.6092C77.6654 83.875 76.4706 85.2122 74.977 84.6179C73.4835 84.005 72.2701 81.6834 72.2514 79.4362C72.2514 77.1889 73.4462 75.8517 74.9397 76.446ZM43.0159 64.3739C43.6506 64.6339 44.192 65.5996 44.2107 66.5283C44.2294 67.4569 43.744 67.9955 43.1092 67.7355C42.4745 67.4755 41.9331 66.5283 41.9144 65.5996C41.8957 64.671 42.3811 64.1324 43.0159 64.3739ZM55.524 101.017C56.9429 101.649 58.1004 103.878 58.1377 106.013C58.175 108.149 57.0549 109.356 55.6547 108.706C54.2546 108.056 53.0784 105.828 53.0411 103.71C53.0037 101.593 54.1052 100.386 55.524 101.017ZM53.6945 116.117C54.74 116.6 55.5987 118.308 55.6361 119.887C55.6547 121.466 54.852 122.339 53.8065 121.856C52.761 121.354 51.9023 119.683 51.8649 118.104C51.8276 116.525 52.649 115.634 53.6945 116.117ZM60.2846 94.2756C61.05 94.6099 61.6661 95.7986 61.6848 96.9315C61.7035 98.0644 61.106 98.733 60.3406 98.3987C59.5939 98.0644 58.9591 96.8758 58.9405 95.7428C58.9405 94.6099 59.5192 93.9413 60.2659 94.2756H60.2846ZM67.9015 84.8594C68.8723 85.2679 69.6751 86.7909 69.6937 88.2581C69.6937 89.7439 68.9283 90.5983 67.9389 90.1897C66.9681 89.7811 66.1653 88.2581 66.1467 86.7909C66.1467 85.3237 66.9121 84.4508 67.8829 84.8594H67.9015ZM56.9055 76.7246C58.3991 77.3375 59.6125 79.6219 59.6499 81.8506C59.6872 84.0793 58.5111 85.3608 57.0176 84.7479C55.5427 84.1164 54.3106 81.832 54.2732 79.6219C54.2359 77.4118 55.412 76.1117 56.9055 76.7246ZM30.8064 76.1303C31.4598 76.4089 32.0199 77.3932 32.0386 78.3404C32.0759 79.2876 31.5718 79.8076 30.9184 79.529C30.265 79.2504 29.7236 78.2661 29.6863 77.3189C29.6489 76.3717 30.153 75.8331 30.8064 76.1117V76.1303ZM65.5306 115.003C66.7067 115.541 67.6588 117.436 67.6775 119.237C67.6962 121.039 66.7814 122.042 65.6053 121.484C64.4291 120.927 63.477 119.033 63.4583 117.25C63.4397 115.467 64.3544 114.464 65.5306 115.003ZM66.2773 105.809C67.3415 106.273 68.2002 107.964 68.2002 109.579C68.2002 111.195 67.3788 112.105 66.3333 111.641C65.2879 111.177 64.4104 109.486 64.3918 107.871C64.3918 106.255 65.2132 105.345 66.2773 105.809ZM72.5314 95.4085C73.8756 95.9843 74.9957 98.1387 74.9957 100.2C74.9957 102.262 73.9129 103.45 72.5688 102.856C71.2246 102.262 70.1231 100.126 70.1045 98.083C70.1045 96.0214 71.1686 94.8328 72.5128 95.4085H72.5314ZM79.1962 102.763C79.831 103.042 80.335 104.045 80.335 105.011C80.335 105.976 79.831 106.533 79.1962 106.273C78.5615 105.995 78.0574 104.992 78.0574 104.026C78.0574 103.06 78.5615 102.503 79.1962 102.763ZM75.6305 112.272C77.0866 112.922 78.2814 115.3 78.3001 117.566C78.3001 119.831 77.124 121.131 75.6678 120.463C74.2116 119.794 73.0168 117.417 72.9981 115.17C72.9981 112.922 74.1556 111.622 75.6305 112.272ZM71.99 121.744C73.1475 122.283 74.0809 124.159 74.0996 125.942C74.0996 127.725 73.1848 128.746 72.046 128.208C70.9072 127.669 69.9551 125.775 69.9364 123.992C69.9364 122.209 70.8512 121.206 71.99 121.744ZM79.1029 132.349C79.8496 132.702 80.447 133.928 80.447 135.098C80.447 136.268 79.8496 136.918 79.1029 136.565C78.3748 136.212 77.7587 134.968 77.7587 133.816C77.7587 132.646 78.3561 131.996 79.0842 132.349H79.1029ZM82.762 98.7144V90.9883C82.4633 90.6911 82.7246 90.7097 81.8099 90.3382C80.8951 89.9668 79.1215 91.0626 79.1402 93.3284C79.1402 95.5943 80.9138 98.1944 81.8285 98.5844C82.7246 98.9559 82.4819 98.7702 82.7807 98.733L82.762 98.7144ZM65.2879 133.352C65.0452 131.439 64.0184 129.563 62.7676 128.969C61.5354 128.375 60.5273 129.248 60.3406 130.956C61.9835 131.755 63.6264 132.554 65.2692 133.352H65.2879Z" fill="#473388"/>
</g>
<path id="Vector_8" fill-rule="evenodd" clip-rule="evenodd" d="M26.5873 44.2218L27.2034 61.6429C27.222 62.2 27.5581 62.6829 28.0808 62.8872L81.5672 84.8956C82.37 85.2299 83.1914 85.2299 83.9942 84.8956L137.481 62.8872C138.003 62.6643 138.339 62.2 138.358 61.6429L138.974 44.2218C138.974 43.7575 138.713 43.3304 138.265 43.1818L83.8262 24.8879C83.1354 24.665 82.482 24.665 81.7912 24.8879L27.3527 43.1818C26.9047 43.3304 26.6246 43.739 26.6433 44.2218H26.5873Z" fill="#9747FF"/>
<path id="Vector_9" fill-rule="evenodd" clip-rule="evenodd" d="M27.2034 61.6268C27.222 62.184 27.5581 62.6483 28.0621 62.8711L81.5485 84.8796C81.9593 85.0467 82.3513 85.121 82.762 85.121V65.5456L26.8113 43.5C26.662 43.6857 26.5873 43.9272 26.5873 44.1686L27.2034 61.5896V61.6268Z" fill="#6651A9"/>
<g id="Vector_10" style="mix-blend-mode:screen" opacity="0.4">
<path fill-rule="evenodd" clip-rule="evenodd" d="M28.4356 48.0298C28.3796 46.6554 29.201 45.8754 30.2465 46.3026C31.2919 46.7112 32.1693 48.1598 32.2254 49.5342C32.2627 50.9085 31.4599 51.6886 30.4145 51.2614C29.369 50.8528 28.4916 49.3856 28.4542 48.0298H28.4356ZM35.9405 55.8117C35.8845 53.8244 37.0606 52.7101 38.5541 53.3044C40.0476 53.8987 41.3171 55.9974 41.3544 57.9847C41.4105 59.9719 40.2343 61.0863 38.7408 60.492C37.2473 59.8791 35.9965 57.7989 35.9218 55.8117H35.9405ZM30.7132 59.8976C30.6945 59.0247 31.1986 58.5418 31.852 58.8019C32.5054 59.0619 33.0655 59.9905 33.1028 60.8448C33.1215 61.7177 32.6174 62.2006 31.964 61.9406C31.3106 61.6806 30.7505 60.752 30.7132 59.8791V59.8976ZM51.1743 66.6209C51.137 64.6893 52.2758 63.5936 53.7133 64.1879C55.1508 64.7636 56.3456 66.8066 56.3829 68.7382C56.4203 70.6697 55.2815 71.7655 53.8439 71.1712C52.4064 70.5768 51.2116 68.5524 51.1743 66.6209ZM44.5095 55.2917C44.4722 53.9173 45.3123 53.1187 46.339 53.5273C47.3845 53.9359 48.2433 55.4031 48.2806 56.796C48.318 58.189 47.4965 58.969 46.4511 58.5604C45.4056 58.1518 44.5282 56.6846 44.5095 55.2917ZM43.6881 64.9679C43.6694 64.1136 44.1735 63.6307 44.8082 63.8907C45.4429 64.1507 45.9843 65.0422 46.003 65.8966C46.0217 66.7509 45.5176 67.2338 44.8829 66.9738C44.2481 66.7138 43.7067 65.8037 43.6881 64.9679ZM60.5834 56.8332C58.4738 55.9974 56.3642 55.1616 54.236 54.3259C54.1987 54.6045 54.1427 53.8616 54.18 55.1988C54.1987 56.5546 55.6922 60.0834 57.4844 60.8077C59.2766 61.532 60.6768 59.1176 60.6581 57.7618C60.6581 56.406 60.6208 57.1489 60.5834 56.8332ZM60.8074 67.4381C60.7888 65.9894 61.6475 65.1537 62.7303 65.5994C63.8131 66.0266 64.6906 67.5495 64.7093 69.0167C64.7093 70.4654 63.8692 71.3012 62.7864 70.8554C61.7036 70.4283 60.8261 68.8867 60.8074 67.4381ZM68.163 64.8379C68.163 63.1107 69.1711 62.1263 70.4593 62.6278C71.7474 63.1293 72.7929 64.9494 72.8116 66.6766C72.8116 68.4039 71.7848 69.3882 70.5153 68.8867C69.2271 68.3667 68.2003 66.5652 68.1817 64.8379H68.163ZM67.995 75.4614C67.995 74.4213 68.6111 73.827 69.3578 74.1428C70.1232 74.4585 70.758 75.5543 70.758 76.5758C70.758 77.6158 70.1606 78.2101 69.3951 77.8944C68.6297 77.5787 67.995 76.4829 67.995 75.4614ZM74.0997 73.2513C74.0997 70.7068 75.5932 69.2396 77.4788 70.0011C79.3643 70.744 80.8952 73.437 80.8952 76C80.8952 78.563 79.383 80.0117 77.4975 79.2502C75.6306 78.4887 74.0997 75.7957 74.081 73.2513H74.0997Z" fill="#473388"/>
</g>
<path id="Vector_11" fill-rule="evenodd" clip-rule="evenodd" d="M26.8113 43.5171L82.762 65.5627L138.713 43.5171C138.582 43.3685 138.414 43.2385 138.209 43.1642L83.7701 24.8703C83.0794 24.6474 82.4259 24.6474 81.7352 24.8703L27.2967 43.1642C27.0913 43.2385 26.9233 43.3499 26.7926 43.5171H26.8113Z" fill="#6651A9"/>
<path id="Vector_12" fill-rule="evenodd" clip-rule="evenodd" d="M27.2034 61.6255C28.1182 58.0225 27.8568 47.0833 28.7156 46.5446C29.4437 46.0803 50.3902 53.2679 56.8869 55.3666C52.0517 53.2493 29.9477 44.4088 29.9477 43.7402C29.9477 42.9044 50.5582 35.4569 52.7424 34.6211L27.2967 43.1645C26.8487 43.313 26.5686 43.7216 26.5873 44.2045L27.2034 61.6255Z" fill="#9174D7"/>
<g id="Vector_13" style="mix-blend-mode:screen" opacity="0.5">
<path fill-rule="evenodd" clip-rule="evenodd" d="M40.9063 42.0687C42.4185 41.5672 44.8455 41.6044 46.339 42.1801C47.8511 42.7559 47.8511 43.6474 46.339 44.1674C44.8268 44.6874 42.3998 44.6317 40.8876 44.056C39.3755 43.4802 39.3941 42.5887 40.8876 42.0687H40.9063ZM57.9137 40.2486C58.9031 39.9143 60.5087 39.9329 61.4981 40.2857C62.4876 40.6572 62.4876 41.2329 61.4981 41.5858C60.5087 41.9387 58.9031 41.9201 57.9137 41.5487C56.9242 41.1772 56.9242 40.6015 57.9137 40.2486ZM53.9746 44.1674C54.74 43.8888 55.9908 43.9259 56.7749 44.2045C57.559 44.5017 57.5403 44.9474 56.7749 45.226C56.0095 45.5046 54.7586 45.486 53.9932 45.1889C53.2278 44.8917 53.2091 44.446 53.9932 44.1674H53.9746ZM59.3512 49.8692C60.3967 49.4977 62.0955 49.5163 63.141 49.9063C64.1864 50.3149 64.1864 50.9464 63.141 51.3178C62.0955 51.7078 60.3967 51.6893 59.3512 51.2807C58.3057 50.8721 58.3057 50.2406 59.3512 49.8692ZM64.8585 45.1889C66.24 44.6874 68.443 44.706 69.8245 45.226C71.206 45.7461 71.206 46.5632 69.8245 47.0647C68.443 47.5662 66.2027 47.5476 64.8399 47.0276C63.4584 46.5075 63.477 45.6903 64.8399 45.1889H64.8585ZM57.8203 35.0854C58.4551 34.8626 59.5005 34.8811 60.154 35.1226C60.7887 35.364 60.7887 35.7169 60.154 35.9398C59.5192 36.1626 58.4738 36.1441 57.8203 35.9026C57.1856 35.6612 57.1856 35.3083 57.8203 35.0854ZM69.115 31.5752C70.3472 31.1481 72.3448 31.1666 73.5582 31.6124C74.7904 32.0395 74.7904 32.7267 73.5582 33.1539C72.3261 33.5811 70.3285 33.5625 69.115 33.1353C67.8829 32.6896 67.8829 32.0024 69.115 31.5752ZM72.0087 50.6678C72.7741 50.3892 74.025 50.3892 74.7904 50.6678C75.5745 50.9649 75.5558 51.4292 74.7904 51.7078C74.025 51.9864 72.7741 51.9864 72.0087 51.7078C71.2246 51.4107 71.2433 50.9464 72.0087 50.6678ZM71.8034 55.348C73.3155 54.7909 75.7425 54.7909 77.236 55.3666C78.7482 55.9424 78.7482 56.871 77.236 57.4467C75.7238 58.0225 73.2969 58.0039 71.7847 57.4282C70.2725 56.8338 70.2725 55.9052 71.7847 55.348H71.8034ZM77.7774 47.2504C78.8415 46.8604 80.5777 46.8604 81.6419 47.2504C82.706 47.6404 82.6873 48.2719 81.6419 48.6805C80.5777 49.0705 78.8602 49.0705 77.7961 48.6805C76.732 48.2905 76.7133 47.6404 77.7961 47.2504H77.7774ZM83.9568 51.745C84.8716 51.4107 86.3464 51.3921 87.2799 51.745C88.1947 52.0979 88.2133 52.6365 87.2799 52.9893C86.3651 53.3422 84.8716 53.3422 83.9568 52.9893C83.042 52.6365 83.042 52.0793 83.9568 51.745ZM68.5923 40.4529C69.6378 40.0814 71.318 40.1 72.3634 40.4715C73.4089 40.8615 73.4276 41.4744 72.3634 41.8458C71.318 42.2173 69.6191 42.1987 68.5736 41.8272C67.5282 41.4372 67.5282 40.8243 68.5736 40.4529H68.5923ZM80.4471 27.7679C81.9592 27.2478 84.3862 27.2664 85.8984 27.7679C87.4106 28.2693 87.4106 29.1051 85.8984 29.6251C84.3862 30.1451 81.9592 30.1451 80.4657 29.6251C78.9535 29.1051 78.9535 28.2693 80.4657 27.7493L80.4471 27.7679ZM48.7846 38.8742C49.4193 38.6513 50.4648 38.6699 51.1182 38.9114C51.753 39.1528 51.753 39.5243 51.1182 39.7471C50.4835 39.97 49.438 39.9514 48.7846 39.71C48.1499 39.4685 48.1499 39.0971 48.7846 38.8742ZM82.538 42.663C83.9942 42.143 86.3278 42.143 87.7839 42.663C89.2401 43.183 89.2215 44.0374 87.7839 44.576C86.3464 45.1146 83.9942 45.1146 82.538 44.576C81.0818 44.056 81.0818 43.183 82.538 42.663ZM91.3124 47.4547C92.3952 47.0461 94.1314 47.0276 95.2328 47.4361C96.3156 47.8262 96.3343 48.4762 95.2328 48.8848C94.15 49.2934 92.3765 49.312 91.2937 48.9034C90.2109 48.5134 90.2296 47.8633 91.2937 47.4547H91.3124ZM81.5112 38.6699C82.2766 38.3913 83.5274 38.3913 84.2929 38.6699C85.0583 38.9485 85.0583 39.3942 84.2929 39.6728C83.5274 39.9514 82.2766 39.9514 81.5112 39.6728C80.7458 39.3942 80.7458 38.9485 81.5112 38.6699ZM80.8391 32.8567C81.8286 32.5038 83.4528 32.5038 84.4422 32.8567C85.4317 33.2096 85.4317 33.7668 84.4422 34.1197C83.4528 34.4725 81.8472 34.4725 80.8578 34.1197C79.8683 33.7668 79.8497 33.2096 80.8578 32.8567H80.8391ZM67.2855 35.8283C68.7977 35.3083 71.2246 35.3269 72.7181 35.8655C74.2117 36.4041 74.2303 37.277 72.7181 37.797C71.206 38.317 68.779 38.317 67.2855 37.7599C65.792 37.2213 65.7733 36.3484 67.2855 35.8283ZM47.7391 47.8447C48.4112 47.6033 49.4753 47.6219 50.1288 47.8819C50.8008 48.1419 50.8008 48.5319 50.1288 48.7734C49.4567 49.0148 48.3925 48.9962 47.7391 48.7362C47.0671 48.4762 47.0671 48.0862 47.7391 47.8447ZM97.6598 42.9973C98.8733 42.5516 100.852 42.533 102.047 42.9602C103.26 43.3873 103.242 44.0931 102.047 44.5574C100.834 45.0217 98.8919 45.0403 97.6785 44.5946C96.465 44.1674 96.465 43.4431 97.6785 42.9973H97.6598ZM93.5713 38.6514C94.6541 38.2613 96.409 38.2428 97.4918 38.6328C98.5746 39.0042 98.5746 39.6357 97.4918 40.0443C96.409 40.4343 94.6541 40.4529 93.5713 40.0629C92.4885 39.6728 92.4885 39.0599 93.5713 38.6514ZM91.2377 33.2467C92.6192 32.7639 94.8595 32.7453 96.241 33.2282C97.6225 33.6925 97.6038 34.4725 96.241 34.974C94.8595 35.4754 92.6379 35.4754 91.2564 35.0111C89.8749 34.5282 89.8749 33.7482 91.2564 33.2653L91.2377 33.2467ZM104.698 35.6983C106.21 35.1411 108.637 35.1226 110.149 35.624C111.661 36.1441 111.643 36.9984 110.149 37.5556C108.637 38.1127 106.21 38.1499 104.717 37.6299C103.204 37.1098 103.204 36.2555 104.717 35.6983H104.698ZM108.301 39.6543C109.496 39.2085 111.437 39.19 112.632 39.5985C113.827 40.0071 113.808 40.7129 112.632 41.1586C111.437 41.6044 109.515 41.6415 108.32 41.2144C107.125 40.8058 107.125 40.1 108.32 39.6543H108.301ZM119.913 40.2672C120.679 39.97 121.948 39.9514 122.732 40.2114C123.498 40.4715 123.498 40.9172 122.732 41.2144C121.967 41.5115 120.716 41.5301 119.95 41.2701C119.185 41.0101 119.166 40.5643 119.95 40.2672H119.913ZM109.683 43.8145C111.176 43.2388 113.622 43.2202 115.115 43.7402C116.609 44.2603 116.627 45.1517 115.115 45.7275C113.622 46.3032 111.157 46.3404 109.645 45.8018C108.152 45.2632 108.152 44.3717 109.645 43.8145H109.683ZM102.346 48.049C103.597 47.5662 105.65 47.5476 106.901 48.0119C108.152 48.4576 108.152 49.2191 106.901 49.702C105.65 50.1849 103.615 50.2035 102.364 49.7577C101.114 49.2934 101.095 48.5319 102.364 48.0676L102.346 48.049ZM87.1492 56.5367C88.4 56.0538 90.4163 56.0538 91.6671 56.5367C92.9179 57.001 92.9179 57.781 91.6671 58.2639C90.4163 58.7468 88.4 58.7654 87.1492 58.2639C85.8984 57.781 85.8984 57.0196 87.1492 56.5367ZM95.8676 52.3764C97.6598 51.6893 100.553 51.6707 102.346 52.3207C104.138 52.9708 104.138 54.0665 102.346 54.7723C100.553 55.4781 97.6411 55.4966 95.8489 54.828C94.0567 54.1594 94.0754 53.0636 95.8489 52.3764H95.8676ZM115.787 48.049C116.851 47.6404 118.588 47.6033 119.652 47.9748C120.716 48.3462 120.716 48.9962 119.652 49.4048C118.588 49.8134 116.851 49.8506 115.787 49.4791C114.723 49.1077 114.723 48.4576 115.787 48.049ZM125.626 43.2388C127.119 42.663 129.584 42.6073 131.077 43.1088C132.571 43.6102 132.571 44.5017 131.077 45.096C129.584 45.6903 127.119 45.7461 125.626 45.226C124.132 44.706 124.132 43.8145 125.626 43.2388ZM80.9511 60.9569C81.7352 60.6598 82.986 60.6598 83.7515 60.9569C84.5169 61.2541 84.5356 61.737 83.7515 62.0527C82.9674 62.3499 81.7165 62.3499 80.9511 62.0527C80.1857 61.7556 80.167 61.2727 80.9511 60.9755V60.9569ZM54.2359 54.3266L60.5833 56.8338C61.7221 56.1652 61.5168 55.2552 59.9673 54.6423C58.4177 54.0294 56.0095 53.918 54.2546 54.3266H54.2359ZM95.5689 60.5112C93.7767 60.2883 91.7044 60.4555 90.2856 61.0127C88.8667 61.5698 88.4374 62.387 89.0534 63.0742C91.2377 62.2199 93.4033 61.3655 95.5689 60.5112ZM109.552 51.9864C110.336 51.6893 111.568 51.6707 112.334 51.9493C113.099 52.2279 113.118 52.6922 112.334 53.0079C111.549 53.3051 110.317 53.3422 109.552 53.045C108.786 52.7665 108.768 52.2836 109.552 51.9864Z" fill="#473388"/>
</g>
<path id="Vector_14" fill-rule="evenodd" clip-rule="evenodd" d="M82.7621 65.5622V85.1376C83.1728 85.1376 83.5648 85.0633 83.9756 84.8961L137.462 62.8877C137.985 62.6648 138.302 62.2005 138.339 61.6434L138.955 44.2223C138.955 43.9623 138.881 43.7209 138.731 43.5352L82.7808 65.5807L82.7621 65.5622Z" fill="#473388"/>
<g id="Vector_15" style="mix-blend-mode:screen" opacity="0.4">
<path fill-rule="evenodd" clip-rule="evenodd" d="M95.5875 60.5311C93.4033 61.3854 91.2377 62.2397 89.0721 63.0941C88.8107 63.8555 88.68 63.6884 88.68 65.4342C88.68 67.18 90.2856 69.7059 92.2831 68.9073C94.2807 68.1087 95.9236 64.3013 95.9422 62.5555C95.9422 60.8096 95.8302 61.0882 95.5875 60.5125V60.5311ZM86.8691 74.479C88.1386 73.959 89.1654 74.9619 89.1654 76.6892C89.1654 78.435 88.12 80.2551 86.8505 80.7751C85.581 81.2951 84.5542 80.2922 84.5542 78.565C84.5542 76.8377 85.5997 74.9991 86.8691 74.479ZM96.5396 70.3745C97.4544 70.003 98.1825 70.7088 98.1825 71.9346C98.1825 73.1604 97.4171 74.4605 96.5023 74.8319C95.5875 75.2034 94.8594 74.4976 94.8781 73.2718C94.8968 72.046 95.6249 70.7459 96.5396 70.3745ZM115.563 55.9622C117.057 55.3679 118.252 56.5008 118.196 58.4881C118.158 60.4753 116.907 62.5926 115.414 63.1869C113.92 63.7998 112.744 62.6669 112.782 60.6611C112.819 58.6552 114.07 56.5565 115.563 55.9622ZM105.333 60.6239C107.237 59.8624 108.749 61.3111 108.712 63.8555C108.674 66.4 107.106 69.093 105.202 69.8545C103.316 70.6159 101.786 69.1673 101.823 66.6228C101.86 64.0598 103.41 61.3854 105.333 60.6239ZM120.585 62.2397C121.78 61.7569 122.695 62.6483 122.657 64.227C122.62 65.8057 121.631 67.4772 120.454 67.9601C119.278 68.443 118.345 67.5515 118.382 65.9728C118.42 64.3941 119.409 62.7226 120.604 62.2397H120.585ZM110.821 67.6815C111.587 67.3658 112.203 67.9415 112.184 68.9816C112.166 70.003 111.531 71.0988 110.765 71.4146C110 71.7303 109.403 71.1545 109.421 70.1145C109.421 69.093 110.075 67.9972 110.84 67.7001L110.821 67.6815ZM125.626 51.3562C126.671 50.9476 127.474 51.7277 127.437 53.1021C127.399 54.4764 126.522 55.9436 125.495 56.3522C124.45 56.7608 123.628 55.9808 123.666 54.6064C123.703 53.2321 124.58 51.7648 125.626 51.3562ZM138.433 58.8967C138.47 57.578 138.526 56.2408 138.582 54.9222C138.619 53.6035 138.675 52.2663 138.731 50.9476C138.153 50.6505 137.555 50.5762 136.678 50.9291C135.782 51.282 134.718 52.2477 134.027 53.3992C133.336 54.5321 132.888 55.9251 132.851 57.2623C132.813 58.5995 133.187 59.6396 133.803 60.2525C134.438 60.8654 135.446 60.9768 136.342 60.6054C137.238 60.2339 137.835 59.6767 138.451 58.8967H138.433ZM130.834 64.7842C130.872 63.6884 129.77 61.8126 128.333 62.3883C126.895 62.9826 125.682 65.8057 125.644 66.92C125.607 68.0158 125.644 67.4772 125.7 67.7186C127.381 67.0314 129.042 66.3443 130.722 65.6571C130.778 65.3785 130.797 65.8799 130.816 64.7842H130.834Z" fill="#473388"/>
</g>
<g id="Group_3" style="mix-blend-mode:screen">
<path id="Vector_16" fill-rule="evenodd" clip-rule="evenodd" d="M61.5541 57.207C64.2984 58.4514 80.5217 65.3789 81.4551 66.7347C82.2952 67.9791 82.6313 79.2155 82.7806 81.5185C82.93 79.2155 83.2474 67.8305 84.0875 66.5862C84.9649 65.2675 96.2783 60.4201 98.4999 59.38C96.1662 60.1972 84.2368 64.7475 82.7806 64.7289C81.1378 64.7289 64.5224 58.2842 61.5727 57.207H61.5541Z" fill="#473388"/>
</g>
<path id="Vector_17" fill-rule="evenodd" clip-rule="evenodd" d="M83.3407 41.1226C76.0785 36.0709 72.4008 34.1765 63.9997 31.2234C63.3837 31.0006 62.7863 30.7963 62.1702 30.5734C61.5355 30.3505 60.9007 30.2948 60.3033 30.5734C56.6442 32.2821 52.7984 33.4893 48.8966 34.5108C48.5419 34.6036 48.3179 34.9565 48.3365 35.328C48.3365 35.588 48.3365 35.8666 48.3365 36.1266C48.5232 36.0709 48.7099 35.9966 48.8966 35.9408C49.4007 36.1266 49.9047 36.3123 50.4088 36.5166C59.6312 40.0268 69.4324 42.0883 79.2522 43.537L83.3407 41.1411V41.1226Z" fill="url(#paint0_linear_9874_60161)"/>
<path id="Vector_18" fill-rule="evenodd" clip-rule="evenodd" d="M51.6223 35.9958C61.0501 39.6731 70.3472 41.4375 80.335 42.8862C79.9617 43.109 79.607 43.3133 79.2336 43.5362C69.4137 42.1061 59.5939 40.0446 50.3901 36.5158C49.8861 36.3301 49.382 36.1444 48.8779 35.9401C48.6912 35.9958 48.5046 36.0701 48.3179 36.1258C48.3179 35.8658 48.3179 35.5872 48.3179 35.3272C48.3552 34.9186 48.8033 34.8814 49.438 35.1414L51.6409 35.9958H51.6223Z" fill="url(#paint1_radial_9874_60161)"/>
<path id="Vector_19" fill-rule="evenodd" clip-rule="evenodd" d="M82.202 41.103C89.4642 36.0513 93.142 34.1569 101.543 31.2039C102.159 30.981 102.756 30.7767 103.373 30.5539C104.007 30.331 104.642 30.2753 105.239 30.5539C108.899 32.2625 112.744 33.4697 116.646 34.4912C117.001 34.5841 117.225 34.937 117.206 35.3084C117.206 35.5684 117.206 35.847 117.206 36.107C117.02 36.0513 116.833 35.977 116.646 35.9213C116.142 36.107 115.638 36.2928 115.134 36.4971C105.912 40.0073 96.1104 42.0688 86.2905 43.5175C84.9277 42.7189 83.5649 41.9202 82.202 41.1216V41.103Z" fill="url(#paint2_linear_9874_60161)"/>
<path id="Vector_20" fill-rule="evenodd" clip-rule="evenodd" d="M113.92 35.9762C104.493 39.6536 95.1955 41.418 85.2076 42.8666C85.581 43.0895 85.9357 43.2938 86.3091 43.5167C96.129 42.0866 105.949 40.0251 115.153 36.4963C115.657 36.3105 116.161 36.1248 116.665 35.9205C116.851 35.9762 117.038 36.0505 117.225 36.1063C117.225 35.8462 117.225 35.5676 117.225 35.3076C117.187 34.899 116.739 34.8619 116.105 35.1219L113.902 35.9762H113.92Z" fill="url(#paint3_radial_9874_60161)"/>
<path id="Vector_21" fill-rule="evenodd" clip-rule="evenodd" d="M60.3594 76.1487L61.1435 76.483C61.1435 76.8173 61.1435 77.0588 60.5647 77.1331L59.4259 77.2816C59.2579 77.3188 59.1086 77.2816 58.9405 77.2259L46.6191 71.9513C45.7603 71.5799 45.7603 71.0041 45.7416 70.1312L45.2936 52.2645C45.2749 51.5587 45.6856 50.9272 46.3577 50.6858L49.6434 49.4972C59.0526 46.0612 67.6589 43.7954 77.7401 42.291L83.1541 43.9625C79.439 48.6242 70.4593 52.6359 63.0664 55.4589L61.2182 56.239C60.5834 56.499 60.1727 57.0747 60.1727 57.7619L60.3407 76.1301L60.3594 76.1487Z" fill="url(#paint4_linear_9874_60161)"/>
<path id="Vector_22" fill-rule="evenodd" clip-rule="evenodd" d="M60.3594 76.1482L60.1913 57.78C60.1913 57.0928 60.602 56.5357 61.2368 56.2571L63.085 55.477C70.4779 52.6354 79.4763 48.6423 83.1728 43.9806L82.594 43.7949C82.594 43.7949 82.538 43.8506 82.538 43.8692C77.7028 49.1438 67.2668 52.9512 60.0793 55.6628C59.2952 55.9599 58.8472 56.9257 58.8472 57.7429C58.8472 62.3303 58.9592 68.9235 59.1272 76.3154C59.1272 76.724 58.9779 77.3555 60.0793 77.2069L60.5834 77.1326C61.1621 77.0583 61.1621 76.8169 61.1621 76.4825L60.378 76.1482H60.3594Z" fill="url(#paint5_radial_9874_60161)"/>
<path id="Vector_23" fill-rule="evenodd" clip-rule="evenodd" d="M105.183 76.1858L104.399 76.5201C104.399 76.8544 104.399 77.0959 104.978 77.1702L106.117 77.3187C106.285 77.3559 106.434 77.3187 106.602 77.263L118.924 71.9884C119.782 71.617 119.782 71.0412 119.801 70.1683L120.249 52.3016C120.268 51.5958 119.857 50.9643 119.185 50.7229L115.899 49.5343C106.49 46.0983 97.8839 43.8325 87.8027 42.3281L82.3887 43.9997C86.1038 48.6614 95.0835 52.673 102.476 55.496L104.325 56.2761C104.959 56.5361 105.37 57.1118 105.37 57.799L105.202 76.1673L105.183 76.1858Z" fill="url(#paint6_linear_9874_60161)"/>
<path id="Vector_24" fill-rule="evenodd" clip-rule="evenodd" d="M105.183 76.1873L105.351 57.8191C105.351 57.1319 104.941 56.5747 104.306 56.2961L102.458 55.5161C95.0649 52.6745 86.0664 48.6814 82.37 44.0197L82.9487 43.834C82.9487 43.834 83.0047 43.8897 83.0047 43.9083C87.84 49.1829 98.2759 52.9902 105.463 55.7018C106.248 55.999 106.696 56.9648 106.696 57.7819C106.696 62.3694 106.584 68.9626 106.416 76.3545C106.416 76.7631 106.565 77.3945 105.463 77.2459L104.959 77.1716C104.381 77.0974 104.381 76.8559 104.381 76.5216L105.165 76.1873H105.183Z" fill="url(#paint7_radial_9874_60161)"/>
<path id="Vector_25" style="mix-blend-mode:screen" fill-rule="evenodd" clip-rule="evenodd" d="M97.9398 52.748C99.228 53.1195 103.055 54.4381 105.314 55.4039C106.509 55.9239 106.976 56.6483 106.938 58.2827C106.882 61.2543 106.77 67.2903 106.584 68.7947C106.528 67.3646 106.49 61.1985 106.416 58.2827C106.378 56.9083 106.117 56.4068 105.127 55.8311C103.167 54.6796 99.2466 53.3238 97.9398 52.748Z" fill="url(#paint8_radial_9874_60161)"/>
<path id="Vector_26" style="mix-blend-mode:screen" fill-rule="evenodd" clip-rule="evenodd" d="M67.6029 52.7285C66.3147 53.1 62.4876 54.4186 60.2287 55.3844C59.0339 55.9044 58.5671 56.6287 58.6045 58.2631C58.6605 61.2347 58.9032 68.7566 59.1272 76.3156C59.0525 67.7537 59.0712 61.179 59.1272 58.2631C59.1646 56.8888 59.4259 56.3873 60.4154 55.8116C62.3756 54.6601 66.2961 53.3043 67.6029 52.7285Z" fill="url(#paint9_radial_9874_60161)"/>
<g id="?">
<g id="Group_4" style="mix-blend-mode:multiply">
<path id="Vector_27" fill-rule="evenodd" clip-rule="evenodd" d="M57.5591 122.728C56.775 122.728 55.7856 122.227 55.1322 121.744C53.9934 120.871 53.0226 119.311 52.7986 117.955C52.6679 117.194 52.6492 116.581 52.7052 115.986C52.7612 115.392 53.0973 114.909 53.5827 114.686C53.676 114.649 53.8067 114.612 53.956 114.612C54.9642 114.612 56.607 115.634 57.2791 116.488C58.4739 117.974 59.0153 120.239 58.5486 121.874C58.3432 122.617 57.9325 122.728 57.5405 122.728H57.5591ZM57.3164 110.155C56.8684 110.155 56.3643 110.043 56.103 109.913C54.6468 109.263 53.228 107.294 53.1346 105.79C53.0226 103.914 53.5267 103.116 54.0307 102.596C54.7028 101.89 55.5802 101.481 56.495 101.036C57.2231 100.683 57.9885 100.311 58.6606 99.7912C59.4447 99.1783 59.8928 98.3796 60.0608 97.3396C60.2848 95.8724 60.1541 94.4237 59.6687 93.1608C58.9966 91.4335 56.4577 88.9262 53.9747 88.9262C53.5267 88.9262 53.0973 89.0191 52.7052 89.1677C51.6038 89.632 51.2117 90.4863 50.9503 91.1178C50.857 91.3407 50.7637 91.5635 50.6143 91.7864C50.521 91.935 50.3343 92.1207 49.8676 92.1207C49.4568 92.1207 48.9528 91.9536 48.5234 91.6935C47.7766 91.2106 47.1419 90.412 46.7125 89.372C45.7977 87.1618 46.2271 84.6731 47.7393 83.4473C48.6541 82.7044 49.6995 82.3516 50.969 82.3516C52.2385 82.3516 53.7507 82.723 55.4869 83.5031C61.2929 86.1032 65.0267 91.1178 65.7175 97.2467C66.2589 102.038 65.0267 104.657 61.6103 106.05C60.0608 106.682 59.0713 107.09 58.5859 107.573C57.9325 108.223 57.8392 108.929 57.8392 109.467C57.8392 109.969 57.5031 110.155 57.2791 110.155H57.3164Z" fill="#BC2688"/>
</g>
<path id="Vector_28" fill-rule="evenodd" clip-rule="evenodd" d="M49.8488 114.054C49.7181 115.243 54.2733 123.136 54.74 123.303C56.0655 123.378 58.1751 122.356 58.5672 120.982C59.1272 118.976 58.4178 116.413 57.1297 114.797C56.3642 113.85 54.4227 112.531 53.0038 112.587C52.1637 112.624 50.3715 113.441 49.8675 114.054H49.8488ZM46.4884 92.6217C47.4965 92.9374 49.7554 92.3802 50.5209 91.2473C51.0809 90.4115 51.0809 89.4458 52.2011 88.9815C54.2733 88.1085 57.223 90.6344 57.9324 92.4359C58.3618 93.5503 58.4738 94.8132 58.2685 96.1319C58.1191 97.0419 57.7457 97.5991 57.2043 98.0077C55.8042 99.1035 53.8813 99.4749 52.4998 100.886C51.6597 101.759 51.2303 102.892 51.3423 104.75C51.4543 106.644 53.1719 109.968 54.8894 110.73C55.8228 110.618 57.6524 109.727 57.8204 109.337C58.0818 108.78 57.5404 107.888 58.3431 107.108C58.7539 106.7 59.986 106.217 61.0688 105.79C65.3253 104.062 66.2401 100.626 65.736 96.0576C64.9893 89.4829 61.0128 84.3198 55.0014 81.6267C53.1718 80.8095 51.1556 80.2152 49.27 80.4567C48.2433 80.5867 45.9657 81.3296 45.0695 82.0539C44.3975 84.1155 44.5281 91.3587 46.507 92.6031L46.4884 92.6217Z" fill="url(#paint10_radial_9874_60161)"/>
<path id="Vector_29" fill-rule="evenodd" clip-rule="evenodd" d="M50.5769 113.555C49.8302 113.907 49.2888 114.632 49.1768 115.579C49.1021 116.322 49.1394 117.046 49.2701 117.789C49.5315 119.405 50.6516 121.169 51.9398 122.154C53.3773 123.249 56.1403 124.289 56.831 121.819C57.3911 119.813 56.6817 117.25 55.3935 115.635C54.4974 114.52 52.0144 112.904 50.5956 113.573L50.5769 113.555ZM43.2587 89.4103C43.7254 90.5246 44.4535 91.5275 45.4243 92.159C46.3951 92.7719 48.0006 93.1248 48.766 91.9733C49.3261 91.1375 49.3261 90.1532 50.4462 89.6889C52.5372 88.8159 55.4869 91.3418 56.1963 93.1619C56.6257 94.2763 56.7377 95.5578 56.5323 96.8578C56.383 97.7679 56.0096 98.3251 55.4682 98.7337C54.068 99.8294 52.1265 100.201 50.745 101.631C49.9049 102.504 49.4755 103.637 49.5875 105.513C49.6995 107.407 51.361 109.636 53.0786 110.416C53.6573 110.676 54.7028 110.843 55.3188 110.639C55.6175 110.546 55.9536 110.397 56.0843 110.119C56.3456 109.561 55.8042 108.67 56.607 107.89C57.0177 107.481 58.2499 106.998 59.3326 106.571C63.6078 104.844 64.5226 101.39 63.9999 96.8207C63.2531 90.2275 59.258 85.0643 53.2279 82.3527C50.4089 81.0898 47.1045 80.3283 44.5282 82.4084C42.68 83.9128 42.1573 86.8101 43.2214 89.3917L43.2587 89.4103Z" fill="url(#paint11_radial_9874_60161)"/>
</g>
<g id="?_2">
<g id="Group_5">
<g id="Group_6" style="mix-blend-mode:multiply">
<path id="Vector_30" fill-rule="evenodd" clip-rule="evenodd" d="M101.916 96.6757C101.711 94.5956 103.074 91.7168 104.661 89.3767C107.312 85.495 113.36 80.5733 118.177 81.2791C121.892 81.8177 123.255 85.0864 123.386 88.5966C123.535 93.054 122.135 96.2299 119.67 99.7959C118.401 101.635 116.59 103.548 115.563 105.479C115.377 105.85 115.171 106.203 115.059 106.612C114.873 107.299 115.115 107.801 114.686 108.599C114.032 109.806 112.707 111.088 111.288 111.311C109.272 111.627 108.544 110.159 108.637 108.581C108.786 105.516 110.112 103.455 111.83 101.04C113.454 98.7558 116.851 94.7441 115.937 91.9583C115.526 90.7139 114.779 90.1567 113.92 90.0453C110.616 89.6738 109.16 93.7969 108.189 96.1371C107.648 97.4557 106.92 98.4029 105.631 99.053C103.671 100.056 102.122 98.7001 101.916 96.6757Z" fill="#BC2688"/>
</g>
<g id="Group_7" style="mix-blend-mode:multiply">
<path id="Vector_31" fill-rule="evenodd" clip-rule="evenodd" d="M111.325 114.987C108.954 116.287 107.517 118.59 107.685 121.301C107.778 122.861 108.749 124.57 110.616 124.124C113.958 123.344 115.713 120.391 115.638 117.122C115.582 114.337 113.342 113.872 111.325 114.987Z" fill="#BC2688"/>
</g>
</g>
<path id="Vector_32" fill-rule="evenodd" clip-rule="evenodd" d="M99.844 95.7245C99.6387 93.6444 101.002 90.7656 102.588 88.4255C105.239 84.5439 111.288 79.6221 116.105 80.3279C117.374 80.5136 118.886 81.0708 119.876 81.6837C123.722 85.3053 120.025 95.2973 117.598 98.8447C117.075 99.6062 110.933 109.821 110.411 111.065C109.795 111.158 108.114 110.378 107.741 110.174C106.845 109.747 106.528 108.688 106.584 107.592C106.733 104.546 108.058 102.466 109.776 100.052C111.4 97.7675 114.798 93.7558 113.883 90.9699C113.472 89.7256 112.726 89.1684 111.867 89.057C108.562 88.6855 107.106 92.8086 106.135 95.1488C105.594 96.4674 105.277 98.4175 103.97 99.0861C103.335 99.0861 101.45 98.3618 100.908 97.8975C100.329 97.4146 99.9374 96.616 99.844 95.6874V95.7245ZM109.235 114.037C106.864 115.337 105.426 117.64 105.594 120.352C105.65 121.299 106.023 122.283 106.714 122.822C107.2 123.193 109.253 124.029 109.664 123.936C111.531 122.283 113.808 116.117 114.163 114.483C113.174 113.926 112.334 113.628 111.643 113.517C110.915 113.387 110.056 113.591 109.216 114.037H109.235Z" fill="url(#paint12_radial_9874_60161)"/>
<path id="Vector_33" fill-rule="evenodd" clip-rule="evenodd" d="M101.58 96.414C101.375 94.3338 102.738 91.4551 104.325 89.115C106.976 85.2333 113.024 80.3116 117.841 81.0173C121.556 81.5559 122.919 84.8247 123.05 88.3349C123.199 92.7923 121.799 95.9682 119.335 99.5341C118.065 101.373 116.254 103.286 115.227 105.217C115.041 105.589 114.835 105.942 114.723 106.35C114.537 107.037 114.779 107.539 114.35 108.338C113.696 109.545 112.371 110.826 110.952 111.049C108.936 111.365 108.208 109.898 108.301 108.319C108.451 105.254 109.776 103.193 111.494 100.779C113.118 98.4941 116.516 94.4824 115.601 91.6965C115.19 90.4522 114.443 89.895 113.584 89.7836C110.28 89.4121 108.824 93.5352 107.853 95.8754C107.312 97.194 106.584 98.1412 105.295 98.7912C103.335 99.7942 101.786 98.4384 101.58 96.414ZM110.99 114.708C108.619 116.008 107.181 118.311 107.349 121.023C107.442 122.583 108.413 124.291 110.28 123.846C113.622 123.066 115.377 120.112 115.302 116.844C115.246 114.058 113.006 113.594 110.99 114.708Z" fill="url(#paint13_radial_9874_60161)"/>
</g>
</g>
<g id="ribon">
<path id="Vector_34" fill-rule="evenodd" clip-rule="evenodd" d="M99.6201 19.1521C99.8628 27.5469 94.8782 33.0629 88.9788 36.796C87.6906 38.6533 86.4398 40.4919 85.245 42.2749C91.2937 41.142 99.2093 39.8233 105.407 36.8889C109.123 35.1245 112.875 31.7814 114.723 27.4912C116.814 22.6623 116.235 16.4034 111.774 15.3076C111.419 15.2519 111.064 15.1962 110.709 15.1219C110.523 15.1033 110.355 15.0847 110.168 15.0847C105.314 14.8062 102.14 16.7934 99.6014 19.1521H99.6201Z" fill="url(#paint14_linear_9874_60161)"/>
<path id="Vector_35" fill-rule="evenodd" clip-rule="evenodd" d="M81.3993 40.6578L85.2264 42.1622C89.0162 36.6461 92.8433 31.1858 96.8945 25.8555C101.058 20.3766 104.81 14.712 111.139 14.6191C105.93 13.8762 101.879 12.5019 97.6226 10.7746C93.9821 9.28883 91.0698 10.9418 89.0349 16.1049C85.8798 24.0354 83.5089 32.4116 81.3993 40.6578Z" fill="url(#paint15_linear_9874_60161)"/>
<path id="Vector_36" d="M84.8343 42.0122C88.3814 36.7005 92.0779 31.4445 95.961 26.3742C99.5641 21.6753 105.351 11.9805 112.744 15.1192C116.59 16.7536 116.814 21.9168 115.955 25.3898C115.209 28.38 113.528 31.073 111.363 33.2646C105.351 39.3378 94.7289 41.0465 86.6452 42.5323L84.1996 42.9966L84.853 42.0308L84.8343 42.0122ZM85.3197 42.068C93.9634 40.0621 107.237 38.2606 112.371 29.9587C115.283 25.2598 116.553 18.8895 112.147 16.475C106.92 13.5963 100.311 22.6968 97.0811 26.9314C93.4407 31.6859 89.3709 37.462 85.3197 42.0865V42.068Z" fill="url(#paint16_radial_9874_60161)"/>
<path id="Vector_37" fill-rule="evenodd" clip-rule="evenodd" d="M63.3464 42.2359C67.9016 54.2709 77.3855 46.5819 85.5998 42.3473L81.4739 40.6387C76.0226 42.1616 68.7231 42.8117 63.3464 42.2545V42.2359Z" fill="url(#paint17_linear_9874_60161)"/>
<path id="Vector_38" fill-rule="evenodd" clip-rule="evenodd" d="M57.223 21.4553C59.7433 20.9167 60.7701 21.1952 63.8505 22.4767C66.8002 23.7025 69.3765 24.854 72.4569 25.7269C75.6679 26.6184 76.9374 26.7113 78.5242 28.5128C79.5137 29.6457 80.2978 31.0758 81.0072 32.5059C82.5381 35.5704 84.0316 38.3377 86.0105 41.1421C85.9358 41.5879 85.8611 42.0336 85.7865 42.4608C83.4342 41.6993 81.5859 40.9192 79.607 39.6006C75.2385 36.6847 72.1021 32.2459 68.6857 28.3642C66.3708 25.7269 63.8878 23.4797 59.986 22.0124C58.9966 21.641 58.0631 21.4553 57.223 21.4553Z" fill="url(#paint18_linear_9874_60161)"/>
<path id="Vector_39" fill-rule="evenodd" clip-rule="evenodd" d="M76.3026 26.5055C73.1102 26.6912 71.5607 27.8613 68.9284 30.74C66.5387 33.3402 64.6158 36.8132 64.2051 40.342C63.8504 43.3879 64.7465 46.3038 67.6775 48.5139C62.6556 46.2295 57.839 44.0936 52.201 42.4407C51.1929 41.995 50.2968 41.3635 49.5687 40.6206C42.3998 33.3587 50.9129 20.5251 60.154 20.7851C60.6767 20.7851 61.2181 20.8409 61.6662 21.0452C66.3707 23.181 70.6646 25.0382 76.3399 26.4869L76.3026 26.5055Z" fill="url(#paint19_linear_9874_60161)"/>
<path id="Vector_40" fill-rule="evenodd" clip-rule="evenodd" d="M75.2198 27.4346C77.0494 27.3046 78.3935 28.8647 79.1216 29.979C80.2604 31.762 81.1005 33.7307 82.09 35.5879C83.0794 37.4637 84.5356 39.5253 85.7677 41.2525L85.581 41.9026C83.7142 42.9984 81.6046 44.2427 79.719 45.3013C77.6281 46.4714 75.0891 47.5858 72.7368 48.1058C70.2912 48.663 67.5656 48.2172 65.96 45.9328C63.7384 42.7755 65.2506 37.9466 66.9308 34.8822C67.9389 33.0435 69.3391 30.9819 70.926 29.589C72.0648 28.5861 73.6516 27.5275 75.2198 27.416V27.4346ZM75.0144 26.3945C68.7044 26.8217 60.5087 39.971 64.9892 46.3414C65.624 47.2515 66.4641 47.9572 67.4909 48.4401C68.9657 49.1273 70.8139 49.3316 72.9049 48.8858C77.2174 47.9572 81.9779 44.6513 85.7864 42.4598L86.2531 41.0111C83.9382 37.8538 81.7166 33.0621 79.7937 29.6076C78.8602 27.936 77.6654 26.8217 76.2279 26.506C75.8359 26.4131 75.4252 26.376 75.0144 26.4131V26.3945Z" fill="url(#paint20_radial_9874_60161)"/>
<path id="Vector_41" style="mix-blend-mode:screen" fill-rule="evenodd" clip-rule="evenodd" d="M73.5957 26.6895C67.3789 29.8096 63.6638 37.1086 63.9065 43.8505C62.693 38.0558 66.8562 28.9739 73.5957 26.6895Z" fill="url(#paint21_radial_9874_60161)"/>
<path id="Vector_42" style="mix-blend-mode:screen" fill-rule="evenodd" clip-rule="evenodd" d="M89.2588 35.5479C93.2726 29.3261 101.039 16.5111 106.845 15.1367C100.217 19.1484 94.1127 29.2704 89.2588 35.5479Z" fill="url(#paint22_radial_9874_60161)"/>
<path id="Vector_43" style="mix-blend-mode:screen" opacity="0.75" d="M98.1079 39.0238C104.922 36.7765 112.147 33.0991 114.443 25.4473C113.902 28.1774 111.699 35.755 98.1079 39.0238Z" fill="url(#paint23_radial_9874_60161)"/>
<g id="Group_8">
<path id="Vector_44" fill-rule="evenodd" clip-rule="evenodd" d="M116.011 37.2055C118.102 36.7598 119.577 36.3512 121.612 35.6083C126.205 33.9367 127.698 34.1967 131.04 35.1439C130.386 35.8683 129.826 36.6669 129.36 37.5584C130.48 38.9699 131.357 40.5486 131.973 42.3129C127.325 41.6629 125.644 41.9601 121.556 43.7987C120.473 44.2816 119.26 44.8759 117.804 45.006C114.966 45.266 115.563 43.3716 115.731 41.3472C115.862 39.9728 115.918 38.5799 116.011 37.1869V37.2055Z" fill="url(#paint24_linear_9874_60161)"/>
<path id="Vector_45" style="mix-blend-mode:multiply" opacity="0.6" fill-rule="evenodd" clip-rule="evenodd" d="M121.388 43.8522C120.679 41.9207 120.175 38.5033 120.324 36.0332C118.905 36.5161 117.654 36.8318 116.03 37.1847C115.937 38.5776 115.881 39.952 115.75 41.3449C115.563 43.3508 114.966 45.2637 117.822 45.0037C119.204 44.8737 120.361 44.3351 121.407 43.8522H121.388Z" fill="url(#paint25_linear_9874_60161)"/>
<path id="Vector_46" fill-rule="evenodd" clip-rule="evenodd" d="M89.0349 42.9263C88.0454 42.4062 87.0933 41.7934 86.0665 41.3476C82.1647 39.6761 78.2256 38.0603 74.2304 36.6116C70.6647 35.3115 65.5307 36.4259 64.6346 40.6604C64.1866 42.7777 65.008 44.9693 64.7093 46.4365C64.4853 47.4951 63.5518 47.7551 61.5543 47.5508C60.8822 47.4765 60.1914 47.4022 59.5567 47.4951C56.7563 47.8294 55.0575 50.0024 54.236 52.5468C52.7425 57.19 55.7856 62.2417 54.068 65.9376C57.1671 65.9005 59.538 65.1576 61.2182 64.2475C63.3838 67.3677 67.2669 69.5593 68.5364 72.5123C70.4593 68.6864 65.9601 63.7275 69.1712 58.0443C70.478 55.7599 72.7743 54.2741 75.948 54.4041C77.2548 54.4598 79.7004 55.0541 79.9618 53.0669C80.1672 51.4882 79.9618 49.9653 79.9991 48.5166C80.1485 43.5949 84.293 40.2704 89.0162 42.9634L89.0349 42.9263Z" fill="url(#paint26_linear_9874_60161)"/>
<path id="Vector_47" fill-rule="evenodd" clip-rule="evenodd" d="M86.8693 41.3094C89.5202 39.8607 91.7978 38.1335 94.2621 36.3877C98.9294 33.0818 104.157 28.2901 110.261 28.2715C113.435 28.2715 115.974 29.6458 116.161 32.246C116.329 34.5118 116.254 36.7777 116.291 39.0435C115.227 36.5363 111.101 35.6262 107.013 36.1462C103.242 36.6105 99.3961 38.6349 95.9797 40.1393C92.8993 41.4765 91.3498 42.2752 88.6801 42.1823C88.0641 41.8851 87.4667 41.6066 86.8506 41.3094H86.8693Z" fill="url(#paint27_linear_9874_60161)"/>
<path id="Vector_48" fill-rule="evenodd" clip-rule="evenodd" d="M75.9666 54.3844C72.7928 54.2544 70.4966 55.7402 69.1897 58.0246C65.96 63.6893 70.4592 68.6481 68.555 72.4926L69.5818 72.6226C70.6086 69.8553 69.3204 67.2366 69.0591 63.9307C68.723 59.6405 70.7393 55.3316 76.2093 55.5545C80.3724 55.7217 81.1939 54.7002 80.8391 50.5771C80.3911 45.4325 82.594 41.5137 89.0348 42.9252C88.9228 42.8695 88.8294 42.8138 88.7174 42.758C84.1249 40.3808 80.1671 43.6867 80.0177 48.4969C79.9804 49.9642 80.1857 51.4685 79.9804 53.0472C79.719 55.053 77.2734 54.4402 75.9666 54.3844Z" fill="url(#paint28_radial_9874_60161)"/>
<path id="Vector_49" d="M88.6241 42.1261C92.4326 42.1261 94.1688 40.7331 97.3985 39.2659C101.338 37.4644 104.735 35.9971 109.141 35.6628C110.859 35.5328 114.126 35.7743 115.395 36.8515C116.123 37.4644 116.441 38.3373 116.291 39.7302C116.235 40.2502 116.03 41.0674 115.862 41.8661C115.526 43.5747 115.47 45.2091 117.841 44.8562C119.465 44.6148 120.623 44.169 121.985 43.5933C125.701 41.8846 127.829 41.5317 131.973 42.2932L131.768 43.1661C127.96 42.4418 126.055 42.8133 122.546 44.2805C121.127 44.8748 119.82 45.562 118.046 45.8406C116.385 46.082 115.507 45.7106 115.041 44.8934C113.865 42.8133 116.254 38.8759 114.835 37.6687C113.865 36.8515 110.523 36.5729 109.197 36.6843C104.959 37.0001 101.506 38.393 97.7159 40.1388C96.3157 40.7703 91.4992 43.4261 88.6428 42.1446L88.6241 42.1261Z" fill="url(#paint29_radial_9874_60161)"/>
<path id="Vector_50" style="mix-blend-mode:multiply" opacity="0.5" fill-rule="evenodd" clip-rule="evenodd" d="M57.2791 48.2746L72.6996 54.9235C73.6517 54.5335 74.7531 54.3478 75.9666 54.4035C76.9374 54.4406 78.5056 54.7749 79.3644 54.162L63.8318 47.4574C63.3278 47.6431 62.581 47.6617 61.5542 47.5502C60.8822 47.4759 60.1914 47.4016 59.5567 47.4945C58.6979 47.6059 57.9325 47.8845 57.2791 48.2931V48.2746Z" fill="url(#paint30_linear_9874_60161)"/>
</g>
<path id="Vector_51" fill-rule="evenodd" clip-rule="evenodd" d="M84.4423 38.7637C84.965 39.618 85.8238 39.7666 86.0104 40.3609C86.2345 41.0667 85.8984 42.9054 84.9277 43.4997C85.9918 43.3325 88.7361 43.0168 89.3709 42.0324C89.8936 41.2153 90.0056 38.9308 88.7921 38.1508C88.0454 37.6865 87.7093 38.2251 86.7385 38.4108C85.8984 38.578 84.9837 38.7265 84.4423 38.7637Z" fill="url(#paint31_linear_9874_60161)"/>
<path id="Vector_52" fill-rule="evenodd" clip-rule="evenodd" d="M86.3091 40.0456C86.1971 39.637 85.7863 39.4327 85.1703 39.377C85.3196 39.5998 85.469 39.8413 85.6183 40.0641C85.8797 40.1756 85.5063 42.5529 85.3196 42.7386C85.2823 42.7757 85.245 42.7943 85.1889 42.8129C84.7969 43.0543 84.3862 43.2958 83.9755 43.5372C84.0315 43.5372 84.0501 43.5372 84.0875 43.5372C84.5915 43.5372 85.3943 43.5743 85.7864 43.1657C86.0664 42.8872 86.2344 42.4043 86.3091 41.8657C86.4024 41.2342 86.4398 40.417 86.3464 40.0456H86.3091Z" fill="url(#paint32_radial_9874_60161)"/>
</g>
</g>
</g>
<defs>
<linearGradient id="paint0_linear_9874_60161" x1="48.2992" y1="36.9438" x2="83.3407" y2="36.9438" gradientUnits="userSpaceOnUse">
<stop stop-color="#FFBD00"/>
<stop offset="1" stop-color="#D67200"/>
</linearGradient>
<radialGradient id="paint1_radial_9874_60161" cx="0" cy="0" r="1" gradientUnits="userSpaceOnUse" gradientTransform="translate(53.8625 35.81) scale(21.1519 21.0427)">
<stop stop-color="#FFC382"/>
<stop offset="1" stop-color="#9E2410"/>
</radialGradient>
<linearGradient id="paint2_linear_9874_60161" x1="82.202" y1="36.9428" x2="117.225" y2="36.9428" gradientUnits="userSpaceOnUse">
<stop stop-color="#A63A00"/>
<stop offset="1" stop-color="#FFBD00"/>
</linearGradient>
<radialGradient id="paint3_radial_9874_60161" cx="0" cy="0" r="1" gradientUnits="userSpaceOnUse" gradientTransform="translate(107.965 28.7515) scale(24.3629 24.2371)">
<stop stop-color="#E8814D"/>
<stop offset="1" stop-color="#9E3726"/>
</radialGradient>
<linearGradient id="paint4_linear_9874_60161" x1="52.8358" y1="74.6629" x2="68.4176" y2="37.7385" gradientUnits="userSpaceOnUse">
<stop stop-color="#9E6551"/>
<stop offset="0.01" stop-color="#AF7041"/>
<stop offset="0.02" stop-color="#CD8524"/>
<stop offset="0.03" stop-color="#E39410"/>
<stop offset="0.04" stop-color="#F09C04"/>
<stop offset="0.05" stop-color="#F5A000"/>
<stop offset="0.36" stop-color="#F5AF00"/>
<stop offset="0.46" stop-color="#FFDD57"/>
<stop offset="0.58" stop-color="#FFB54D"/>
<stop offset="1" stop-color="#E08A00"/>
</linearGradient>
<radialGradient id="paint5_radial_9874_60161" cx="0" cy="0" r="1" gradientUnits="userSpaceOnUse" gradientTransform="translate(59.93 57.3157) scale(20.4425 20.3369)">
<stop stop-color="#E8814D"/>
<stop offset="1" stop-color="#9E3726"/>
</radialGradient>
<linearGradient id="paint6_linear_9874_60161" x1="97.2678" y1="38.0007" x2="112.144" y2="75.0321" gradientUnits="userSpaceOnUse">
<stop stop-color="#B05B00"/>
<stop offset="0.42" stop-color="#F5A000"/>
<stop offset="0.54" stop-color="#FFCC14"/>
<stop offset="0.64" stop-color="#F5A000"/>
<stop offset="0.95" stop-color="#BD6500"/>
<stop offset="0.96" stop-color="#B96003"/>
<stop offset="0.98" stop-color="#B0530D"/>
<stop offset="0.99" stop-color="#9C3723"/>
</linearGradient>
<radialGradient id="paint7_radial_9874_60161" cx="0" cy="0" r="1" gradientUnits="userSpaceOnUse" gradientTransform="translate(107.013 56.7605) scale(25.2217 25.0915)">
<stop stop-color="#FFDD57"/>
<stop offset="1" stop-color="#9E3726"/>
</radialGradient>
<radialGradient id="paint8_radial_9874_60161" cx="0" cy="0" r="1" gradientUnits="userSpaceOnUse" gradientTransform="translate(108.45 56.2583) scale(14.095 14.0222)">
<stop stop-color="#FFF2BB"/>
<stop offset="1"/>
</radialGradient>
<radialGradient id="paint9_radial_9874_60161" cx="0" cy="0" r="1" gradientUnits="userSpaceOnUse" gradientTransform="translate(56.2522 56.8702) scale(22.0853 21.9713)">
<stop stop-color="#FFF2BB"/>
<stop offset="1"/>
</radialGradient>
<radialGradient id="paint10_radial_9874_60161" cx="0" cy="0" r="1" gradientUnits="userSpaceOnUse" gradientTransform="translate(45.0509 82.1839) scale(42.4718 42.2525)">
<stop stop-color="#E8814D"/>
<stop offset="1" stop-color="#9E3726"/>
</radialGradient>
<radialGradient id="paint11_radial_9874_60161" cx="0" cy="0" r="1" gradientUnits="userSpaceOnUse" gradientTransform="translate(41.2985 81.2012) scale(47.9791 47.7314)">
<stop stop-color="#FFC500"/>
<stop offset="1" stop-color="#F59714"/>
</radialGradient>
<radialGradient id="paint12_radial_9874_60161" cx="0" cy="0" r="1" gradientUnits="userSpaceOnUse" gradientTransform="translate(69.2084 96.8946) scale(52.2729 52.003)">
<stop stop-color="#E8814D"/>
<stop offset="1" stop-color="#9E3726"/>
</radialGradient>
<radialGradient id="paint13_radial_9874_60161" cx="0" cy="0" r="1" gradientUnits="userSpaceOnUse" gradientTransform="translate(72.2515 93.9438) scale(63.0636 62.738)">
<stop stop-color="#FFBD00"/>
<stop offset="1" stop-color="#9C3600"/>
</radialGradient>
<linearGradient id="paint14_linear_9874_60161" x1="97.7345" y1="45.1536" x2="104.944" y2="13.7312" gradientUnits="userSpaceOnUse">
<stop stop-color="#8F3508"/>
<stop offset="0.21" stop-color="#BD500B"/>
<stop offset="0.7" stop-color="#F7A100"/>
<stop offset="1" stop-color="#964324"/>
</linearGradient>
<linearGradient id="paint15_linear_9874_60161" x1="88.9229" y1="43.6108" x2="101.689" y2="10.934" gradientUnits="userSpaceOnUse">
<stop offset="0.3" stop-color="#C25D0A"/>
<stop offset="0.86" stop-color="#FFF14F"/>
<stop offset="0.94" stop-color="#F5B90A"/>
<stop offset="1" stop-color="#E68A00"/>
</linearGradient>
<radialGradient id="paint16_radial_9874_60161" cx="0" cy="0" r="1" gradientUnits="userSpaceOnUse" gradientTransform="translate(96.9878 17.8308) scale(41.5383 41.3238)">
<stop stop-color="#F59F41"/>
<stop offset="1" stop-color="#A64416"/>
</radialGradient>
<linearGradient id="paint17_linear_9874_60161" x1="71.2247" y1="49.5721" x2="76.2589" y2="38.2049" gradientUnits="userSpaceOnUse">
<stop offset="0.05" stop-color="#B7402C"/>
<stop offset="1" stop-color="#E68A00"/>
</linearGradient>
<linearGradient id="paint18_linear_9874_60161" x1="69.9179" y1="38.802" x2="73.2639" y2="24.2335" gradientUnits="userSpaceOnUse">
<stop stop-color="#D46C2C"/>
<stop offset="1" stop-color="#964324"/>
</linearGradient>
<linearGradient id="paint19_linear_9874_60161" x1="55.8228" y1="43.9079" x2="64.4448" y2="21.8691" gradientUnits="userSpaceOnUse">
<stop stop-color="#F28B1D"/>
<stop offset="0.41" stop-color="#FFDC2B"/>
<stop offset="0.55" stop-color="#FFF79D"/>
<stop offset="0.78" stop-color="#F5B90A"/>
<stop offset="1" stop-color="#E68A00"/>
</linearGradient>
<radialGradient id="paint20_radial_9874_60161" cx="0" cy="0" r="1" gradientUnits="userSpaceOnUse" gradientTransform="translate(69.4138 27.6203) scale(36.3857 36.1978)">
<stop stop-color="#F59F41"/>
<stop offset="1" stop-color="#A64416"/>
</radialGradient>
<radialGradient id="paint21_radial_9874_60161" cx="0" cy="0" r="1" gradientUnits="userSpaceOnUse" gradientTransform="translate(64.9333 30.7383) scale(19.0796 18.9811)">
<stop stop-color="#FFF2BB"/>
<stop offset="1"/>
</radialGradient>
<radialGradient id="paint22_radial_9874_60161" cx="0" cy="0" r="1" gradientUnits="userSpaceOnUse" gradientTransform="translate(99.8067 18.7212) scale(21.1145 21.0055)">
<stop stop-color="#FFF2BB"/>
<stop offset="1"/>
</radialGradient>
<radialGradient id="paint23_radial_9874_60161" cx="0" cy="0" r="1" gradientUnits="userSpaceOnUse" gradientTransform="translate(112.091 34.1021) scale(12.7882 12.7222)">
<stop stop-color="#FFF2BB"/>
<stop offset="1"/>
</radialGradient>
<linearGradient id="paint24_linear_9874_60161" x1="115.041" y1="41.05" x2="131.556" y2="37.8235" gradientUnits="userSpaceOnUse">
<stop stop-color="#B85400"/>
<stop offset="0.36" stop-color="#F4A633"/>
<stop offset="0.68" stop-color="#FFCF21"/>
<stop offset="0.75" stop-color="#FCC921"/>
<stop offset="0.83" stop-color="#F5BA22"/>
<stop offset="0.92" stop-color="#EAA024"/>
<stop offset="0.98" stop-color="#E08A26"/>
</linearGradient>
<linearGradient id="paint25_linear_9874_60161" x1="115.097" y1="41.3078" x2="121.106" y2="40.126" gradientUnits="userSpaceOnUse">
<stop stop-color="#EB7900"/>
<stop offset="0.13" stop-color="#EB7A03"/>
<stop offset="0.26" stop-color="#EC800E"/>
<stop offset="0.38" stop-color="#ED8A21"/>
<stop offset="0.49" stop-color="#EF983B"/>
<stop offset="0.61" stop-color="#F2AA5D"/>
<stop offset="0.72" stop-color="#F5C087"/>
<stop offset="0.84" stop-color="#F9DAB9"/>
<stop offset="0.95" stop-color="#FDF7F0"/>
<stop offset="0.97" stop-color="white"/>
</linearGradient>
<linearGradient id="paint26_linear_9874_60161" x1="61.1622" y1="70.8779" x2="75.784" y2="38.1152" gradientUnits="userSpaceOnUse">
<stop stop-color="#FFC85E"/>
<stop offset="0.16" stop-color="#FFBF21"/>
<stop offset="0.33" stop-color="#FFDD57"/>
<stop offset="0.48" stop-color="#FFB54D"/>
<stop offset="0.61" stop-color="#E07F2D"/>
<stop offset="0.77" stop-color="#F4A633"/>
<stop offset="0.88" stop-color="#FFD500"/>
<stop offset="0.94" stop-color="#E79311"/>
<stop offset="1" stop-color="#E08A00"/>
</linearGradient>
<linearGradient id="paint27_linear_9874_60161" x1="86.8693" y1="35.2176" x2="116.31" y2="35.2176" gradientUnits="userSpaceOnUse">
<stop stop-color="#B85400"/>
<stop offset="0.48" stop-color="#FFB54D"/>
<stop offset="0.69" stop-color="#F4A633"/>
<stop offset="0.84" stop-color="#FFD500"/>
<stop offset="0.98" stop-color="#BD6500"/>
</linearGradient>
<radialGradient id="paint28_radial_9874_60161" cx="0" cy="0" r="1" gradientUnits="userSpaceOnUse" gradientTransform="translate(61.8155 53.6787) scale(29.5902 29.4374)">
<stop stop-color="#F59F41"/>
<stop offset="1" stop-color="#A64416"/>
</radialGradient>
<radialGradient id="paint29_radial_9874_60161" cx="0" cy="0" r="1" gradientUnits="userSpaceOnUse" gradientTransform="translate(125.981 33.4713) scale(36.8898 36.6993)">
<stop stop-color="#F59F41"/>
<stop offset="1" stop-color="#A64416"/>
</radialGradient>
<linearGradient id="paint30_linear_9874_60161" x1="67.659" y1="52.7134" x2="68.936" y2="49.7926" gradientUnits="userSpaceOnUse">
<stop offset="0.03" stop-color="white"/>
<stop offset="0.55" stop-color="#EB7900"/>
<stop offset="0.61" stop-color="#EB7A03"/>
<stop offset="0.66" stop-color="#EC800E"/>
<stop offset="0.71" stop-color="#ED8A21"/>
<stop offset="0.76" stop-color="#EF983B"/>
<stop offset="0.81" stop-color="#F2AA5D"/>
<stop offset="0.86" stop-color="#F5C087"/>
<stop offset="0.91" stop-color="#F9DAB9"/>
<stop offset="0.96" stop-color="#FDF7F0"/>
<stop offset="0.97" stop-color="white"/>
</linearGradient>
<linearGradient id="paint31_linear_9874_60161" x1="87.9707" y1="43.6483" x2="86.3433" y2="38.3875" gradientUnits="userSpaceOnUse">
<stop stop-color="#8F3508"/>
<stop offset="0.21" stop-color="#BD500B"/>
<stop offset="0.7" stop-color="#F7A100"/>
<stop offset="1" stop-color="#964324"/>
</linearGradient>
<radialGradient id="paint32_radial_9874_60161" cx="0" cy="0" r="1" gradientUnits="userSpaceOnUse" gradientTransform="translate(81.9779 38.3926) scale(6.21675 6.18465)">
<stop stop-color="#FFC382"/>
<stop offset="1" stop-color="#9E3726"/>
</radialGradient>
</defs>
</svg>
