<svg width="61" height="61" viewBox="0 0 61 61" fill="none" xmlns="http://www.w3.org/2000/svg">
<g id="Add image">
<path id="Vector" fill-rule="evenodd" clip-rule="evenodd" d="M13.9791 21.6035C13.9791 17.3924 17.393 13.9785 21.6041 13.9785C25.8154 13.9785 29.2291 17.3924 29.2291 21.6035C29.2291 25.8148 25.8154 29.2285 21.6041 29.2285C17.393 29.2285 13.9791 25.8148 13.9791 21.6035Z" fill="#868196" fill-opacity="0.6"/>
<path id="Vector_2" fill-rule="evenodd" clip-rule="evenodd" d="M31.766 7.64063H19.7153C17.6693 7.6406 15.9807 7.64058 14.6052 7.74164C13.1765 7.84663 11.8632 8.07193 10.6297 8.63723C8.71672 9.51385 7.16143 10.9126 6.18673 12.6331C5.55817 13.7425 5.30767 14.9237 5.19093 16.2086C5.07856 17.4457 5.07859 18.9643 5.07861 20.8044V40.1948C5.07859 42.0349 5.07856 43.5535 5.19093 44.7906C5.30767 46.0755 5.55817 47.2566 6.18673 48.3662C7.16143 50.0865 8.71672 51.4853 10.6297 52.3619C11.8632 52.9272 13.1765 53.1526 14.6052 53.2575C15.051 53.2902 15.5296 53.3124 16.0427 53.3275C16.5747 53.3593 17.211 53.359 17.8668 53.359C26.3124 53.359 34.7578 53.3586 43.2035 53.3586C43.3217 53.3586 43.4384 53.3586 43.5532 53.3586C45.5749 53.3597 47.076 53.3604 48.3765 53.047C51.8848 52.2015 54.6252 49.7368 55.5654 46.5816C56.0109 45.0859 55.9123 43.4846 55.9118 41.9508C55.9164 41.5181 55.9121 41.0851 55.9121 40.6524C55.9133 39.5806 55.9146 38.636 55.6381 37.7338C55.3956 36.9417 54.9966 36.1954 54.4605 35.5302C53.8498 34.7724 53.0291 34.1831 52.0975 33.5145L44.9021 28.3374C44.4703 28.0267 44.0433 27.7195 43.6557 27.4815C43.2246 27.2168 42.6939 26.9418 42.0298 26.7887C41.0962 26.5733 40.1136 26.6012 39.1971 26.8691C38.5449 27.0596 38.0345 27.364 37.6228 27.6525C37.2525 27.9122 36.8481 28.243 36.4389 28.5776L14.8143 46.2581C14.2717 46.7016 13.7472 47.1304 13.3616 47.5055C13.207 47.6562 12.9722 47.89 12.7526 48.1993C11.8808 47.7584 11.1716 47.0948 10.716 46.2906C10.5134 45.9331 10.3484 45.4206 10.2574 44.4184C10.1639 43.3896 10.1619 42.0585 10.1619 40.1004V20.8988C10.1619 18.9408 10.1639 17.6097 10.2574 16.5809C10.3484 15.5787 10.5134 15.0662 10.716 14.7087C11.2033 13.8484 11.981 13.149 12.9375 12.7107C13.335 12.5286 13.9048 12.3801 15.0191 12.2983C16.1631 12.2142 17.6431 12.2124 19.8202 12.2124H31.766C33.1698 12.2124 34.3077 11.189 34.3077 9.92652C34.3077 8.66407 33.1698 7.64063 31.766 7.64063Z" fill="#868196" fill-opacity="0.6"/>
<path id="Subtract" fill-rule="evenodd" clip-rule="evenodd" d="M36.6677 14.107C36.6677 8.01068 41.6276 3.05078 47.724 3.05078C53.8203 3.05078 58.7802 8.01068 58.7802 14.107C58.7802 20.2034 53.8203 25.1633 47.724 25.1633C41.6276 25.1633 36.6677 20.2034 36.6677 14.107ZM46.372 19.9107C46.372 20.6319 47.0524 21.222 47.8991 21.222C48.7308 21.222 49.4112 20.6319 49.4112 19.9107C49.4112 19.1763 48.7308 18.5993 47.8991 18.5993H47.884C47.0373 18.5993 46.372 19.1763 46.372 19.9107ZM49.3809 16.4094C49.3809 15.675 49.7438 15.0194 50.3184 14.7047C52.0875 13.7212 52.8435 11.8853 52.2236 10.1281C51.7851 8.93476 50.6662 7.95125 49.2902 7.58408C47.8387 7.19067 46.3417 7.40049 45.1623 8.16107C43.9829 8.90853 43.2874 10.1018 43.2874 11.3607V12.6721H46.3115V11.3607C46.3115 10.928 46.5534 10.5346 46.9465 10.2723C47.1885 10.1281 47.6874 9.89204 48.383 10.0887C48.6047 10.1491 48.8067 10.2543 48.9723 10.3957C49.1379 10.537 49.2624 10.7105 49.3356 10.9018C49.6077 11.6623 49.1541 12.2262 48.6854 12.4885C47.2187 13.3015 46.3568 14.7702 46.3568 16.4094V17.7207H49.3809V16.4094Z" fill="#868196" fill-opacity="0.6"/>
</g>
</svg>
