<svg width="21" height="20" viewBox="0 0 21 20" fill="none" xmlns="http://www.w3.org/2000/svg">
<g id="g2667">
<g id="g2669">
<path id="path2671" d="M10.8333 8.4176L12.4872 9.28711L12.1714 7.44547L13.5094 6.14119L11.6603 5.87249L10.8333 4.19692L10.0064 5.87249L8.15727 6.14119L9.49528 7.44547L9.17943 9.28711L10.8333 8.4176Z" stroke="#7A7A7A" stroke-miterlimit="10" stroke-linecap="round" stroke-linejoin="round"/>
</g>
<g id="g2673">
<g id="Clip path group">
<mask id="mask0_446_965" style="mask-type:luminance" maskUnits="userSpaceOnUse" x="0" y="0" width="21" height="20">
<g id="clipPath2679">
<path id="path2677" d="M0.833332 0H20.8333V20H0.833332V0Z" fill="white"/>
</g>
</mask>
<g mask="url(#mask0_446_965)">
<g id="g2675">
<g id="g2681">
<path id="path2683" d="M10.8333 16.4814L6.36433 9.72232C5.79453 8.86953 5.46224 7.84451 5.46224 6.74186C5.46224 3.77548 7.86695 1.37077 10.8333 1.37077C13.7997 1.37077 16.2044 3.77548 16.2044 6.74186C16.2044 7.84451 15.8722 8.86953 15.3023 9.72232L10.8333 16.4814Z" stroke="#7A7A7A" stroke-miterlimit="10" stroke-linecap="round" stroke-linejoin="round"/>
</g>
<g id="g2685">
<path id="path2687" d="M12.2208 14.4054C14.5147 14.65 16.2045 15.4868 16.2045 16.4814C16.2045 17.668 13.7998 18.6299 10.8335 18.6299C7.86707 18.6299 5.46236 17.668 5.46236 16.4814C5.46236 15.4868 7.15214 14.65 9.4461 14.4054" stroke="#7A7A7A" stroke-miterlimit="10" stroke-linecap="round" stroke-linejoin="round"/>
</g>
</g>
</g>
</g>
</g>
</g>
</svg>
