<svg width="33" height="32" viewBox="0 0 33 32" fill="none" xmlns="http://www.w3.org/2000/svg">
<g id="Frame">
<g id="Layer 1">
<path id="Question mark (Stroke)" fill-rule="evenodd" clip-rule="evenodd" d="M18.0531 3.70319L7.43246 6.83426C4.71043 7.63675 3.15422 10.4942 3.95676 13.2164L7.0877 23.8366C7.89024 26.5588 10.7476 28.1151 13.4697 27.3126L24.0903 24.1815C26.8123 23.379 28.3685 20.5216 27.566 17.7993L24.4351 7.1792C23.6325 4.45696 20.7751 2.90071 18.0531 3.70319ZM7.12444 5.78945L17.7451 2.65838C21.0442 1.68577 24.5072 3.57194 25.4799 6.87118L28.6108 17.4913C29.5835 20.7906 27.6974 24.2537 24.3983 25.2263L13.7777 28.3574C10.4786 29.33 7.01553 27.4438 6.04288 24.1446L2.91195 13.5244C1.9393 10.2252 3.82533 6.76206 7.12444 5.78945Z" fill="#868196"/>
<path id="Question mark" d="M23.6162 6.06909H12.5436C9.10415 6.06909 6.3158 8.85755 6.3158 12.2972V23.3692C6.3158 26.8089 9.10415 29.5973 12.5436 29.5973H23.6162C27.0557 29.5973 29.844 26.8089 29.844 23.3692V12.2972C29.844 8.85755 27.0557 6.06909 23.6162 6.06909ZM19.0095 24.0751C18.714 24.3375 18.3671 24.4707 17.9784 24.4707C17.5896 24.4707 17.2257 24.3398 16.9279 24.081C16.6205 23.8141 16.4647 23.4418 16.4647 22.974C16.4647 22.5568 16.6127 22.2002 16.9054 21.9143C17.1963 21.6299 17.5574 21.4856 17.9784 21.4856C18.3993 21.4856 18.7503 21.6303 19.0362 21.9162C19.322 22.202 19.4667 22.5581 19.4667 22.974C19.4667 23.4349 19.3128 23.8058 19.0095 24.0751ZM22.2215 16.1706C22.0171 16.5502 21.7698 16.8833 21.4863 17.1609C21.2166 17.4247 20.7286 17.8727 20.0347 18.4931C19.8518 18.6599 19.7025 18.8093 19.5926 18.9352C19.4897 19.0533 19.413 19.1603 19.3656 19.2536C19.316 19.3497 19.2774 19.4466 19.2508 19.5418C19.2209 19.6479 19.1749 19.8377 19.1147 20.1061C18.9861 20.8009 18.561 21.1681 17.8851 21.1681C17.5326 21.1681 17.2303 21.05 16.9872 20.817C16.7418 20.5817 16.6168 20.2389 16.6168 19.7982C16.6168 19.2954 16.6972 18.8511 16.8548 18.4775C17.0115 18.108 17.222 17.7781 17.4816 17.4973C17.7284 17.2303 18.0647 16.91 18.4811 16.5451C18.8367 16.234 19.0968 15.9964 19.2535 15.8393C19.3992 15.6941 19.5233 15.53 19.6225 15.3517C19.7144 15.1867 19.759 15.0121 19.759 14.8182C19.759 14.429 19.6179 14.1096 19.328 13.8412C19.0325 13.5683 18.6575 13.4354 18.1815 13.4354C17.6287 13.4354 17.2224 13.5696 16.9748 13.8339C16.7055 14.1215 16.4716 14.5581 16.28 15.1325C16.0015 16.0539 15.4152 16.2473 14.9717 16.2473C14.5935 16.2473 14.2696 16.1118 14.009 15.8443C13.7503 15.5787 13.6189 15.2819 13.6189 14.962C13.6189 14.3848 13.8046 13.7962 14.1699 13.2117C14.5333 12.6308 15.0687 12.1442 15.7607 11.7655C16.4523 11.3873 17.2666 11.1957 18.1815 11.1957C19.0306 11.1957 19.793 11.3556 20.4478 11.6713C21.109 11.9897 21.6283 12.4314 21.9913 12.9828C22.3557 13.5379 22.5409 14.1496 22.5409 14.8012C22.5409 15.3168 22.4334 15.7777 22.2215 16.1706Z" fill="#868196"/>
</g>
</g>
</svg>
