<svg width="20" height="20" viewBox="0 0 20 20" fill="none" xmlns="http://www.w3.org/2000/svg">
<g id="ticket">
<g id="Vector">
<path fill-rule="evenodd" clip-rule="evenodd" d="M18.3008 5.04226C18.1551 4.8966 17.9576 4.81475 17.7516 4.8147H2.24797C2.04197 4.81475 1.84442 4.8966 1.69876 5.04226C1.5531 5.18792 1.47124 5.38547 1.47119 5.59147L1.4712 8.02672L1.47119 8.02909C1.47093 8.22406 1.54405 8.41202 1.67607 8.55557C1.80863 8.69969 1.99076 8.78839 2.18596 8.80388L2.18702 8.80397L2.18807 8.80405C2.48944 8.82694 2.77104 8.96281 2.97649 9.18446C3.18195 9.40612 3.29611 9.6972 3.29611 9.99943C3.29611 10.3017 3.18195 10.5927 2.97649 10.8144C2.77104 11.0361 2.48944 11.1719 2.18807 11.1948L2.18702 11.1949L2.18596 11.195C1.99076 11.2105 1.80863 11.2992 1.67607 11.4433C1.54393 11.587 1.47079 11.7752 1.47119 11.9703L1.4712 11.9721L1.47119 14.4074C1.47124 14.6134 1.55309 14.8109 1.69876 14.9566C1.84443 15.1023 2.04198 15.1841 2.24796 15.1842L17.753 15.1828C17.9589 15.1827 18.1565 15.1009 18.3022 14.9552C18.4478 14.8096 18.5297 14.612 18.5297 14.406L18.5297 11.9708L18.5297 11.9689C18.5301 11.7738 18.457 11.5856 18.3249 11.4419C18.1923 11.2978 18.0102 11.2091 17.815 11.1936L17.8136 11.1935L17.8123 11.1934C17.511 11.1708 17.2294 11.0353 17.0237 10.8139C16.8181 10.5928 16.7036 10.3023 16.7029 10.0004C16.703 9.69842 16.8171 9.40761 17.0224 9.18609C17.2277 8.96443 17.5092 8.82847 17.8105 8.8054L17.8122 8.80526C18.0074 8.78977 18.1895 8.70107 18.3221 8.55695C18.4542 8.41335 18.5273 8.22531 18.527 8.03027L18.527 8.0281L18.5283 5.59147C18.5283 5.38547 18.4464 5.18792 18.3008 5.04226ZM17.2797 13.9328V12.3664C16.8335 12.2491 16.4263 12.0073 16.1081 11.6649C15.688 11.2129 15.454 10.619 15.4529 10.0019L15.4529 10.0007C15.453 9.38358 15.686 8.78925 16.1054 8.33655C16.4234 7.99337 16.8307 7.75077 17.2772 7.63294L17.2781 6.0647L2.72119 6.06475L2.72119 7.63141C3.16779 7.74908 3.57517 7.99157 3.89324 8.33471C4.31292 8.78748 4.54611 9.38207 4.54611 9.99943C4.54611 10.6168 4.31292 11.2114 3.89324 11.6642C3.57517 12.0073 3.16779 12.2498 2.72119 12.3675L2.7212 13.9342L17.2797 13.9328Z" fill="#222222" fill-opacity="0.6"/>
<path fill-rule="evenodd" clip-rule="evenodd" d="M6.74988 10.5C6.74988 11.1904 7.30952 11.75 7.99988 11.75H11.9999C12.6902 11.75 13.2499 11.1904 13.2499 10.5V9.5C13.2499 8.80964 12.6902 8.25 11.9999 8.25H7.99988C7.30952 8.25 6.74988 8.80964 6.74988 9.5V10.5ZM7.99988 13C6.61917 13 5.49988 11.8807 5.49988 10.5V9.5C5.49988 8.11929 6.61917 7 7.99988 7H11.9999C13.3806 7 14.4999 8.11929 14.4999 9.5V10.5C14.4999 11.8807 13.3806 13 11.9999 13H7.99988Z" fill="#222222" fill-opacity="0.6"/>
</g>
</g>
</svg>
