<svg width="24" height="24" viewBox="0 0 24 24" fill="none" xmlns="http://www.w3.org/2000/svg">
<g clip-path="url(#clip0_9792_47406)">
<path d="M20.3637 0.363656C20.3636 0.162844 20.2008 0 20 0H3.99847C3.79761 0 3.63477 0.162844 3.63477 0.363703V8.84531V12.9768L5.08958 14.0096L9.94836 17.4577H9.95544L11.9998 16.0029L14.0499 17.4577L18.9088 14.0096L20.3636 12.9768V8.84531L20.3637 0.363656Z" fill="#E6E9ED"/>
<path d="M0.726562 10.91L3.63619 12.9758V8.35938C3.63619 8.35938 0.726562 10.0512 0.726562 10.91Z" fill="#FF3875"/>
<path d="M18.5454 1.45508H5.45355C5.25269 1.45508 5.08984 1.61792 5.08984 1.81878V14.0099L9.94862 17.4579H9.9557L12.0001 16.0032L14.0502 17.4579L18.909 14.0099V1.81878C18.9091 1.61792 18.7462 1.45508 18.5454 1.45508Z" fill="#F5F7FA"/>
<path d="M15.2721 12.002H8.72698C8.52523 12.002 8.36328 12.164 8.36328 12.3657C8.36328 12.5661 8.52523 12.7295 8.72698 12.7295H15.2722C15.474 12.7295 15.6359 12.5661 15.6359 12.3657C15.6358 12.164 15.4739 12.002 15.2721 12.002Z" fill="#656D78"/>
<path d="M13.8191 13.457H10.1821C9.98031 13.457 9.81836 13.619 9.81836 13.8207C9.81836 14.0211 9.98031 14.1844 10.1821 14.1844H13.8191C14.0195 14.1844 14.1828 14.0211 14.1828 13.8207C14.1828 13.619 14.0194 13.457 13.8191 13.457Z" fill="#656D78"/>
<path d="M20.365 12.9798L18.9102 14.0127L14.0528 17.4607H9.95686H9.94978L5.091 14.0127L3.63619 12.9798L0.726562 10.9141V22.5526C0.726562 22.9901 0.924047 23.3779 1.22948 23.6437H1.22808C1.22948 23.6451 1.23094 23.6451 1.23234 23.6465C1.46962 23.8511 1.76794 23.9847 2.10042 24.0003H21.915C22.0827 23.9932 22.2347 23.9492 22.381 23.8909H22.3882C22.911 23.6735 23.2747 23.1564 23.2747 22.5526V10.9141L20.365 12.9798Z" fill="#FFE6ED"/>
<path d="M23.1837 23.0378L14.6836 17.0098L14.0528 17.4587H9.95686H9.94978L9.31898 17.0112L0.820312 23.035C0.905578 23.2708 1.04339 23.4797 1.22948 23.6402L1.22808 23.6416C1.22948 23.6416 1.23094 23.643 1.23234 23.6445C1.46962 23.8491 1.76794 23.9826 2.10042 23.9982H21.915C22.0826 23.9911 22.2347 23.9471 22.381 23.8888H22.3881C22.7617 23.7326 23.0474 23.4214 23.1837 23.0378Z" fill="#FF3875"/>
<path d="M21.8205 11.9469V22.5525C21.8205 23.1563 21.4568 23.6734 20.934 23.8908H20.9269C20.7806 23.9491 20.6286 23.9931 20.4609 24.0002H21.9157C22.0833 23.9932 22.2354 23.9491 22.3817 23.8908H22.3888C22.9116 23.6735 23.2753 23.1563 23.2753 22.5525V10.9141L21.8205 11.9469Z" fill="#FF3875"/>
<path d="M20.0013 0H18.9102V14.0096L20.365 12.9767V8.84531V0.363703C20.3649 0.162891 20.2021 0 20.0013 0Z" fill="#DADDE1"/>
<path d="M2.18164 11.9429L3.63641 12.9758V8.35938C3.63641 8.35938 2.909 8.78233 2.18164 9.31267V11.9429Z" fill="#58021C"/>
<path d="M23.2748 10.9178L20.3652 12.9836V8.36719C20.3652 8.36719 23.2748 10.059 23.2748 10.9178Z" fill="#FF3875"/>
<path d="M21.82 11.9507L20.3652 12.9836V8.36719C20.3652 8.36719 21.0926 8.79014 21.82 9.32044V11.9507Z" fill="#58021C"/>
<path d="M14.0499 17.458L12.2718 16.2095C12.2052 16.1338 12.1078 16.0859 11.9991 16.0859C11.8904 16.0859 11.7931 16.1339 11.7265 16.2095H11.726L9.95544 17.458H9.94836L1.22656 23.641C1.45958 23.8441 1.76502 23.9749 2.09891 23.9976H21.9135C22.0812 23.9905 22.2332 23.9465 22.3795 23.8882H22.3866C22.5245 23.8228 22.6551 23.7419 22.7716 23.641L14.0499 17.458Z" fill="#FFE6ED"/>
<path d="M8.48633 5.51736H11.1293V4.85731H8.48633V4.19727H11.9897L11.0292 6.17741H9.14779V6.83745H11.3733L11.0913 7.4975H8.48633V5.51736Z" fill="#473388"/>
<path d="M13.5829 5.51682H14.934V4.19531H15.5941V7.49837H14.934V6.17686H13.0117" fill="#473388"/>
<path d="M9.08292 9.16442H8.87701V8.04883H8.53711V10.17H8.87701V9.57342H9.08292L9.58923 10.17H9.90515V9.96973L9.39602 9.36187L9.90515 8.76811V8.56784H9.60334L9.08292 9.16442Z" fill="#473388" stroke="#473388" stroke-width="0.3812" stroke-miterlimit="10"/>
<path d="M10.1484 8.96087H10.9594V9.16396H10.1484V10.178H11.3656V8.55469H10.1484V8.96087ZM10.9594 9.77183H10.5532V9.56873H10.9594V9.77183Z" fill="#473388"/>
<path d="M11.5684 10.1766H11.9745V8.96087H12.7855V8.55469H11.5684V10.1766Z" fill="#473388"/>
<path d="M12.9883 8.96087H13.7992V9.16396H12.9883V10.178H14.2054V8.55469H12.9883V8.96087ZM13.7992 9.77183H13.3931V9.56873H13.7992V9.77183Z" fill="#473388"/>
<path d="M15.6253 8.96131V8.55513H15.2192V7.94727H14.813V8.55513H14.4082V8.96131H14.813V10.177H15.2192H15.5774V9.76945H15.2192V8.96131H15.6253Z" fill="#473388"/>
<path d="M13.2913 5.51117C13.2913 5.51117 12.9472 5.50976 12.7807 5.50976H12.5494C12.5466 5.50976 12.5438 5.50976 12.541 5.50835H12.3435L12.6312 5.00486V5.00627L12.7201 4.86523C12.8611 4.6424 13.0022 4.41815 13.1432 4.19531H12.2194C11.9825 4.67201 11.7455 5.14871 11.5072 5.624L11.2914 6.05416L11.2858 6.06686L11.2801 6.07814C11.2787 6.08237 11.2787 6.08378 11.2759 6.0866L11.2505 6.1416L11.235 6.17545H11.2434L11.6454 6.17686H11.8626L11.596 6.78755C11.4578 7.11334 11.321 7.43913 11.1842 7.76492L10.9473 8.31919L11.0023 8.25009C11.0023 8.2515 11.0023 8.25432 11.0037 8.25573C11.0037 8.25291 11.0065 8.24727 11.0107 8.24162L11.0502 8.19226C11.1913 8.02584 11.3281 7.86365 11.4635 7.70287L11.6285 7.50824C12.2025 6.82704 13.3449 5.51964 13.3519 5.51259C13.3322 5.51259 13.2913 5.51117 13.2913 5.51117Z" fill="#E73D6F"/>
</g>
<defs>
<clipPath id="clip0_9792_47406">
<rect width="24" height="24" fill="white"/>
</clipPath>
</defs>
</svg>
