<svg width="25" height="25" viewBox="0 0 25 25" fill="none" xmlns="http://www.w3.org/2000/svg">
<path d="M5.17208 24.4958H4.04961C2.09687 24.4958 0.5 22.8992 0.5 20.9468V8.0087C3.6853 7.68687 6.65462 7.69536 9.25962 7.94523L5.17208 24.4958ZM19.6076 13.311C20.171 11.0198 16.4732 8.8981 10.5558 8.09765L8.40824 17.0336C13.3683 17.2708 19.0019 15.7758 19.6076 13.311ZM20.9504 0.5H4.04961C2.16041 0.5 0.610146 1.99496 0.508494 3.8584C14.6603 3.4603 21.5434 8.38144 20.4633 13.2898C19.489 17.707 14.9991 19.401 7.70506 19.96L6.61226 24.5H20.9504C22.9031 24.5 24.5 22.9034 24.5 20.9511V4.04893C24.5 2.09659 22.9031 0.5 20.9504 0.5Z" fill="#FF0033"/>
</svg>
