<svg width="14" height="14" viewBox="0 0 14 14" fill="none" xmlns="http://www.w3.org/2000/svg">
<g id="Linked wallet" clip-path="url(#clip0_8650_19388)">
<g id="Vector">
<path fill-rule="evenodd" clip-rule="evenodd" d="M10.3298 1.36971C10.0741 1.30402 9.80701 1.29527 9.54752 1.34406L2.35014 2.5725L2.34185 2.57399C1.92905 2.65266 1.55665 2.87291 1.28887 3.19677C1.02115 3.52055 0.874784 3.92758 0.875 4.3477V7.1871C1.14187 6.972 1.43546 6.78872 1.75 6.64301V5.2492C1.75047 4.76635 2.14204 4.37506 2.625 4.37506H11.375C11.8582 4.37506 12.25 4.76681 12.25 5.25006V10.5001C12.25 10.9833 11.8582 11.3751 11.375 11.3751H7.65072C7.58461 11.6803 7.4855 11.9733 7.3573 12.2501H11.375C12.3415 12.2501 13.125 11.4666 13.125 10.5001V5.25006C13.125 4.38957 12.5039 3.67413 11.6856 3.52755V3.11724C11.6855 2.85166 11.6268 2.58924 11.5137 2.34896C11.4006 2.10868 11.2358 1.89633 11.0312 1.72706C10.8266 1.55779 10.5871 1.43577 10.3298 1.36971ZM10.8106 3.50006V3.11738C10.8106 2.98061 10.7803 2.84541 10.7221 2.72167C10.6638 2.59789 10.5789 2.4885 10.4735 2.4013C10.3681 2.3141 10.2447 2.25124 10.1122 2.21721C9.97968 2.18318 9.84129 2.17881 9.7069 2.20442L9.70297 2.20515L9.69861 2.20592L2.50191 3.43425C2.3927 3.45552 2.28903 3.49605 2.19542 3.55317C2.33287 3.51849 2.47678 3.50006 2.625 3.50006H10.8106Z" fill="#473388"/>
<path d="M10.0625 8.75006C9.88944 8.75006 9.72027 8.69874 9.57638 8.6026C9.43248 8.50645 9.32033 8.3698 9.25411 8.20991C9.18788 8.05002 9.17055 7.87409 9.20431 7.70436C9.23808 7.53463 9.32141 7.37872 9.44378 7.25634C9.56615 7.13397 9.72206 7.05064 9.8918 7.01687C10.0615 6.98311 10.2375 7.00044 10.3973 7.06667C10.5572 7.13289 10.6939 7.24504 10.79 7.38894C10.8862 7.53283 10.9375 7.702 10.9375 7.87506C10.9375 8.10713 10.8453 8.32969 10.6812 8.49378C10.5171 8.65788 10.2946 8.75006 10.0625 8.75006Z" fill="#473388"/>
<path d="M5.03088 8.96939C4.53576 8.47427 3.73305 8.47427 3.23793 8.96939L3.03417 9.17303C3.00741 9.19979 2.98619 9.23156 2.9717 9.26652C2.95722 9.30148 2.94977 9.33895 2.94977 9.37679C2.94977 9.41463 2.95722 9.4521 2.9717 9.48707C2.98619 9.52203 3.00741 9.55379 3.03417 9.58055C3.06093 9.60731 3.09269 9.62853 3.12765 9.64301C3.16262 9.6575 3.20009 9.66495 3.23793 9.66495C3.27577 9.66495 3.31324 9.6575 3.3482 9.64301C3.38316 9.62853 3.41493 9.60731 3.44169 9.58055L3.64544 9.37691C3.77589 9.251 3.95057 9.18134 4.13187 9.18295C4.31317 9.18455 4.48659 9.25728 4.61479 9.38549C4.74299 9.51369 4.81573 9.68711 4.81733 9.86841C4.81893 10.0497 4.74928 10.2244 4.62337 10.3548L4.41961 10.5586C4.39285 10.5853 4.37163 10.6171 4.35714 10.6521C4.34266 10.687 4.33521 10.7245 4.33521 10.7623C4.33521 10.8002 4.34266 10.8377 4.35714 10.8726C4.37163 10.9076 4.39285 10.9393 4.41961 10.9661C4.44637 10.9929 4.47813 11.0141 4.51309 11.0286C4.54805 11.0431 4.58553 11.0505 4.62337 11.0505C4.66121 11.0505 4.69868 11.0431 4.73364 11.0286C4.7686 11.0141 4.80037 10.9929 4.82713 10.9661L5.03088 10.7623C5.52601 10.2672 5.52601 9.46452 5.03088 8.96939Z" fill="#473388"/>
<path d="M4.0747 10.0815C4.06021 10.0466 4.03898 10.0148 4.01221 9.98807C3.98546 9.9613 3.95369 9.94007 3.91873 9.92558C3.88377 9.91109 3.8463 9.90364 3.80845 9.90364C3.77061 9.90364 3.73313 9.91109 3.69817 9.92558C3.66321 9.94007 3.63145 9.9613 3.60469 9.98807L3.03417 10.5586C2.98013 10.6126 2.94977 10.6859 2.94977 10.7623C2.94977 10.8388 2.98013 10.9121 3.03417 10.9661C3.08821 11.0201 3.1615 11.0505 3.23793 11.0505C3.31435 11.0505 3.38765 11.0201 3.44169 10.9661L4.01221 10.3956C4.03898 10.3688 4.06021 10.3371 4.0747 10.3021C4.08918 10.2671 4.09664 10.2297 4.09664 10.1918C4.09664 10.154 4.08918 10.1165 4.0747 10.0815Z" fill="#473388"/>
<path d="M2.66882 10.102C2.65434 10.067 2.6331 10.0353 2.60634 10.0085C2.57958 9.98173 2.54782 9.9605 2.51286 9.94601C2.47789 9.93153 2.44042 9.92407 2.40258 9.92407C2.36473 9.92407 2.32726 9.93153 2.2923 9.94601C2.25734 9.9605 2.22557 9.98173 2.19882 10.0085L2.0155 10.1918C1.52037 10.687 1.52037 11.4897 2.0155 11.9848C2.51062 12.4799 3.31332 12.4799 3.80845 11.9848L3.99177 11.8015C4.01853 11.7747 4.03976 11.7429 4.05424 11.708C4.06872 11.673 4.07617 11.6355 4.07617 11.5977C4.07617 11.5599 4.06872 11.5224 4.05424 11.4874C4.03976 11.4525 4.01853 11.4207 3.99177 11.3939C3.96502 11.3672 3.93325 11.346 3.89829 11.3315C3.86333 11.317 3.82586 11.3095 3.78802 11.3095C3.75018 11.3095 3.7127 11.317 3.67774 11.3315C3.64278 11.346 3.61102 11.3672 3.58426 11.3939L3.40093 11.5773C3.27063 11.704 3.09568 11.7743 2.91392 11.773C2.73217 11.7718 2.55822 11.699 2.4297 11.5705C2.30118 11.4419 2.22843 11.268 2.22718 11.0862C2.22593 10.9045 2.29628 10.7295 2.42301 10.5992L2.60634 10.416C2.6331 10.3893 2.65434 10.3575 2.66882 10.3225C2.68331 10.2876 2.69077 10.2501 2.69077 10.2123C2.69077 10.1744 2.68331 10.1369 2.66882 10.102Z" fill="#473388"/>
<path fill-rule="evenodd" clip-rule="evenodd" d="M7.0464 10.477C7.0464 12.4228 5.46901 14.0002 3.5232 14.0002C1.57739 14.0002 0 12.4228 0 10.477C0 8.53122 1.57739 6.95383 3.5232 6.95383C5.46901 6.95383 7.0464 8.53122 7.0464 10.477ZM3.5232 13.1252C4.98576 13.1252 6.1714 11.9396 6.1714 10.477C6.1714 9.01447 4.98576 7.82883 3.5232 7.82883C2.06064 7.82883 0.875 9.01447 0.875 10.477C0.875 11.9396 2.06064 13.1252 3.5232 13.1252Z" fill="#473388"/>
</g>
</g>
<defs>
<clipPath id="clip0_8650_19388">
<rect width="14" height="14" fill="white"/>
</clipPath>
</defs>
</svg>
