<svg width="18" height="18" viewBox="0 0 18 18" fill="none" xmlns="http://www.w3.org/2000/svg">
<path d="M15.5004 4.79173C15.5216 4.77935 15.5392 4.76161 15.5515 4.7403C15.5637 4.71899 15.5702 4.69484 15.5702 4.67027C15.5702 4.64569 15.5637 4.62154 15.5515 4.60023C15.5392 4.57892 15.5216 4.56118 15.5004 4.5488L10.1306 1.42903C9.78704 1.22988 9.39696 1.125 8.99983 1.125C8.6027 1.125 8.21261 1.22988 7.86903 1.42903L2.50032 4.5488C2.47909 4.56118 2.46148 4.57892 2.44924 4.60023C2.437 4.62154 2.43055 4.64569 2.43055 4.67027C2.43055 4.69484 2.437 4.71899 2.44924 4.7403C2.46148 4.76161 2.47909 4.77935 2.50032 4.79173L8.92969 8.57384C8.95132 8.58658 8.97596 8.59329 9.00106 8.59329C9.02616 8.59329 9.0508 8.58658 9.07243 8.57384L15.5004 4.79173Z" fill="white"/>
<path d="M1.89844 5.74833C1.877 5.73595 1.85266 5.72945 1.8279 5.72949C1.80314 5.72953 1.77882 5.73611 1.75742 5.74856C1.73601 5.76101 1.71828 5.77889 1.706 5.80039C1.69372 5.8219 1.68734 5.84626 1.6875 5.87103V11.9843C1.68803 12.2789 1.76568 12.5683 1.91272 12.8236C2.05976 13.0788 2.27107 13.2912 2.52563 13.4395L8.22657 16.8577C8.24793 16.87 8.27217 16.8765 8.29684 16.8765C8.32151 16.8766 8.34576 16.8701 8.36713 16.8577C8.3885 16.8454 8.40626 16.8277 8.41861 16.8063C8.43096 16.785 8.43748 16.7607 8.4375 16.7361V9.64329C8.43748 9.61863 8.43097 9.59441 8.41863 9.57306C8.40629 9.55171 8.38855 9.53398 8.36719 9.52165L1.89844 5.74833Z" fill="white"/>
<path d="M9.5625 9.6679V16.7343C9.56253 16.759 9.56905 16.7832 9.5814 16.8046C9.59375 16.8259 9.6115 16.8437 9.63288 16.856C9.65425 16.8683 9.67849 16.8748 9.70316 16.8748C9.72784 16.8748 9.75207 16.8683 9.77344 16.8559L15.474 13.4377C15.7284 13.2896 15.9396 13.0776 16.0867 12.8226C16.2338 12.5677 16.3116 12.2787 16.3125 11.9843V5.87103C16.3124 5.84638 16.3059 5.8222 16.2935 5.80089C16.2811 5.77958 16.2633 5.7619 16.242 5.74961C16.2206 5.73733 16.1964 5.73088 16.1718 5.7309C16.1471 5.73092 16.1229 5.73742 16.1016 5.74974L9.63282 9.54661C9.61151 9.55891 9.59381 9.57659 9.58147 9.59787C9.56913 9.61915 9.56259 9.6433 9.5625 9.6679Z" fill="white"/>
</svg>
