<svg width="33" height="33" viewBox="0 0 33 33" fill="none" xmlns="http://www.w3.org/2000/svg">
<g id="ribbon">
<g id="Vector">
<path d="M17.5621 21.4756C17.2983 21.4952 17.0321 21.505 16.7633 21.505C16.4365 21.505 16.1133 21.49 15.794 21.4619C14.214 21.3218 12.683 20.8419 11.3058 20.0551C9.92852 19.2683 8.73761 18.1931 7.81459 16.9031C7.79028 16.8684 7.75756 16.8405 7.7195 16.8219C7.68143 16.8034 7.63927 16.7948 7.59698 16.797C7.55468 16.7992 7.51364 16.812 7.47769 16.8344C7.44174 16.8568 7.41208 16.888 7.39147 16.925L2.89147 25.0125C2.72022 25.325 2.69334 25.7 2.87397 26.005C2.968 26.1562 3.09898 26.281 3.25458 26.3676C3.41018 26.4542 3.58527 26.4998 3.76335 26.5H8.63834C8.80816 26.4937 8.97658 26.5329 9.12622 26.6134C9.27586 26.6939 9.4013 26.8129 9.48959 26.9581L11.9058 31C11.9943 31.15 12.1197 31.2747 12.2702 31.3623C12.4207 31.4498 12.5911 31.4972 12.7652 31.5C13.1365 31.4794 13.5208 31.2381 13.6752 30.9L17.8071 21.8281C17.8249 21.7887 17.8322 21.7453 17.8283 21.7023C17.8244 21.6592 17.8093 21.6179 17.7846 21.5823C17.7599 21.5468 17.7265 21.5183 17.6874 21.4996C17.6484 21.4809 17.6053 21.4726 17.5621 21.4756Z" fill="#868196"/>
<path d="M30.6021 24.9925L26.1315 16.9194C26.1108 16.8827 26.0813 16.8519 26.0455 16.8297C26.0098 16.8075 25.969 16.7947 25.927 16.7925C25.885 16.7902 25.8431 16.7986 25.8052 16.8169C25.7673 16.8351 25.7347 16.8626 25.7102 16.8969C24.4808 18.6195 22.7818 19.952 20.8158 20.7356C20.5745 20.8308 20.3792 21.0155 20.2708 21.2512L17.9671 26.32C17.9374 26.3847 17.9221 26.4551 17.9221 26.5262C17.9221 26.5974 17.9374 26.6678 17.9671 26.7325L19.859 30.8944C20.0121 31.2325 20.3958 31.4794 20.7665 31.5C20.9407 31.4957 21.1109 31.4468 21.2608 31.3579C21.4107 31.2691 21.5353 31.1433 21.6227 30.9925L24.0308 26.9562C24.2115 26.6531 24.539 26.4981 24.8921 26.5H29.8152C30.2321 26.5 30.5477 26.2825 30.6902 25.875C30.7403 25.7303 30.7584 25.5764 30.7431 25.4241C30.7279 25.2717 30.6798 25.1244 30.6021 24.9925Z" fill="#868196"/>
<path d="M16.7658 13.5C18.423 13.5 19.7665 12.1569 19.7665 10.5C19.7665 8.84315 18.423 7.5 16.7658 7.5C15.1086 7.5 13.7652 8.84315 13.7652 10.5C13.7652 12.1569 15.1086 13.5 16.7658 13.5Z" fill="#868196"/>
<path d="M16.7658 1.5C11.8021 1.5 7.76585 5.53687 7.76585 10.5C7.76585 15.4631 11.804 19.5 16.7658 19.5C21.7277 19.5 25.7658 15.4625 25.7658 10.5C25.7658 5.5375 21.729 1.5 16.7658 1.5ZM16.7658 15.5C15.7769 15.5 14.8102 15.2068 13.988 14.6573C13.1657 14.1079 12.5249 13.327 12.1464 12.4134C11.768 11.4998 11.669 10.4945 11.8619 9.52455C12.0548 8.55464 12.531 7.66373 13.2303 6.96447C13.9296 6.2652 14.8205 5.789 15.7904 5.59607C16.7603 5.40315 17.7656 5.50216 18.6793 5.8806C19.5929 6.25904 20.3738 6.8999 20.9232 7.72215C21.4726 8.54439 21.7658 9.51109 21.7658 10.5C21.7642 11.8256 21.2369 13.0964 20.2996 14.0337C19.3622 14.971 18.0914 15.4983 16.7658 15.5Z" fill="#868196"/>
</g>
</g>
</svg>
