<svg width="20" height="20" viewBox="0 0 20 20" fill="none" xmlns="http://www.w3.org/2000/svg">
<g id="Vector">
<path id="Vector_2" fill-rule="evenodd" clip-rule="evenodd" d="M9.99206 1.64164C5.35048 1.64164 1.62716 5.31014 1.64114 9.7949L1.64114 9.796V9.7971C1.64109 11.3572 2.09707 12.8831 2.9528 14.1872C3.00168 14.254 3.0474 14.323 3.08982 14.394L3.09319 14.3997L3.09645 14.4054C3.16512 14.5255 3.24655 14.6873 3.30268 14.866C3.35404 15.0295 3.41319 15.2961 3.33589 15.5806L3.33549 15.5821L2.61607 18.1844L5.10389 17.2865C5.35124 17.1848 5.61628 17.1328 5.88386 17.1336C5.88431 17.1336 5.88476 17.1337 5.8852 17.1337L5.88255 17.8302L5.88333 17.1336C5.88351 17.1336 5.88369 17.1336 5.88386 17.1336C6.13438 17.134 6.38271 17.1803 6.61655 17.2701L6.61705 17.2703L6.61756 17.2705C6.75875 17.325 7.32119 17.534 7.87734 17.6897C8.42406 17.8427 9.43368 18.0282 10.1479 18.0282C14.7663 18.0282 18.3577 14.3201 18.3578 9.80384L19.0543 9.8036H18.3578C18.3576 9.24335 18.2983 8.68469 18.1808 8.13688L18.1807 8.13615L18.1805 8.13542C17.3972 4.44256 14.0368 1.64164 9.99206 1.64164ZM0.24809 9.79815C0.232206 4.51031 4.61273 0.248596 9.99206 0.248596C14.6866 0.248596 18.6212 3.50171 19.543 7.84536C19.681 8.4889 19.7506 9.1452 19.7508 9.80336V9.8036C19.7508 15.0743 15.5507 19.4213 10.1479 19.4213C9.26883 19.4213 8.12792 19.2064 7.50187 19.0311C6.88602 18.8588 6.27818 18.6328 6.11633 18.5703C6.04146 18.5416 5.96197 18.5268 5.88177 18.5267L5.88084 18.5267L5.87991 18.5267C5.79331 18.5264 5.70755 18.5436 5.6278 18.5774L5.61043 18.5847L2.6563 19.6509C2.53366 19.7012 2.40442 19.7337 2.2725 19.7475L2.23535 19.7514L2.198 19.7513C2.05056 19.7508 1.90468 19.7211 1.76881 19.6639C1.63293 19.6067 1.50976 19.5231 1.40643 19.4179C1.3031 19.3127 1.22166 19.1881 1.16684 19.0512C1.11202 18.9144 1.08489 18.768 1.08704 18.6206L1.08735 18.5996L1.08891 18.5788C1.09604 18.4835 1.11301 18.3892 1.13952 18.2974L1.97316 15.2819C1.95797 15.2341 1.92895 15.1707 1.89042 15.1026C1.86945 15.0679 1.84682 15.0343 1.8226 15.0017L1.81069 14.9857L1.79971 14.9691C0.787724 13.4344 0.248242 11.6365 0.24809 9.79815Z" fill="#222222"/>
<path id="Vector_3" d="M10.8012 12.808V10.8023H12.8069C13.0197 10.8023 13.2238 10.7177 13.3742 10.5673C13.5247 10.4168 13.6092 10.2128 13.6092 9.99997C13.6092 9.78719 13.5247 9.58313 13.3742 9.43267C13.2238 9.28222 13.0197 9.19769 12.8069 9.19769H10.8012V7.19199C10.8012 6.97921 10.7167 6.77515 10.5662 6.62469C10.4158 6.47424 10.2117 6.38971 9.99894 6.38971C9.78616 6.38971 9.58209 6.47424 9.43164 6.62469C9.28118 6.77515 9.19665 6.97921 9.19665 7.19199V9.19769H7.19095C6.97817 9.19769 6.77411 9.28222 6.62365 9.43267C6.4732 9.58313 6.38867 9.78719 6.38867 9.99997C6.38867 10.2128 6.4732 10.4168 6.62365 10.5673C6.77411 10.7177 6.97817 10.8023 7.19095 10.8023H9.19665V12.808C9.19665 13.0207 9.28118 13.2248 9.43164 13.3753C9.58209 13.5257 9.78616 13.6102 9.99894 13.6102C10.2117 13.6102 10.4158 13.5257 10.5662 13.3753C10.7167 13.2248 10.8012 13.0207 10.8012 12.808Z" fill="#222222"/>
</g>
</svg>
