<svg width="24" height="25" viewBox="0 0 24 25" fill="none" xmlns="http://www.w3.org/2000/svg">
<g id="Frame" clip-path="url(#clip0_8794_19093)">
<g id="Group">
<g id="22. Goal">
<path id="Vector" d="M11.625 24.916C18.0453 24.916 23.25 19.7113 23.25 13.291C23.25 6.87071 18.0453 1.66602 11.625 1.66602C5.20469 1.66602 0 6.87071 0 13.291C0 19.7113 5.20469 24.916 11.625 24.916Z" fill="#E9E2FF"/>
<path id="Vector_2" d="M15.3753 0.916016L11.5466 2.83039C11.4842 2.86149 11.4317 2.90937 11.395 2.96866C11.3583 3.02795 11.3389 3.09629 11.3389 3.16602C11.3389 3.23574 11.3583 3.30408 11.395 3.36337C11.4317 3.42266 11.4842 3.47054 11.5466 3.50164L15.3753 5.41602V0.916016Z" fill="#FF3875"/>
<path id="Vector_3" d="M21.3471 19.666C16.7571 26.6541 6.50644 26.6729 1.90332 19.666H21.3471Z" fill="#867FD1"/>
<path id="Vector_4" d="M15.375 7.66602C15.2755 7.66602 15.1802 7.62651 15.1098 7.55618C15.0395 7.48585 15 7.39047 15 7.29102V1.29102C15 1.19156 15.0395 1.09618 15.1098 1.02585C15.1802 0.955524 15.2755 0.916016 15.375 0.916016C15.4745 0.916016 15.5698 0.955524 15.6402 1.02585C15.7105 1.09618 15.75 1.19156 15.75 1.29102V7.29102C15.75 7.39047 15.7105 7.48585 15.6402 7.55618C15.5698 7.62651 15.4745 7.66602 15.375 7.66602Z" fill="#6447C4"/>
<path id="Vector_5" d="M15.7497 19.6658H1.90285C1.71535 19.3789 1.52785 19.0808 1.37598 18.777L7.56348 9.99453C7.66338 9.85296 7.7962 9.7378 7.9505 9.65898C8.1048 9.58016 8.27595 9.54004 8.44921 9.54207C8.62247 9.5441 8.79263 9.58822 8.94504 9.67063C9.09745 9.75305 9.22754 9.87128 9.3241 10.0152L15.7497 19.6658Z" fill="#5E49A6"/>
<path id="Vector_6" d="M22.5694 17.2137C22.262 18.0774 21.8516 18.9008 21.3469 19.6662H6.75C12.9844 8.97867 12.8213 9.2468 12.84 9.22805C12.9169 9.16242 14.1656 8.0918 15.375 8.0918C16.5844 8.0918 17.8331 9.16617 17.91 9.22805C17.9287 9.2468 17.8125 9.04805 22.5694 17.2137Z" fill="#6D56B8"/>
<path id="Vector_7" d="M17.9134 9.23197L17.0903 9.84884C16.926 9.97151 16.7229 10.0309 16.5184 10.0161C16.3139 10.0013 16.1215 9.91327 15.9766 9.76822C15.8169 9.60861 15.6004 9.51894 15.3747 9.51894C15.1489 9.51894 14.9324 9.60861 14.7728 9.76822C14.6279 9.91327 14.4355 10.0013 14.231 10.0161C14.0264 10.0309 13.8234 9.97151 13.6591 9.84884L12.8359 9.23197L14.2497 6.81322C14.3664 6.61908 14.5313 6.45843 14.7284 6.3469C14.9255 6.23537 15.1482 6.17676 15.3747 6.17676C15.6012 6.17676 15.8238 6.23537 16.021 6.3469C16.2181 6.45843 16.383 6.61908 16.4997 6.81322L17.9134 9.23197Z" fill="#9F8BDF"/>
<path id="Vector_8" d="M7.87527 5.79105C7.87527 6.28834 7.67773 6.76525 7.3261 7.11688C6.97447 7.46851 6.49755 7.66605 6.00027 7.66605H2.25027C2.00301 7.66676 1.75814 7.61766 1.53027 7.52168C2.59601 5.66185 4.1528 4.13101 6.03027 3.09668C6.19201 3.35608 6.29919 3.64573 6.34527 3.94793C6.77526 4.02842 7.16356 4.25672 7.44297 4.59332C7.72238 4.92991 7.87531 5.3536 7.87527 5.79105Z" fill="white"/>
<path id="Vector_9" d="M2.0625 3.91602C2.37316 3.91602 2.625 3.66418 2.625 3.35352C2.625 3.04286 2.37316 2.79102 2.0625 2.79102C1.75184 2.79102 1.5 3.04286 1.5 3.35352C1.5 3.66418 1.75184 3.91602 2.0625 3.91602Z" fill="#FF3875"/>
<path id="Vector_10" d="M22.3125 13.666C22.6232 13.666 22.875 13.4142 22.875 13.1035C22.875 12.7929 22.6232 12.541 22.3125 12.541C22.0018 12.541 21.75 12.7929 21.75 13.1035C21.75 13.4142 22.0018 13.666 22.3125 13.666Z" fill="#FF3875"/>
<g id="Group_2">
<path id="Vector_11" d="M21.9375 5.41602C22.2482 5.41602 22.5 5.16418 22.5 4.85352C22.5 4.54286 22.2482 4.29102 21.9375 4.29102C21.6268 4.29102 21.375 4.54286 21.375 4.85352C21.375 5.16418 21.6268 5.41602 21.9375 5.41602Z" fill="#9747FF"/>
<path id="Vector_12" d="M2.0625 23.041C2.37316 23.041 2.625 22.7892 2.625 22.4785C2.625 22.1679 2.37316 21.916 2.0625 21.916C1.75184 21.916 1.5 22.1679 1.5 22.4785C1.5 22.7892 1.75184 23.041 2.0625 23.041Z" fill="#9747FF"/>
</g>
</g>
</g>
</g>
<defs>
<clipPath id="clip0_8794_19093">
<rect width="24" height="24" fill="white" transform="translate(0 0.916016)"/>
</clipPath>
</defs>
</svg>
