<svg width="20" height="20" viewBox="0 0 20 20" fill="none" xmlns="http://www.w3.org/2000/svg">
<g id="Shopping">
<path id="Vector" fill-rule="evenodd" clip-rule="evenodd" d="M16.4865 6.87427L16.9544 16.8287C16.9523 17.2561 16.8084 17.6706 16.5454 18.0075C16.2824 18.3443 15.9151 18.5844 15.501 18.6902C15.3905 18.7214 15.2771 18.7414 15.1626 18.7499H4.81995C4.58049 18.7527 4.3431 18.7052 4.12313 18.6105C3.90052 18.5179 3.70028 18.3787 3.53582 18.2024C3.36976 18.0278 3.24105 17.8212 3.15756 17.5952C3.072 17.3699 3.0347 17.1291 3.04806 16.8884L3.51592 6.87427C3.53399 6.41479 3.72998 5.98033 4.06248 5.66269C4.39498 5.34505 4.83793 5.16912 5.29775 5.17206H6.51219V4.77388C6.51219 3.8393 6.88346 2.94299 7.54431 2.28213C7.56342 2.26303 7.58273 2.24416 7.60222 2.22554L7.58727 2.2355C7.89233 1.93422 8.24994 1.69132 8.64244 1.51878C8.39857 1.62917 8.16851 1.76687 7.95659 1.92897C8.54906 1.4959 9.26604 1.25594 10.0084 1.25012C10.011 1.25009 10.0136 1.25005 10.0162 1.25002C10.0228 1.24998 10.0294 1.25002 10.0361 1.25002C10.9707 1.25002 11.867 1.62128 12.5278 2.28213C13.1887 2.94299 13.5599 3.8393 13.5599 4.77388V5.17206H14.7047C15.1638 5.16859 15.6063 5.34346 15.939 5.65983C16.2691 5.98042 16.4649 6.41462 16.4865 6.87427ZM7.71668 5.13224H12.2758V4.73407C12.2758 4.12949 12.0356 3.54967 11.6081 3.12217C11.1806 2.69467 10.6008 2.45541 9.99624 2.45541C9.39167 2.45541 8.81185 2.69467 8.38435 3.12217C7.95685 3.54967 7.71668 4.12949 7.71668 4.73407V5.13224ZM9.99613 11.1049C9.18097 11.1004 8.3914 10.8197 7.75639 10.3085C7.15413 9.80503 6.73723 9.11487 6.57182 8.3475C6.55207 8.259 6.55207 8.16723 6.57182 8.07873C6.60125 7.99544 6.64505 7.91795 6.70122 7.84978C6.76106 7.78062 6.83599 7.72613 6.92022 7.69051C7.00068 7.65076 7.08929 7.6303 7.17903 7.63078C7.32852 7.63031 7.47326 7.68327 7.58716 7.7801C7.70098 7.87196 7.77569 8.00359 7.79621 8.14841C7.90296 8.66206 8.18437 9.12287 8.59256 9.45244C8.99983 9.78132 9.5075 9.96071 10.031 9.96071C10.5545 9.96071 11.0621 9.78132 11.4694 9.45244C11.8776 9.12287 12.159 8.66206 12.2657 8.14841C12.2897 8.00244 12.368 7.8709 12.4847 7.7801C12.5942 7.68233 12.7362 7.62906 12.8829 7.63078C12.9695 7.63036 13.0548 7.65086 13.1318 7.69051C13.2076 7.72176 13.2756 7.76934 13.3309 7.82987C13.3839 7.89484 13.4244 7.9691 13.4503 8.04887C13.4648 8.13119 13.4648 8.21541 13.4503 8.29773C13.2871 9.09247 12.854 9.80626 12.2244 10.3179C11.5947 10.8296 10.8074 11.1077 9.99613 11.1049Z" fill="#FF3875"/>
</g>
</svg>
