<svg width="14" height="17" viewBox="0 0 14 17" fill="none" xmlns="http://www.w3.org/2000/svg">
<g id="gift icon">
<g id="Group">
<g id="Calque 2">
<g id="40- Gift">
<path id="Vector" d="M13.1541 7.94141V13.3536C13.1541 13.4281 13.1332 13.5011 13.0939 13.5642C13.0546 13.6273 12.9984 13.6779 12.9319 13.7103L11.7959 14.2617L9.88007 15.1919L7.35168 16.4191C7.29917 16.4446 7.24168 16.458 7.1834 16.4583C7.12512 16.4586 7.06751 16.4457 7.01476 16.4207L4.1772 15.0759L2.26107 14.1679L1.29347 13.7093C1.22603 13.6774 1.16901 13.6267 1.12906 13.5633C1.08911 13.4999 1.06788 13.4263 1.06787 13.3511V8.2962L2.26097 8.26137L4.1771 8.20516L9.88007 8.03758L11.7958 7.98137L13.1541 7.94141Z" fill="#8267DA"/>
<path id="Vector_2" d="M13.9999 6.5751V7.59993C14 7.82345 13.9374 8.04244 13.8195 8.23167C13.7016 8.42091 13.5331 8.57271 13.3334 8.66958L7.69795 11.4054C7.54039 11.4819 7.36792 11.522 7.19308 11.5228C7.01824 11.5235 6.84543 11.485 6.68721 11.4099L0.898615 8.66686C0.696356 8.57096 0.525336 8.41896 0.405549 8.22862C0.285761 8.03829 0.222156 7.81749 0.222168 7.59203L0.222168 6.56755C0.22225 6.34401 0.284837 6.12502 0.402741 5.93575C0.520645 5.74648 0.689082 5.5946 0.888702 5.49755L6.52416 2.76204C6.6817 2.68552 6.85415 2.64538 7.02899 2.64454C7.20384 2.64371 7.37666 2.6822 7.5349 2.75722L13.3235 5.50066C13.5257 5.59653 13.6967 5.74847 13.8165 5.93874C13.9363 6.12901 13.9999 6.34974 13.9999 6.57514V6.5751Z" fill="#644CB1"/>
<path id="Vector_3" d="M13.8024 5.91686L7.69794 8.88031C7.54041 8.95686 7.36793 8.99699 7.19307 8.99776C7.01822 8.99854 6.84539 8.95994 6.6872 8.88479L0.416992 5.91342C0.53395 5.73422 0.696998 5.59047 0.888693 5.49755L6.52416 2.76204C6.68169 2.68552 6.85415 2.64538 7.02899 2.64454C7.20383 2.64371 7.37665 2.6822 7.5349 2.75722L13.3235 5.50066C13.5178 5.59266 13.6834 5.7366 13.8024 5.91686Z" fill="#8267DA"/>
<g id="Group_2">
<path id="Vector_4" d="M7.58841 5.65065L4.53202 7.48423C4.42385 7.54913 4.33426 7.64129 4.27204 7.75166C4.20982 7.86202 4.17711 7.98681 4.17712 8.11378V15.0771L2.26099 14.1692V7.20064C2.261 7.07495 2.29309 6.95138 2.35415 6.84182C2.41521 6.73225 2.50319 6.64039 2.60963 6.57506L6.09301 4.43555L7.58841 5.65065Z" fill="white"/>
<path id="Vector_5" d="M11.7958 7.29506V14.2629L9.87996 15.1931V8.22654C9.87996 8.10285 9.84892 7.98118 9.78971 7.87287C9.73051 7.76455 9.64508 7.67313 9.54139 7.60713L6.46826 5.65065L7.96383 4.43555L11.4591 6.67692C11.5623 6.74304 11.6472 6.83436 11.7061 6.94241C11.7649 7.05047 11.7958 7.17176 11.7958 7.29506Z" fill="white"/>
<path id="Vector_6" d="M13.0664 3.6266C13.0493 3.69349 13.0302 3.75866 13.0097 3.82211C12.2444 6.17245 9.14209 6.069 7.82953 5.9128C7.46481 5.86969 7.23819 5.82211 7.23819 5.82211L7.02832 4.18384C8.58528 -1.70132 13.8967 0.384533 13.0664 3.6266Z" fill="white"/>
</g>
<path id="Vector_7" d="M13.0096 3.82266C12.2443 6.173 9.14203 6.06955 7.82947 5.91334C7.60592 5.75403 7.47227 5.65162 7.47227 5.65162L7.27881 5.01059C7.45492 4.66798 7.66142 4.34217 7.89578 4.03714C8.6946 2.98921 10.2184 1.64715 12.1698 3.0299C12.4109 3.20272 12.6373 3.39557 12.8466 3.60645L13.0096 3.82266Z" fill="#FF3875" fill-opacity="0.5"/>
<path id="Vector_8" d="M12.1698 3.0299V3.03025C11.7805 3.48611 10.3947 4.80335 7.89575 4.03714C8.69457 2.98921 10.2184 1.64715 12.1698 3.0299Z" fill="#FF3875"/>
<path id="Vector_9" d="M6.94878 4.18384L6.73925 5.82211C6.73925 5.82211 6.66507 5.83762 6.53279 5.859C5.60272 6.01004 1.80826 6.45349 0.962274 3.80556C0.943816 3.74763 0.926726 3.68763 0.911002 3.6266C0.0807399 0.384533 5.39216 -1.70132 6.94878 4.18384Z" fill="white"/>
<path id="Vector_10" d="M6.69846 5.01062L6.53268 5.85959C5.6026 6.01062 1.80814 6.45407 0.962158 3.80614L1.13067 3.60649C1.33991 3.39581 1.56617 3.20307 1.80712 3.03028C3.75887 1.64684 5.28267 2.98925 6.08148 4.03718C6.31585 4.34221 6.52235 4.66802 6.69846 5.01062Z" fill="#FF3875" fill-opacity="0.5"/>
<path id="Vector_11" d="M6.08149 4.03718C3.5825 4.80338 2.1968 3.48614 1.80713 3.03028C3.75888 1.64684 5.28268 2.98925 6.08149 4.03718Z" fill="#FF3875"/>
<path id="Vector_12" d="M7.40886 6.33152C7.57079 6.33184 7.72719 6.27211 7.84831 6.16369C7.96943 6.05527 8.04683 5.90572 8.06579 5.74349C8.15548 4.95425 8.12328 3.65039 6.93131 3.65039C5.73155 3.65039 5.73706 4.97125 5.84688 5.75883C5.8693 5.91792 5.94793 6.06348 6.06828 6.16873C6.18863 6.27398 6.34262 6.33184 6.5019 6.33166L7.40886 6.33152Z" fill="#FF3875"/>
</g>
</g>
</g>
</g>
</svg>
