<svg width="81" height="81" viewBox="0 0 81 81" fill="none" xmlns="http://www.w3.org/2000/svg">
<g id="page 1">
<g id="Exp-3.-G">
<path id="Vector" fill-rule="evenodd" clip-rule="evenodd" d="M34.2501 12.5957C34.2501 12.2645 34.3814 11.947 34.6164 11.712C34.8501 11.4782 35.1689 11.3457 35.5001 11.3457H63.6926L78.0001 27.212V47.1532C78.0001 47.1532 78.0451 63.6245 73.3664 71.4882C73.1389 71.8495 72.7414 72.0682 72.3139 72.0682C67.5301 72.072 39.1289 72.072 31.1901 72.072C30.7514 72.072 30.3451 71.8407 30.1189 71.4657C29.8926 71.0895 29.8814 70.622 30.0876 70.2345C33.9664 61.8132 34.2501 47.1532 34.2501 47.1532V12.5957Z" fill="#EEECFF"/>
<g id="Group">
<path id="Vector_2" fill-rule="evenodd" clip-rule="evenodd" d="M50.9282 32.6223H67.907C68.4926 32.6223 68.9681 32.1469 68.9681 31.5613C68.9681 30.9756 68.4926 30.5 67.907 30.5H50.9282C50.3426 30.5 49.8669 30.9756 49.8669 31.5613C49.8669 32.1469 50.3426 32.6223 50.9282 32.6223Z" fill="#473388"/>
<path id="Vector_3" fill-rule="evenodd" clip-rule="evenodd" d="M44.5613 59.1516H61.5401C62.1257 59.1516 62.6011 58.6762 62.6011 58.0906C62.6011 57.5049 62.1257 57.0293 61.5401 57.0293H44.5613C43.9754 57.0293 43.5 57.5049 43.5 58.0906C43.5 58.6762 43.9754 59.1516 44.5613 59.1516Z" fill="#473388"/>
<path id="Vector_4" fill-rule="evenodd" clip-rule="evenodd" d="M44.5613 38.9895H67.907C68.4927 38.9895 68.9681 38.5139 68.9681 37.9283C68.9681 37.3426 68.4927 36.8672 67.907 36.8672H44.5613C43.9754 36.8672 43.5 37.3426 43.5 37.9283C43.5 38.5139 43.9754 38.9895 44.5613 38.9895Z" fill="#473388"/>
<path id="Vector_5" fill-rule="evenodd" clip-rule="evenodd" d="M44.5613 45.3567H67.907C68.4927 45.3567 68.9681 44.8813 68.9681 44.2956C68.9681 43.7098 68.4927 43.2344 67.907 43.2344H44.5613C43.9754 43.2344 43.5 43.7098 43.5 44.2956C43.5 44.8813 43.9754 45.3567 44.5613 45.3567Z" fill="#473388"/>
<path id="Vector_6" fill-rule="evenodd" clip-rule="evenodd" d="M44.5613 51.7239H67.907C68.4927 51.7239 68.9681 51.2485 68.9681 50.6628C68.9681 50.0772 68.4927 49.6016 67.907 49.6016H44.5613C43.9754 49.6016 43.5 50.0772 43.5 50.6628C43.5 51.2485 43.9754 51.7239 44.5613 51.7239Z" fill="#473388"/>
</g>
<path id="Vector_7" fill-rule="evenodd" clip-rule="evenodd" d="M78.0001 47.1523C78.0001 47.1523 78.0451 63.6236 73.3664 71.4873C73.1389 71.8486 72.7414 72.0673 72.3139 72.0673C67.5301 72.0711 39.1289 72.0711 31.1901 72.0711C30.7514 72.0711 30.3451 71.8398 30.1189 71.4648C29.8926 71.0886 29.8814 70.6211 30.0876 70.2336L30.1364 70.1261C45.5289 70.8498 67.8814 68.1536 70.8251 67.0011C73.9701 65.7698 77.9376 53.9548 77.9989 47.3073L78.0001 47.1523Z" fill="#D3D3FF"/>
<path id="Vector_8" fill-rule="evenodd" clip-rule="evenodd" d="M78.0001 27.212C74.2051 25.7132 70.1876 25.6707 66.0639 26.307C65.6814 26.3682 65.2926 26.2457 65.0114 25.9795C64.7301 25.712 64.5901 25.3295 64.6314 24.9445C65.0839 20.327 64.6276 15.8095 63.6926 11.3457C69.7401 15.8357 74.5151 21.1195 78.0001 27.212Z" fill="#D3D3FF"/>
<path id="Vector_9" fill-rule="evenodd" clip-rule="evenodd" d="M34.25 15.584C37.5925 16.0002 40.8275 17.4902 43.3925 20.0552C48.5212 25.184 49.3537 32.9915 45.8912 38.9902L47.95 45.519C48.0512 45.8402 47.9662 46.1902 47.7287 46.4277C47.67 46.4852 47.61 46.5452 47.5537 46.6027C47.33 46.8252 47.0012 46.9052 46.7012 46.8102L40.14 44.7415C38.2975 45.8052 36.2837 46.464 34.23 46.7165C34.245 46.3027 34.25 46.0752 34.25 46.0752V15.584Z" fill="#C2C2F4"/>
<path id="Vector_10" fill-rule="evenodd" clip-rule="evenodd" d="M38.5588 43.2112C32.8238 46.5225 25.3588 45.7262 20.455 40.8225C14.6013 34.9687 14.6013 25.4637 20.455 19.61C26.3088 13.755 35.8138 13.755 41.6688 19.61C46.5713 24.5125 47.3675 31.9775 44.0575 37.7125L46.025 43.955C46.1225 44.2612 46.04 44.5962 45.8138 44.8225C45.7575 44.8787 45.7013 44.935 45.6463 44.99C45.4325 45.2037 45.1188 45.28 44.8313 45.19L38.5588 43.2112Z" fill="#F7F7FF"/>
<path id="Vector_11" d="M31.5 40.5C37.0228 40.5 41.5 36.0228 41.5 30.5C41.5 24.9772 37.0228 20.5 31.5 20.5C25.9772 20.5 21.5 24.9772 21.5 30.5C21.5 36.0228 25.9772 40.5 31.5 40.5Z" fill="#E80935"/>
<g id="Group_2">
<path id="Vector_12" d="M35.259 35.591C35.0841 35.5912 34.9109 35.5569 34.7493 35.4899C34.5878 35.423 34.441 35.3247 34.3176 35.2009L27.2161 28.0995C26.9679 27.8495 26.829 27.5113 26.8296 27.159C26.8302 26.8068 26.9705 26.4691 27.2195 26.22C27.4686 25.9709 27.8063 25.8307 28.1585 25.8301C28.5108 25.8294 28.849 25.9684 29.099 26.2166L36.2004 33.3181C36.3866 33.5043 36.5134 33.7415 36.5647 33.9998C36.6161 34.258 36.5897 34.5257 36.489 34.769C36.3882 35.0123 36.2176 35.2202 35.9986 35.3665C35.7797 35.5128 35.5223 35.591 35.259 35.591Z" fill="#EAF4F4"/>
<path id="Vector_13" d="M28.1575 35.591C27.8942 35.591 27.6368 35.5128 27.4178 35.3665C27.1989 35.2202 27.0283 35.0123 26.9275 34.769C26.8268 34.5257 26.8004 34.258 26.8517 33.9998C26.9031 33.7415 27.0299 33.5043 27.2161 33.3181L34.3175 26.2166C34.5675 25.9684 34.9057 25.8294 35.2579 25.8301C35.6102 25.8307 35.9478 25.9709 36.1969 26.22C36.446 26.4691 36.5862 26.8068 36.5869 27.159C36.5875 27.5113 36.4485 27.8495 36.2004 28.0995L29.0989 35.2009C28.9754 35.3247 28.8287 35.423 28.6671 35.4899C28.5056 35.5569 28.3324 35.5912 28.1575 35.591Z" fill="#EAF4F4"/>
</g>
<g id="Group_3">
<path id="Vector_14" fill-rule="evenodd" clip-rule="evenodd" d="M15.7713 9.70482L20.7713 15.9948C21.2013 16.5348 21.9876 16.6248 22.5276 16.1961C23.0676 15.7673 23.1576 14.9798 22.7288 14.4398L17.7288 8.14982C17.2988 7.60982 16.5126 7.51982 15.9726 7.94857C15.4326 8.37857 15.3426 9.16482 15.7713 9.70482Z" fill="#473388"/>
<path id="Vector_15" fill-rule="evenodd" clip-rule="evenodd" d="M2.37754 12.8338L15.4425 20.3338C16.04 20.6775 16.805 20.4713 17.1488 19.8725C17.4925 19.2738 17.285 18.51 16.6863 18.1663L3.62254 10.6663C3.02379 10.3225 2.26004 10.5288 1.91629 11.1275C1.57254 11.7263 1.77879 12.49 2.37754 12.8338Z" fill="#473388"/>
<path id="Vector_16" fill-rule="evenodd" clip-rule="evenodd" d="M4.25 26.75H13C13.69 26.75 14.25 26.19 14.25 25.5C14.25 24.81 13.69 24.25 13 24.25H4.25C3.56 24.25 3 24.81 3 25.5C3 26.19 3.56 26.75 4.25 26.75Z" fill="#473388"/>
</g>
</g>
</g>
</svg>
