<svg width="29" height="27" viewBox="0 0 29 27" fill="none" xmlns="http://www.w3.org/2000/svg">
<path d="M4.31318 12.4727C3.68265 12.6136 2.97441 12.4821 2.70869 12.3994L2.31904 12.2773L2.31318 23.9736H0.616891L0.611381 26.2725L27.5502 26.3008L27.5495 23.9727H25.8522V12.4102L25.4372 12.583L25.4363 12.5833C25.4314 12.5847 25.4157 12.5891 25.3854 12.5938C25.3466 12.5996 25.2952 12.6042 25.2331 12.6074C25.1089 12.6139 24.9529 12.6128 24.7858 12.6045C24.4465 12.5876 24.0904 12.5417 23.8718 12.4785L23.489 12.3682V23.9727H10.9011V12.4814L10.571 12.5146C10.1146 12.5615 9.8266 12.5013 9.77119 12.4824L9.37275 12.3447V23.9717H4.67841V12.3916L4.31318 12.4727Z" fill="#565C6A"/>
<path d="M28.1533 9.87818V8.34106L28.1524 8.34387H0.0126953V9.78759C0.0126953 9.90712 0.210954 10.4833 0.275178 10.6421C0.680072 11.645 1.59969 12.394 2.61891 12.6853C2.91367 12.7773 3.67818 12.9221 4.37811 12.7656C5.80408 12.2091 6.85866 11.2435 7.02528 9.64378C7.25983 11.1837 8.2744 12.1941 9.67244 12.7656C9.77847 12.8024 10.1127 12.8634 10.6014 12.8133C12.368 12.7852 13.7986 11.462 14.0835 9.7381C14.8504 13.7882 20.209 13.8031 21.1417 9.83148C21.4321 11.3312 22.4103 12.2324 23.7888 12.7666C24.1662 12.8553 25.0351 13.0007 25.5527 12.8599C25.9283 12.7442 26.4178 12.4977 26.8568 12.1606C27.352 11.7803 28.1533 10.5113 28.1533 9.87818Z" fill="#FF3875"/>
<path d="M28.1534 7.50235H0.0146484L3.46044 0.571339L3.77039 0.416321L24.5633 0.436865L28.1534 7.50235Z" fill="#565C6A"/>
<path d="M19.7495 14.398C19.8779 14.5885 20.4308 14.9106 20.3126 15.1404L15.3394 19.9441C15.1783 19.7274 14.766 19.55 14.9177 19.2418L19.7504 14.397L19.7495 14.398Z" fill="#FF3875"/>
<path d="M19.7491 16.9156C19.9306 17.179 20.4807 17.2742 20.3085 17.6552L18.03 19.945C17.8001 20.0636 17.4799 19.5098 17.2891 19.38L19.7482 16.9147L19.7491 16.9156Z" fill="#FF3875"/>
<path d="M17.2602 14.4997C17.5115 14.4231 17.8857 14.9778 17.8056 15.1394C17.0619 15.7006 16.2959 16.8847 15.5736 17.3825C15.3018 17.5693 14.8299 16.9856 14.9155 16.8184L17.2611 14.4988L17.2602 14.4997Z" fill="#FF3875"/>
<path d="M7.79324 15.4382C8.2847 15.3784 8.81711 15.8201 8.83293 16.316C8.84689 16.7437 8.42804 16.9585 8.37405 17.2396C8.32937 17.474 8.34334 18.9775 8.42059 19.1455C8.53508 19.3958 8.88599 19.4304 8.83572 19.93C8.70448 21.2346 6.67908 20.8386 7.11376 19.5144C7.16961 19.3435 7.35018 19.2511 7.39486 19.1446C7.47584 18.9476 7.49073 17.3993 7.44233 17.1462C7.40044 16.9258 7.17892 16.8352 7.11376 16.6372C6.94156 16.1096 7.21801 15.5073 7.79324 15.4372V15.4382Z" fill="#FF3875"/>
</svg>
