<svg width="20" height="20" viewBox="0 0 20 20" fill="none" xmlns="http://www.w3.org/2000/svg">
<g clip-path="url(#clip0_4094_124215)">
<path d="M19.0826 18.1772H0.908917C0.4068 18.1772 0 18.584 0 19.0866C0 19.5883 0.4068 19.9951 0.908917 19.9951H19.0821C19.5843 19.9951 19.9911 19.5883 19.9911 19.0866C19.9906 18.584 19.5838 18.1772 19.0826 18.1772Z" fill="#473388"/>
<path d="M2.04466 15.8146C1.54254 15.8146 1.13574 16.2214 1.13574 16.7236C1.13574 17.2257 1.54254 17.6329 2.04466 17.6329H17.9464C18.4486 17.6329 18.8554 17.2257 18.8554 16.7236C18.8554 16.2214 18.4486 15.8146 17.9464 15.8146H17.7196V7.63609H17.9464C18.1979 7.63609 18.4005 7.43269 18.4005 7.18206C18.4005 6.93143 18.1971 6.72803 17.9464 6.72803H2.04466C1.7936 6.72803 1.59063 6.93143 1.59063 7.18206C1.59063 7.43269 1.79403 7.63609 2.04466 7.63609H2.27189V15.8142L2.04466 15.8146ZM15.9018 7.63609V15.8142H13.1759V7.63609H15.9018ZM11.3581 7.63609V15.8142H8.63218V7.63609H11.3581ZM4.08887 7.63609H6.81477V15.8142H4.08887V7.63609Z" fill="#473388"/>
<path d="M0.908934 5.91093H19.0822C19.0851 5.91093 19.0885 5.91093 19.0911 5.91093C19.5936 5.91093 20 5.50413 20 5.00201C20 4.60287 19.743 4.26458 19.386 4.14203L10.3692 0.0846684C10.1321 -0.0217124 9.86108 -0.0217124 9.62364 0.0846684L0.536176 4.17352C0.145121 4.34968 -0.0697685 4.77436 0.0204424 5.19307C0.110228 5.61178 0.480433 5.91093 0.908934 5.91093Z" fill="#473388"/>
</g>
<defs>
<clipPath id="clip0_4094_124215">
<rect width="20" height="20" fill="white"/>
</clipPath>
</defs>
</svg>
