<svg width="24" height="25" viewBox="0 0 24 25" fill="none" xmlns="http://www.w3.org/2000/svg">
<path d="M15.9735 9.84807C16.0416 9.92295 16.0907 10.0131 16.1168 10.1109C16.1342 10.2097 16.1342 10.3107 16.1168 10.4095C15.921 11.3632 15.4012 12.2197 14.6457 12.8338C13.8901 13.4478 12.9454 13.7814 11.9718 13.7781C12.9568 13.784 13.9133 13.4478 14.678 12.8269C15.4427 12.206 15.9682 11.3389 16.1646 10.3737C16.1824 10.2669 16.1824 10.1579 16.1646 10.0511C16.1293 9.95119 16.0767 9.8582 16.0093 9.77639C15.9375 9.6934 15.8476 9.62802 15.7465 9.58527C15.6499 9.53757 15.5436 9.51303 15.4359 9.5136C15.5398 9.5131 15.6422 9.53769 15.7346 9.58527C15.8364 9.64974 15.919 9.74054 15.9735 9.84807Z" fill="#222222"/>
<path d="M9.30797 12.8702C10.07 13.4836 11.0175 13.8205 11.9957 13.8259C12.9692 13.8292 13.914 13.4956 14.6695 12.8815C15.4251 12.2675 15.9449 11.411 16.1407 10.4573C16.1581 10.3585 16.1581 10.2574 16.1407 10.1587C16.1096 10.0629 16.061 9.97381 15.9973 9.89585C15.931 9.82322 15.8494 9.76612 15.7584 9.72862C15.6661 9.68103 15.5637 9.65644 15.4598 9.65694C15.2838 9.65488 15.1133 9.71881 14.982 9.83612C14.8419 9.94509 14.748 10.1029 14.7192 10.2781C14.5911 10.8945 14.2534 11.4474 13.7636 11.8429C13.2749 12.2376 12.6657 12.4529 12.0375 12.4529C11.4093 12.4529 10.8001 12.2376 10.3114 11.8429C9.82156 11.4474 9.48386 10.8945 9.35576 10.2781C9.33114 10.1043 9.24149 9.94635 9.10491 9.83612C8.96823 9.71993 8.79453 9.65638 8.61514 9.65694C8.50745 9.65637 8.40112 9.68091 8.30457 9.72862C8.2035 9.77137 8.11358 9.83675 8.04177 9.91974C7.97437 10.0016 7.92181 10.0945 7.88649 10.1945C7.86279 10.3007 7.86279 10.4108 7.88649 10.517C8.08498 11.4378 8.58526 12.266 9.30797 12.8702Z" fill="#222222"/>
<path d="M20.3454 20.6944L19.784 8.7491C19.758 8.19752 19.5231 7.67649 19.127 7.29177C18.7278 6.91213 18.1967 6.70228 17.6458 6.70645H16.2721V6.22864C16.2721 5.10714 15.8266 4.03156 15.0336 3.23854C14.2405 2.44552 13.165 2 12.0434 2C10.9219 2 9.84637 2.44552 9.05335 3.23854C8.26032 4.03156 7.81481 5.10714 7.81481 6.22864V6.70645H6.35748C5.80569 6.70292 5.27414 6.91405 4.87515 7.29521C4.47615 7.67637 4.24096 8.19773 4.21927 8.7491L3.65784 20.7661C3.64181 21.0549 3.68657 21.3438 3.78924 21.6142C3.88943 21.8854 4.04388 22.1334 4.24316 22.3429C4.44051 22.5545 4.68079 22.7214 4.94793 22.8326C5.21189 22.9462 5.49675 23.0032 5.78411 22.9999H18.1953C18.3327 22.9897 18.4688 22.9656 18.6014 22.9282C19.0983 22.8013 19.5391 22.5132 19.8547 22.109C20.1703 21.7047 20.3429 21.2072 20.3454 20.6944ZM14.7311 6.65867H9.26019V6.18086C9.26019 5.45537 9.54839 4.75958 10.0614 4.24658C10.5744 3.73358 11.2702 3.44648 11.9957 3.44648C12.7212 3.44648 13.4169 3.73358 13.9299 4.24658C14.4429 4.75958 14.7311 5.45537 14.7311 6.18086V6.65867ZM5.17489 20.79L5.73632 8.84466C5.73939 8.67454 5.80833 8.51225 5.92865 8.39193C6.04896 8.27162 6.21125 8.20268 6.38137 8.19961H17.6578C17.8303 8.19699 17.9973 8.2612 18.1236 8.37879C18.2363 8.50814 18.2998 8.67312 18.3028 8.84466L18.8762 20.8616C18.8932 20.9444 18.8932 21.0298 18.8762 21.1125C18.8518 21.1978 18.8066 21.2758 18.7448 21.3395C18.6839 21.4018 18.6107 21.4506 18.5298 21.4828C18.4431 21.5008 18.3536 21.5008 18.267 21.4828H5.79605C5.70923 21.4993 5.62008 21.4993 5.53325 21.4828C5.45385 21.4478 5.38111 21.3993 5.31824 21.3395C5.26492 21.2697 5.22076 21.1935 5.18684 21.1125C5.14731 21.0267 5.13481 20.9308 5.15101 20.8378L5.17489 20.79ZM12.0196 2C11.7468 2.00354 11.475 2.03153 11.2073 2.08362C11.4685 2.04893 11.7323 2.03694 11.9957 2.04778L12.0196 2ZM9.17657 3.1348C9.52506 2.79735 9.92916 2.52255 10.3711 2.32252C9.9001 2.52956 9.47096 2.82105 9.1049 3.18258L9.17657 3.1348Z" fill="#222222"/>
</svg>
