<svg width="81" height="80" viewBox="0 0 81 80" fill="none" xmlns="http://www.w3.org/2000/svg">
<path d="M66.125 18.125V75.625H65.95L61.6406 71.3206C61.1519 70.8325 60.3606 70.8331 59.8731 71.3219L56.5406 74.6588C56.0525 75.1475 55.2612 75.1475 54.7731 74.66L54.7725 74.6594L51.4531 71.34C50.965 70.8519 50.1737 70.8519 49.6856 71.34L46.3475 74.6781C45.8594 75.1663 45.0681 75.1663 44.58 74.6781L41.2669 71.365C40.7787 70.8769 39.9875 70.8769 39.4994 71.365L39.4987 71.3656L36.1656 74.7025C35.6775 75.1912 34.8862 75.1912 34.3981 74.7038L31.0787 71.3887C30.5906 70.9012 29.7994 70.9012 29.3119 71.3894L25.9731 74.7281C25.485 75.2163 24.6938 75.2163 24.2056 74.7281L20.8919 71.4144C20.4037 70.9263 19.6125 70.9263 19.1244 71.4144L14.9125 75.625H14.875V18.125C14.875 16.0538 16.5538 14.375 18.625 14.375H62.375C64.4463 14.375 66.125 16.0538 66.125 18.125Z" fill="#F0F5FC"/>
<path d="M60.5 53.125C61.1906 53.125 61.75 52.5656 61.75 51.875V51.25C61.7456 48.6275 59.9312 46.355 57.375 45.77V43.75C57.375 43.0594 56.8156 42.5 56.125 42.5C55.4344 42.5 54.875 43.0594 54.875 43.75V45.77C51.8481 46.4575 49.9519 49.4681 50.6394 52.495C51.1181 54.6044 52.7656 56.2512 54.875 56.7306V62.8606C53.7381 62.3638 53.0019 61.2412 53 60.0006V59.3756C53 58.685 52.4406 58.1256 51.75 58.1256C51.0594 58.1256 50.5 58.685 50.5 59.3756V60.0006C50.5044 62.6231 52.3187 64.8956 54.875 65.4806V67.5C54.875 68.1906 55.4344 68.75 56.125 68.75C56.8156 68.75 57.375 68.1906 57.375 67.5V65.48C60.4019 64.7925 62.2981 61.7819 61.6106 58.755C61.1319 56.6456 59.4844 54.9988 57.375 54.5194V48.3894C58.5119 48.8862 59.2481 50.0088 59.25 51.2494V51.8744C59.25 52.5656 59.8094 53.125 60.5 53.125ZM53 51.25C53.0019 50.0087 53.7381 48.8869 54.875 48.39V54.11C53.7381 53.6131 53.0019 52.4913 53 51.25ZM59.25 60C59.2481 61.2412 58.5119 62.3631 57.375 62.86V57.14C58.5119 57.6369 59.2481 58.7588 59.25 60Z" fill="#1877F2"/>
<path d="M40.5 30.625C47.7487 30.625 53.625 24.7487 53.625 17.5C53.625 10.2513 47.7487 4.375 40.5 4.375C33.2513 4.375 27.375 10.2513 27.375 17.5C27.375 24.7487 33.2513 30.625 40.5 30.625Z" fill="#00E17E"/>
<path d="M57.375 36.25H21.75C21.405 36.25 21.125 35.97 21.125 35.625C21.125 35.28 21.405 35 21.75 35H57.375C57.72 35 58 35.28 58 35.625C58 35.97 57.72 36.25 57.375 36.25Z" fill="#2A2A2B"/>
<path d="M48 43.125H21.75C21.405 43.125 21.125 42.845 21.125 42.5C21.125 42.155 21.405 41.875 21.75 41.875H48C48.345 41.875 48.625 42.155 48.625 42.5C48.625 42.845 48.345 43.125 48 43.125Z" fill="#2A2A2B"/>
<path d="M44.25 50H21.75C21.405 50 21.125 49.72 21.125 49.375C21.125 49.03 21.405 48.75 21.75 48.75H44.25C44.595 48.75 44.875 49.03 44.875 49.375C44.875 49.72 44.595 50 44.25 50Z" fill="#2A2A2B"/>
<path d="M43.625 56.875H21.75C21.405 56.875 21.125 56.595 21.125 56.25C21.125 55.905 21.405 55.625 21.75 55.625H43.625C43.97 55.625 44.25 55.905 44.25 56.25C44.25 56.595 43.97 56.875 43.625 56.875Z" fill="#2A2A2B"/>
<path d="M46.75 63.75H21.75C21.405 63.75 21.125 63.47 21.125 63.125C21.125 62.78 21.405 62.5 21.75 62.5H46.75C47.095 62.5 47.375 62.78 47.375 63.125C47.375 63.47 47.095 63.75 46.75 63.75Z" fill="#2A2A2B"/>
<path d="M37.2352 22.299C36.4277 22.299 35.6709 21.9077 35.204 21.249L32.8246 17.9177C32.4471 17.414 32.484 16.7127 32.9121 16.2515C33.3984 15.7615 34.1902 15.7584 34.6809 16.2446C34.7309 16.294 34.7765 16.3477 34.8171 16.4052L36.5352 18.8102C36.9271 19.359 37.6846 19.4977 38.2459 19.124L47.4815 12.9671C48.0559 12.584 48.8321 12.739 49.2152 13.3134C49.2396 13.3496 49.2615 13.3865 49.2815 13.4252C49.569 14.0184 49.3665 14.7321 48.8102 15.0859L38.6252 21.8752C38.214 22.1509 37.7302 22.2984 37.2352 22.299Z" fill="#F0F5FC"/>
</svg>
