<svg width="16" height="16" viewBox="0 0 16 16" fill="none" xmlns="http://www.w3.org/2000/svg">
<path fill-rule="evenodd" clip-rule="evenodd" d="M2.03339 2.24356C2.38661 1.47282 3.19019 1 4.04824 1H11.9526C12.8107 1 13.6142 1.47282 13.9675 2.24356L13.9675 2.24367L15.3205 5.19781C15.3206 5.19789 15.3206 5.19797 15.3206 5.19804C15.7751 6.18916 15.3399 7.22783 14.5004 7.73936V14H15.0004C15.2766 14 15.5004 14.2239 15.5004 14.5C15.5004 14.7761 15.2766 15 15.0004 15H1.00043C0.724288 15 0.50043 14.7761 0.50043 14.5C0.50043 14.2239 0.724288 14 1.00043 14H1.50043V7.73976C0.660821 7.22839 0.225899 6.18942 0.680217 5.19805C0.680236 5.198 0.680255 5.19796 0.680275 5.19792L2.03339 2.24356ZM2.50043 8.05748V14H8.50043V9.75C8.50043 9.41848 8.63213 9.10054 8.86655 8.86612C9.10097 8.6317 9.41891 8.5 9.75043 8.5H11.7504C12.082 8.5 12.3999 8.6317 12.6343 8.86612C12.8687 9.10054 13.0004 9.41848 13.0004 9.75V14H13.5004V8.05744C13.4695 8.05967 13.4383 8.06128 13.4069 8.06226C13.4017 8.06242 13.3966 8.0625 13.3914 8.0625H13.3304C12.6281 8.0625 11.9779 7.75742 11.5538 7.2654C11.1296 7.75744 10.4793 8.0625 9.77699 8.0625C9.07597 8.0625 8.43364 7.74198 8.01133 7.2534C7.58801 7.75237 6.93372 8.0625 6.22543 8.0625C5.51852 8.0625 4.87113 7.73655 4.4489 7.24096C4.02674 7.7368 3.37914 8.0625 2.67199 8.0625H2.60949C2.60439 8.0625 2.59929 8.06242 2.59419 8.06227C2.56274 8.0613 2.53149 8.0597 2.50043 8.05748ZM4.94856 5.93031C4.94856 6.46969 5.49122 7.0625 6.22543 7.0625C6.9707 7.0625 7.50043 6.51722 7.50043 5.93031C7.50043 5.65417 7.72429 5.43031 8.00043 5.43031C8.27657 5.43031 8.50043 5.65417 8.50043 5.93031C8.50043 6.4698 9.0429 7.0625 9.77699 7.0625C10.523 7.0625 11.0539 6.51656 11.0539 5.93031C11.0539 5.65417 11.2777 5.43031 11.5539 5.43031C11.83 5.43031 12.0539 5.65417 12.0539 5.93031C12.0539 6.51667 12.5846 7.0625 13.3304 7.0625H13.383C14.2461 7.03129 14.6964 6.23574 14.4116 5.61469L14.4115 5.61445L13.0584 2.66019C13.0584 2.66015 13.0584 2.66012 13.0583 2.66008C12.8828 2.27713 12.4564 2 11.9526 2H4.04824C3.54447 2 3.11807 2.27713 2.94252 2.66008C2.9425 2.66012 2.94249 2.66015 2.94247 2.66019L1.58934 5.61458C1.30424 6.23659 1.75508 7.03184 2.61772 7.0625H2.67199C3.4064 7.0625 3.94856 6.47107 3.94856 5.93031C3.94856 5.65417 4.17241 5.43031 4.44856 5.43031C4.7247 5.43031 4.94856 5.65417 4.94856 5.93031ZM12.0004 14V9.75C12.0004 9.6837 11.9741 9.62011 11.9272 9.57322C11.8803 9.52634 11.8167 9.5 11.7504 9.5H9.75043C9.68413 9.5 9.62054 9.52634 9.57366 9.57322C9.52677 9.62011 9.50043 9.6837 9.50043 9.75V14H12.0004ZM4.25043 9.5C4.18413 9.5 4.12054 9.52634 4.07365 9.57322C4.02677 9.62011 4.00043 9.6837 4.00043 9.75V12H7.00043V9.75C7.00043 9.6837 6.97409 9.62011 6.92721 9.57322C6.88032 9.52634 6.81673 9.5 6.75043 9.5H4.25043ZM3.36655 8.86612C3.60097 8.6317 3.91891 8.5 4.25043 8.5H6.75043C7.08195 8.5 7.39989 8.6317 7.63431 8.86612C7.86873 9.10054 8.00043 9.41848 8.00043 9.75V12.5C8.00043 12.7761 7.77657 13 7.50043 13H3.50043C3.22429 13 3.00043 12.7761 3.00043 12.5V9.75C3.00043 9.41848 3.13213 9.10054 3.36655 8.86612Z" fill="#FF3875"/>
</svg>
