<svg width="88" height="20" viewBox="0 0 88 20" fill="none" xmlns="http://www.w3.org/2000/svg">
<g id="Powered by Stripe - black 1" clip-path="url(#clip0_10150_133477)">
<path id="Vector" d="M85.6533 0H2.18827C1.6079 0 1.05131 0.231165 0.640928 0.642642C0.230549 1.05412 0 1.6122 0 2.19412L0 17.8059C0 18.3878 0.230549 18.9459 0.640928 19.3574C1.05131 19.7688 1.6079 20 2.18827 20H85.6533C86.2757 20 86.8726 19.7521 87.3127 19.3108C87.7528 18.8696 88 18.2711 88 17.6471V2.35294C88 1.7289 87.7528 1.13042 87.3127 0.689161C86.8726 0.247899 86.2757 0 85.6533 0ZM87.4133 17.6471C87.4133 18.1151 87.2279 18.5639 86.8978 18.8949C86.5678 19.2258 86.1201 19.4118 85.6533 19.4118H2.18827C1.76397 19.4102 1.3575 19.2405 1.05747 18.9397C0.757448 18.6389 0.588212 18.2313 0.586667 17.8059V2.19412C0.588212 1.76869 0.757448 1.36113 1.05747 1.0603C1.3575 0.759474 1.76397 0.589785 2.18827 0.588235H85.6533C86.1201 0.588235 86.5678 0.774159 86.8978 1.10511C87.2279 1.43605 87.4133 1.88491 87.4133 2.35294V17.6471Z" fill="#666666"/>
<path id="Vector_2" d="M10.0139 6.61206H7.49121V12.9415H8.61761V10.4944H10.0139C11.4219 10.4944 12.3019 9.81206 12.3019 8.55324C12.3019 7.29441 11.4219 6.61206 10.0139 6.61206ZM9.95521 9.55324H8.61761V7.61206H9.97281C10.7824 7.61206 11.2107 7.95912 11.2107 8.58265C11.2107 9.20618 10.7648 9.52383 9.97281 9.52383L9.95521 9.55324Z" fill="#666666"/>
<path id="Vector_3" d="M14.7254 8.23502C14.417 8.23144 14.1113 8.29258 13.8278 8.41452C13.5444 8.53646 13.2895 8.71649 13.0795 8.94306C12.8696 9.16963 12.7092 9.43772 12.6087 9.73012C12.5083 10.0225 12.4699 10.3328 12.4961 10.6409C12.4686 10.9507 12.5057 11.2629 12.6051 11.5576C12.7045 11.8523 12.864 12.123 13.0734 12.3525C13.2828 12.582 13.5376 12.7652 13.8215 12.8906C14.1054 13.016 14.4123 13.0808 14.7225 13.0808C15.0327 13.0808 15.3396 13.016 15.6235 12.8906C15.9074 12.7652 16.1622 12.582 16.3716 12.3525C16.581 12.123 16.7405 11.8523 16.8399 11.5576C16.9393 11.2629 16.9764 10.9507 16.9489 10.6409C16.976 10.3331 16.9384 10.0229 16.8386 9.73055C16.7388 9.43816 16.579 9.16998 16.3696 8.9433C16.1601 8.71663 15.9055 8.53648 15.6223 8.41449C15.3392 8.2925 15.0336 8.23136 14.7254 8.23502ZM14.7254 12.1585C14.0097 12.1585 13.5521 11.5703 13.5521 10.6409C13.5521 9.71149 13.998 9.12325 14.7254 9.12325C15.4529 9.12325 15.8988 9.71149 15.8988 10.6409C15.8988 11.5703 15.4353 12.1527 14.7254 12.1527V12.1585Z" fill="#666666"/>
<path id="Vector_4" d="M21.5778 11.3819L20.7506 8.31128H19.8823L19.061 11.3819L18.2279 8.31128H17.1426L18.533 12.9466H19.4482L20.293 9.91128L21.1378 12.9466H22.053L23.4434 8.31128H22.3991L21.5778 11.3819Z" fill="#666666"/>
<path id="Vector_5" d="M25.8134 8.2356C25.5091 8.24126 25.209 8.3089 24.9315 8.43438C24.6539 8.55987 24.4047 8.7406 24.199 8.9656C23.9933 9.19059 23.8353 9.45517 23.7346 9.74325C23.6339 10.0313 23.5927 10.3369 23.6134 10.6415C23.5889 10.9507 23.629 11.2617 23.7312 11.5545C23.8334 11.8474 23.9955 12.1156 24.2069 12.342C24.4184 12.5685 24.6747 12.7482 24.9594 12.8696C25.2441 12.9911 25.551 13.0516 25.8604 13.0474C26.2857 13.0703 26.7075 12.959 27.0664 12.7289C27.4253 12.4989 27.7032 12.1617 27.8609 11.765L26.9868 11.4003C26.9182 11.6276 26.7745 11.8248 26.5795 11.9595C26.3844 12.0941 26.1494 12.1583 25.9132 12.1415C25.7449 12.1455 25.5775 12.1152 25.4213 12.0525C25.265 11.9898 25.1231 11.8959 25.004 11.7766C24.885 11.6572 24.7914 11.5149 24.7288 11.3582C24.6663 11.2015 24.6361 11.0337 24.6401 10.865H27.8785V10.5121C27.8902 9.24148 27.1745 8.2356 25.8134 8.2356ZM24.6812 10.0768C24.7223 9.80666 24.8597 9.56065 25.0679 9.38435C25.2761 9.20804 25.541 9.1134 25.8134 9.11795C25.9429 9.10698 26.0732 9.12377 26.1957 9.16721C26.3182 9.21065 26.43 9.27974 26.5238 9.36989C26.6176 9.46003 26.6912 9.56917 26.7397 9.69004C26.7881 9.81091 26.8104 9.94074 26.8049 10.0709L24.6812 10.0768Z" fill="#666666"/>
<path id="Vector_6" d="M29.7386 8.99999V8.31176H28.6826V12.9412H29.7386V10.5118C29.7292 10.3548 29.7531 10.1976 29.8087 10.0506C29.8644 9.9036 29.9505 9.7701 30.0614 9.65891C30.1723 9.54773 30.3054 9.46139 30.452 9.4056C30.5987 9.34982 30.7554 9.32585 30.9119 9.33529C31.0409 9.32615 31.1702 9.32615 31.2991 9.33529V8.27646C31.217 8.27646 31.1232 8.27646 31 8.27646C30.7426 8.2631 30.4869 8.32419 30.2633 8.45248C30.0397 8.58076 29.8575 8.77082 29.7386 8.99999Z" fill="#666666"/>
<path id="Vector_7" d="M33.7216 8.2356C33.4173 8.24126 33.1172 8.3089 32.8397 8.43438C32.5621 8.55987 32.3129 8.7406 32.1072 8.9656C31.9015 9.19059 31.7435 9.45517 31.6428 9.74325C31.5421 10.0313 31.5009 10.3369 31.5216 10.6415C31.4971 10.9507 31.5372 11.2617 31.6394 11.5545C31.7416 11.8474 31.9037 12.1156 32.1151 12.342C32.3266 12.5685 32.5829 12.7482 32.8676 12.8696C33.1523 12.9911 33.4592 13.0516 33.7686 13.0474C34.19 13.0653 34.6066 12.9516 34.9608 12.7219C35.315 12.4922 35.5892 12.1578 35.7456 11.765L34.8422 11.4179C34.7736 11.6453 34.63 11.8424 34.4349 11.9771C34.2398 12.1118 34.0048 12.176 33.7686 12.1591C33.6037 12.1576 33.4408 12.1233 33.2894 12.0581C33.1379 11.9929 33.0008 11.8981 32.8862 11.7793C32.7716 11.6606 32.6816 11.5201 32.6216 11.3662C32.5616 11.2123 32.5327 11.0479 32.5366 10.8827H35.7867V10.5297C35.7867 9.24148 35.0592 8.2356 33.7216 8.2356ZM32.5894 10.0768C32.6316 9.80875 32.7687 9.56494 32.9756 9.38996C33.1824 9.21497 33.4452 9.1205 33.7158 9.12383C33.8452 9.11286 33.9755 9.12965 34.098 9.17309C34.2205 9.21653 34.3324 9.28562 34.4262 9.37577C34.52 9.46592 34.5935 9.57505 34.642 9.69592C34.6905 9.81679 34.7127 9.94662 34.7072 10.0768H32.5894Z" fill="#666666"/>
<path id="Vector_8" d="M39.635 8.82383C39.4722 8.63228 39.2685 8.47995 39.039 8.37811C38.8095 8.27628 38.56 8.22757 38.3092 8.23559C37.0126 8.23559 36.2734 9.32383 36.2734 10.6415C36.2734 11.9591 37.0126 13.0474 38.3092 13.0474C38.5602 13.0567 38.8101 13.0085 39.0398 12.9066C39.2695 12.8047 39.4731 12.6517 39.635 12.4591V12.9415H40.691V6.61206H39.635V8.82383ZM39.635 10.7944C39.6587 10.9621 39.646 11.133 39.5977 11.2953C39.5494 11.4577 39.4667 11.6076 39.3553 11.735C39.2439 11.8623 39.1064 11.964 38.9522 12.0332C38.7979 12.1023 38.6306 12.1373 38.4617 12.1356C37.6932 12.1356 37.2884 11.5474 37.2884 10.6532C37.2884 9.75912 37.699 9.17088 38.4617 9.17088C39.1129 9.17088 39.635 9.64735 39.635 10.5179V10.7944Z" fill="#666666"/>
<path id="Vector_9" d="M46.5284 8.23559C46.2728 8.22438 46.0181 8.2715 45.7833 8.3734C45.5485 8.47529 45.3399 8.62931 45.1732 8.82383V6.61206H44.1172V12.9415H45.1732V12.4532C45.3369 12.6452 45.5416 12.7978 45.7721 12.8997C46.0027 13.0015 46.2531 13.05 46.5049 13.0415C47.7956 13.0415 48.5348 11.9474 48.5348 10.6356C48.5348 9.32383 47.8191 8.23559 46.5284 8.23559ZM46.3465 12.1179C46.1776 12.1196 46.0103 12.0847 45.8561 12.0155C45.7018 11.9464 45.5643 11.8447 45.4529 11.7173C45.3415 11.59 45.2588 11.44 45.2105 11.2777C45.1623 11.1154 45.1495 10.9445 45.1732 10.7768V10.5003C45.1732 9.62971 45.666 9.15324 46.3465 9.15324C47.1092 9.15324 47.5199 9.74147 47.5199 10.6356C47.5199 11.5297 47.0799 12.1179 46.3465 12.1179Z" fill="#666666"/>
<path id="Vector_10" d="M50.9999 11.5642L49.8676 8.31128H48.7529L50.4543 12.776L50.2783 13.2113C50.2483 13.3604 50.162 13.4921 50.0373 13.5788C49.9126 13.6654 49.7592 13.7003 49.6095 13.676C49.4923 13.6846 49.3746 13.6846 49.2575 13.676V14.5642C49.3992 14.5854 49.5424 14.5952 49.6857 14.5936C50.052 14.6203 50.416 14.5172 50.7141 14.3021C51.0122 14.0871 51.2255 13.7738 51.3167 13.4172L53.2175 8.34657H52.1087L50.9999 11.5642Z" fill="#666666"/>
<path id="Vector_11" d="M73.3335 7.31204C73.1019 7.3107 72.8722 7.35521 72.6578 7.44303C72.4434 7.53085 72.2483 7.66025 72.0839 7.82381L72.0017 7.41792H70.5996V15.0179L72.1953 14.6709V12.8297C72.5127 13.0962 72.9136 13.242 73.3276 13.2415C74.4657 13.2415 75.51 12.3062 75.51 10.2356C75.51 8.34145 74.454 7.31204 73.3335 7.31204ZM72.9521 11.8003C72.8122 11.8084 72.6722 11.7851 72.5423 11.7322C72.4124 11.6793 72.2959 11.5981 72.2012 11.4944V9.07675C72.2963 8.96929 72.4141 8.88447 72.5461 8.8285C72.678 8.77253 72.8208 8.74681 72.9639 8.75322C73.5505 8.75322 73.9495 9.41792 73.9495 10.2709C73.9495 11.1238 73.5447 11.8003 72.9521 11.8003Z" fill="#666666"/>
<path id="Vector_12" d="M78.4552 7.31201C76.9181 7.31201 75.9854 8.64142 75.9854 10.3179C75.9854 12.3002 77.0883 13.3061 78.6606 13.3061C79.2742 13.3162 79.8801 13.1683 80.4206 12.8767V11.5532C79.9298 11.8015 79.3862 11.9266 78.8366 11.9179C78.203 11.9179 77.6632 11.6885 77.5811 10.9179H80.7373C80.7373 10.8297 80.7373 10.4826 80.7373 10.3297C80.7901 8.64142 79.9923 7.31201 78.4552 7.31201ZM77.5928 9.70613C77.5928 8.96495 78.0446 8.65319 78.4435 8.65319C78.8424 8.65319 79.2648 8.96495 79.2648 9.70613H77.5928Z" fill="#666666"/>
<path id="Vector_13" d="M66.2938 7.85926L66.1941 7.3769H64.833V13.0887H66.4053V9.21808C66.5473 9.04522 66.7385 8.91994 66.9534 8.85897C67.1683 8.79801 67.3967 8.80426 67.6079 8.8769V7.3769C67.3679 7.28263 67.1018 7.27963 66.8597 7.36848C66.6177 7.45733 66.4164 7.63189 66.2938 7.85926Z" fill="#666666"/>
<path id="Vector_14" d="M58.3497 9.09388C58.3497 8.83505 58.5609 8.73505 58.8953 8.73505C59.4495 8.74701 59.9927 8.89226 60.4793 9.15858V7.61152C59.9762 7.40758 59.4378 7.30561 58.8953 7.31152C57.5987 7.31152 56.7363 8.00564 56.7363 9.17035C56.7363 10.9939 59.1651 10.6998 59.1651 11.4821C59.1651 11.788 58.907 11.888 58.5785 11.888C57.9586 11.8517 57.3559 11.6704 56.8185 11.3586V12.9409C57.3724 13.1886 57.972 13.3169 58.5785 13.3174C59.9043 13.3174 60.8195 12.6409 60.8195 11.4586C60.7902 9.48211 58.3497 9.83505 58.3497 9.09388Z" fill="#666666"/>
<path id="Vector_15" d="M62.9376 6.02368L61.3829 6.36486V11.6178C61.3749 11.8392 61.412 12.0599 61.4919 12.2664C61.5718 12.4729 61.6929 12.6609 61.8478 12.8189C62.0026 12.9769 62.1879 13.1016 62.3925 13.1854C62.597 13.2691 62.8164 13.3102 63.0373 13.306C63.4227 13.3233 63.8067 13.2487 64.1578 13.0884V11.7649C63.9525 11.8531 62.9493 12.1531 62.9493 11.1766V8.82368H64.1578V7.44721H62.9493L62.9376 6.02368Z" fill="#666666"/>
<path id="Vector_16" d="M68.2002 6.88249L69.8018 6.5472V5.27661L68.2002 5.61191V6.88249Z" fill="#666666"/>
<path id="Vector_17" d="M69.8018 7.41772H68.2002V13.0883H69.8018V7.41772Z" fill="#666666"/>
</g>
<defs>
<clipPath id="clip0_10150_133477">
<rect width="88" height="20" fill="white"/>
</clipPath>
</defs>
</svg>
