<svg width="81" height="80" viewBox="0 0 81 80" fill="none" xmlns="http://www.w3.org/2000/svg">
<g id="corrupted-file 1">
<g id="Exp-3.-G">
<path id="Vector" fill-rule="evenodd" clip-rule="evenodd" d="M18.4837 40.0939V10.8877C18.4837 10.5552 18.6162 10.2377 18.8499 10.0039C19.0849 9.76895 19.4024 9.6377 19.7337 9.6377H47.9262L62.2337 25.5027V45.4439C62.2337 45.4439 62.2387 46.9627 62.1124 49.2977L55.0737 46.7439C54.2324 46.4389 53.2912 46.6064 52.6074 47.1852C51.5199 48.1039 49.8737 49.4964 48.8174 50.3889C48.1799 50.9277 47.3174 51.1127 46.5162 50.8839C44.0862 50.1889 39.0487 48.7502 39.0487 48.7502C39.0487 48.7502 43.7499 52.1077 46.2599 53.9014C47.1699 54.5514 48.4012 54.5177 49.2749 53.8189C50.3974 52.9202 51.9187 51.7039 52.9387 50.8877C53.6274 50.3377 54.5537 50.1902 55.3787 50.4989L61.8487 52.9252C61.3524 58.3177 60.2124 65.389 57.6012 69.7789C57.3724 70.1402 56.9749 70.3589 56.5474 70.3589C51.7637 70.3627 23.3624 70.3627 15.4237 70.3627C14.9849 70.3627 14.5787 70.1327 14.3524 69.7564C14.1274 69.3802 14.1149 68.9127 14.3212 68.5264C18.1999 60.1039 18.4837 45.4439 18.4837 45.4439V43.8052L23.9687 41.7489C24.7937 41.4402 25.7199 41.5877 26.4074 42.1377C27.4287 42.9539 28.9499 44.1702 30.0724 45.0689C30.9462 45.7677 32.1774 45.8014 33.0874 45.1514C35.5974 43.3577 40.2987 40.0002 40.2987 40.0002C40.2987 40.0002 35.2612 41.4389 32.8312 42.1339C32.0299 42.3627 31.1662 42.1777 30.5299 41.6389C29.4737 40.7464 27.8274 39.3539 26.7399 38.4352C26.0562 37.8564 25.1149 37.6889 24.2737 37.9939L18.4837 40.0939Z" fill="#EEECFF"/>
<path id="Vector_2" fill-rule="evenodd" clip-rule="evenodd" d="M61.2237 52.6914L61.8499 52.9414C61.3537 58.3339 60.2137 65.4114 57.6012 69.8039C57.3724 70.1652 56.9749 70.3839 56.5474 70.3839C51.7637 70.3877 23.3624 70.3877 15.4237 70.3877C14.9849 70.3877 14.5787 70.1564 14.3524 69.7802C14.1274 69.4052 14.1149 68.9377 14.3212 68.5502L14.3699 68.4427C29.7624 69.1664 52.1149 66.4702 55.0587 65.3177C57.2462 64.4614 59.8312 58.4864 61.2237 52.6914Z" fill="#D3D3FF"/>
<path id="Vector_3" fill-rule="evenodd" clip-rule="evenodd" d="M62.2336 25.5027C58.4399 24.0039 54.4211 23.9614 50.2974 24.5989C49.9149 24.6589 49.5261 24.5377 49.2449 24.2702C48.9649 24.0027 48.8236 23.6202 48.8649 23.2352C49.3174 18.6177 48.8611 14.1002 47.9261 9.6377C53.9736 14.1264 58.7499 19.4114 62.2336 25.5027Z" fill="#D3D3FF"/>
<path id="Vector_4" fill-rule="evenodd" clip-rule="evenodd" d="M8.09746 29.7229L14.3475 37.0604C14.795 37.5866 15.5837 37.6491 16.1087 37.2016C16.6337 36.7541 16.6975 35.9654 16.25 35.4404L9.99996 28.1029C9.55246 27.5766 8.76371 27.5141 8.23746 27.9616C7.71246 28.4091 7.64996 29.1979 8.09746 29.7229Z" fill="#473388"/>
<path id="Vector_5" fill-rule="evenodd" clip-rule="evenodd" d="M8.16493 40.6298L12.6012 41.8185C13.2674 41.9973 13.9537 41.601 14.1324 40.9348C14.3112 40.2685 13.9149 39.5823 13.2487 39.4035L8.81243 38.2148C8.14493 38.036 7.45993 38.4323 7.28118 39.0985C7.10243 39.7648 7.49868 40.451 8.16493 40.6298Z" fill="#473388"/>
<path id="Vector_6" fill-rule="evenodd" clip-rule="evenodd" d="M7.5762 50.9113L15.9237 46.0913C16.5212 45.7463 16.7262 44.9813 16.3812 44.3838C16.0362 43.7863 15.2712 43.5813 14.6737 43.9263L6.3262 48.7463C5.7287 49.0913 5.5237 49.8563 5.8687 50.4538C6.2137 51.0513 6.9787 51.2563 7.5762 50.9113Z" fill="#473388"/>
<path id="Vector_7" fill-rule="evenodd" clip-rule="evenodd" d="M72.9024 64.0176L66.6524 56.6801C66.2049 56.1551 65.4161 56.0926 64.8911 56.5388C64.3661 56.9863 64.3024 57.7763 64.7499 58.3013L70.9999 65.6388C71.4474 66.1638 72.2361 66.2276 72.7624 65.7801C73.2874 65.3326 73.3499 64.5426 72.9024 64.0176Z" fill="#473388"/>
<path id="Vector_8" fill-rule="evenodd" clip-rule="evenodd" d="M72.835 53.1115L68.3987 51.9228C67.7325 51.744 67.0462 52.1403 66.8675 52.8065C66.6887 53.4728 67.085 54.159 67.7512 54.3378L72.1875 55.5265C72.855 55.704 73.54 55.309 73.7187 54.6415C73.8975 53.9753 73.5012 53.2903 72.835 53.1115Z" fill="#473388"/>
<path id="Vector_9" fill-rule="evenodd" clip-rule="evenodd" d="M73.4237 42.8306L65.0762 47.6494C64.4787 47.9944 64.2737 48.7594 64.6187 49.3569C64.9637 49.9544 65.7287 50.1594 66.3262 49.8144L74.6737 44.9956C75.2712 44.6506 75.4762 43.8856 75.1312 43.2881C74.7862 42.6906 74.0212 42.4856 73.4237 42.8306Z" fill="#473388"/>
<g id="Group">
<path id="Vector_10" fill-rule="evenodd" clip-rule="evenodd" d="M25.33 21.1253L29.75 25.5453C30.2375 26.0328 31.03 26.0328 31.5175 25.5453C32.005 25.0566 32.005 24.2653 31.5175 23.7766L27.0975 19.3578C26.61 18.8703 25.8175 18.8703 25.33 19.3578C24.8425 19.8453 24.8425 20.6378 25.33 21.1253Z" fill="#473388"/>
<path id="Vector_11" fill-rule="evenodd" clip-rule="evenodd" d="M29.75 19.3578L25.33 23.7766C24.8425 24.2653 24.8425 25.0566 25.33 25.5453C25.8175 26.0328 26.61 26.0328 27.0975 25.5453L31.5175 21.1253C32.005 20.6378 32.005 19.8453 31.5175 19.3578C31.03 18.8703 30.2375 18.8703 29.75 19.3578Z" fill="#473388"/>
<path id="Vector_12" fill-rule="evenodd" clip-rule="evenodd" d="M39.08 21.1253L43.5 25.5453C43.9875 26.0328 44.78 26.0328 45.2675 25.5453C45.755 25.0566 45.755 24.2653 45.2675 23.7766L40.8475 19.3578C40.36 18.8703 39.5675 18.8703 39.08 19.3578C38.5925 19.8453 38.5925 20.6378 39.08 21.1253Z" fill="#473388"/>
<path id="Vector_13" fill-rule="evenodd" clip-rule="evenodd" d="M43.5 19.3578L39.08 23.7766C38.5925 24.2653 38.5925 25.0566 39.08 25.5453C39.5675 26.0328 40.36 26.0328 40.8475 25.5453L45.2675 21.1253C45.755 20.6378 45.755 19.8453 45.2675 19.3578C44.78 18.8703 43.9875 18.8703 43.5 19.3578Z" fill="#473388"/>
<path id="Vector_14" fill-rule="evenodd" clip-rule="evenodd" d="M28.5474 33.0117L30.3012 31.6979L32.0474 33.0104C32.4924 33.3442 33.1037 33.3442 33.5487 33.0104L35.2987 31.6979L37.0487 33.0104C37.4924 33.3442 38.1037 33.3442 38.5487 33.0104L40.2987 31.6979L42.0487 33.0104C42.5999 33.4242 43.3849 33.3129 43.7987 32.7604C44.2124 32.2092 44.0999 31.4254 43.5487 31.0104L41.0499 29.1354C40.6049 28.8029 39.9937 28.8029 39.5499 29.1354L37.7987 30.4479L36.0487 29.1354C35.6049 28.8029 34.9937 28.8029 34.5487 29.1354L32.7987 30.4479L31.0537 29.1367C30.6099 28.8029 29.9987 28.8017 29.5537 29.1354L27.0499 31.0104C26.4974 31.4242 26.3849 32.2079 26.7974 32.7604C27.2112 33.3117 27.9949 33.4254 28.5474 33.0117Z" fill="#473388"/>
</g>
</g>
</g>
</svg>
