<svg width="81" height="81" viewBox="0 0 81 81" fill="none" xmlns="http://www.w3.org/2000/svg">
<g id="file-backup 1">
<g id="Exp-2.-F">
<path id="Vector" fill-rule="evenodd" clip-rule="evenodd" d="M11.9363 11.3877C11.9363 11.0552 12.0675 10.7377 12.3025 10.5039C12.5363 10.2689 12.855 10.1377 13.1863 10.1377H41.3788L55.6863 26.0027V45.9439C55.6863 45.9439 55.7313 62.4152 51.0525 70.2789C50.825 70.6402 50.4275 70.8589 50 70.8589C45.2163 70.8627 16.815 70.8627 8.87504 70.8627C8.43754 70.8627 8.03129 70.6327 7.80504 70.2564C7.57879 69.8802 7.56753 69.4127 7.77378 69.0264C11.6525 60.6039 11.9363 45.9439 11.9363 45.9439V11.3877Z" fill="#EEECFF"/>
<path id="Vector_2" fill-rule="evenodd" clip-rule="evenodd" d="M55.6863 45.9443C55.6863 45.9443 55.7313 62.4156 51.0525 70.2793C50.825 70.6406 50.4275 70.8593 50 70.8593C45.2163 70.8631 16.815 70.8631 8.87504 70.8631C8.43754 70.8631 8.03129 70.6331 7.80504 70.2568C7.57879 69.8806 7.56753 69.4131 7.77379 69.0268L7.82254 68.9181C23.215 69.6418 45.5675 66.9456 48.5113 65.7931C51.6563 64.5631 55.6238 52.7481 55.685 46.1006L55.6863 45.9443Z" fill="#D3D3FF"/>
<g id="Group">
<path id="Vector_3" fill-rule="evenodd" clip-rule="evenodd" d="M55.6863 26.0027C51.8913 24.5039 47.8738 24.4614 43.75 25.0989C43.3675 25.1589 42.9788 25.0377 42.6975 24.7702C42.4163 24.5027 42.2763 24.1202 42.3175 23.7352C42.77 19.1177 42.3138 14.6002 41.3788 10.1377C47.4263 14.6264 52.2013 19.9114 55.6863 26.0027Z" fill="#D3D3FF"/>
<path id="Vector_4" fill-rule="evenodd" clip-rule="evenodd" d="M18.1863 35.54H34.5688C35.2588 35.54 35.8188 34.98 35.8188 34.29C35.8188 33.6 35.2588 33.04 34.5688 33.04H18.1863C17.4963 33.04 16.9363 33.6 16.9363 34.29C16.9363 34.98 17.4963 35.54 18.1863 35.54Z" fill="#473388"/>
<path id="Vector_5" fill-rule="evenodd" clip-rule="evenodd" d="M18.1863 41.79H29.8275C30.5175 41.79 31.0775 41.23 31.0775 40.54C31.0775 39.85 30.5175 39.29 29.8275 39.29H18.1863C17.4963 39.29 16.9363 39.85 16.9363 40.54C16.9363 41.23 17.4963 41.79 18.1863 41.79Z" fill="#473388"/>
<path id="Vector_6" fill-rule="evenodd" clip-rule="evenodd" d="M18.1863 48.04H29.8275C30.5175 48.04 31.0775 47.48 31.0775 46.79C31.0775 46.1 30.5175 45.54 29.8275 45.54H18.1863C17.4963 45.54 16.9363 46.1 16.9363 46.79C16.9363 47.48 17.4963 48.04 18.1863 48.04Z" fill="#473388"/>
<path id="Vector_7" fill-rule="evenodd" clip-rule="evenodd" d="M18.1863 54.29H29.8275C30.5175 54.29 31.0775 53.73 31.0775 53.04C31.0775 52.35 30.5175 51.79 29.8275 51.79H18.1863C17.4963 51.79 16.9363 52.35 16.9363 53.04C16.9363 53.73 17.4963 54.29 18.1863 54.29Z" fill="#473388"/>
</g>
<path id="Vector_8" d="M55.4351 66.9463C65.7904 66.9463 74.1851 58.5516 74.1851 48.1963C74.1851 37.841 65.7904 29.4463 55.4351 29.4463C45.0797 29.4463 36.6851 37.841 36.6851 48.1963C36.6851 58.5516 45.0797 66.9463 55.4351 66.9463Z" fill="#F7F6FF"/>
<path id="Vector_9" fill-rule="evenodd" clip-rule="evenodd" d="M45.3175 45.3201C46.925 39.3226 53.0912 35.7201 59.09 37.3276C65.0875 38.9351 68.6512 45.1089 67.045 51.1064C65.4375 57.1039 59.2637 60.6676 53.2662 59.0614C52.6 58.8826 51.9137 59.2789 51.735 59.9451C51.5562 60.6114 51.9525 61.2976 52.6187 61.4764C59.9487 63.4401 67.495 59.0839 69.4587 51.7526C71.4237 44.4226 67.0662 36.8776 59.7362 34.9126C52.4062 32.9489 44.8675 37.3439 42.9037 44.6739C42.725 45.3401 43.1212 46.0264 43.7875 46.2051C44.4537 46.3826 45.14 45.9876 45.3175 45.3201Z" fill="#473388"/>
<path id="Vector_10" fill-rule="evenodd" clip-rule="evenodd" d="M41.2963 40.7019L42.8738 45.4469C43.0913 46.1019 43.7988 46.4556 44.4538 46.2381L49.1988 44.6606C49.8525 44.4431 50.2075 43.7344 49.99 43.0794C49.7725 42.4256 49.0638 42.0706 48.41 42.2881L44.8513 43.4719L43.6675 39.9131C43.45 39.2581 42.7425 38.9031 42.0875 39.1206C41.4325 39.3394 41.0775 40.0469 41.2963 40.7019Z" fill="#473388"/>
</g>
</g>
</svg>
