<svg width="23" height="18" viewBox="0 0 23 18" fill="none" xmlns="http://www.w3.org/2000/svg">
<path d="M20.8398 0C21.9442 0.000237692 22.8398 0.895577 22.8398 2V16C22.8398 17.1044 21.9442 17.9998 20.8398 18H6.61719C6.10008 18 5.61885 17.7334 5.34473 17.2949L0.492188 9.53027L0.160156 9L0.492188 8.46973L5.34473 0.705078C5.61886 0.266623 6.10008 0 6.61719 0H20.8398ZM2.51855 9L6.89355 16H20.8398V2H6.89355L2.51855 9ZM15.6318 5.29297C16.0223 4.90251 16.6554 4.90264 17.0459 5.29297C17.4364 5.68349 17.4364 6.31651 17.0459 6.70703L14.5029 9.25L17.0459 11.793L17.1143 11.8691C17.4346 12.2619 17.412 12.8409 17.0459 13.207C16.6798 13.5729 16.1007 13.5957 15.708 13.2754L15.6318 13.207L13.0889 10.6641L10.5459 13.207C10.1554 13.5973 9.52227 13.5975 9.13184 13.207C8.74159 12.8166 8.74164 12.1835 9.13184 11.793L11.6748 9.25L9.13184 6.70703C8.74159 6.31658 8.74164 5.68345 9.13184 5.29297C9.5223 4.90251 10.1554 4.90264 10.5459 5.29297L13.0889 7.83594L15.6318 5.29297Z" fill="#222222"/>
</svg>
