<svg width="14" height="13" viewBox="0 0 14 13" fill="none" xmlns="http://www.w3.org/2000/svg">
<path fill-rule="evenodd" clip-rule="evenodd" d="M2.24858 2.02656e-06L2.25 0H11.75V0.5L11.7514 2.02656e-06C12.3473 0.00169715 12.9182 0.239144 13.3395 0.660467C13.7609 1.08179 13.9983 1.65274 14 2.24858L14 2.25V8.25L14 8.25142C13.9983 8.84726 13.7609 9.41821 13.3395 9.83953C12.9182 10.2609 12.3473 10.4983 11.7514 10.5L11.75 10.5H6.67956L3.82019 12.884C3.67116 13.0083 3.4637 13.0351 3.28798 12.9528C3.11226 12.8705 3 12.694 3 12.5V10.5H2.25L2.24858 10.5C1.65274 10.4983 1.08179 10.2609 0.660467 9.83953C0.239144 9.41821 0.00169715 8.84726 2.02656e-06 8.25142L0 8.25V2.25L2.02656e-06 2.24858C0.00169715 1.65274 0.239144 1.08179 0.660467 0.660467C1.08179 0.239144 1.65274 0.00169715 2.24858 2.02656e-06ZM6.74927 10.4419C6.74916 10.442 6.74905 10.4421 6.74894 10.4422L6.74927 10.4419ZM11.7492 1H2.25077C1.9194 1.00111 1.6019 1.13324 1.36757 1.36757C1.13324 1.6019 1.00111 1.9194 1 2.25077V8.24923C1.00111 8.5806 1.13324 8.8981 1.36757 9.13243C1.60191 9.36676 1.91942 9.49889 2.25081 9.5H3.5C3.77614 9.5 4 9.72386 4 10V11.4321L6.10823 9.67437C6.10834 9.67428 6.10845 9.67419 6.10856 9.67409C6.24341 9.5616 6.41345 9.49999 6.58906 9.5H11.7492C12.0806 9.49889 12.3981 9.36676 12.6324 9.13243C12.8668 8.89809 12.9989 8.58058 13 8.2492V2.25081C12.9989 1.91942 12.8668 1.60191 12.6324 1.36757C12.3981 1.13324 12.0806 1.00111 11.7492 1Z" fill="#FF8B1F"/>
<path d="M4 6.25C4.55228 6.25 5 5.80228 5 5.25C5 4.69772 4.55228 4.25 4 4.25C3.44772 4.25 3 4.69772 3 5.25C3 5.80228 3.44772 6.25 4 6.25Z" fill="#FF8B1F"/>
<path d="M7 6.25C7.55228 6.25 8 5.80228 8 5.25C8 4.69772 7.55228 4.25 7 4.25C6.44772 4.25 6 4.69772 6 5.25C6 5.80228 6.44772 6.25 7 6.25Z" fill="#FF8B1F"/>
<path d="M10 6.25C10.5523 6.25 11 5.80228 11 5.25C11 4.69772 10.5523 4.25 10 4.25C9.44771 4.25 9 4.69772 9 5.25C9 5.80228 9.44771 6.25 10 6.25Z" fill="#FF8B1F"/>
</svg>
