<svg width="19" height="19" viewBox="0 0 19 19" fill="none" xmlns="http://www.w3.org/2000/svg">
<g id="Frame">
<g id="Group">
<path id="Vector" d="M5.8545 5.66189H10.507C10.6271 5.66189 10.7423 5.61416 10.8273 5.5292C10.9123 5.44425 10.96 5.32902 10.96 5.20887C10.96 5.08873 10.9123 4.9735 10.8273 4.88854C10.7423 4.80359 10.6271 4.75586 10.507 4.75586H5.8545C5.73436 4.75586 5.61913 4.80359 5.53417 4.88854C5.44922 4.9735 5.40149 5.08873 5.40149 5.20887C5.40149 5.32902 5.44922 5.44425 5.53417 5.5292C5.61913 5.61416 5.73436 5.66189 5.8545 5.66189ZM5.8545 8.12478H7.94592C8.06607 8.12478 8.18129 8.07705 8.26625 7.99209C8.35121 7.90714 8.39894 7.79191 8.39894 7.67176C8.39894 7.55162 8.35121 7.43639 8.26625 7.35143C8.18129 7.26648 8.06607 7.21875 7.94592 7.21875H5.8545C5.73436 7.21875 5.61913 7.26648 5.53417 7.35143C5.44922 7.43639 5.40149 7.55162 5.40149 7.67176C5.40149 7.79191 5.44922 7.90714 5.53417 7.99209C5.61913 8.07705 5.73436 8.12478 5.8545 8.12478Z" fill="#FF3875"/>
<path id="Vector_2" d="M13.1732 1.95898H4.90823C4.32639 1.95965 3.76857 2.19108 3.35714 2.6025C2.94572 3.01393 2.71429 3.57175 2.71362 4.15359V13.3397C2.71429 13.9216 2.94572 14.4794 3.35714 14.8908C3.76857 15.3022 4.32639 15.5337 4.90823 15.5343H7.2035C7.32365 15.5343 7.43888 15.4866 7.52383 15.4016C7.60879 15.3167 7.65652 15.2015 7.65652 15.0813C7.65652 14.9612 7.60879 14.8459 7.52383 14.761C7.43888 14.676 7.32365 14.6283 7.2035 14.6283H4.90823C4.5666 14.6279 4.23908 14.492 3.99751 14.2504C3.75594 14.0089 3.62005 13.6813 3.61965 13.3397V4.15359C3.61992 3.81192 3.75576 3.48432 3.99736 3.24272C4.23896 3.00113 4.56656 2.86528 4.90823 2.86501H13.1732C13.5149 2.86541 13.8424 3.0013 14.084 3.24287C14.3255 3.48444 14.4614 3.81196 14.4618 4.15359V13.3397C14.4624 13.6107 14.377 13.8749 14.2179 14.0942C14.0588 14.3136 13.8342 14.4768 13.5764 14.5603C13.5199 14.5788 13.4675 14.6083 13.4223 14.647C13.3772 14.6857 13.3401 14.7329 13.3131 14.7859C13.2862 14.839 13.27 14.8968 13.2654 14.9561C13.2609 15.0155 13.268 15.0751 13.2865 15.1316C13.305 15.1882 13.3344 15.2406 13.3731 15.2857C13.4118 15.3309 13.459 15.368 13.5121 15.3949C13.5651 15.4219 13.623 15.4381 13.6823 15.4426C13.7416 15.4472 13.8012 15.4401 13.8578 15.4216C14.2974 15.279 14.6805 15.0006 14.9519 14.6265C15.2234 14.2524 15.3692 13.8019 15.3683 13.3397V4.15359C15.3674 3.57174 15.1358 3.014 14.7243 2.60262C14.3129 2.19124 13.7551 1.95978 13.1732 1.95898Z" fill="#FF3875"/>
<path id="Vector_3" d="M10.4606 9.80078C9.81907 9.80145 9.20397 10.0566 8.75027 10.5102C8.29657 10.9638 8.04133 11.5788 8.04053 12.2204C8.04053 12.8934 8.31787 13.5019 8.76283 13.9408V16.5069C8.7628 16.5887 8.78492 16.669 8.82683 16.7392C8.86874 16.8095 8.92889 16.867 9.00089 16.9059C9.07289 16.9447 9.15405 16.9633 9.23576 16.9597C9.31748 16.9561 9.3967 16.9304 9.46501 16.8854L10.4611 16.2321L11.4573 16.8854C11.5256 16.9304 11.6049 16.956 11.6866 16.9594C11.7683 16.9629 11.8495 16.9441 11.9214 16.9051C11.9933 16.8663 12.0534 16.8087 12.0954 16.7386C12.1373 16.6684 12.1594 16.5882 12.1594 16.5064V13.9398C12.388 13.7154 12.5695 13.4476 12.6934 13.1522C12.8174 12.8568 12.8812 12.5397 12.8812 12.2194C12.88 11.5779 12.6246 10.9632 12.1708 10.5098C11.7171 10.0564 11.1021 9.80145 10.4606 9.80078ZM10.4606 10.7068C11.2947 10.7068 11.9737 11.3858 11.9737 12.2204C11.9737 13.0549 11.2947 13.734 10.4606 13.734C9.62608 13.734 8.94706 13.0549 8.94706 12.2204C8.94706 11.3858 9.62608 10.7068 10.4606 10.7068ZM11.2524 15.6678L10.7098 15.3115C10.6358 15.2632 10.5494 15.2375 10.4611 15.2375C10.3728 15.2375 10.2864 15.2632 10.2125 15.3115L9.66987 15.6678V14.496C9.9236 14.5884 10.1911 14.6371 10.4611 14.64C10.7311 14.6371 10.9987 14.5884 11.2524 14.496V15.6678Z" fill="#FF3875"/>
</g>
</g>
</svg>
