<svg width="145" height="144" viewBox="0 0 145 144" fill="none" xmlns="http://www.w3.org/2000/svg">
<path fill-rule="evenodd" clip-rule="evenodd" d="M34.625 48.6754H114.123V36.6268C114.123 34.2311 113.177 32.174 111.37 30.6025C109.562 29.0373 107.39 28.4177 105.019 28.7434L41.4478 37.4636C37.4998 38.0066 34.625 41.3607 34.625 45.347V48.6754Z" fill="#5F00C4"/>
<path fill-rule="evenodd" clip-rule="evenodd" d="M34.6252 48.6754H114.123V41.9165C113.357 41.8269 112.584 41.7823 111.798 41.7823H35.4555C34.9189 42.8618 34.625 44.0692 34.625 45.347L34.6252 48.6754Z" fill="#5500B0"/>
<path fill-rule="evenodd" clip-rule="evenodd" d="M34.625 46.2605H111.798C120.895 46.2605 128.331 53.7032 128.331 62.8003V100.467C128.331 109.557 120.895 117 111.798 117H51.1647C42.0676 117 34.625 109.557 34.625 100.467V46.2605Z" fill="#7B00FF"/>
<path fill-rule="evenodd" clip-rule="evenodd" d="M34.625 46.2605H65.7369C66.6376 55.1021 63.1369 64.2058 55.643 70.115C49.4719 74.9768 41.8184 76.7016 34.625 75.5134V46.2605Z" fill="#6D03DE"/>
<path fill-rule="evenodd" clip-rule="evenodd" d="M56.3075 35.3873C63.8332 44.9381 62.1976 58.7819 52.6469 66.3075C43.0962 73.8331 29.2524 72.1976 21.7267 62.6469C14.2011 53.0962 15.8366 39.2523 25.3874 31.7267C34.9381 24.2011 48.7819 25.8366 56.3075 35.3873Z" fill="#E38246"/>
<path d="M50.1547 55.1701C49.7846 55.8394 49.092 56.2174 48.3778 56.2174C48.046 56.2174 47.7094 56.1357 47.3983 55.9636L38.039 50.7888C37.3933 50.4317 36.9922 49.7519 36.9922 49.0138V34.6336C36.9922 33.5133 37.9003 32.6052 39.0205 32.6052C40.1408 32.6052 41.0489 33.5133 41.0489 34.6336V47.8177L49.3613 52.4136C50.3412 52.9557 50.6966 54.1897 50.1547 55.1701Z" fill="white"/>
</svg>
