<svg width="20" height="21" viewBox="0 0 20 21" fill="none" xmlns="http://www.w3.org/2000/svg">
<g id="Avatar image">
<path id="Subtract" fill-rule="evenodd" clip-rule="evenodd" d="M3.75 7.72656C3.75 4.39896 6.57899 1.75 10 1.75C13.421 1.75 16.25 4.39896 16.25 7.72656C16.25 9.60252 15.2357 11.9235 14.1246 13.9296C12.9969 15.9658 11.6981 17.8003 11.0016 18.7409C10.8867 18.898 10.7364 19.0259 10.5629 19.1142C10.3885 19.2029 10.1957 19.2492 10 19.2492C9.80434 19.2492 9.61146 19.2029 9.43708 19.1142C9.26356 19.0259 9.11327 18.898 8.99834 18.7408C8.30187 17.7999 7.0031 15.9647 5.87536 13.9283C4.76432 11.922 3.75 9.60119 3.75 7.72656ZM10 3C7.21007 3 5 5.14713 5 7.72656C5 9.25037 5.86068 11.3215 6.96888 13.3227C8.05739 15.2883 9.3182 17.0716 10 17.993C10.6818 17.0721 11.9426 15.2894 13.0311 13.324C14.1393 11.3232 15 9.25177 15 7.72656C15 5.14713 12.7899 3 10 3Z" fill="#1F1F1F"/>
<path id="Vector" d="M10.625 10.2158V8.65332H12.1875C12.5312 8.65332 12.8125 8.37207 12.8125 8.02832C12.8125 7.68457 12.5312 7.40332 12.1875 7.40332H10.625V5.84082C10.625 5.49707 10.3438 5.21582 10 5.21582C9.65625 5.21582 9.375 5.49707 9.375 5.84082V7.40332H7.8125C7.46875 7.40332 7.1875 7.68457 7.1875 8.02832C7.1875 8.37207 7.46875 8.65332 7.8125 8.65332H9.375V10.2158C9.375 10.5596 9.65625 10.8408 10 10.8408C10.3438 10.8408 10.625 10.5596 10.625 10.2158Z" fill="#222222"/>
</g>
</svg>
