<svg width="81" height="81" viewBox="0 0 81 81" fill="none" xmlns="http://www.w3.org/2000/svg">
<g id="target" clip-path="url(#clip0_1640_55579)">
<g id="Group">
<path id="Vector" d="M69.1745 69.1828C84.2557 54.1016 84.2557 29.6503 69.1745 14.5692C54.0934 -0.511915 29.6421 -0.511919 14.561 14.5692C-0.520126 29.6503 -0.520126 54.1016 14.561 69.1828C29.6421 84.2639 54.0934 84.2639 69.1745 69.1828Z" fill="#FF6C6C"/>
<path id="Vector_2" d="M41.8764 3.25293V80.4997C63.1734 80.4997 80.4999 63.1733 80.4999 41.8762C80.4999 20.5792 63.1734 3.25293 41.8764 3.25293Z" fill="#E63950"/>
<path id="Vector_3" d="M46.0903 67.185C60.0676 64.846 69.5022 51.619 67.1632 37.6417C64.8242 23.6643 51.5973 14.2296 37.62 16.5686C23.6428 18.9076 14.2081 32.1346 16.5471 46.1119C18.8861 60.0893 32.113 69.524 46.0903 67.185Z" fill="#F0F7FF"/>
<path id="Vector_4" d="M41.8764 16.209V67.5439C56.0295 67.5439 67.544 56.0295 67.544 41.8764C67.544 27.7235 56.0295 16.209 41.8764 16.209Z" fill="#DFE7F4"/>
<path id="Vector_5" d="M53.207 47.6614C56.3942 41.4063 53.9072 33.7517 47.6521 30.5644C41.3969 27.3772 33.7423 29.8642 30.5551 36.1194C27.3678 42.3745 29.8549 50.0291 36.11 53.2163C42.3652 56.4036 50.0197 53.9166 53.207 47.6614Z" fill="#FF6C6C"/>
<path id="Vector_6" d="M41.8764 29.165V54.5881C48.8857 54.5881 54.5881 48.8858 54.5881 41.8765C54.5881 34.8673 48.8857 29.165 41.8764 29.165Z" fill="#E63950"/>
<path id="Vector_7" d="M29.1085 12.5365L17.7596 1.18754C17.1949 0.622587 16.3814 0.383839 15.601 0.553748C14.8206 0.723656 14.1801 1.27891 13.9011 2.02738L11.5783 8.25969L12.2418 12.2421L8.25941 11.5785L2.02726 13.9012C1.27879 14.1802 0.723533 14.8207 0.553625 15.6011C0.383873 16.3815 0.622464 17.1949 1.18742 17.7597L12.5364 29.1086C12.9804 29.5528 13.579 29.7961 14.1957 29.7961C14.3348 29.7961 14.4748 29.7837 14.6144 29.7586L25.8338 27.7247C26.7963 27.5501 27.5498 26.7966 27.7244 25.8341L29.7583 14.6147C29.8955 13.8574 29.6528 13.0808 29.1085 12.5365Z" fill="#29376D"/>
<path id="Vector_8" d="M43.5359 40.2172L11.5783 8.25977L10.6773 10.6776L8.25946 11.5786L40.2171 43.5362C40.6753 43.9945 41.2759 44.2235 41.8764 44.2235C42.477 44.2235 43.0777 43.9943 43.5358 43.5362C44.4524 42.6197 44.4524 41.1337 43.5359 40.2172Z" fill="#47568C"/>
</g>
</g>
<defs>
<clipPath id="clip0_1640_55579">
<rect width="80" height="80" fill="white" transform="translate(0.5 0.5)"/>
</clipPath>
</defs>
</svg>
