<svg width="12" height="13" viewBox="0 0 12 13" fill="none" xmlns="http://www.w3.org/2000/svg">
<rect width="12" height="13" fill="#1E1E1E"/>
<g id="Non-token communities">
<path d="M-1454 -8948C-1454 -8949.1 -1453.1 -8950 -1452 -8950H3341C3342.1 -8950 3343 -8949.1 3343 -8948V15011C3343 15012.1 3342.1 15013 3341 15013H-1452C-1453.1 15013 -1454 15012.1 -1454 15011V-8948Z" fill="#E8E8EB"/>
<path d="M-1452 -8949H3341V-8951H-1452V-8949ZM3342 -8948V15011H3344V-8948H3342ZM3341 15012H-1452V15014H3341V15012ZM-1453 15011V-8948H-1455V15011H-1453ZM-1452 15012C-1452.55 15012 -1453 15011.6 -1453 15011H-1455C-1455 15012.7 -1453.66 15014 -1452 15014V15012ZM3342 15011C3342 15011.6 3341.55 15012 3341 15012V15014C3342.66 15014 3344 15012.7 3344 15011H3342ZM3341 -8949C3341.55 -8949 3342 -8948.55 3342 -8948H3344C3344 -8949.66 3342.66 -8951 3341 -8951V-8949ZM-1452 -8951C-1453.66 -8951 -1455 -8949.66 -1455 -8948H-1453C-1453 -8948.55 -1452.55 -8949 -1452 -8949V-8951Z" fill="white" fill-opacity="0.1"/>
<g id="Post detail" clip-path="url(#clip0_1555_12567)">
<rect width="375" height="812" transform="translate(-58 -133)" fill="white"/>
<g id="Post Container">
<g id="Post">
<rect width="375.217" height="353.06" transform="translate(-58 -38.3691)" fill="white"/>
<g id="Poster">
<g id="Poster_2">
<g id="Content">
<g id="Address Container">
<g id="Social icon">
<path id="Vector" d="M7.14163 5.71204L11.6089 0.630859H10.5503L6.67137 5.04278L3.57328 0.630859H0L4.68492 7.30246L0 12.6309H1.05866L5.15491 7.97172L8.42672 12.6309H12L7.14137 5.71204H7.14163ZM5.69165 7.36124L5.21697 6.6969L1.44011 1.41067H3.06615L6.11412 5.67682L6.5888 6.34117L10.5508 11.8865H8.92476L5.69165 7.36149V7.36124Z" fill="#222222"/>
</g>
</g>
</g>
</g>
</g>
</g>
</g>
</g>
</g>
<defs>
<clipPath id="clip0_1555_12567">
<rect width="375" height="812" fill="white" transform="translate(-58 -133)"/>
</clipPath>
</defs>
</svg>
