<svg width="21" height="20" viewBox="0 0 21 20" fill="none" xmlns="http://www.w3.org/2000/svg">
<g id="Event location">
<path id="Vector" d="M10.8333 0.833252C7.61687 0.833252 5 3.42614 5 6.61312C5 7.76069 5.33904 8.87007 5.97859 9.81867L10.3911 16.4308C10.489 16.578 10.6552 16.6666 10.8333 16.6666C11.0115 16.6666 11.1777 16.578 11.2756 16.4308L15.6867 9.82077C16.3276 8.87007 16.6667 7.76104 16.6667 6.61312C16.6667 3.42614 14.0498 0.833252 10.8333 0.833252ZM13.8458 6.40154L12.7244 7.48465L12.9888 9.01404C13.0631 9.4428 12.6077 9.77033 12.2195 9.56786L10.8333 8.8459L9.44712 9.56786C9.05894 9.77033 8.60359 9.4428 8.67783 9.01404L8.94227 7.48465L7.82086 6.40154C7.50692 6.09819 7.68051 5.56784 8.115 5.50549L9.66455 5.28235L10.3578 3.89063C10.5519 3.50075 11.1147 3.50075 11.3088 3.89063L12.0021 5.28235L13.5517 5.50549C13.9858 5.56784 14.1601 6.09819 13.8458 6.40154ZM11.1741 5.9952L10.8333 5.31072L10.4925 5.9952C10.4151 6.15003 10.2659 6.25757 10.093 6.28244L9.33081 6.39208L9.88232 6.92488C10.0075 7.04573 10.0644 7.21983 10.0351 7.39007L9.9046 8.14251L10.5866 7.78731C10.7411 7.70674 10.9256 7.70674 11.0801 7.78731L11.7621 8.14251L11.6316 7.39007C11.6023 7.21983 11.6592 7.04573 11.7843 6.92488L12.3359 6.39208L11.5736 6.28244C11.4008 6.25757 11.2516 6.15003 11.1741 5.9952Z" fill="#FF3875"/>
<path id="Vector_2" d="M16.6667 16.4335C16.6667 17.2564 15.9967 17.9856 14.7802 18.4871C13.7175 18.9255 12.3157 19.1667 10.8333 19.1667C9.35096 19.1667 7.94919 18.9255 6.88646 18.4871C5.66995 17.9856 5 17.2564 5 16.4335C5 15.4681 5.92591 14.6507 7.47192 14.1667L9.50616 17.338C9.80172 17.7987 10.2977 18.0735 10.8333 18.0735C11.3689 18.0735 11.865 17.7987 12.1605 17.338L14.1947 14.1667C15.7408 14.6507 16.6667 15.4681 16.6667 16.4335Z" fill="#FF3875"/>
</g>
</svg>
