<svg width="81" height="80" viewBox="0 0 81 80" fill="none" xmlns="http://www.w3.org/2000/svg">
<g id="invitation 1" clip-path="url(#clip0_218_115960)">
<path id="Vector" d="M44.242 1.15289C41.9841 -0.384298 39.0157 -0.384298 36.758 1.15289L4.06016 23.4153C2.5189 24.4647 1.59656 26.2086 1.59656 28.0729V76.0779C1.5964 78.244 3.35234 79.9999 5.51844 79.9999H75.4816C77.6477 79.9999 79.4034 78.244 79.4034 76.078V28.0731C79.4034 26.2084 78.4811 24.4647 76.9398 23.4154L44.242 1.15289Z" fill="#96C8EF"/>
<path id="Vector_2" d="M75.4814 80C77.6475 80 79.4033 78.2441 79.4033 76.0782V28.0732C79.4033 26.2087 78.4809 24.4648 76.9397 23.4154L70.367 18.9404L42.5585 35.7711C41.9374 36.1461 41.2254 36.3447 40.4998 36.3447C39.7809 36.3447 39.0757 36.1501 38.4585 35.7817L10.7827 18.8384L4.06016 23.4154C2.5189 24.4648 1.59656 26.2087 1.59656 28.0732V76.0782C1.5964 78.2441 3.35234 80 5.51844 80H75.4814Z" fill="#78B9EB"/>
<path id="Vector_3" d="M69.4974 67.3218H11.5026V15.9348C11.5026 12.2856 14.461 9.32715 18.1102 9.32715H62.8897C66.5389 9.32715 69.4974 12.2856 69.4974 15.9348V67.3218Z" fill="#FFF5CC"/>
<path id="Vector_4" d="M33.4487 44.0383L2.46547 25.0703C1.90687 25.957 1.59656 26.9944 1.59656 28.073V76.0779C1.5964 78.2439 3.35234 79.9998 5.51844 79.9998H75.4816C77.6477 79.9998 79.4034 78.2439 79.4034 76.0779V28.073C79.4034 27.0577 79.1281 26.0792 78.6301 25.2281L47.5512 44.0383C43.2149 46.6569 37.7849 46.6569 33.4487 44.0383Z" fill="#B9D8F4"/>
<path id="Vector_5" d="M33.8283 44.2758L3.2981 79.3311C3.92372 79.7533 4.67779 79.9999 5.48919 79.9999H75.4523C76.2895 79.9999 77.0646 79.7368 77.7017 79.2899L47.2257 44.2104C43.0769 46.5762 37.9938 46.5989 33.8283 44.2758Z" fill="#D1E7F8"/>
<g id="Group">
<path id="Vector_6" d="M58.2523 18.7821H22.7477C22.081 18.7821 21.5405 18.2417 21.5405 17.5749C21.5405 16.908 22.081 16.3677 22.7477 16.3677H58.2522C58.9189 16.3677 59.4594 16.908 59.4594 17.5749C59.4594 18.2417 58.919 18.7821 58.2523 18.7821Z" fill="#57565C"/>
<path id="Vector_7" d="M58.2523 25.0477H22.7477C22.081 25.0477 21.5405 24.5074 21.5405 23.8405C21.5405 23.1736 22.081 22.6333 22.7477 22.6333H58.2522C58.9189 22.6333 59.4594 23.1736 59.4594 23.8405C59.4594 24.5074 58.919 25.0477 58.2523 25.0477Z" fill="#57565C"/>
<path id="Vector_8" d="M39.4067 31.3128H22.7477C22.081 31.3128 21.5405 30.7725 21.5405 30.1056C21.5405 29.4388 22.081 28.8984 22.7477 28.8984H39.4068C40.0735 28.8984 40.614 29.4388 40.614 30.1056C40.614 30.7723 40.0734 31.3128 39.4067 31.3128Z" fill="#57565C"/>
</g>
<path id="Vector_9" d="M22.7477 31.313H31.1593L27.2153 28.8984H22.7476C22.0809 28.8984 21.5404 29.4388 21.5404 30.1056C21.5404 30.7725 22.081 31.313 22.7477 31.313Z" fill="#3E3D42"/>
</g>
<defs>
<clipPath id="clip0_218_115960">
<rect width="80" height="80" fill="white" transform="translate(0.5)"/>
</clipPath>
</defs>
</svg>
