<svg width="60" height="60" viewBox="0 0 60 60" fill="none" xmlns="http://www.w3.org/2000/svg">
<g id="Frame">
<g id="locked">
<path id="Vector" d="M13.1504 16.846V33.8487H46.8442V16.846C46.8442 7.55763 39.2866 0 29.9963 0C20.7061 0 13.1504 7.55763 13.1504 16.846ZM15.9845 16.846C15.9845 9.10694 22.2573 2.83222 29.9963 2.83222C37.7354 2.83222 44.0082 9.10694 44.0082 16.846V31.0146H15.9845V16.846Z" fill="#F3F3F3"/>
<path id="Vector_2" d="M15.9844 16.8458V31.0144H44.01V16.8458C44.01 9.10675 37.7371 2.83203 29.9981 2.83203C22.2591 2.83203 15.9844 9.10675 15.9844 16.8458ZM18.8185 16.8458C18.8185 10.6825 23.833 5.66803 29.9981 5.66803C36.1632 5.66803 41.1777 10.6825 41.1777 16.8458V28.1803H18.8185V16.8458Z" fill="#E5E5E5"/>
<path id="Vector_3" d="M11.1948 59.9999H48.8035C50.8894 59.9999 52.5823 58.3088 52.5823 56.2211V28.9097C52.5823 26.8238 50.8894 25.1309 48.8035 25.1309H11.1948C9.10703 25.1309 7.41602 26.8238 7.41602 28.9097V56.2211C7.41602 58.3088 9.10703 59.9999 11.1948 59.9999Z" fill="#FFCC5B"/>
<path id="Vector_4" d="M36.5782 44.9828H38.0085C39.2215 44.9828 40.204 43.9946 40.1964 42.7816V42.5984C40.204 41.3211 39.1648 40.2763 37.8895 40.2763H36.0397C34.6265 40.2763 33.3587 39.2182 33.285 37.8068C33.2056 36.301 34.4035 35.0559 35.8924 35.0559H42.5657C43.8279 35.0559 44.7688 33.9959 44.7537 32.7338V32.6695C44.7688 31.4074 43.8279 30.3493 42.5657 30.3493H40.408C38.9948 30.3493 37.727 29.2913 37.6533 27.8799C37.5739 26.374 38.7718 25.1289 40.2607 25.1289H48.8046C50.8905 25.1289 52.5834 26.8199 52.5834 28.9077V56.2191C52.5834 58.3069 50.8905 59.9979 48.8046 59.9979H37.7383C36.2967 59.9979 35.1271 58.8284 35.1271 57.3867C35.1271 55.9451 36.2967 54.7756 37.7383 54.7756H41.2299C42.4373 54.7756 43.4198 53.7874 43.4141 52.5801V52.5518C43.4141 52.4989 43.416 52.4459 43.4198 52.393C43.4916 51.2027 42.5469 50.1994 41.3546 50.1994H36.7256C35.3123 50.1994 34.0445 49.1414 33.9708 47.73C33.8934 46.2279 35.0913 44.9828 36.5782 44.9828Z" fill="#FDBC4B"/>
<path id="Vector_5" d="M24.3223 39.3471C24.3223 36.2107 26.8654 33.6694 29.9999 33.6694C33.1363 33.6694 35.6776 36.2126 35.6776 39.3471C35.6776 41.4406 34.5307 43.2506 32.8435 44.235L33.6219 51.462H26.3761L27.1545 44.235C25.4672 43.2506 24.3223 41.4425 24.3223 39.3471Z" fill="#464646"/>
<path id="Vector_6" d="M13.1511 39.1581C14.1941 39.1581 15.0405 40.0027 15.0405 41.0475V51.9192C15.0405 52.964 14.1941 53.8086 13.1511 53.8086C12.1082 53.8086 11.2617 52.964 11.2617 51.9192V41.0475C11.2617 40.0046 12.1082 39.1581 13.1511 39.1581ZM13.1511 31.3228C14.1941 31.3228 15.0405 32.1673 15.0405 33.2122V35.4247C15.0405 36.4695 14.1941 37.3141 13.1511 37.3141C12.1082 37.3141 11.2617 36.4695 11.2617 35.4247V33.2122C11.2617 32.1673 12.1082 31.3228 13.1511 31.3228Z" fill="#FFD769"/>
</g>
</g>
</svg>
