<svg width="161" height="147" viewBox="0 0 161 147" fill="none" xmlns="http://www.w3.org/2000/svg">
<g clip-path="url(#clip0_12905_97600)">
<path opacity="0.1" d="M80.5 146.19C124.683 146.19 160.5 144.041 160.5 141.39C160.5 138.739 124.683 136.59 80.5 136.59C36.3172 136.59 0.5 138.739 0.5 141.39C0.5 144.041 36.3172 146.19 80.5 146.19Z" fill="#7C7B91"/>
<path fill-rule="evenodd" clip-rule="evenodd" d="M65.0603 11.0501C66.1703 7.11006 69.8003 4.22006 74.1003 4.22006H108.73C105.84 5.96006 103.35 8.29006 101.43 11.0501H65.0703H65.0603ZM99.4403 14.4701H49.3403C43.6803 14.4701 39.1003 19.0601 39.1003 24.7101V87.8701H92.8703C93.8103 87.8701 94.5803 88.6301 94.5803 89.5801V98.5401C94.5803 105.85 100.5 111.77 107.81 111.77C115.12 111.77 121.04 105.85 121.04 98.5401V48.6101C107.84 48.6101 97.1403 37.9101 97.1403 24.7101C97.1403 21.0401 97.9603 17.5701 99.4403 14.4701ZM124.45 48.3601V96.2601C129.29 95.4501 132.98 91.2401 132.98 86.1601V45.4101C130.4 46.9001 127.52 47.9301 124.45 48.3701V48.3601ZM136.4 43.0101V86.1601C136.4 93.1401 131.17 98.8901 124.41 99.7201C123.81 108.36 116.6 115.18 107.81 115.18C107.66 115.18 107.51 115.18 107.36 115.18H107.38H45.9303C36.5003 115.18 28.8603 107.54 28.8603 98.1101V94.7001C28.8603 90.9301 31.9203 87.8701 35.6903 87.8701V24.7101C35.6903 17.1701 41.8003 11.0501 49.3503 11.0501H61.5503C62.7403 5.21006 67.9003 0.810059 74.1003 0.810059H119.34V0.870059C119.9 0.830059 120.47 0.810059 121.05 0.810059C134.25 0.810059 144.95 11.5101 144.95 24.7101C144.95 32.0601 141.63 38.6301 136.42 43.0201L136.4 43.0101ZM19.4803 104.51C19.4803 103.8 20.0503 103.23 20.7603 103.23C21.4703 103.23 22.0403 103.8 22.0403 104.51V104.94C22.0403 114.37 29.6803 122.01 39.1103 122.01H43.0403C43.7003 122.01 44.2303 122.54 44.2303 123.2C44.2303 123.86 43.7003 124.39 43.0403 124.39H39.1103C27.7803 124.39 19.4803 116.23 19.4803 104.93V104.5V104.51ZM20.7603 99.8201C18.1703 99.8201 16.0703 101.92 16.0703 104.51V104.94C16.0703 118.16 25.9303 127.81 39.1103 127.81H43.0403C45.5903 127.81 47.6503 125.75 47.6503 123.2C47.6503 120.65 45.5903 118.59 43.0403 118.59H39.1103C31.5703 118.59 25.4503 112.48 25.4503 104.93V104.5C25.4503 101.91 23.3503 99.8101 20.7603 99.8101V99.8201ZM47.6403 59.7001C47.6403 57.3401 49.5503 55.4301 51.9103 55.4301H77.5103C79.8703 55.4301 81.7803 57.3401 81.7803 59.7001C81.7803 62.0601 79.8703 63.9701 77.5103 63.9701H51.9103C49.5503 63.9701 47.6403 62.0601 47.6403 59.7001ZM51.9103 58.8501C51.4403 58.8501 51.0603 59.2301 51.0603 59.7001C51.0603 60.1701 51.4403 60.5501 51.9103 60.5501H77.5103C77.9803 60.5501 78.3603 60.1701 78.3603 59.7001C78.3603 59.2301 77.9803 58.8501 77.5103 58.8501H51.9103ZM62.0703 48.8701C62.2003 49.0001 62.4003 49.0601 62.6803 49.0601C62.9203 49.0601 63.1003 48.9901 63.2003 48.8701C63.3203 48.7401 63.3803 48.5301 63.3803 48.2501V47.0301C64.3103 46.9301 65.1603 46.6701 65.9203 46.2401C66.6803 45.8001 67.2903 45.1601 67.7503 44.3201C68.2203 43.4701 68.4603 42.4201 68.4603 41.1701C68.4603 40.0901 68.2103 39.2001 67.7203 38.5001C67.2303 37.7901 66.6603 37.2501 66.0103 36.8701C65.3603 36.4901 64.4803 36.0601 63.3803 35.5801V31.5301C63.8803 31.5501 64.3003 31.6101 64.6403 31.7001C64.9903 31.7901 65.3503 31.9001 65.7103 32.0401C65.9603 32.1401 66.1303 32.1901 66.2103 32.1901C66.4103 32.1901 66.6203 32.0501 66.8403 31.7701C67.0703 31.4901 67.2703 31.1701 67.4303 30.7901C67.5903 30.4101 67.6703 30.1001 67.6703 29.8601C67.6703 29.5901 67.4803 29.3201 67.1203 29.0501C66.7603 28.7801 66.2503 28.5501 65.5903 28.3601C64.9403 28.1701 64.2103 28.0601 63.4003 28.0301V27.2001C63.4003 26.9101 63.3403 26.7001 63.2203 26.5901C63.1003 26.4701 62.9003 26.4101 62.6103 26.4101C62.3703 26.4101 62.1903 26.4801 62.0703 26.6101C61.9503 26.7301 61.8903 26.9301 61.8903 27.2101V28.0501C60.9203 28.1601 60.0303 28.4201 59.2203 28.8401C58.4203 29.2601 57.7703 29.8601 57.2803 30.6401C56.8003 31.4101 56.5603 32.3501 56.5603 33.4701C56.5603 34.6501 56.8103 35.6101 57.3203 36.3501C57.8403 37.0801 58.4403 37.6401 59.1303 38.0201C59.8303 38.3901 60.7503 38.7901 61.8803 39.2101V43.6101C61.2603 43.6101 60.6903 43.5201 60.1703 43.3601C59.6603 43.1901 59.1303 42.9701 58.5903 42.7001C58.2103 42.5001 57.9603 42.4001 57.8403 42.4001C57.6603 42.4001 57.4303 42.5401 57.1603 42.8201C56.8903 43.0901 56.6603 43.4201 56.4503 43.8001C56.2603 44.1801 56.1703 44.5001 56.1703 44.7601C56.1703 45.0701 56.4003 45.4001 56.8503 45.7501C57.3103 46.1001 57.9703 46.4101 58.8303 46.6701C59.7003 46.9201 60.7203 47.0701 61.8803 47.1101V48.2801C61.8803 48.5601 61.9503 48.7701 62.0803 48.9001L62.0703 48.8701ZM60.8003 32.2801C61.0003 32.0101 61.3603 31.8101 61.8803 31.6801V34.8901C61.4303 34.6301 61.0803 34.3601 60.8403 34.0801C60.6103 33.8001 60.5003 33.4701 60.5003 33.0901C60.5003 32.8101 60.6003 32.5401 60.8003 32.2801ZM64.2303 42.6901C64.0203 42.9601 63.7403 43.1601 63.3903 43.3001V39.9201C64.1603 40.3601 64.5503 40.9401 64.5503 41.6601C64.5503 42.0701 64.4403 42.4101 64.2403 42.6801L64.2303 42.6901ZM47.6403 73.3601C47.6403 71.0001 49.5503 69.0901 51.9103 69.0901H103.12C105.48 69.0901 107.39 71.0001 107.39 73.3601C107.39 75.7201 105.48 77.6301 103.12 77.6301H51.9103C49.5503 77.6301 47.6403 75.7201 47.6403 73.3601ZM51.9103 72.5001C51.4403 72.5001 51.0603 72.8801 51.0603 73.3501C51.0603 73.8201 51.4403 74.2001 51.9103 74.2001H103.12C103.59 74.2001 103.97 73.8201 103.97 73.3501C103.97 72.8801 103.59 72.5001 103.12 72.5001H51.9103ZM100.56 24.7101C100.56 13.4001 109.73 4.23006 121.04 4.23006C132.35 4.23006 141.52 13.4001 141.52 24.7101C141.52 36.0201 132.35 45.1901 121.04 45.1901C109.73 45.1901 100.56 36.0201 100.56 24.7101Z" fill="#7C7B91"/>
<path d="M125.961 18.1074C126.541 18.1074 127.098 18.3378 127.508 18.7479C127.918 19.1581 128.148 19.7144 128.148 20.2945C128.148 20.8745 127.918 21.4308 127.508 21.841L124.68 24.6695L127.508 27.4979C127.717 27.6997 127.884 27.9411 127.998 28.208C128.113 28.4748 128.173 28.7619 128.176 29.0523C128.178 29.3428 128.123 29.6308 128.013 29.8997C127.903 30.1685 127.741 30.4127 127.535 30.6181C127.33 30.8235 127.085 30.986 126.817 31.0959C126.548 31.2059 126.26 31.2613 125.969 31.2588C125.679 31.2562 125.392 31.1959 125.125 31.0812C124.858 30.9666 124.617 30.8 124.415 30.591L121.586 27.7626L118.758 30.591C118.556 30.8 118.315 30.9666 118.048 31.0812C117.781 31.1959 117.494 31.2562 117.204 31.2588C116.913 31.2613 116.625 31.2059 116.356 31.0959C116.087 30.986 115.843 30.8235 115.638 30.6181C115.432 30.4127 115.27 30.1685 115.16 29.8997C115.05 29.6308 114.995 29.3428 114.997 29.0523C115 28.7619 115.06 28.4748 115.175 28.208C115.289 27.9411 115.456 27.6997 115.665 27.4979L118.493 24.6695L115.665 21.841C115.456 21.6392 115.289 21.3979 115.175 21.131C115.06 20.8641 115 20.577 114.997 20.2866C114.995 19.9961 115.05 19.7081 115.16 19.4392C115.27 19.1704 115.432 18.9262 115.638 18.7208C115.843 18.5154 116.087 18.353 116.356 18.243C116.625 18.133 116.913 18.0776 117.204 18.0802C117.494 18.0827 117.781 18.143 118.048 18.2577C118.315 18.3723 118.556 18.539 118.758 18.7479L121.586 21.5763L124.415 18.7479C124.825 18.3378 125.381 18.1074 125.961 18.1074Z" fill="#FB3E9F"/>
</g>
<defs>
<clipPath id="clip0_12905_97600">
<rect width="160" height="145.38" fill="white" transform="translate(0.5 0.810059)"/>
</clipPath>
</defs>
</svg>
