<svg width="20" height="20" viewBox="0 0 20 20" fill="none" xmlns="http://www.w3.org/2000/svg">
<g id="add location">
<path id="Exclude" fill-rule="evenodd" clip-rule="evenodd" d="M3.75 7.22656C3.75 3.93164 6.55391 1.25 10 1.25C13.4461 1.25 16.25 3.93164 16.25 7.22656C16.25 8.79648 15.5348 10.8832 14.1266 13.4289C12.9938 15.4734 11.682 17.3223 11.0016 18.2422C10.8864 18.3994 10.7358 18.5272 10.562 18.6153C10.3882 18.7034 10.196 18.7493 10.0012 18.7493C9.8063 18.7493 9.61418 18.7034 9.44037 18.6153C9.26656 18.5272 9.11596 18.3994 9.00078 18.2422C8.31914 17.3223 7.00859 15.4734 5.87578 13.4289C4.46523 10.8824 3.75 8.7957 3.75 7.22656ZM10.625 8.15381V9.71631C10.625 10.0601 10.3438 10.3413 10 10.3413C9.65625 10.3413 9.375 10.0601 9.375 9.71631V8.15381H7.8125C7.46875 8.15381 7.1875 7.87256 7.1875 7.52881C7.1875 7.18506 7.46875 6.90381 7.8125 6.90381H9.375V5.34131C9.375 4.99756 9.65625 4.71631 10 4.71631C10.3438 4.71631 10.625 4.99756 10.625 5.34131V6.90381H12.1875C12.5312 6.90381 12.8125 7.18506 12.8125 7.52881C12.8125 7.87256 12.5312 8.15381 12.1875 8.15381H10.625Z" fill="white"/>
</g>
</svg>
