<svg width="375" height="812" viewBox="0 0 375 812" fill="none" xmlns="http://www.w3.org/2000/svg">
<g clip-path="url(#clip0_4303_124232)">
<rect width="375" height="812" fill="#F5F5F5"/>
<rect width="375" height="812" fill="url(#paint0_linear_4303_124232)" fill-opacity="0.3"/>
<g style="mix-blend-mode:overlay" opacity="0.5">
<path d="M-91 337.723C-75.0647 360.53 -51.7118 378.078 -25.3574 387.044C-13.5866 391.048 -0.920125 393.38 11.2985 391.111C23.5171 388.842 35.225 381.352 40.2381 369.991C45.7699 357.461 43.7426 340.424 55.0105 332.635C68.9578 323.002 87.101 337.534 104.058 337.621C119.121 337.692 132.078 325.616 137.798 311.688C143.519 297.768 143.519 282.255 143.432 267.204C143.307 245.032 143.181 222.868 143.047 200.697C142.985 190.27 143.102 179.208 148.626 170.36C157.521 156.134 176.929 152.93 193.658 154.281C225.686 156.872 256.386 170.8 288.516 170.226C296.578 170.085 304.875 168.931 311.798 164.801C327.725 155.301 331.245 132.996 326.185 115.158C321.125 97.3285 309.653 82.1129 301.355 65.5313C293.057 48.9497 288.052 28.7094 296.46 12.1906C305.606 -5.78071 327.191 -13.1922 347 -17H-74.5697L-91 337.723Z" fill="url(#paint1_linear_4303_124232)"/>
<path d="M-91 337.723C-75.0647 360.53 -51.7118 378.078 -25.3574 387.044C-13.5866 391.048 -0.920125 393.38 11.2985 391.111C23.5171 388.842 35.225 381.352 40.2381 369.991C45.7699 357.461 43.7426 340.424 55.0105 332.635C68.9578 323.002 87.101 337.534 104.058 337.621C119.121 337.692 132.078 325.616 137.798 311.688C143.519 297.768 143.519 282.255 143.432 267.204C143.307 245.032 143.181 222.868 143.047 200.697C142.985 190.27 143.102 179.208 148.626 170.36C157.521 156.134 176.929 152.93 193.658 154.281C225.686 156.872 256.386 170.8 288.516 170.226C296.578 170.085 304.875 168.931 311.798 164.801C327.725 155.301 331.245 132.996 326.185 115.158C321.125 97.3285 309.653 82.1129 301.355 65.5313C293.057 48.9497 288.052 28.7094 296.46 12.1906C305.606 -5.78071 327.191 -13.1922 347 -17H-74.5697L-91 337.723Z" fill="url(#paint2_linear_4303_124232)"/>
</g>
<g style="mix-blend-mode:overlay" opacity="0.5">
<path d="M407.993 483.007V817L-102 815.478C-100.899 803.368 -98.6396 791.358 -95.2648 779.669C-92.2476 769.238 -87.5501 758.135 -77.8263 753.276C-58.3787 743.553 -33.4757 764.951 -14.1925 754.891C-4.49011 749.826 -0.150127 738.623 5.32667 729.156C20.2556 703.364 49.3126 686.352 79.1276 685.945C99.0686 685.673 118.373 692.239 137.921 696.219C157.462 700.206 179.004 701.306 196.157 691.132C221.66 676.007 228.117 642.67 232.306 613.326C236.496 583.99 243.632 550.596 269.614 536.307C295.118 522.281 327.135 533.356 355.627 527.369C378.972 522.46 399.334 505.206 408 483" fill="url(#paint3_linear_4303_124232)"/>
</g>
<g style="mix-blend-mode:overlay" opacity="0.5">
<path d="M533.29 478.01V945.48L-180 943.35C-178.46 926.4 -175.3 909.59 -170.58 893.23C-166.36 878.63 -159.79 863.09 -146.19 856.29C-118.99 842.68 -84.16 872.63 -57.19 858.55C-43.62 851.46 -37.55 835.78 -29.89 822.53C-9.01002 786.43 31.63 762.62 73.33 762.05C101.22 761.67 128.22 770.86 155.56 776.43C182.89 782.01 213.02 783.55 237.01 769.31C272.68 748.14 281.71 701.48 287.57 660.41C293.43 619.35 303.41 572.61 339.75 552.61C375.42 532.98 420.2 548.48 460.05 540.1C492.7 533.23 521.18 509.08 533.3 478" fill="url(#paint4_linear_4303_124232)"/>
</g>
<g style="mix-blend-mode:overlay" opacity="0.5">
<path d="M-134 293.305C-119.156 314.607 -97.4028 330.997 -72.8534 339.371C-61.8889 343.111 -50.09 345.289 -38.7083 343.169C-27.3265 341.05 -16.4206 334.054 -11.7508 323.444C-6.59789 311.74 -8.48632 295.827 2.00976 288.553C15.0018 279.556 31.9023 293.129 47.6977 293.21C61.729 293.276 73.7988 281.997 79.1273 268.989C84.4559 255.987 84.4559 241.497 84.3754 227.44C84.2582 206.732 84.1411 186.03 84.0167 165.322C83.9582 155.584 84.068 145.252 89.2135 136.995C97.4991 123.707 115.578 120.715 131.161 121.977C160.995 124.397 189.592 137.405 219.521 136.87C227.031 136.738 234.761 135.66 241.209 131.803C256.045 122.93 259.325 102.097 254.611 85.4364C249.897 68.7832 239.211 54.5718 231.481 39.0845C223.752 23.5972 219.09 4.69272 226.921 -10.7359C235.441 -27.5211 255.548 -34.4435 274 -38H-118.695L-134 293.312V293.305Z" fill="url(#paint5_linear_4303_124232)"/>
</g>
<path d="M39.5 82.25C39.5 82.94 38.94 83.5 38.25 83.5C37.56 83.5 37 82.94 37 82.25C37 81.56 37.56 81 38.25 81C38.94 81 39.5 81.56 39.5 82.25Z" fill="#B8B8B8"/>
<path d="M66.2292 113.62C66.2292 114.11 65.8292 114.51 65.3392 114.51C64.8492 114.51 64.4492 114.11 64.4492 113.62C64.4492 113.13 64.8492 112.73 65.3392 112.73C65.8292 112.73 66.2292 113.13 66.2292 113.62Z" fill="#B8B8B8"/>
<path d="M86.8205 90.0999C87.5606 90.0999 88.1605 89.4999 88.1605 88.7599C88.1605 88.0198 87.5606 87.4199 86.8205 87.4199C86.0804 87.4199 85.4805 88.0198 85.4805 88.7599C85.4805 89.4999 86.0804 90.0999 86.8205 90.0999Z" fill="#B8B8B8"/>
<path d="M31.8097 710.61C31.8097 711.27 31.2797 711.8 30.6197 711.8C29.9597 711.8 29.4297 711.27 29.4297 710.61C29.4297 709.95 29.9597 709.42 30.6197 709.42C31.2797 709.42 31.8097 709.95 31.8097 710.61Z" fill="#B8B8B8"/>
<path d="M49.0407 689.22C49.6317 689.22 50.1107 688.741 50.1107 688.15C50.1107 687.559 49.6317 687.08 49.0407 687.08C48.4498 687.08 47.9707 687.559 47.9707 688.15C47.9707 688.741 48.4498 689.22 49.0407 689.22Z" fill="#B8B8B8"/>
<path d="M30.62 680.31C30.62 681.03 30.03 681.62 29.31 681.62C28.59 681.62 28 681.03 28 680.31C28 679.59 28.59 679 29.31 679C30.03 679 30.62 679.59 30.62 680.31Z" fill="#B8B8B8"/>
</g>
<defs>
<linearGradient id="paint0_linear_4303_124232" x1="-81" y1="-108.5" x2="454.5" y2="918.5" gradientUnits="userSpaceOnUse">
<stop stop-color="#7814A8"/>
<stop offset="0.487889" stop-color="#F1D5FF"/>
<stop offset="1" stop-color="#69009B"/>
</linearGradient>
<linearGradient id="paint1_linear_4303_124232" x1="210.175" y1="255.89" x2="17.947" y2="33.2553" gradientUnits="userSpaceOnUse">
<stop stop-color="#2D2E36"/>
<stop offset="0.01" stop-color="#2C2D34"/>
<stop offset="0.41" stop-color="#131417"/>
<stop offset="0.75" stop-color="#050506"/>
<stop offset="1"/>
</linearGradient>
<linearGradient id="paint2_linear_4303_124232" x1="19.5" y1="31.5" x2="246" y2="313" gradientUnits="userSpaceOnUse">
<stop stop-color="#FF3D00"/>
<stop offset="1" stop-color="#AD00FF"/>
</linearGradient>
<linearGradient id="paint3_linear_4303_124232" x1="379.5" y1="824.5" x2="337.484" y2="144.976" gradientUnits="userSpaceOnUse">
<stop stop-color="#E60000"/>
<stop offset="0.447917" stop-color="#FF7306"/>
<stop offset="1" stop-color="#FFBC39"/>
</linearGradient>
<linearGradient id="paint4_linear_4303_124232" x1="398.5" y1="859.5" x2="220.663" y2="759.076" gradientUnits="userSpaceOnUse">
<stop stop-color="#981A31"/>
<stop offset="1" stop-color="#6D1696"/>
</linearGradient>
<linearGradient id="paint5_linear_4303_124232" x1="233" y1="195.5" x2="14.1738" y2="12.3899" gradientUnits="userSpaceOnUse">
<stop stop-color="#E60000"/>
<stop offset="0.447917" stop-color="#FF7306"/>
<stop offset="1" stop-color="#FFBC39"/>
</linearGradient>
<clipPath id="clip0_4303_124232">
<rect width="375" height="812" fill="white"/>
</clipPath>
</defs>
</svg>
