<svg width="152" height="79" viewBox="0 0 152 79" fill="none" xmlns="http://www.w3.org/2000/svg">
<g filter="url(#filter0_dd_7463_58535)">
<path d="M19.8923 34.6188C19.8468 34.6188 19.8046 34.5887 19.7911 34.5428L19.4927 33.5239C19.4779 33.4737 19.5015 33.4206 19.5483 33.3981L20.499 32.9392C20.5513 32.9137 20.6145 32.9362 20.6394 32.9889C20.6647 33.042 20.6424 33.1054 20.5901 33.1304L19.7203 33.5502L19.9935 34.482C20.01 34.5381 19.9779 34.5972 19.9223 34.6142C19.9121 34.6172 19.9024 34.6188 19.8923 34.6188Z" fill="#222222"/>
<path d="M26.6063 57.528C26.5607 57.528 26.5186 57.4979 26.5051 57.452L25.9456 55.5429C25.9292 55.4868 25.9612 55.4277 26.0169 55.4107C26.0725 55.3942 26.1311 55.4265 26.148 55.4826L26.7074 57.3916C26.7239 57.4477 26.6918 57.5068 26.6362 57.5238C26.6261 57.5267 26.6159 57.528 26.6063 57.528ZM25.4873 53.7103C25.4418 53.7103 25.3996 53.6801 25.3861 53.6342L24.8267 51.7252C24.8102 51.6691 24.8423 51.61 24.8979 51.593C24.9536 51.576 25.0122 51.6087 25.029 51.6648L25.5885 53.5739C25.605 53.63 25.5729 53.6891 25.5173 53.7061C25.5071 53.709 25.497 53.7103 25.4873 53.7103ZM24.3684 49.8926C24.3229 49.8926 24.2807 49.8624 24.2672 49.8165L23.7078 47.9075C23.6913 47.8514 23.7234 47.7923 23.779 47.7753C23.8347 47.7587 23.8933 47.791 23.9101 47.8471L24.4696 49.7562C24.486 49.8123 24.454 49.8713 24.3983 49.8883C24.3882 49.8909 24.3781 49.8926 24.3684 49.8926ZM23.2495 46.0744C23.2039 46.0744 23.1618 46.0443 23.1483 45.9984L22.5888 44.0893C22.5724 44.0332 22.6044 43.9742 22.6601 43.9572C22.7157 43.9402 22.7743 43.9729 22.7912 44.029L23.3507 45.938C23.3671 45.9941 23.3351 46.0532 23.2794 46.0702C23.2693 46.0732 23.2592 46.0744 23.2495 46.0744ZM22.1306 42.2567C22.085 42.2567 22.0429 42.2266 22.0294 42.1807L21.4699 40.2716C21.4535 40.2155 21.4855 40.1564 21.5412 40.1394C21.5968 40.1225 21.6554 40.1552 21.6723 40.2113L22.2317 42.1203C22.2482 42.1764 22.2161 42.2355 22.1605 42.2525C22.1504 42.2554 22.1403 42.2567 22.1306 42.2567ZM21.0116 38.439C20.9661 38.439 20.9239 38.4088 20.9105 38.3629L20.351 36.4539C20.3345 36.3978 20.3666 36.3387 20.4222 36.3217C20.4779 36.3052 20.5365 36.3374 20.5534 36.3935L21.1128 38.3026C21.1293 38.3587 21.0972 38.4178 21.0416 38.4348C21.0315 38.4377 21.0213 38.439 21.0116 38.439Z" fill="#222222"/>
<path d="M27.4636 60.4551C27.4475 60.4551 27.4311 60.4513 27.4163 60.444C27.3902 60.4309 27.3708 60.4075 27.3624 60.379L27.0639 59.3601C27.0474 59.304 27.0795 59.245 27.1351 59.228C27.1908 59.2114 27.2494 59.2437 27.2662 59.2998L27.5331 60.2095L28.4159 59.8802C28.4703 59.8598 28.531 59.8878 28.5513 59.9431C28.5715 59.9979 28.5437 60.0591 28.4889 60.0795L27.5002 60.4483C27.4884 60.453 27.4758 60.4551 27.4636 60.4551Z" fill="#222222"/>
<path d="M30.4012 59.3565C30.3582 59.3565 30.3181 59.3302 30.3025 59.2873C30.2823 59.232 30.3101 59.1713 30.3649 59.1509L32.3131 58.4243C32.3675 58.4039 32.4282 58.4319 32.4484 58.4872C32.4687 58.542 32.4408 58.6032 32.386 58.6236L30.4378 59.3501C30.4256 59.3544 30.413 59.3565 30.4012 59.3565ZM34.2971 57.9038C34.2541 57.9038 34.2141 57.8774 34.1985 57.8345C34.1783 57.7797 34.2061 57.7185 34.2609 57.6981L36.2091 56.9716C36.2639 56.9512 36.3242 56.9792 36.3444 57.0344C36.3647 57.0893 36.3368 57.1504 36.282 57.1708L34.3338 57.8974C34.322 57.9017 34.3094 57.9038 34.2971 57.9038ZM38.1936 56.4511C38.1506 56.4511 38.1105 56.4247 38.0949 56.3818C38.0747 56.327 38.1025 56.2658 38.1573 56.2454L40.1055 55.5188C40.1599 55.4984 40.2206 55.5265 40.2408 55.5817C40.2611 55.6365 40.2333 55.6977 40.1784 55.7181L38.2302 56.4447C38.218 56.4485 38.2058 56.4511 38.1936 56.4511ZM42.09 54.9979C42.047 54.9979 42.0069 54.9716 41.9913 54.9286C41.9711 54.8738 41.9989 54.8127 42.0537 54.7923L44.0019 54.0657C44.0567 54.0453 44.117 54.0733 44.1373 54.1286C44.1575 54.1834 44.1297 54.2446 44.0749 54.265L42.1267 54.9915C42.1144 54.9958 42.1022 54.9979 42.09 54.9979ZM45.9864 53.5452C45.9434 53.5452 45.9033 53.5188 45.8877 53.4759C45.8675 53.4211 45.8953 53.3599 45.9501 53.3395L47.8983 52.6129C47.9527 52.5926 48.0134 52.6206 48.0337 52.6758C48.0539 52.7306 48.0261 52.7918 47.9713 52.8122L46.0231 53.5388C46.0108 53.5431 45.9986 53.5452 45.9864 53.5452ZM49.8828 52.092C49.8398 52.092 49.7998 52.0657 49.7842 52.0228C49.7639 51.968 49.7917 51.9068 49.8465 51.8864L51.7948 51.1598C51.8491 51.1394 51.9099 51.1674 51.9301 51.2227C51.9503 51.2775 51.9225 51.3387 51.8677 51.3591L49.9195 52.0856C49.9073 52.0899 49.895 52.092 49.8828 52.092ZM53.7792 50.6393C53.7362 50.6393 53.6962 50.613 53.6806 50.57C53.6603 50.5152 53.6882 50.454 53.743 50.4336L55.6912 49.7071C55.7456 49.6867 55.8063 49.7147 55.8265 49.7699C55.8467 49.8248 55.8189 49.8859 55.7641 49.9063L53.8159 50.6329C53.8037 50.6372 53.791 50.6393 53.7792 50.6393ZM57.6756 49.1866C57.6326 49.1866 57.5926 49.1602 57.577 49.1173C57.5567 49.0625 57.5846 49.0013 57.6394 48.9809L59.5876 48.2543C59.642 48.2339 59.7027 48.262 59.7229 48.3172C59.7432 48.372 59.7153 48.4332 59.6605 48.4536L57.7123 49.1802C57.7001 49.1844 57.6874 49.1866 57.6756 49.1866ZM61.5716 47.7334C61.5286 47.7334 61.4886 47.7071 61.473 47.6642C61.4527 47.6093 61.4806 47.5481 61.5354 47.5278L63.4836 46.8012C63.5384 46.7808 63.5987 46.8088 63.6189 46.8641C63.6391 46.9189 63.6113 46.9801 63.5565 47.0005L61.6083 47.727C61.5965 47.7313 61.5839 47.7334 61.5716 47.7334ZM65.468 46.2807C65.425 46.2807 65.385 46.2543 65.3694 46.2114C65.3492 46.1566 65.377 46.0954 65.4318 46.075L67.38 45.3485C67.4344 45.3281 67.4951 45.3561 67.5153 45.4113C67.5356 45.4666 67.5077 45.5273 67.4529 45.5477L65.5047 46.2743C65.4925 46.2786 65.4803 46.2807 65.468 46.2807Z" fill="#222222"/>
<path d="M71.2587 45.0024C71.2406 45.0024 71.222 44.9978 71.2052 44.9876L70.3422 44.4713L69.4007 44.8223C69.3463 44.8427 69.2856 44.8146 69.2654 44.7594C69.2452 44.7041 69.273 44.6434 69.3278 44.623L70.3164 44.2546C70.3459 44.2436 70.3793 44.2465 70.4067 44.2631L71.3131 44.8053C71.3633 44.835 71.3797 44.9004 71.3498 44.951C71.3295 44.9837 71.2945 45.0024 71.2587 45.0024Z" fill="#222222"/>
<path d="M101.183 62.9056C101.165 62.9056 101.147 62.9009 101.13 62.8907L99.2597 61.772C99.2095 61.7422 99.1931 61.6768 99.223 61.6262C99.253 61.5757 99.3175 61.5591 99.3676 61.5893L101.238 62.708C101.288 62.7378 101.304 62.8032 101.275 62.8537C101.254 62.8869 101.219 62.9056 101.183 62.9056ZM97.4426 60.6681C97.4245 60.6681 97.4059 60.6634 97.3891 60.6532L95.5189 59.5344C95.4687 59.5047 95.4523 59.4393 95.4822 59.3887C95.5121 59.3381 95.5766 59.3216 95.6268 59.3517L97.497 60.4705C97.5472 60.5002 97.5636 60.5657 97.5337 60.6162C97.5139 60.6494 97.4785 60.6681 97.4426 60.6681ZM93.7022 58.4305C93.6841 58.4305 93.6655 58.4259 93.6487 58.4157L91.7784 57.2969C91.7283 57.2672 91.7118 57.2017 91.7418 57.1512C91.7717 57.1006 91.8362 57.084 91.8864 57.1142L93.7566 58.233C93.8068 58.2627 93.8232 58.3281 93.7933 58.3787C93.773 58.4119 93.738 58.4305 93.7022 58.4305ZM89.9613 56.193C89.9432 56.193 89.9247 56.1884 89.9078 56.1782L88.0376 55.0594C87.9874 55.0297 87.971 54.9642 88.0009 54.9137C88.0308 54.8631 88.0954 54.8465 88.1455 54.8767L90.0157 55.9955C90.0659 56.0252 90.0823 56.0906 90.0524 56.1412C90.0326 56.1743 89.9972 56.193 89.9613 56.193ZM86.2209 53.9555C86.2028 53.9555 86.1842 53.9508 86.1674 53.9406L84.2972 52.8219C84.247 52.7921 84.2306 52.7267 84.2605 52.6761C84.2904 52.6256 84.3549 52.609 84.4051 52.6392L86.2753 53.7579C86.3255 53.7877 86.3419 53.8531 86.312 53.9037C86.2918 53.9368 86.2568 53.9555 86.2209 53.9555ZM82.4801 51.7176C82.462 51.7176 82.4434 51.7129 82.4265 51.7027L80.5563 50.5839C80.5062 50.5542 80.4897 50.4888 80.5196 50.4382C80.5496 50.3876 80.6141 50.3711 80.6643 50.4012L82.5345 51.52C82.5846 51.5497 82.6011 51.6152 82.5711 51.6657C82.5513 51.6993 82.5159 51.7176 82.4801 51.7176ZM78.7397 49.48C78.7215 49.48 78.703 49.4754 78.6861 49.4652L76.8159 48.3464C76.7657 48.3167 76.7493 48.2512 76.7792 48.2007C76.8087 48.1501 76.8737 48.1335 76.9238 48.1637L78.794 49.2825C78.8442 49.3122 78.8607 49.3776 78.8307 49.4282C78.8105 49.4618 78.7755 49.48 78.7397 49.48ZM74.9988 47.2425C74.9807 47.2425 74.9621 47.2379 74.9453 47.2277L73.0751 46.1089C73.0249 46.0792 73.0085 46.0137 73.0384 45.9632C73.0683 45.9126 73.1328 45.896 73.183 45.9262L75.0532 47.045C75.1034 47.0747 75.1198 47.1401 75.0899 47.1907C75.0701 47.2243 75.0347 47.2425 74.9988 47.2425Z" fill="#222222"/>
<path d="M103.96 64.5647C103.942 64.5647 103.923 64.5596 103.906 64.5498L103 64.0076C102.95 63.9779 102.933 63.9125 102.963 63.8619C102.993 63.8113 103.058 63.7948 103.108 63.8249L103.958 64.3335L104.786 63.7897C104.835 63.7578 104.9 63.7714 104.932 63.8207C104.963 63.87 104.95 63.9358 104.901 63.9677L104.018 64.5477C104 64.5587 103.98 64.5647 103.96 64.5647Z" fill="#222222"/>
<path d="M106.715 62.7573C106.68 62.7573 106.647 62.7404 106.626 62.7093C106.595 62.66 106.608 62.5942 106.657 62.5623L108.528 61.3335C108.577 61.3016 108.642 61.3152 108.674 61.3645C108.706 61.4138 108.692 61.4797 108.643 61.5115L106.772 62.7404C106.755 62.7518 106.735 62.7573 106.715 62.7573ZM110.457 60.2993C110.423 60.2993 110.389 60.2823 110.369 60.2513C110.337 60.202 110.35 60.1361 110.399 60.1043L112.27 58.8755C112.319 58.8436 112.385 58.8572 112.416 58.9065C112.448 58.9558 112.434 59.0216 112.385 59.0535L110.514 60.2823C110.497 60.2938 110.477 60.2993 110.457 60.2993ZM114.199 57.8417C114.165 57.8417 114.131 57.8247 114.111 57.7937C114.079 57.7444 114.093 57.6785 114.141 57.6467L116.012 56.4179C116.061 56.386 116.127 56.3996 116.158 56.4489C116.19 56.4982 116.176 56.564 116.128 56.5959L114.257 57.8247C114.239 57.8362 114.219 57.8417 114.199 57.8417ZM117.942 55.3841C117.907 55.3841 117.873 55.3671 117.853 55.3361C117.822 55.2868 117.835 55.2209 117.884 55.189L119.755 53.9602C119.804 53.9284 119.869 53.942 119.901 53.9913C119.933 54.0405 119.919 54.1064 119.87 54.1383L117.999 55.3671C117.981 55.3785 117.962 55.3841 117.942 55.3841ZM121.684 52.926C121.649 52.926 121.616 52.909 121.595 52.878C121.564 52.8287 121.577 52.7629 121.626 52.731L123.497 51.5022C123.546 51.4703 123.611 51.4839 123.643 51.5332C123.675 51.5825 123.661 51.6484 123.612 51.6802L121.741 52.909C121.723 52.9205 121.704 52.926 121.684 52.926ZM125.426 50.4684C125.391 50.4684 125.358 50.4514 125.337 50.4204C125.306 50.3711 125.319 50.3053 125.368 50.2734L127.239 49.0446C127.288 49.0127 127.353 49.0263 127.385 49.0756C127.417 49.1249 127.403 49.1907 127.354 49.2226L125.483 50.4514C125.466 50.4629 125.446 50.4684 125.426 50.4684ZM129.168 48.0104C129.134 48.0104 129.1 47.9934 129.08 47.9624C129.048 47.9131 129.062 47.8472 129.111 47.8153L130.982 46.5865C131.031 46.5547 131.096 46.5683 131.128 46.6176C131.159 46.6668 131.146 46.7327 131.097 46.7646L129.226 47.9934C129.208 48.0048 129.188 48.0104 129.168 48.0104Z" fill="#222222"/>
<path d="M132.911 45.5513C132.877 45.5513 132.843 45.5343 132.823 45.5032C132.791 45.454 132.805 45.3881 132.854 45.3562L133.698 44.8013L133.872 43.8007C133.882 43.7429 133.937 43.7046 133.994 43.7144C134.051 43.7246 134.09 43.7794 134.08 43.8372L133.897 44.8833C133.892 44.9122 133.875 44.9377 133.851 44.9538L132.968 45.5338C132.951 45.5457 132.931 45.5513 132.911 45.5513Z" fill="#222222"/>
<path d="M22.4573 32.2161C22.4181 32.2161 22.3801 32.194 22.362 32.1557C22.3367 32.1026 22.359 32.0393 22.4113 32.0142L24.3245 31.0901C24.3768 31.0646 24.4401 31.0871 24.4649 31.1398C24.4902 31.1929 24.4679 31.2562 24.4156 31.2813L22.5024 32.2055C22.4881 32.2127 22.4725 32.2161 22.4573 32.2161ZM26.2837 30.3682C26.2445 30.3682 26.2066 30.3461 26.1884 30.3079C26.1631 30.2547 26.1855 30.1914 26.2378 30.1664L28.1518 29.2422C28.2045 29.2167 28.2673 29.2392 28.2922 29.2919C28.3175 29.345 28.2952 29.4083 28.2429 29.4334L26.3297 30.3576C26.3149 30.3648 26.2993 30.3682 26.2837 30.3682ZM30.1106 28.5203C30.0713 28.5203 30.0334 28.4982 30.0153 28.46C29.99 28.4069 30.0123 28.3435 30.0646 28.3181L31.9778 27.3939C32.0305 27.3684 32.0933 27.3909 32.1182 27.4436C32.1435 27.4963 32.1212 27.56 32.0689 27.5851L30.1557 28.5093C30.1413 28.5169 30.1257 28.5203 30.1106 28.5203ZM33.9374 26.672C33.8982 26.672 33.8603 26.6499 33.8421 26.6117C33.8168 26.5585 33.8392 26.4952 33.8915 26.4702L35.8047 25.546C35.8574 25.5205 35.9202 25.543 35.9451 25.5957C35.9704 25.6488 35.948 25.7121 35.8957 25.7376L33.9825 26.6618C33.9682 26.669 33.9526 26.672 33.9374 26.672ZM37.7638 24.8241C37.7246 24.8241 37.6867 24.802 37.6686 24.7638C37.6433 24.7107 37.6656 24.6474 37.7179 24.6219L39.6311 23.6977C39.6838 23.6722 39.7466 23.6947 39.7719 23.7474C39.7972 23.8005 39.7749 23.8638 39.7226 23.8889L37.8094 24.8131C37.7946 24.8207 37.779 24.8241 37.7638 24.8241ZM41.5907 22.9762C41.5515 22.9762 41.5135 22.9541 41.4954 22.9159C41.4701 22.8632 41.4925 22.7995 41.5447 22.7744L43.4579 21.8502C43.5102 21.8252 43.5735 21.8473 43.5983 21.9C43.6236 21.9531 43.6013 22.0164 43.549 22.0419L41.6358 22.966C41.6215 22.9728 41.6059 22.9762 41.5907 22.9762ZM45.4171 21.1283C45.3779 21.1283 45.34 21.1062 45.3218 21.068C45.2965 21.0149 45.3189 20.9516 45.3712 20.9265L46.6372 20.3151C46.6423 20.3125 46.6478 20.3104 46.6532 20.3087L47.3421 20.106C47.3982 20.0895 47.4564 20.1218 47.4728 20.1783C47.4893 20.2348 47.4572 20.2934 47.4012 20.31L46.7207 20.5101L45.4622 21.1177C45.4479 21.1249 45.4327 21.1283 45.4171 21.1283ZM49.4088 19.7147C49.3633 19.7147 49.3211 19.6845 49.3076 19.6382C49.2912 19.5817 49.3232 19.5231 49.3793 19.5065L51.416 18.907C51.4721 18.8904 51.5303 18.9227 51.5467 18.9792C51.5632 19.0357 51.5311 19.0943 51.4751 19.1109L49.4383 19.7105C49.4286 19.7134 49.4185 19.7147 49.4088 19.7147ZM53.4819 18.5161C53.4363 18.5161 53.3942 18.4859 53.3807 18.4396C53.3642 18.3831 53.3963 18.3244 53.4524 18.3079L55.4891 17.7083C55.5452 17.6918 55.6034 17.724 55.6198 17.7806C55.6362 17.8371 55.6042 17.8957 55.5481 17.9123L53.5114 18.5118C53.5017 18.5144 53.4916 18.5161 53.4819 18.5161ZM57.5549 17.317C57.5094 17.317 57.4672 17.2868 57.4538 17.2405C57.4373 17.184 57.4694 17.1254 57.5254 17.1088L59.5622 16.5093C59.6182 16.4931 59.6764 16.525 59.6929 16.5815C59.7093 16.638 59.6773 16.6966 59.6212 16.7132L57.5844 17.3127C57.5748 17.3157 57.5651 17.317 57.5549 17.317ZM105.485 16.6499C105.481 16.6499 105.477 16.6495 105.473 16.6491L103.366 16.3988C103.308 16.392 103.267 16.3393 103.274 16.2807C103.28 16.2225 103.333 16.1808 103.391 16.1876L105.498 16.4379C105.556 16.4447 105.597 16.4974 105.59 16.556C105.583 16.61 105.538 16.6499 105.485 16.6499ZM101.271 16.1494C101.267 16.1494 101.262 16.1489 101.258 16.1485L99.1511 15.8983C99.0934 15.8915 99.052 15.8388 99.0588 15.7801C99.0655 15.7219 99.1187 15.6803 99.1756 15.6871L101.283 15.9373C101.34 15.9441 101.382 15.9968 101.375 16.0555C101.369 16.1094 101.324 16.1494 101.271 16.1494ZM61.6284 16.1184C61.5829 16.1184 61.5407 16.0882 61.5272 16.0419C61.5108 15.9854 61.5428 15.9267 61.5989 15.9102L63.6357 15.3106C63.6913 15.2941 63.7499 15.3263 63.7663 15.3829C63.7828 15.4394 63.7508 15.498 63.6947 15.5146L61.6579 16.1141C61.6478 16.1171 61.6381 16.1184 61.6284 16.1184ZM97.0566 15.6488C97.0524 15.6488 97.0482 15.6484 97.044 15.648L94.9368 15.3977C94.8791 15.3909 94.8377 15.3382 94.8445 15.2796C94.8512 15.2214 94.9035 15.1798 94.9617 15.1866L97.0688 15.4368C97.1266 15.4436 97.1679 15.4963 97.1612 15.5549C97.1548 15.6093 97.1093 15.6488 97.0566 15.6488ZM92.8427 15.1483C92.8385 15.1483 92.8343 15.1479 92.8301 15.1475L90.7229 14.8972C90.6652 14.8904 90.6239 14.8377 90.6306 14.7791C90.6374 14.7209 90.6896 14.6792 90.7478 14.686L92.855 14.9363C92.9127 14.9431 92.954 14.9958 92.9473 15.0544C92.941 15.1088 92.8954 15.1483 92.8427 15.1483ZM65.7015 14.9197C65.656 14.9197 65.6138 14.8895 65.6003 14.8432C65.5839 14.7867 65.6159 14.7281 65.672 14.7115L67.7087 14.112C67.7648 14.0954 67.823 14.1277 67.8394 14.1842C67.8559 14.2407 67.8238 14.2994 67.7677 14.3159L65.731 14.9155C65.7213 14.918 65.7112 14.9197 65.7015 14.9197ZM88.6284 14.6478C88.6242 14.6478 88.62 14.6474 88.6158 14.6469L86.5086 14.3967C86.4509 14.3899 86.4096 14.3372 86.4163 14.2785C86.4231 14.2203 86.4753 14.1787 86.5335 14.1855L88.6407 14.4358C88.6984 14.4426 88.7397 14.4952 88.733 14.5539C88.7267 14.6083 88.6811 14.6478 88.6284 14.6478ZM84.4146 14.1477C84.4103 14.1477 84.4061 14.1472 84.4019 14.1468L82.2948 13.8966C82.237 13.8898 82.1957 13.8371 82.2024 13.7784C82.2092 13.7202 82.2615 13.6786 82.3196 13.6854L84.4268 13.9356C84.4845 13.9424 84.5259 13.9951 84.5191 14.0538C84.5128 14.1077 84.4673 14.1477 84.4146 14.1477ZM69.7746 13.7207C69.729 13.7207 69.6869 13.6905 69.6734 13.6442C69.6569 13.5877 69.689 13.529 69.745 13.5124L71.7818 12.9129C71.8379 12.8963 71.896 12.9286 71.9125 12.9851C71.9289 13.0417 71.8969 13.1003 71.8408 13.1169L69.8041 13.7164C69.7944 13.7194 69.7842 13.7207 69.7746 13.7207ZM80.2003 13.6471C80.196 13.6471 80.1918 13.6467 80.188 13.6463L78.0809 13.396C78.0231 13.3892 77.9818 13.3365 77.9886 13.2779C77.9953 13.2197 78.048 13.1781 78.1058 13.1849L80.2129 13.4351C80.2707 13.4419 80.312 13.4946 80.3052 13.5532C80.2985 13.6072 80.253 13.6471 80.2003 13.6471ZM75.986 13.1466C75.9817 13.1466 75.9775 13.1462 75.9737 13.1458L73.8666 12.8955C73.8088 12.8887 73.7675 12.836 73.7743 12.7774C73.781 12.7192 73.8341 12.6775 73.891 12.6843L75.9982 12.9346C76.0559 12.9414 76.0973 12.9941 76.0905 13.0527C76.0842 13.1067 76.0387 13.1466 75.986 13.1466Z" fill="#222222"/>
<path d="M21.4873 34.0054C21.4802 34.0054 21.4726 34.0045 21.4654 34.0028L20.4342 33.7823C20.3773 33.77 20.341 33.7139 20.3528 33.6565C20.365 33.5992 20.4207 33.5626 20.4776 33.5745L21.5088 33.795C21.5658 33.8074 21.602 33.8634 21.5902 33.9208C21.5801 33.9714 21.5362 34.0054 21.4873 34.0054Z" fill="#222222"/>
<path d="M67.2421 43.7973C67.2349 43.7973 67.2273 43.7965 67.2202 43.7948L65.1404 43.3499C65.0835 43.3376 65.0473 43.2815 65.0591 43.2241C65.0713 43.1668 65.1269 43.1302 65.1838 43.1421L67.2636 43.587C67.3205 43.5993 67.3568 43.6554 67.345 43.7128C67.3344 43.7629 67.2906 43.7973 67.2421 43.7973ZM63.0826 42.9072C63.0754 42.9072 63.0678 42.9063 63.0607 42.905L60.9809 42.4602C60.924 42.4478 60.8878 42.3917 60.8996 42.3344C60.9118 42.277 60.9674 42.2405 61.0244 42.2524L63.1041 42.6973C63.161 42.7096 63.1973 42.7657 63.1855 42.823C63.1749 42.8732 63.1311 42.9072 63.0826 42.9072ZM58.9231 42.0174C58.9159 42.0174 58.9084 42.0166 58.9012 42.0149L56.8214 41.57C56.7645 41.5577 56.7283 41.5016 56.7401 41.4442C56.7523 41.3869 56.808 41.3503 56.8649 41.3622L58.9446 41.8071C59.0015 41.8194 59.0378 41.8755 59.026 41.9329C59.0154 41.983 58.9716 42.0174 58.9231 42.0174ZM54.7636 41.1277C54.7565 41.1277 54.7489 41.1268 54.7417 41.1255L52.6619 40.6807C52.605 40.6684 52.5688 40.6123 52.5806 40.5549C52.5928 40.4975 52.6485 40.461 52.7054 40.4729L54.7851 40.9178C54.842 40.9301 54.8783 40.9862 54.8665 41.0435C54.8559 41.0933 54.8121 41.1277 54.7636 41.1277ZM50.6041 40.2375C50.597 40.2375 50.5894 40.2367 50.5822 40.235L48.5025 39.7901C48.4455 39.7778 48.4093 39.7217 48.4211 39.6643C48.4333 39.607 48.489 39.5704 48.5459 39.5823L50.6256 40.0272C50.6825 40.0395 50.7188 40.0956 50.707 40.153C50.6965 40.2035 50.6526 40.2375 50.6041 40.2375ZM46.4446 39.3478C46.4375 39.3478 46.4299 39.3469 46.4227 39.3452L44.343 38.9004C44.2861 38.888 44.2498 38.8319 44.2616 38.7746C44.2738 38.7172 44.3291 38.6807 44.3864 38.6926L46.4661 39.1374C46.5231 39.1498 46.5593 39.2059 46.5475 39.2632C46.537 39.3134 46.4935 39.3478 46.4446 39.3478ZM42.2851 38.4576C42.278 38.4576 42.2704 38.4568 42.2632 38.4551L40.1835 38.0102C40.1266 37.9979 40.0903 37.9418 40.1021 37.8844C40.1143 37.8271 40.17 37.7905 40.2269 37.8024L42.3066 38.2473C42.3636 38.2596 42.3998 38.3157 42.388 38.3731C42.3775 38.4236 42.334 38.4576 42.2851 38.4576ZM38.1257 37.5679C38.1185 37.5679 38.1109 37.567 38.1037 37.5653L36.024 37.1204C35.9671 37.1081 35.9308 37.052 35.9426 36.9947C35.9548 36.9373 36.0105 36.9008 36.0674 36.9127L38.1472 37.3575C38.2041 37.3699 38.2403 37.426 38.2285 37.4833C38.218 37.5335 38.1746 37.5679 38.1257 37.5679ZM33.9662 36.6781C33.959 36.6781 33.9514 36.6773 33.9442 36.676L31.8645 36.2311C31.8076 36.2188 31.7713 36.1627 31.7831 36.1054C31.7954 36.048 31.851 36.0115 31.9079 36.0234L33.9877 36.4682C34.0446 36.4806 34.0808 36.5366 34.069 36.594C34.0585 36.6437 34.0151 36.6781 33.9662 36.6781ZM29.8067 35.788C29.7995 35.788 29.7919 35.7871 29.7847 35.7854L27.705 35.3405C27.6481 35.3282 27.6118 35.2721 27.6236 35.2148C27.6359 35.1574 27.6915 35.1209 27.7484 35.1328L29.8282 35.5776C29.8851 35.59 29.9213 35.6461 29.9095 35.7034C29.899 35.754 29.8556 35.788 29.8067 35.788ZM25.6472 34.8982C25.64 34.8982 25.6324 34.8974 25.6253 34.8961L23.5455 34.4512C23.4886 34.4389 23.4523 34.3828 23.4641 34.3255C23.4764 34.2681 23.532 34.2316 23.5889 34.2435L25.6687 34.6883C25.7256 34.7006 25.7619 34.7567 25.75 34.8141C25.7395 34.8638 25.6961 34.8982 25.6472 34.8982Z" fill="#222222"/>
<path d="M70.3526 44.462C70.3454 44.462 70.3378 44.4612 70.3306 44.4599L69.2994 44.2394C69.2425 44.2271 69.2062 44.171 69.218 44.1136C69.2303 44.0562 69.2859 44.0197 69.3428 44.0316L70.2602 44.2279L70.3652 43.2889C70.3715 43.2307 70.4242 43.1886 70.4816 43.195C70.5393 43.2013 70.5811 43.254 70.5743 43.3122L70.4563 44.3677C70.4529 44.3974 70.4373 44.4246 70.4133 44.4421C70.396 44.4552 70.3745 44.462 70.3526 44.462Z" fill="#222222"/>
<path d="M70.716 41.2068C70.7122 41.2068 70.708 41.2068 70.7042 41.206C70.6464 41.1996 70.6047 41.1469 70.611 41.0887L70.8564 38.8928C70.8627 38.8346 70.915 38.7926 70.9727 38.7989C71.0305 38.8053 71.0722 38.858 71.0659 38.9162L70.8205 41.1121C70.8146 41.1669 70.7691 41.2068 70.716 41.2068ZM71.2067 36.8151C71.2029 36.8151 71.1987 36.8151 71.1949 36.8142C71.1371 36.8078 71.0954 36.7552 71.1021 36.6969L71.3475 34.5011C71.3538 34.4429 71.4065 34.4008 71.4639 34.4072C71.5216 34.4135 71.5634 34.4662 71.5566 34.5244L71.3113 36.7203C71.3054 36.7747 71.2598 36.8151 71.2067 36.8151ZM71.6974 32.4233C71.6937 32.4233 71.6894 32.4233 71.6856 32.4225C71.6279 32.4161 71.5861 32.3634 71.5925 32.3052L71.8378 30.1093C71.8442 30.0511 71.8969 30.009 71.9542 30.0154C72.012 30.0218 72.0537 30.0745 72.0474 30.1327L71.802 32.3286C71.7961 32.3829 71.7506 32.4233 71.6974 32.4233ZM72.1882 28.0316C72.1844 28.0316 72.1802 28.0316 72.1764 28.0307C72.1186 28.0243 72.0769 27.9716 72.0832 27.9134L72.3286 25.7176C72.3349 25.6593 72.3868 25.6173 72.4449 25.6241C72.5027 25.6305 72.5444 25.6831 72.5377 25.7414L72.2923 27.9372C72.2868 27.9912 72.2409 28.0316 72.1882 28.0316ZM72.6789 23.6398C72.6751 23.6398 72.6709 23.6398 72.6671 23.6389C72.6094 23.6326 72.5676 23.5799 72.574 23.5217L72.8193 21.3258C72.8261 21.2676 72.8779 21.2255 72.9357 21.2323C72.9934 21.2387 73.0352 21.2914 73.0284 21.3496L72.7831 23.5455C72.7776 23.5994 72.7316 23.6398 72.6789 23.6398ZM73.1697 19.248C73.1659 19.248 73.1617 19.2476 73.1579 19.2472C73.1001 19.2408 73.0584 19.1881 73.0651 19.1299L73.3105 16.934C73.3168 16.8758 73.3695 16.8338 73.4268 16.8406C73.4846 16.8469 73.5263 16.8996 73.52 16.9578L73.2746 19.1537C73.2683 19.2077 73.2224 19.248 73.1697 19.248Z" fill="#222222"/>
<path d="M73.66 14.8575C73.6562 14.8575 73.652 14.8575 73.6482 14.8567C73.5904 14.8503 73.5487 14.7976 73.5554 14.7394L73.6735 13.684C73.6798 13.6258 73.7325 13.5841 73.7898 13.5905C73.8476 13.5969 73.8893 13.6495 73.8826 13.7078L73.7645 14.7632C73.7582 14.8176 73.7127 14.8575 73.66 14.8575Z" fill="#222222"/>
<path d="M29.2852 61.3796C29.2835 61.3796 29.2818 61.3796 29.2802 61.3796L28.2274 61.3303C28.1693 61.3278 28.1241 61.2781 28.1271 61.2194C28.1296 61.1608 28.1802 61.1153 28.2371 61.1183L29.2899 61.1676C29.348 61.1701 29.3932 61.2199 29.3902 61.2785C29.3877 61.335 29.3409 61.3796 29.2852 61.3796Z" fill="#222222"/>
<path d="M93.8832 64.4117C93.8815 64.4117 93.8798 64.4117 93.8781 64.4117L91.725 64.3106C91.6669 64.308 91.6217 64.2583 91.6247 64.1997C91.6272 64.141 91.6778 64.096 91.7347 64.0985L93.8878 64.1997C93.946 64.2022 93.9911 64.2519 93.9882 64.3106C93.9856 64.3675 93.9389 64.4117 93.8832 64.4117ZM89.5766 64.2094C89.5749 64.2094 89.5732 64.2094 89.5715 64.2094L87.4184 64.1083C87.3602 64.1058 87.3151 64.056 87.3181 63.9974C87.3206 63.9388 87.3708 63.8942 87.4281 63.8963L89.5812 63.9974C89.6394 64 89.6845 64.0497 89.6816 64.1083C89.679 64.1652 89.6326 64.2094 89.5766 64.2094ZM85.2699 64.0072C85.2683 64.0072 85.2666 64.0072 85.2649 64.0072L83.1118 63.9061C83.0536 63.9035 83.0085 63.8538 83.0114 63.7951C83.014 63.7365 83.065 63.6911 83.1215 63.694L85.2746 63.7951C85.3328 63.7977 85.3779 63.8474 85.3749 63.9061C85.3724 63.963 85.326 64.0072 85.2699 64.0072ZM80.9633 63.8049C80.9616 63.8049 80.9599 63.8049 80.9583 63.8049L78.8051 63.7038C78.747 63.7012 78.7019 63.6515 78.7048 63.5929C78.7073 63.5343 78.7579 63.4897 78.8148 63.4918L80.9679 63.5929C81.0261 63.5955 81.0712 63.6452 81.0683 63.7038C81.0662 63.7603 81.0194 63.8049 80.9633 63.8049ZM76.6571 63.6022C76.6554 63.6022 76.6537 63.6022 76.652 63.6022L74.4989 63.5011C74.4408 63.4986 74.3957 63.4489 74.3986 63.3902C74.4016 63.3316 74.4496 63.2861 74.5086 63.2891L76.6617 63.3902C76.7199 63.3928 76.765 63.4425 76.7621 63.5011C76.7596 63.5581 76.7128 63.6022 76.6571 63.6022ZM72.3505 63.4C72.3488 63.4 72.3471 63.4 72.3454 63.4L70.1923 63.2989C70.1341 63.2963 70.089 63.2466 70.092 63.188C70.0949 63.1293 70.1426 63.0843 70.202 63.0868L72.3551 63.188C72.4133 63.1905 72.4584 63.2402 72.4555 63.2989C72.4529 63.3558 72.4065 63.4 72.3505 63.4ZM68.0438 63.1977C68.0422 63.1977 68.0405 63.1977 68.0388 63.1977L65.8857 63.0966C65.8275 63.0941 65.7824 63.0444 65.7853 62.9857C65.7879 62.9271 65.8372 62.8812 65.8954 62.8846L68.0485 62.9857C68.1067 62.9883 68.1518 63.038 68.1488 63.0966C68.1467 63.1531 68.0999 63.1977 68.0438 63.1977ZM63.7376 62.9955C63.736 62.9955 63.7343 62.9955 63.7326 62.9955L61.5795 62.8944C61.5213 62.8918 61.4762 62.8421 61.4791 62.7835C61.4821 62.7248 61.5306 62.6798 61.5892 62.6823L63.7423 62.7835C63.8005 62.786 63.8456 62.8357 63.8426 62.8944C63.8401 62.9509 63.7933 62.9955 63.7376 62.9955ZM59.431 62.7928C59.4293 62.7928 59.4276 62.7928 59.4259 62.7928L57.2728 62.6917C57.2147 62.6891 57.1695 62.6394 57.1725 62.5808C57.175 62.5222 57.2248 62.4775 57.2825 62.4797L59.4356 62.5808C59.4938 62.5833 59.5389 62.6331 59.536 62.6917C59.5335 62.7486 59.4871 62.7928 59.431 62.7928ZM55.1244 62.5906C55.1227 62.5906 55.121 62.5906 55.1193 62.5906L52.9662 62.4894C52.908 62.4869 52.8629 62.4372 52.8659 62.3785C52.8684 62.3199 52.919 62.2744 52.9759 62.2774L55.129 62.3785C55.1872 62.3811 55.2323 62.4308 55.2294 62.4894C55.2268 62.5464 55.1804 62.5906 55.1244 62.5906ZM50.8177 62.3883C50.8161 62.3883 50.8144 62.3883 50.8127 62.3883L48.6596 62.2872C48.6014 62.2846 48.5563 62.2349 48.5592 62.1763C48.5622 62.1176 48.6107 62.073 48.6693 62.0752L50.8224 62.1763C50.8806 62.1788 50.9257 62.2285 50.9227 62.2872C50.9206 62.3437 50.8738 62.3883 50.8177 62.3883ZM46.5115 62.1861C46.5098 62.1861 46.5082 62.1861 46.5065 62.1861L44.3534 62.0849C44.2952 62.0824 44.2501 62.0327 44.253 61.974C44.256 61.9154 44.3053 61.8699 44.3631 61.8729L46.5162 61.974C46.5744 61.9766 46.6195 62.0263 46.6165 62.0849C46.614 62.1414 46.5672 62.1861 46.5115 62.1861ZM42.2049 61.9834C42.2032 61.9834 42.2015 61.9834 42.1998 61.9834L40.0467 61.8823C39.9886 61.8797 39.9435 61.83 39.9464 61.7714C39.9489 61.7127 39.9995 61.6677 40.0564 61.6702L42.2095 61.7714C42.2677 61.7739 42.3128 61.8236 42.3099 61.8823C42.3074 61.9392 42.261 61.9834 42.2049 61.9834ZM37.8983 61.7811C37.8966 61.7811 37.8949 61.7811 37.8932 61.7811L35.7401 61.68C35.6819 61.6775 35.6368 61.6277 35.6398 61.5691C35.6423 61.5105 35.6912 61.465 35.7498 61.468L37.9029 61.5691C37.9611 61.5717 38.0062 61.6214 38.0033 61.68C38.0007 61.7369 37.9543 61.7811 37.8983 61.7811ZM33.5916 61.5789C33.59 61.5789 33.5883 61.5789 33.5866 61.5789L31.4335 61.4778C31.3753 61.4752 31.3302 61.4255 31.3331 61.3669C31.3357 61.3082 31.3846 61.2632 31.4432 61.2657L33.5963 61.3669C33.6545 61.3694 33.6996 61.4191 33.6966 61.4778C33.6945 61.5343 33.6477 61.5789 33.5916 61.5789Z" fill="#222222"/>
<path d="M97.0889 64.5671C97.0872 64.5671 97.0856 64.5671 97.0839 64.5671L96.0311 64.5178C95.973 64.5152 95.9278 64.4655 95.9308 64.4069C95.9338 64.3482 95.9843 64.3036 96.0408 64.3057L97.0936 64.3555C97.1517 64.358 97.1969 64.4077 97.1939 64.4663C97.1918 64.5229 97.145 64.5671 97.0889 64.5671Z" fill="#222222"/>
<path d="M135.935 48.6335C135.91 48.6335 135.885 48.6246 135.865 48.6067L135.077 47.9006C135.034 47.8615 135.03 47.7943 135.068 47.7506C135.107 47.7068 135.174 47.7026 135.217 47.7416L136.005 48.4478C136.048 48.4869 136.052 48.5541 136.014 48.5978C135.993 48.6216 135.964 48.6335 135.935 48.6335Z" fill="#222222"/>
<path d="M133.577 46.515C133.552 46.515 133.527 46.5061 133.507 46.4883L131.935 45.0793C131.892 45.0402 131.888 44.9731 131.926 44.9293C131.965 44.8855 132.032 44.8817 132.075 44.9204L133.646 46.3293C133.69 46.3684 133.694 46.4356 133.655 46.4793C133.634 46.5031 133.606 46.515 133.577 46.515ZM130.434 43.6975C130.409 43.6975 130.385 43.6886 130.364 43.6707L128.793 42.2618C128.75 42.2227 128.746 42.1556 128.784 42.1118C128.823 42.068 128.89 42.0642 128.933 42.1029L130.504 43.5118C130.548 43.5509 130.552 43.6181 130.513 43.6618C130.492 43.6856 130.463 43.6975 130.434 43.6975ZM127.292 40.8796C127.267 40.8796 127.242 40.8707 127.222 40.8528L125.65 39.4439C125.607 39.4048 125.603 39.3376 125.642 39.2939C125.68 39.2501 125.747 39.2463 125.79 39.2849L127.362 40.6939C127.405 40.733 127.409 40.8001 127.371 40.8439C127.35 40.8677 127.321 40.8796 127.292 40.8796ZM124.15 38.0621C124.125 38.0621 124.1 38.0532 124.08 38.0353L122.508 36.6263C122.465 36.5873 122.461 36.5201 122.499 36.4764C122.538 36.4326 122.605 36.4288 122.648 36.4674L124.22 37.8764C124.263 37.9155 124.267 37.9826 124.228 38.0264C124.208 38.0502 124.179 38.0621 124.15 38.0621ZM121.007 35.2446C120.983 35.2446 120.958 35.2356 120.937 35.2178L119.366 33.8088C119.323 33.7697 119.319 33.7026 119.357 33.6588C119.396 33.6151 119.463 33.6113 119.506 33.6499L121.077 35.0589C121.121 35.098 121.125 35.1651 121.086 35.2089C121.066 35.2322 121.036 35.2446 121.007 35.2446ZM117.865 32.4266C117.84 32.4266 117.815 32.4177 117.795 32.3999L116.224 30.9909C116.181 30.9518 116.177 30.8847 116.215 30.8409C116.254 30.7972 116.32 30.7933 116.364 30.832L117.935 32.241C117.979 32.2801 117.982 32.3472 117.944 32.391C117.923 32.4147 117.894 32.4266 117.865 32.4266ZM114.723 29.6091C114.698 29.6091 114.673 29.6002 114.653 29.5824L113.082 28.1734C113.038 28.1343 113.035 28.0672 113.073 28.0234C113.112 27.9796 113.178 27.9758 113.222 28.0145L114.793 29.4235C114.836 29.4625 114.84 29.5297 114.802 29.5734C114.781 29.5968 114.752 29.6091 114.723 29.6091ZM111.581 26.7912C111.556 26.7912 111.531 26.7823 111.511 26.7644L109.94 25.3555C109.896 25.3164 109.892 25.2492 109.931 25.2055C109.97 25.1617 110.036 25.1579 110.08 25.1966L111.651 26.6055C111.694 26.6446 111.698 26.7117 111.66 26.7555C111.639 26.7793 111.61 26.7912 111.581 26.7912Z" fill="#222222"/>
<path d="M108.439 23.9769C108.414 23.9769 108.389 23.968 108.369 23.9502L107.64 23.2962L106.804 23.8057C106.755 23.8359 106.69 23.8201 106.66 23.7696C106.63 23.7194 106.645 23.654 106.695 23.6238L107.597 23.074C107.637 23.0498 107.687 23.0545 107.722 23.0855L108.509 23.7917C108.553 23.8308 108.556 23.8979 108.518 23.9417C108.497 23.9646 108.468 23.9769 108.439 23.9769Z" fill="#222222"/>
<path d="M75.5341 42.853C75.4983 42.853 75.4637 42.8347 75.4439 42.8016C75.414 42.7514 75.4296 42.686 75.4793 42.6558L77.2133 41.5987C77.2631 41.5681 77.328 41.5842 77.358 41.6344C77.3879 41.6845 77.3723 41.7499 77.3225 41.7801L75.5885 42.8372C75.5716 42.8479 75.5527 42.853 75.5341 42.853ZM79.0026 40.7382C78.9668 40.7382 78.9322 40.72 78.9124 40.6868C78.8825 40.6367 78.8981 40.5713 78.9478 40.5411L80.6818 39.4839C80.7316 39.4538 80.7965 39.4695 80.8265 39.5196C80.8564 39.5698 80.8408 39.6352 80.791 39.6654L79.057 40.7225C79.0401 40.7331 79.0212 40.7382 79.0026 40.7382ZM82.4711 38.6235C82.4353 38.6235 82.4007 38.6053 82.3809 38.5721C82.351 38.522 82.3666 38.4565 82.4163 38.4264L84.1503 37.3692C84.2001 37.3391 84.265 37.3548 84.2949 37.4049C84.3249 37.4551 84.3093 37.5205 84.2595 37.5507L82.5255 38.6078C82.5082 38.6184 82.4897 38.6235 82.4711 38.6235ZM85.9392 36.5088C85.9033 36.5088 85.8688 36.4905 85.849 36.4574C85.819 36.4072 85.8346 36.3418 85.8844 36.3116L87.6184 35.2545C87.6682 35.2243 87.7331 35.2401 87.763 35.2902C87.7929 35.3403 87.7773 35.4058 87.7276 35.4359L85.9936 36.4931C85.9767 36.5037 85.9577 36.5088 85.9392 36.5088ZM89.4077 34.3941C89.3718 34.3941 89.3373 34.3758 89.3175 34.3427C89.2875 34.2925 89.3031 34.2271 89.3529 34.1969L91.0869 33.1398C91.1366 33.1096 91.2016 33.1253 91.2315 33.1755C91.2614 33.2256 91.2458 33.291 91.1961 33.3212L89.4621 34.3784C89.4452 34.3894 89.4262 34.3941 89.4077 34.3941ZM92.8762 32.2794C92.8403 32.2794 92.8058 32.2611 92.7859 32.2279C92.756 32.1778 92.7716 32.1124 92.8214 32.0822L94.5554 31.0251C94.6051 30.9949 94.6701 31.0106 94.7 31.0607C94.7299 31.1109 94.7143 31.1763 94.6646 31.2065L92.9305 32.2636C92.9133 32.2747 92.8947 32.2794 92.8762 32.2794ZM96.3442 30.1646C96.3084 30.1646 96.2738 30.1464 96.254 30.1132C96.2241 30.0631 96.2397 29.9976 96.2894 29.9675L98.0235 28.9103C98.0732 28.8802 98.1381 28.8959 98.1681 28.946C98.198 28.9962 98.1824 29.0616 98.1327 29.0918L96.3986 30.1489C96.3818 30.16 96.3628 30.1646 96.3442 30.1646ZM99.8127 28.0503C99.7769 28.0503 99.7423 28.0321 99.7225 27.9989C99.6926 27.9488 99.7082 27.8833 99.7579 27.8532L101.492 26.796C101.542 26.7659 101.607 26.7816 101.637 26.8321C101.666 26.8823 101.651 26.9477 101.601 26.9779L99.8671 28.035C99.8502 28.0452 99.8313 28.0503 99.8127 28.0503ZM103.281 25.9356C103.245 25.9356 103.211 25.9173 103.191 25.8842C103.161 25.8341 103.177 25.7686 103.226 25.7385L104.96 24.6813C105.01 24.6511 105.075 24.6669 105.105 24.7174C105.135 24.7676 105.119 24.833 105.07 24.8632L103.336 25.9203C103.318 25.9305 103.3 25.9356 103.281 25.9356Z" fill="#222222"/>
<path d="M72.8984 44.4595C72.8625 44.4595 72.828 44.4413 72.8082 44.4081C72.7782 44.358 72.7938 44.2926 72.8436 44.2624L73.7454 43.7126C73.7951 43.6824 73.86 43.6981 73.89 43.7483C73.9199 43.7984 73.9043 43.8638 73.8546 43.894L72.9528 44.4438C72.9359 44.4549 72.9169 44.4595 72.8984 44.4595Z" fill="#222222"/>
<path d="M114.582 55.7951C115.001 54.0972 113.974 52.3789 112.289 51.9572C110.605 51.5354 108.9 52.5698 108.481 54.2676C108.063 55.9654 109.089 57.6837 110.774 58.1055C112.459 58.5273 114.163 57.4929 114.582 55.7951Z" fill="#F37168"/>
<path d="M111.497 53.9158C111.497 53.9158 110.4 52.9402 109.623 53.8775C108.556 55.1641 111.497 56.8004 111.497 56.8004C111.497 56.8004 114.49 55.1114 113.443 53.81C112.652 52.8259 111.497 53.9158 111.497 53.9158Z" fill="white"/>
<path d="M47.2305 45.8544C47.2305 46.8959 46.3928 47.7397 45.3599 47.7397C44.3266 47.7397 43.4893 46.8955 43.4893 45.8544C43.4893 44.813 44.327 43.9688 45.3599 43.9688C46.3928 43.9688 47.2305 44.813 47.2305 45.8544Z" fill="#F37168"/>
<path d="M45.3412 45.1927C45.3412 45.1927 44.6877 44.6119 44.2256 45.1698C43.5907 45.9354 45.3412 46.9097 45.3412 46.9097C45.3412 46.9097 47.1233 45.9044 46.4997 45.1298C46.0284 44.5439 45.3412 45.1927 45.3412 45.1927Z" fill="white"/>
<path d="M95.5218 3.03439C95.5218 4.27043 94.5276 5.27191 93.3012 5.27191C92.0752 5.27191 91.0811 4.27 91.0811 3.03439C91.0811 1.79836 92.0752 0.796875 93.3012 0.796875C94.5276 0.796875 95.5218 1.79879 95.5218 3.03439Z" fill="#F37168"/>
<path d="M93.2798 2.24633C93.2798 2.24633 92.5045 1.55714 91.9556 2.21913C91.2022 3.12799 93.2798 4.28414 93.2798 4.28414C93.2798 4.28414 95.3946 3.09103 94.6547 2.17154C94.0956 1.47641 93.2798 2.24633 93.2798 2.24633Z" fill="white"/>
<path d="M118.188 43.1281C118.188 44.3642 117.194 45.3661 115.968 45.3661C114.742 45.3661 113.748 44.3642 113.748 43.1281C113.748 41.8925 114.742 40.8906 115.968 40.8906C117.194 40.8906 118.188 41.8921 118.188 43.1281Z" fill="#F37168"/>
<path d="M115.947 42.3401C115.947 42.3401 115.172 41.6509 114.623 42.3129C113.869 43.2217 115.947 44.3779 115.947 44.3779C115.947 44.3779 118.062 43.1848 117.322 42.2653C116.762 41.5702 115.947 42.3401 115.947 42.3401Z" fill="white"/>
<path d="M61.3552 29.517C62.308 28.5568 62.308 26.9999 61.3552 26.0396C60.4024 25.0794 58.8577 25.0794 57.9049 26.0396C56.9521 26.9999 56.9521 28.5568 57.9049 29.517C58.8577 30.4773 60.4024 30.4773 61.3552 29.517Z" fill="#3E6BAB"/>
<path d="M59.5762 26.158C59.8924 26.1142 60.1651 26.9058 60.1436 27.1586C60.1217 27.4114 60.7326 27.1255 61.0273 27.3456C61.322 27.5653 61.2347 28.7087 61.0273 28.786C60.8199 28.8629 59.9838 28.8739 59.7149 28.7312C59.4455 28.5884 59.2637 28.6148 59.2637 28.6148L59.125 27.4187C59.125 27.4187 59.2928 27.3677 59.4783 27.2028C59.6634 27.0375 59.5762 26.158 59.5762 26.158ZM58.1689 28.9615C58.2452 29.0273 59.1069 29.2364 59.1508 28.7966C59.1942 28.3568 58.9762 27.4225 58.9762 27.4225C58.9762 27.4225 58.3767 27.3919 58.1689 27.499C58.0892 27.5402 58.0925 28.8956 58.1689 28.9615Z" fill="white"/>
<path d="M79.0138 63.4708C79.5728 61.8147 78.6937 60.0154 77.0504 59.4521C75.4071 58.8888 73.6218 59.7747 73.0628 61.4309C72.5039 63.0871 73.383 64.8863 75.0263 65.4497C76.6696 66.013 78.4549 65.127 79.0138 63.4708Z" fill="#C1C765"/>
<path d="M74.5419 64.1297C74.0777 61.3309 76.2034 61.262 76.2034 61.262V60.4326L77.8877 62.1301L76.2649 63.7655V62.8167C76.2649 62.8167 75.4492 62.8511 75.1405 63.3003C74.8324 63.7494 74.5419 64.1297 74.5419 64.1297Z" fill="white"/>
<path d="M62.7963 6.30214C63.262 6.30214 63.6395 5.92167 63.6395 5.45234C63.6395 4.98301 63.262 4.60254 62.7963 4.60254C62.3306 4.60254 61.9531 4.98301 61.9531 5.45234C61.9531 5.92167 62.3306 6.30214 62.7963 6.30214Z" fill="#F795FF"/>
<path d="M62.7963 10.1273C63.262 10.1273 63.6395 9.74686 63.6395 9.27753C63.6395 8.8082 63.262 8.42773 62.7963 8.42773C62.3306 8.42773 61.9531 8.8082 61.9531 9.27753C61.9531 9.74686 62.3306 10.1273 62.7963 10.1273Z" fill="#F795FF"/>
<path d="M60.4149 7.75496C60.5931 7.32134 60.3888 6.82422 59.9586 6.64461C59.5283 6.465 59.0351 6.67091 58.8569 7.10452C58.6787 7.53813 58.883 8.03525 59.3132 8.21487C59.7435 8.39448 60.2367 8.18857 60.4149 7.75496Z" fill="#F795FF"/>
<path d="M62.797 9.44625C62.7684 9.44625 62.7393 9.43902 62.7127 9.4233L59.5507 7.57627C59.4993 7.54652 59.4677 7.49129 59.4668 7.4318C59.466 7.37189 59.4963 7.31623 59.5465 7.28479L62.7085 5.30773C62.7877 5.25844 62.8915 5.28266 62.9408 5.36254C62.9897 5.44242 62.9657 5.54695 62.8864 5.59666L59.9635 7.42415L62.8822 9.12927C62.9627 9.17644 62.9901 9.28054 62.9437 9.36169C62.9117 9.41608 62.8552 9.44625 62.797 9.44625Z" fill="#F795FF"/>
<path d="M121.215 17.4136C121.215 19.2192 120.863 20.9412 120.222 22.5132C118.674 26.3176 115.444 29.251 111.463 30.3672C111.191 30.4451 110.914 30.5143 110.633 30.572C109.743 30.7624 108.819 30.8605 107.875 30.8605C107.403 30.8605 106.936 30.8374 106.475 30.7884C106.175 30.7566 105.877 30.7134 105.583 30.6614C105.193 30.5922 104.813 30.5086 104.435 30.4076C103.926 30.2721 103.425 30.1048 102.941 29.9086C101.823 29.4616 100.778 28.8645 99.8309 28.1434C98.3228 26.9954 97.0666 25.5302 96.1566 23.8486C95.1207 21.9363 94.5312 19.7442 94.5312 17.4136C94.5312 9.98643 100.506 3.9668 107.875 3.9668C115.243 3.9668 121.215 9.98643 121.215 17.4136Z" fill="#DCD6ED"/>
<path d="M111.463 30.3712C110.321 30.6942 109.117 30.8644 107.875 30.8644C107.094 30.8644 106.327 30.7981 105.583 30.6654C105.193 30.5962 104.813 30.5125 104.435 30.4116C103.926 30.276 103.425 30.1087 102.941 29.9126L103.889 20.299L109.054 19.0703L111.108 19.6847L111.463 30.3712Z" fill="#F7734F"/>
<path d="M104.67 10.5478C104.67 10.5478 102.71 8.11341 103.239 7.79036C103.769 7.4702 104.269 7.96054 104.269 7.96054C104.269 7.96054 108.264 7.32598 109.721 7.74421C111.177 8.16244 112.153 10.5651 112.153 10.5651C112.153 10.5651 112.883 10.4959 113.192 11.5025C113.501 12.5063 111.352 17.45 109.975 17.1905C108.607 16.9309 104.67 10.5478 104.67 10.5478Z" fill="black"/>
<path d="M109.965 16.4004L110.034 19.7635C110.034 19.7635 109.453 20.7413 107.504 20.9432C106.053 21.0932 105.535 20.7702 105.535 20.7702L105.704 19.0626L105.87 17.3984L109.378 16.5446L109.965 16.4004Z" fill="#FCA397"/>
<path d="M109.377 16.541C109.372 16.6333 109.337 16.7429 109.286 16.8669C108.573 18.5629 106.539 18.9639 105.703 19.0591L105.869 17.3948L109.377 16.541Z" fill="black"/>
<path d="M104.971 9.75212C104.971 9.75212 103.306 14.0036 104.041 16.3313C104.779 18.659 106.891 18.2119 108.147 17.7129C109.404 17.2139 109.964 16.4063 109.964 16.4063C109.964 16.4063 111.166 16.7697 111.922 15.6275C112.677 14.4853 112.142 13.2249 111.452 12.9566C110.766 12.6855 109.979 13.2076 109.979 13.2076L110.568 11.9673C110.565 11.9673 107.687 5.88132 104.971 9.75212Z" fill="#FCA397"/>
<path d="M104.971 9.74155C104.971 9.74155 106.27 9.21371 106.822 9.67521C107.377 10.1367 108.03 14.0335 109.976 13.197C111.921 12.3605 110.914 9.86269 110.914 9.86269C110.914 9.86269 106.021 5.63712 104.971 9.74155Z" fill="black"/>
<path d="M105.702 19.0557C105.702 19.0557 105.093 24.7263 104.435 30.4085C100.866 29.4537 97.8875 27.0453 96.1562 23.8495C97.215 22.7303 98.9091 20.8584 100.371 20.2613C102.924 19.2172 105.702 19.0557 105.702 19.0557Z" fill="#507849"/>
<path d="M107.085 21.1086C106.224 21.1086 105.551 20.9182 105.494 20.9009C105.419 20.8778 105.374 20.7999 105.397 20.722C105.419 20.6442 105.5 20.6009 105.574 20.624C105.603 20.6326 108.43 21.4287 109.924 19.6635C109.975 19.6029 110.067 19.5972 110.124 19.6462C110.184 19.6981 110.193 19.7904 110.141 19.851C109.283 20.8663 108.061 21.1086 107.085 21.1086Z" fill="white"/>
<path d="M120.222 22.5138C118.674 26.3182 115.443 29.2516 111.463 30.3679C111.191 30.4457 110.913 30.515 110.633 30.5727C110.226 26.1394 110.012 18.3574 110.012 18.3574C110.012 18.3574 115.792 18.0402 120.222 22.5138Z" fill="#507849"/>
<path d="M110.127 15.0704C110.093 15.0704 110.055 15.056 110.027 15.03C109.969 14.9752 109.969 14.8829 110.024 14.8252L111.074 13.7292C111.128 13.6715 111.22 13.6715 111.277 13.7263C111.334 13.7811 111.334 13.8734 111.28 13.9311L110.23 15.0271C110.201 15.056 110.164 15.0704 110.127 15.0704Z" fill="black"/>
<path d="M111.546 14.8041C111.535 14.8041 111.523 14.8012 111.509 14.7983L110.602 14.5589C110.525 14.5387 110.479 14.4609 110.499 14.383C110.519 14.3051 110.596 14.259 110.673 14.2792L111.581 14.5186C111.658 14.5387 111.704 14.6166 111.684 14.6945C111.669 14.7608 111.612 14.8041 111.546 14.8041Z" fill="black"/>
<path d="M104.695 11.6515C104.664 11.6515 104.635 11.6429 104.609 11.6227C104.546 11.5736 104.535 11.4871 104.581 11.4237C104.592 11.4092 104.867 11.0487 105.554 11.1496C105.631 11.1612 105.685 11.2333 105.674 11.3141C105.662 11.3919 105.588 11.4467 105.511 11.4352C105.001 11.3602 104.815 11.5881 104.807 11.5967C104.781 11.6313 104.738 11.6515 104.695 11.6515Z" fill="black"/>
<path d="M107.837 11.6917C107.806 11.6917 107.771 11.6802 107.745 11.6571C107.376 11.3485 106.953 11.461 106.95 11.4638C106.873 11.484 106.795 11.4408 106.772 11.3629C106.752 11.285 106.795 11.2071 106.873 11.1841C106.896 11.1783 107.448 11.0283 107.929 11.435C107.989 11.4869 107.997 11.5763 107.946 11.6369C107.92 11.6744 107.877 11.6917 107.837 11.6917Z" fill="black"/>
<path d="M104.833 13.329C104.741 13.3232 104.684 13.2511 104.69 13.1732L104.753 12.3916C104.759 12.3108 104.824 12.256 104.907 12.2589C104.985 12.2647 105.045 12.3339 105.039 12.4147L104.976 13.1963C104.97 13.2713 104.907 13.329 104.833 13.329Z" fill="black"/>
<path d="M107.131 13.4227C107.039 13.417 106.982 13.3449 106.988 13.267L107.051 12.4853C107.056 12.4074 107.122 12.3498 107.205 12.3526C107.282 12.3584 107.343 12.4276 107.337 12.5084L107.274 13.2901C107.268 13.365 107.205 13.4227 107.131 13.4227Z" fill="black"/>
<path d="M105.391 15.196C105.337 15.196 105.285 15.1643 105.26 15.1095C104.773 14.0105 105.503 13.125 105.534 13.0875C105.586 13.027 105.674 13.0183 105.735 13.0702C105.795 13.1221 105.803 13.2116 105.752 13.2721C105.726 13.3039 105.108 14.0596 105.52 14.9883C105.551 15.0604 105.52 15.147 105.448 15.1787C105.431 15.1931 105.411 15.196 105.391 15.196Z" fill="black"/>
<path d="M106.301 15.8968C106.221 15.8968 106.158 15.8333 106.158 15.7525C106.158 15.6718 106.221 15.6083 106.301 15.6083C106.321 15.6083 106.808 15.5997 106.982 15.1814C107.014 15.1064 107.097 15.0718 107.168 15.1036C107.24 15.1353 107.274 15.2189 107.246 15.291C106.994 15.891 106.33 15.8968 106.301 15.8968Z" fill="black"/>
<path d="M144.137 28.724C144.603 28.724 144.98 28.3435 144.98 27.8742C144.98 27.4049 144.603 27.0244 144.137 27.0244C143.671 27.0244 143.294 27.4049 143.294 27.8742C143.294 28.3435 143.671 28.724 144.137 28.724Z" fill="#F795FF"/>
<path d="M144.137 32.5492C144.603 32.5492 144.98 32.1687 144.98 31.6994C144.98 31.2301 144.603 30.8496 144.137 30.8496C143.671 30.8496 143.294 31.2301 143.294 31.6994C143.294 32.1687 143.671 32.5492 144.137 32.5492Z" fill="#F795FF"/>
<path d="M140.975 30.7025C141.441 30.7025 141.818 30.3221 141.818 29.8527C141.818 29.3834 141.441 29.0029 140.975 29.0029C140.509 29.0029 140.132 29.3834 140.132 29.8527C140.132 30.3221 140.509 30.7025 140.975 30.7025Z" fill="#F795FF"/>
<path d="M144.137 31.8681C144.108 31.8681 144.079 31.8609 144.053 31.8452L140.891 29.9981C140.839 29.968 140.808 29.9132 140.807 29.8537C140.806 29.7942 140.836 29.7381 140.886 29.7067L144.048 27.7296C144.128 27.6803 144.231 27.7045 144.281 27.7844C144.33 27.8643 144.305 27.9688 144.226 28.0185L141.303 29.846L144.222 31.5511C144.303 31.5983 144.33 31.7024 144.284 31.7836C144.252 31.838 144.195 31.8681 144.137 31.8681Z" fill="#F795FF"/>
<path d="M125.517 5.11523H124.186C123.905 5.11523 123.677 5.3451 123.677 5.62851V6.73368C123.677 7.01708 123.905 7.24695 124.186 7.24695H125.517C125.799 7.24695 126.027 7.01708 126.027 6.73368V5.62851C126.027 5.34468 125.799 5.11523 125.517 5.11523Z" fill="#957AE1"/>
<path d="M129.79 5.11523H128.459C128.177 5.11523 127.949 5.3451 127.949 5.62851V6.73368C127.949 7.01708 128.177 7.24695 128.459 7.24695H129.79C130.071 7.24695 130.299 7.01708 130.299 6.73368V5.62851C130.299 5.34468 130.071 5.11523 129.79 5.11523Z" fill="#957AE1"/>
<path d="M134.061 5.11523H132.73C132.449 5.11523 132.221 5.3451 132.221 5.62851V6.73368C132.221 7.01708 132.449 7.24695 132.73 7.24695H134.061C134.343 7.24695 134.571 7.01708 134.571 6.73368V5.62851C134.571 5.34468 134.343 5.11523 134.061 5.11523Z" fill="#957AE1"/>
<path d="M142.7 46.1116C142.7 47.8615 142.235 49.5023 141.421 50.915C141.39 50.9684 141.357 51.0219 141.325 51.0754C141.249 51.2029 141.17 51.3303 141.086 51.4537C141.051 51.5051 141.017 51.5565 140.978 51.6079C139.738 53.3989 137.902 54.7355 135.764 55.3421C135.719 55.3544 135.672 55.3667 135.627 55.3791C134.85 55.5868 134.032 55.6978 133.189 55.6978C129.903 55.6978 127.004 54.0179 125.301 51.4619C125.139 51.2255 124.99 50.9787 124.854 50.7279C124.105 49.3584 123.679 47.7854 123.679 46.1116C123.679 40.8168 127.936 36.5254 133.189 36.5254C138.442 36.5254 142.7 40.8168 142.7 46.1116Z" fill="#EDDDD6"/>
<path d="M129.113 44.8074C129.113 44.8074 128.095 39.3583 132.051 38.361C136.006 37.3638 136.245 43.0225 136.245 43.0225C136.245 43.0225 140.549 43.8492 140.578 48.0686C140.611 53.3408 135.553 52.4545 135.553 52.4545L130.763 50.4888C130.765 50.4867 125.967 47.8547 129.113 44.8074Z" fill="black"/>
<path d="M140.978 51.6068C139.738 53.3978 137.902 54.7343 135.764 55.3409C135.719 55.3533 135.672 55.3656 135.627 55.3779C134.85 55.5856 134.032 55.6966 133.189 55.6966C129.903 55.6966 127.004 54.0167 125.301 51.4608C126.578 49.7006 128.179 48.3682 129.269 47.8953C130.88 47.1961 133.436 46.7273 135.797 47.4079C135.803 47.41 135.811 47.41 135.819 47.412C136.529 47.6177 137.219 47.9261 137.861 48.3641C139.25 49.31 140.262 50.408 140.978 51.6068Z" fill="#F7734F"/>
<path d="M131.32 45.7495V45.807L131.369 46.9051L131.404 47.7666C131.404 47.7666 131.331 47.9661 132.326 47.9024C133.658 47.8098 134.089 47.2341 134.089 47.2341L134.146 45.2148L133.742 45.293L131.32 45.7495Z" fill="#FCA397"/>
<path d="M131.319 45.8205L131.368 46.9185C132.015 46.8383 133.194 46.5566 133.671 45.5306C133.708 45.4463 133.733 45.3722 133.741 45.3105L131.325 45.8061L131.319 45.8205Z" fill="black"/>
<path d="M130.726 40.5319C130.726 40.5319 129.485 43.3901 129.932 44.9981C130.379 46.604 131.831 46.3511 132.698 46.0406C133.567 45.7301 133.969 45.1934 133.969 45.1934C133.969 45.1934 134.781 45.471 135.324 44.7102C135.866 43.9494 135.532 43.0755 135.069 42.8761C134.606 42.6766 134.055 43.0138 134.055 43.0138L134.487 42.1831C134.489 42.1811 132.672 37.9575 130.726 40.5319Z" fill="#FCA397"/>
<path d="M131.283 40.1364C131.283 40.1364 131.193 41.658 132.711 42.3489C134.229 43.0398 135.245 42.902 135.245 42.902L135.147 40.9177L133.246 38.8389L131.546 39.3838L131.283 40.1364Z" fill="black"/>
<path d="M134.128 42.6025L134.134 43.4682L134.899 42.7074L134.128 42.6025Z" fill="black"/>
<path d="M141.325 51.0748C141.249 51.2023 141.17 51.3298 141.086 51.4531C141.051 51.5045 141.017 51.556 140.978 51.6074C139.738 53.3984 137.902 54.7349 135.764 55.3415C135.719 55.3538 135.672 55.3662 135.627 55.3785L135.758 47.4023C135.758 47.4023 135.772 47.4044 135.796 47.4085C135.802 47.4106 135.811 47.4106 135.819 47.4126C136.288 47.4928 139.362 48.1056 141.013 50.5443C141.125 50.7067 141.227 50.8856 141.325 51.0748Z" fill="#F7734F"/>
<path d="M132.038 48.0246C131.439 48.0246 130.99 47.9156 130.953 47.9074C130.898 47.893 130.865 47.8375 130.878 47.784C130.892 47.7285 130.947 47.6956 131 47.7079C131.018 47.712 132.816 48.1439 134.05 47.2371C134.095 47.2042 134.16 47.2144 134.193 47.2597C134.225 47.3049 134.215 47.3707 134.17 47.4036C133.497 47.9012 132.681 48.0246 132.038 48.0246Z" fill="#7772D3"/>
<path d="M130.547 41.6028C130.504 41.6028 130.463 41.574 130.449 41.5308C130.433 41.4774 130.461 41.4198 130.516 41.4013L131.081 41.2224C131.134 41.2059 131.191 41.2347 131.21 41.2902C131.226 41.3437 131.198 41.4013 131.143 41.4198L130.577 41.5987C130.567 41.6007 130.557 41.6028 130.547 41.6028Z" fill="black"/>
<path d="M134.289 44.3716C134.262 44.3716 134.234 44.3614 134.213 44.3387C134.175 44.2976 134.179 44.2318 134.22 44.1927L135.095 43.3826C135.136 43.3435 135.201 43.3476 135.24 43.3887C135.278 43.4299 135.274 43.4957 135.233 43.5347L134.358 44.3449C134.338 44.3634 134.313 44.3716 134.289 44.3716Z" fill="black"/>
<path d="M135.174 44.2633C135.16 44.2633 135.146 44.2612 135.133 44.255L134.611 44.0247C134.56 44.0021 134.536 43.9404 134.558 43.889C134.581 43.8376 134.642 43.8129 134.693 43.8356L135.215 44.0659C135.266 44.0885 135.291 44.1502 135.268 44.2016C135.252 44.2406 135.213 44.2633 135.174 44.2633Z" fill="black"/>
<path d="M130.721 43.0467C130.715 43.0467 130.707 43.0467 130.701 43.0447C130.646 43.0323 130.611 42.9789 130.621 42.9233L130.725 42.4175L130.521 42.179C130.484 42.1358 130.488 42.0721 130.531 42.033C130.574 41.996 130.637 42.0001 130.676 42.0433L130.915 42.3209C130.935 42.3455 130.943 42.3784 130.937 42.4093L130.823 42.9645C130.811 43.0138 130.77 43.0467 130.721 43.0467Z" fill="black"/>
<path d="M132.432 43.1317C132.426 43.1317 132.418 43.1317 132.412 43.1296C132.356 43.1173 132.322 43.0638 132.332 43.0083L132.436 42.5025L132.232 42.2639C132.195 42.2208 132.199 42.157 132.242 42.1179C132.285 42.0809 132.348 42.085 132.387 42.1282L132.626 42.4058C132.646 42.4305 132.654 42.4634 132.648 42.4942L132.534 43.0494C132.522 43.0967 132.479 43.1317 132.432 43.1317Z" fill="black"/>
<path d="M131.06 44.2982C131.013 44.2982 130.97 44.2653 130.96 44.216C130.77 43.301 131.208 42.8424 131.227 42.8219C131.266 42.7807 131.331 42.7807 131.372 42.8219C131.412 42.8609 131.412 42.9267 131.374 42.9679C131.357 42.9864 130.994 43.377 131.16 44.1749C131.172 44.2304 131.135 44.2859 131.08 44.2962C131.074 44.2982 131.068 44.2982 131.06 44.2982Z" fill="black"/>
<path d="M131.982 45.1753C131.921 45.1753 131.776 45.1465 131.474 44.8092C131.439 44.7702 131.427 44.7167 131.439 44.6674C131.453 44.616 131.494 44.5748 131.547 44.5584C132.276 44.3384 132.374 44.4144 132.416 44.4453C132.453 44.472 132.508 44.5399 132.467 44.6756C132.412 44.8627 132.18 45.1609 132 45.1732C131.994 45.1752 131.988 45.1753 131.982 45.1753ZM131.684 44.7352C131.847 44.9059 131.963 44.9676 131.988 44.9696C132.006 44.9676 132.074 44.9285 132.157 44.8216C132.229 44.7311 132.265 44.6509 132.276 44.6098C132.214 44.616 132.037 44.6324 131.684 44.7352Z" fill="black"/>
<path d="M128.583 51.0286C128.573 51.041 127.598 52.0938 127.783 53.9876C127.724 53.9505 127.669 53.9094 127.612 53.8683C127.596 53.858 127.581 53.8457 127.565 53.8333C127.445 51.9539 128.424 50.9032 128.436 50.8888C128.475 50.8477 128.538 50.8477 128.581 50.8847C128.62 50.9217 128.622 50.9875 128.583 51.0286Z" fill="#7772D3"/>
<path d="M84.4047 42.8025C84.4047 44.193 84.1951 45.5348 83.8013 46.7939C83.2008 48.7182 82.1811 50.4541 80.847 51.8902C80.8187 51.9245 80.7904 51.9559 80.7592 51.9873C80.7195 52.0301 80.6771 52.0729 80.6374 52.1129C78.2411 54.5797 74.8987 56.1129 71.1994 56.1129C70.6272 56.1129 70.0579 56.0758 69.5056 56.0072C69.4999 56.0044 69.4971 56.0044 69.4914 56.0044C68.1318 55.8245 66.8345 55.4391 65.6363 54.8766C65.5372 54.8309 65.438 54.7824 65.3389 54.7339C63.3873 53.7603 61.7104 52.3099 60.4556 50.5369C60.348 50.3827 60.2403 50.2286 60.1384 50.0687C59.8834 49.6804 59.6512 49.2778 59.4416 48.8638C58.5153 47.0452 57.9941 44.9867 57.9941 42.8025C57.9941 35.4507 63.9056 29.4922 71.1994 29.4922C78.4932 29.4922 84.4047 35.4507 84.4047 42.8025Z" fill="#EDD6D6"/>
<path d="M80.8474 51.8909C80.8191 51.9251 80.7908 51.9566 80.7596 51.988C80.72 52.0308 80.6775 52.0736 80.6378 52.1136C78.2415 54.5804 74.8991 56.1135 71.1998 56.1135C70.6276 56.1135 70.0583 56.0764 69.506 56.0079C69.5003 56.005 69.4975 56.005 69.4918 56.005C68.1322 55.8252 66.8349 55.4397 65.6367 54.8773C65.75 50.0551 65.7019 45.8353 65.7019 45.7553C65.7472 45.6554 67.9622 45.0815 70.9109 44.9845C75.5506 44.836 79.4708 47.4741 80.8474 51.8909Z" fill="#507849"/>
<path d="M69.506 56.0057C69.5003 56.0028 69.4975 56.0028 69.4918 56.0028C68.1322 55.8229 66.8349 55.4375 65.6368 54.875C65.5376 54.8294 65.4385 54.7808 65.3393 54.7323C63.3877 53.7587 61.7109 52.3083 60.4561 50.5353C62.9997 47.0207 65.0787 45.9958 65.7019 45.7531C65.8294 45.7017 65.8945 45.6846 65.8945 45.6846L69.506 56.0057Z" fill="#507849"/>
<path d="M71.2502 37.1589C71.2502 37.1589 74.298 37.3045 74.4708 34.3581C74.6549 31.2203 71.7742 30.9177 70.5534 32.1882C69.3326 33.4587 69.5564 34.7463 69.5564 34.7463C69.5564 34.7463 68.7038 33.9726 67.7747 34.9234C67.0921 35.6229 67.4433 36.762 67.4433 36.762C67.4433 36.762 65.8712 36.7021 66.0185 38.0839C66.1658 39.4686 67.1459 40.171 67.1459 40.171L71.2502 37.1589Z" fill="#E56445"/>
<path d="M68.4639 42.5879L68.7811 45.8541C68.7811 45.8541 69.4553 46.7363 71.3672 46.7049C72.7891 46.6821 73.2537 46.3109 73.2537 46.3109L72.8968 44.6778L72.5455 43.0847L69.0502 42.6621L68.4639 42.5879Z" fill="#FCA397"/>
<path d="M69.0498 42.6543C69.0668 42.7428 69.1093 42.8456 69.1744 42.9598C70.0582 44.5187 72.0749 44.6757 72.8964 44.67L72.5451 43.0768L69.0498 42.6543Z" fill="black"/>
<path d="M72.5453 35.5628C72.5453 35.5628 74.6442 39.4885 74.1938 41.8296C73.7435 44.1708 71.6474 43.9824 70.3728 43.6426C69.0981 43.3029 68.4636 42.5862 68.4636 42.5862C68.4636 42.5862 67.3391 43.0773 66.478 42.058C65.6169 41.0388 65.9908 39.754 66.6282 39.4143C67.2655 39.0745 68.0897 39.4885 68.0897 39.4885L67.3788 38.355C67.3759 38.355 69.4749 32.1281 72.5453 35.5628Z" fill="#FCA397"/>
<path d="M68.1255 41.2783C68.1029 41.2783 68.0774 41.2726 68.0547 41.2583L66.7687 40.5074C66.7008 40.4674 66.6781 40.3818 66.7178 40.3132C66.7574 40.2447 66.8424 40.2219 66.9104 40.2619L68.1963 41.0127C68.2643 41.0527 68.287 41.1384 68.2473 41.2069C68.2218 41.2526 68.1737 41.2783 68.1255 41.2783Z" fill="black"/>
<path d="M67.0784 41.39C67.0274 41.39 66.9792 41.3614 66.9537 41.3129C66.9169 41.2444 66.9452 41.1559 67.0132 41.1216L67.6675 40.7761C67.7355 40.739 67.8233 40.7676 67.8573 40.8361C67.8941 40.9046 67.8658 40.9931 67.7978 41.0274L67.1435 41.3728C67.1237 41.3843 67.101 41.39 67.0784 41.39Z" fill="black"/>
<path d="M73.1148 37.1047C73.0865 37.1047 73.061 37.0961 73.0355 37.079C72.6729 36.8335 72.3415 37.0676 72.3274 37.0761C72.2651 37.1218 72.1744 37.1076 72.1291 37.0447C72.0838 36.9819 72.0979 36.8934 72.1603 36.8449C72.1801 36.8306 72.6644 36.4823 73.1941 36.842C73.2593 36.8849 73.2763 36.9734 73.2338 37.039C73.2055 37.0819 73.1601 37.1047 73.1148 37.1047Z" fill="black"/>
<path d="M72.6784 40.8198C72.6699 40.8198 72.6614 40.8198 72.65 40.817C72.5736 40.8027 72.5226 40.7285 72.5367 40.6485C72.7718 39.4294 72.0694 38.6357 72.0637 38.63C72.0099 38.5729 72.0156 38.4815 72.0722 38.4273C72.1289 38.373 72.2195 38.3788 72.2733 38.4359C72.3073 38.473 73.0778 39.3438 72.8172 40.7028C72.8058 40.7742 72.7464 40.8198 72.6784 40.8198Z" fill="black"/>
<path d="M73.1171 39.0309C73.0406 39.0309 72.9783 38.9709 72.9755 38.8938L72.9415 38.1144C72.9387 38.0344 72.9982 37.9688 73.0775 37.9659C73.1568 37.9631 73.2219 38.023 73.2248 38.103L73.2587 38.8824C73.2616 38.9623 73.2021 39.028 73.1228 39.0309C73.12 39.0309 73.1171 39.0309 73.1171 39.0309Z" fill="black"/>
<path d="M70.9902 39.2342C70.9137 39.2342 70.8514 39.1743 70.8485 39.0972L70.8146 38.3178C70.8117 38.2378 70.8712 38.1722 70.9505 38.1693C71.0298 38.1636 71.095 38.2264 71.0978 38.3063L71.1318 39.0858C71.1346 39.1657 71.0751 39.2314 70.9958 39.2342C70.993 39.2342 70.993 39.2342 70.9902 39.2342Z" fill="black"/>
<path d="M72.9754 36.4495C72.9754 36.4495 72.5591 35.8271 71.7518 35.9013C70.9417 35.9756 70.5281 36.5951 70.5281 36.5951C70.5281 36.5951 71.0153 37.9313 69.9871 38.7678C68.9589 39.6044 68.0893 39.4844 68.0893 39.4844L67.2651 39.276L66.5654 38.1597L68.6275 35.4274L71.4572 33.5459L73.1142 34.7879L72.9754 36.4495Z" fill="#E56445"/>
<path d="M72.0067 41.6556C71.7291 41.6556 71.2448 41.5756 70.9474 41.0703C70.9077 41.0018 70.9304 40.9161 70.9955 40.8733C71.0635 40.8333 71.1485 40.8562 71.191 40.9218C71.5167 41.4729 72.1427 41.3615 72.1682 41.3558C72.2447 41.3415 72.3183 41.3929 72.3325 41.47C72.3466 41.5471 72.2985 41.6213 72.222 41.6356C72.2107 41.6413 72.1285 41.6556 72.0067 41.6556Z" fill="black"/>
<path d="M73.9703 40.2073C73.2083 40.2073 72.5908 39.5649 72.5908 38.7741C72.5908 37.9832 73.2111 37.3408 73.9703 37.3408C74.7322 37.3408 75.3497 37.9832 75.3497 38.7741C75.3497 39.5649 74.7294 40.2073 73.9703 40.2073ZM73.9703 37.6263C73.3641 37.6263 72.8741 38.1402 72.8741 38.7741C72.8741 39.4079 73.3669 39.9218 73.9703 39.9218C74.5764 39.9218 75.0665 39.4079 75.0665 38.7741C75.0665 38.1402 74.5736 37.6263 73.9703 37.6263Z" fill="white"/>
<path d="M70.6895 40.5247C69.9049 40.5247 69.2676 39.8823 69.2676 39.0914C69.2676 38.3006 69.9049 37.6582 70.6895 37.6582C71.4741 37.6582 72.1114 38.3006 72.1114 39.0914C72.1114 39.8823 71.4741 40.5247 70.6895 40.5247ZM70.6895 37.9437C70.0607 37.9437 69.5508 38.4576 69.5508 39.0914C69.5508 39.7253 70.0607 40.2392 70.6895 40.2392C71.3183 40.2392 71.8282 39.7253 71.8282 39.0914C71.8282 38.4576 71.3183 37.9437 70.6895 37.9437Z" fill="white"/>
<path d="M71.8344 39.0845C71.7608 39.0845 71.6984 39.0274 71.6928 38.9532C71.6871 38.8761 71.7438 38.8047 71.8231 38.799L72.8258 38.7162C72.9051 38.7105 72.9731 38.7676 72.9787 38.8475C72.9844 38.9246 72.9278 38.996 72.8484 39.0017L71.8457 39.0817C71.8401 39.0817 71.8372 39.0845 71.8344 39.0845Z" fill="white"/>
<path d="M67.2627 39.4258C67.2287 39.4258 67.1919 39.4116 67.1664 39.3859C67.1097 39.3316 67.1069 39.2403 67.1607 39.1832C67.9227 38.3666 69.4098 39.1204 69.4749 39.1546C69.5457 39.1917 69.5712 39.2774 69.5372 39.3459C69.5032 39.4173 69.4154 39.443 69.3474 39.4087C69.3333 39.403 67.985 38.7206 67.3703 39.3802C67.3392 39.4116 67.3024 39.4258 67.2627 39.4258Z" fill="white"/>
<path d="M71.4037 46.728C70.4888 46.728 69.4266 46.4939 68.3927 45.7287C68.3304 45.6831 68.3162 45.5917 68.3615 45.5289C68.4068 45.4661 68.4975 45.4518 68.5598 45.4975C71.0609 47.3504 73.7603 45.9058 73.7858 45.8915C73.8538 45.8544 73.9416 45.8801 73.9784 45.9486C74.0153 46.0171 73.9898 46.1056 73.9218 46.1427C73.9076 46.1541 72.8369 46.728 71.4037 46.728Z" fill="white"/>
<path d="M69.9869 37.5631C69.9614 37.5631 69.9359 37.5573 69.9104 37.5402C69.8453 37.4974 69.8255 37.4117 69.8651 37.3432C70.2532 36.7208 70.8565 36.7665 71.1199 36.8807C71.1907 36.9121 71.2247 36.9949 71.1964 37.0663C71.1652 37.1405 71.0831 37.1719 71.0123 37.1434C70.9868 37.1319 70.4599 36.9264 70.1059 37.4945C70.0804 37.5402 70.0322 37.5631 69.9869 37.5631Z" fill="black"/>
<path d="M86.3066 34.4761H73.2475C72.8311 34.4761 72.4948 34.1329 72.5001 33.7132L72.569 28.2453C72.5743 27.8256 72.9191 27.4824 73.3355 27.4824H86.3946C86.811 27.4824 87.1473 27.8256 87.142 28.2453L87.0736 33.7132C87.0683 34.1323 86.723 34.4761 86.3066 34.4761Z" fill="#D1ABA2"/>
<path d="M85.6651 33.9043H73.9046C73.5439 33.9043 73.2526 33.6071 73.2569 33.2435L73.3136 28.7155C73.3184 28.3519 73.6171 28.0547 73.9778 28.0547H85.7383C86.0991 28.0547 86.3903 28.3519 86.386 28.7155L86.3293 33.2435C86.3245 33.6071 86.0259 33.9043 85.6651 33.9043Z" fill="white"/>
<path d="M78.3195 34.1572C78.241 37.0398 76.8841 37.9299 76.8841 37.9299C76.8841 37.9299 77.4936 36.2769 77.0411 35.4713C76.5886 34.6662 75.8359 34.3267 75.8359 34.3267L78.3195 34.1572Z" fill="#D1ABA2"/>
<path d="M85.1317 29.6644H77.5505C77.4264 29.6644 77.3256 29.5618 77.3272 29.4367V29.426C77.3288 29.3009 77.4317 29.1982 77.5563 29.1982H85.1375C85.2616 29.1982 85.3624 29.3009 85.3608 29.426V29.4367C85.3592 29.5623 85.2563 29.6644 85.1317 29.6644Z" fill="#683E34"/>
<path d="M85.119 30.639H77.5378C77.4137 30.639 77.3129 30.5364 77.3145 30.4113V30.4006C77.3161 30.2755 77.419 30.1729 77.5436 30.1729H85.1248C85.2489 30.1729 85.3497 30.2755 85.3481 30.4006V30.4113C85.3465 30.5364 85.2436 30.639 85.119 30.639Z" fill="#683E34"/>
<path d="M85.1053 31.7425H77.5241C77.4 31.7425 77.2992 31.6399 77.3008 31.5148V31.5041C77.3024 31.379 77.4053 31.2764 77.53 31.2764H85.1111C85.2353 31.2764 85.336 31.379 85.3344 31.5041V31.5148C85.3329 31.6399 85.23 31.7425 85.1053 31.7425Z" fill="#683E34"/>
<path d="M76.6418 30.4502C76.6312 31.2815 76.0769 31.9551 75.4032 31.9551C74.7296 31.9551 74.1922 31.2815 74.2023 30.4502C74.2129 29.6189 74.7672 28.9453 75.4409 28.9453C76.1146 28.9458 76.6524 29.6194 76.6418 30.4502Z" fill="#683E34"/>
<path d="M102.019 10.9916C102.271 9.26071 101.082 7.65191 99.3649 7.39824C97.6475 7.14457 96.0512 8.3421 95.7995 10.073C95.5478 11.8039 96.736 13.4127 98.4535 13.6663C100.171 13.92 101.767 12.7225 102.019 10.9916Z" fill="#F37168"/>
<path d="M98.8749 9.41478C98.8749 9.41478 97.7775 8.43922 97.0005 9.37654C95.9342 10.6631 98.8749 12.2994 98.8749 12.2994C98.8749 12.2994 101.868 10.6105 100.821 9.30898C100.029 8.32492 98.8749 9.41478 98.8749 9.41478Z" fill="white"/>
<path d="M42.1206 62.0448C42.1206 65.2587 40.9961 68.2057 39.1228 70.5129C38.7812 70.9347 38.4139 71.3336 38.0239 71.7095C37.2467 72.4613 36.3813 73.1156 35.4389 73.6579C33.4973 74.7799 31.2483 75.4227 28.8484 75.4227C28.0512 75.4227 27.2712 75.3509 26.5139 75.2161C25.9132 75.1099 25.3267 74.9607 24.7574 74.7713C23.0037 74.2031 21.4094 73.2734 20.06 72.0682C17.307 69.6204 15.5732 66.0364 15.5732 62.0448C15.5732 54.6557 21.5176 48.6641 28.8484 48.6641C36.1763 48.6641 42.1206 54.6557 42.1206 62.0448Z" fill="#EDD6EC"/>
<path d="M26.8266 54.8797C26.8266 54.8797 24.2701 53.135 21.2467 54.8252C18.2233 56.5182 19.1713 59.6575 19.1713 59.6575C19.1713 59.6575 16.8027 62.6533 17.9101 65.6291C19.0176 68.6048 23.9427 69.4513 26.1291 66.0939C28.3155 62.7366 24.8423 59.7465 24.8423 59.7465C24.8423 59.7465 27.6608 59.7321 26.8266 54.8797Z" fill="#E56445"/>
<path d="M39.1224 70.5088C38.7807 70.9306 38.4135 71.3295 38.0235 71.7054C37.2463 72.4573 36.3808 73.1115 35.4385 73.6539C35.4641 69.7398 36.9872 67.1084 36.9872 67.1084C37.0925 67.3035 37.884 68.744 39.1224 70.5088Z" fill="#FCA397"/>
<path d="M33.8561 57.5186C33.8561 57.5186 34.9493 54.1153 34.7984 53.2544C34.6504 52.3935 31.0661 51.283 28.2221 52.6202C25.378 53.9575 25.1844 57.7309 25.825 59.2891C27.4762 63.3065 30.9124 61.4585 30.9124 61.4585C30.9124 61.4585 36.3842 59.7769 33.8561 57.5186Z" fill="#E56445"/>
<path d="M38.0244 71.706C37.2472 72.4578 36.3817 73.1121 35.4394 73.6544C33.4978 74.7764 31.2488 75.4192 28.8488 75.4192C28.0517 75.4192 27.2716 75.3475 26.5144 75.2126C25.9137 75.1064 25.3272 74.9572 24.7578 74.7678C24.903 71.9298 25.0937 69.0029 25.33 67.0344C25.4809 65.7746 25.6517 64.908 25.8425 64.7043C26.0133 64.5206 26.3549 64.3485 26.8275 64.205C27.5592 63.984 28.5841 63.8348 29.72 63.8262C30.89 63.8119 32.1711 63.9496 33.3612 64.3054C34.4401 64.6325 35.4451 65.1376 36.2137 65.8837C36.5098 66.1706 36.7689 66.5867 36.9881 67.109C37.4863 68.2654 37.8109 69.8953 38.0244 71.706Z" fill="#507849"/>
<path d="M33.3582 61.9677L33.3611 62.0509L33.3582 63.6435L33.3611 64.8917C33.3611 64.8917 33.475 65.1758 32.0971 65.1414C30.2523 65.0869 29.6231 64.2748 29.6231 64.2748L29.4238 61.3564L29.9875 61.4454L33.3582 61.9677Z" fill="#FCA397"/>
<path d="M33.3631 62.1418L33.3574 63.611C32.4891 63.5421 30.8976 63.2293 30.203 61.8835C30.1489 61.7745 30.1119 61.674 30.0977 61.5908L33.3517 62.1159L33.3631 62.1418Z" fill="black"/>
<path d="M33.6392 55.0972C33.6392 55.0972 35.4526 58.8477 34.9459 61.0199C34.4391 63.1922 32.4833 62.9339 31.3047 62.5695C30.1261 62.2022 29.5595 61.5078 29.5595 61.5078C29.5595 61.5078 28.492 61.9239 27.7233 60.9367C26.9546 59.9496 27.3532 58.7645 27.9624 58.4718C28.5717 58.1791 29.3261 58.598 29.3261 58.598L28.7026 57.5133C28.6998 57.5133 30.8947 51.7685 33.6392 55.0972Z" fill="#FCA397"/>
<path d="M33.6591 59.9783C33.6477 59.9783 33.6334 59.9754 33.622 59.9725C33.5452 59.9525 33.5025 59.8721 33.5224 59.7975C33.7103 59.1002 33.1694 58.3627 33.1637 58.357C33.1153 58.2939 33.1295 58.2049 33.1922 58.1561C33.2548 58.1073 33.343 58.1217 33.3914 58.1848C33.4171 58.2192 34.0235 59.0399 33.7986 59.875C33.7786 59.9352 33.7217 59.9783 33.6591 59.9783Z" fill="black"/>
<path d="M29.2217 60.4219C29.1846 60.4219 29.1505 60.4075 29.122 60.3817L28.0544 59.3171C27.9975 59.2626 27.9975 59.1707 28.0544 59.1134C28.1085 59.056 28.1996 59.056 28.2566 59.1134L29.3241 60.178C29.3811 60.2325 29.3811 60.3243 29.3241 60.3817C29.2957 60.4075 29.2587 60.4219 29.2217 60.4219Z" fill="black"/>
<path d="M28.1194 60.1635C28.0511 60.1635 27.9913 60.1148 27.9799 60.0459C27.9657 59.9684 28.0169 59.8938 28.0938 59.8795L28.8027 59.7446C28.8795 59.7302 28.9536 59.7819 28.9678 59.8594C28.982 59.9368 28.9308 60.0114 28.8539 60.0258L28.145 60.1607C28.1365 60.1635 28.128 60.1635 28.1194 60.1635Z" fill="black"/>
<path d="M32.4812 61.1975C32.3844 61.1975 32.2848 61.1774 32.1794 61.1315C31.6755 60.8991 31.4933 60.3596 31.4876 60.3366C31.4706 60.285 31.4848 60.2305 31.5218 60.1932C31.5588 60.1559 31.6129 60.1415 31.6641 60.1559L33.1645 60.6006C33.2129 60.615 33.247 60.6523 33.2613 60.6982C33.2755 60.747 33.2613 60.7958 33.2299 60.8331C33.21 60.8503 32.8912 61.1975 32.4812 61.1975ZM31.9033 60.5232C31.9915 60.6494 32.1197 60.7872 32.299 60.8704C32.4926 60.9593 32.6862 60.8847 32.8228 60.7958L31.9033 60.5232Z" fill="black"/>
<path d="M31.1879 57.2733C31.1679 57.2733 31.148 57.2675 31.1281 57.2589C31.0569 57.2245 31.0256 57.1384 31.0598 57.0666C31.3074 56.5386 31.9594 56.6506 31.9879 56.6563C32.0647 56.6706 32.116 56.7453 32.1017 56.8227C32.0875 56.9002 32.0135 56.9519 31.9366 56.9404C31.9167 56.9375 31.4697 56.8629 31.316 57.19C31.2904 57.2417 31.2391 57.2733 31.1879 57.2733Z" fill="black"/>
<path d="M33.2183 56.7594C33.1927 56.7594 33.1671 56.7508 33.1414 56.7364C33.076 56.6934 33.056 56.6044 33.0987 56.5384C33.2012 56.3777 33.3407 56.2773 33.5058 56.2515C33.8418 56.197 34.1663 56.4638 34.1806 56.4753C34.2403 56.5241 34.2489 56.6159 34.2005 56.6762C34.1521 56.7364 34.061 56.7479 34.0012 56.6963C33.9357 56.6417 33.7279 56.5069 33.5514 56.5356C33.466 56.5499 33.3977 56.6016 33.3407 56.6934C33.3123 56.7364 33.2667 56.7594 33.2183 56.7594Z" fill="black"/>
<path d="M33.9833 58.3709C33.915 58.3709 33.8552 58.3221 33.8438 58.2532L33.7157 57.5473C33.7072 57.5071 33.7186 57.467 33.7413 57.4354L33.9976 57.0911C34.046 57.0279 34.1342 57.0136 34.1969 57.0624C34.2595 57.1111 34.2737 57.2001 34.2253 57.2632L34.0061 57.5559L34.1228 58.2016C34.1371 58.2791 34.0858 58.3537 34.009 58.368C34.0004 58.368 33.9919 58.3709 33.9833 58.3709Z" fill="black"/>
<path d="M31.6015 58.6152C31.5331 58.6152 31.4734 58.5664 31.462 58.4946L31.3481 57.7858C31.3424 57.7428 31.3538 57.6969 31.3851 57.6653L31.7666 57.2607C31.8207 57.2033 31.9118 57.2005 31.9687 57.255C32.0257 57.3095 32.0285 57.4013 31.9744 57.4587L31.6413 57.8117L31.7438 58.4516C31.7552 58.5291 31.704 58.6037 31.6271 58.6152C31.6157 58.6152 31.6072 58.6152 31.6015 58.6152Z" fill="black"/>
<path d="M29.3237 58.5959C29.3237 58.5959 30.9493 57.6834 31.5045 56.461C32.0625 55.2386 32.0625 54.636 32.0625 54.636C32.0625 54.636 32.3329 55.4165 32.9422 55.58C33.5514 55.7436 33.9272 55.7522 33.9272 55.7522L34.3514 56.8599L34.0069 54.1998C34.0069 54.1998 32.3415 53.3762 32.1222 53.3848C31.903 53.3934 29.1586 53.9874 29.0049 54.1625C28.8512 54.3347 28.0569 56.527 28.0569 56.527L28.0312 57.5055L29.3237 58.5959Z" fill="#E56445"/>
<path d="M26.5135 75.2124C25.9128 75.1062 25.3263 74.957 24.757 74.7676C23.0033 74.1995 21.409 73.2697 20.0596 72.0645C20.7428 70.624 21.6111 69.3298 22.4624 68.2423C24.179 66.0528 25.8416 64.7041 25.8416 64.7041L25.9982 65.4301C26.3398 67.0227 26.5107 68.6469 26.5107 70.2768C26.5107 71.9153 26.5135 73.4878 26.5135 75.2124Z" fill="#FCA397"/>
<path d="M32.048 65.2842C30.3968 65.2842 29.3406 64.2684 29.3292 64.2569C29.2723 64.2024 29.2723 64.1106 29.3264 64.0532C29.3804 63.9958 29.4715 63.9958 29.5285 64.0503C29.5968 64.1163 31.2082 65.6573 33.6052 64.6787C33.6764 64.65 33.7618 64.6845 33.7903 64.7591C33.8188 64.8337 33.7846 64.9169 33.7106 64.9456C33.1099 65.1924 32.549 65.2842 32.048 65.2842Z" fill="white"/>
<path d="M42.4275 52.9201C43.0947 51.305 42.3365 49.4506 40.734 48.7781C39.1315 48.1056 37.2914 48.8698 36.6242 50.4848C35.9569 52.0999 36.7151 53.9543 38.3177 54.6268C39.9202 55.2993 41.7602 54.5352 42.4275 52.9201Z" fill="#F37168"/>
<path d="M39.494 50.5884C39.494 50.5884 38.3966 49.6129 37.6196 50.5502C36.5534 51.8368 39.494 53.4731 39.494 53.4731C39.494 53.4731 42.4874 51.7841 41.4401 50.4826C40.6484 49.499 39.494 50.5884 39.494 50.5884Z" fill="white"/>
<path d="M46.5838 65.2485C47.085 63.5735 46.144 61.8063 44.4821 61.3013C42.8202 60.7962 41.0667 61.7446 40.5656 63.4195C40.0645 65.0944 41.0054 66.8616 42.6673 67.3666C44.3292 67.8717 46.0827 66.9234 46.5838 65.2485Z" fill="#3E6BAB"/>
<path d="M43.5058 62.2454C43.9135 62.1889 44.2647 63.2087 44.2364 63.5341C44.2082 63.86 44.9953 63.4917 45.3747 63.7751C45.7542 64.0585 45.6416 65.5312 45.3747 65.6306C45.1079 65.7296 44.0307 65.744 43.6837 65.5596C43.3367 65.3757 43.1028 65.4101 43.1028 65.4101L42.924 63.8694C42.924 63.8694 43.1403 63.804 43.3789 63.5915C43.6179 63.3786 43.5058 62.2454 43.5058 62.2454ZM41.6929 65.8571C41.7912 65.942 42.9017 66.211 42.9577 65.6446C43.0138 65.0782 42.733 63.8741 42.733 63.8741C42.733 63.8741 41.9606 63.835 41.6929 63.9726C41.5896 64.0262 41.5943 65.7721 41.6929 65.8571Z" fill="white"/>
<path d="M31.0706 32.8904C31.0706 35.1368 30.3757 37.22 29.1883 38.9314C28.5339 39.8812 27.7243 40.7176 26.8 41.4C26.7955 41.4068 26.7887 41.409 26.7842 41.4136C26.7235 41.4589 26.6628 41.5042 26.5998 41.545C25.4619 42.352 24.1575 42.9346 22.7497 43.2315C22.0525 43.3811 21.3284 43.4582 20.5862 43.4582C18.8838 43.4582 17.2781 43.0502 15.8568 42.3225C15.036 41.9055 14.2781 41.3818 13.5989 40.7698C13.2346 40.4388 12.8905 40.0852 12.5734 39.7067C12.0539 39.0878 11.6041 38.41 11.2353 37.6824C10.5089 36.243 10.0996 34.6154 10.0996 32.8904C10.0996 27.0534 14.7953 22.3203 20.5862 22.3203C26.3749 22.3203 31.0706 27.0534 31.0706 32.8904Z" fill="#D6EDDE"/>
<path d="M29.1886 38.9299C28.5297 39.8842 27.7156 40.7252 26.7845 41.412C25.6039 42.287 24.2343 42.9172 22.75 43.23C22.759 41.2692 22.8669 39.7119 22.8669 39.7119C22.8669 39.7119 26.1368 34.9607 26.1818 34.9993C26.5349 35.2917 27.8708 36.4613 29.1886 38.9299Z" fill="#46467F"/>
<path d="M26.7841 41.4107C25.6034 42.2857 24.2338 42.9159 22.7495 43.2287C22.0524 43.3783 21.3282 43.4554 20.5861 43.4554C18.8837 43.4554 17.2779 43.0474 15.8566 42.3197C15.0358 41.9026 14.2779 41.379 13.5987 40.767C13.2344 40.436 12.8903 40.0824 12.5732 39.7038C13.2142 37.5096 14.6197 35.8412 15.0403 35.3607C15.146 35.2382 15.2674 35.1272 15.3979 35.0252C15.4001 35.0206 15.4046 35.0206 15.4069 35.0184C15.9533 34.5899 16.6842 34.3134 17.4061 34.132C17.4129 34.132 17.4174 34.1298 17.4196 34.1298C18.3012 33.9122 19.1625 33.8374 19.655 33.8124C19.9182 33.7988 20.0756 33.7988 20.0756 33.7988C20.0756 33.7988 21.4294 33.9326 22.8912 34.1638C24.1978 34.3701 25.5899 34.6534 26.1769 34.9934C26.2061 35.0116 26.2308 35.041 26.2556 35.0796C26.5862 35.6191 26.7323 38.2894 26.7841 41.4107Z" fill="#46467F"/>
<path d="M17.4219 28.9533C17.4219 28.9533 17.5096 30.5401 18.218 30.6126C18.9264 30.6852 19.9676 29.783 19.9676 29.783L19.4796 27.999L17.4219 28.9533Z" fill="black"/>
<path d="M19.4668 31.917L19.5005 34.4059C19.5005 34.4059 19.975 35.12 21.4886 35.2311C22.6153 35.3149 23.0088 35.0678 23.0088 35.0678L22.8357 33.8075L22.6647 32.5789L19.9278 32.0122L19.4668 31.917Z" fill="#FCA397"/>
<path d="M20.0762 32.0264C20.0829 32.0944 20.1099 32.1737 20.1504 32.2666C20.7126 33.5043 22.2261 33.7582 22.8468 33.8081L22.6871 32.5817L20.0762 32.0264Z" fill="black"/>
<path d="M23.1883 26.905C23.1883 26.905 24.5107 30.0128 24.0159 31.7491C23.5212 33.4855 21.9492 33.2022 21.0091 32.8599C20.0691 32.5176 19.6373 31.9327 19.6373 31.9327C19.6373 31.9327 18.7557 32.2274 18.1733 31.4001C17.5908 30.5727 17.9596 29.6274 18.4634 29.4143C18.9671 29.2013 19.5609 29.5707 19.5609 29.5707L19.0976 28.6663C19.0976 28.6663 21.0969 24.1032 23.1883 26.905Z" fill="#FCA397"/>
<path d="M19.4802 30.9283C19.4577 30.9283 19.4352 30.9215 19.415 30.9079L18.295 30.1123C18.2433 30.076 18.232 30.0057 18.268 29.9536C18.304 29.9015 18.3737 29.8901 18.4254 29.9264L19.5454 30.722C19.5971 30.7583 19.6084 30.8286 19.5724 30.8807C19.5499 30.9102 19.5162 30.9283 19.4802 30.9283Z" fill="black"/>
<path d="M18.4652 30.9214C18.4157 30.9214 18.3707 30.8874 18.3572 30.8375C18.3415 30.7763 18.3775 30.7151 18.4359 30.6992L19.1668 30.502C19.2253 30.4884 19.2883 30.5224 19.304 30.5813C19.3197 30.6425 19.2838 30.7038 19.2253 30.7196L18.4944 30.9168C18.4854 30.9191 18.4764 30.9214 18.4652 30.9214Z" fill="black"/>
<path d="M21.0542 28.4074C21.034 28.4074 21.0137 28.4029 20.9957 28.3916C20.9418 28.3598 20.926 28.2896 20.9575 28.2352C21.2431 27.7523 21.7041 27.7795 21.9088 27.8612C21.9673 27.8838 21.9942 27.9496 21.9718 28.0085C21.9493 28.0674 21.884 28.0946 21.8256 28.072C21.8076 28.0652 21.4073 27.9178 21.1509 28.353C21.1307 28.387 21.0924 28.4074 21.0542 28.4074Z" fill="black"/>
<path d="M23.5235 28.1112C23.4988 28.1112 23.4741 28.1021 23.4538 28.0862C23.1997 27.8777 22.9366 28.0296 22.9253 28.0364C22.8714 28.0681 22.8039 28.05 22.7724 27.9978C22.7409 27.9434 22.7589 27.8754 22.8106 27.8437C22.8264 27.8346 23.2177 27.6034 23.5955 27.9117C23.6427 27.9502 23.6517 28.0228 23.6113 28.0704C23.5888 28.0953 23.5573 28.1112 23.5235 28.1112Z" fill="black"/>
<path d="M23.0911 30.7577C23.0821 30.7577 23.0709 30.7554 23.0619 30.7531C23.0011 30.7373 22.9652 30.6738 22.9831 30.6148C23.1383 30.03 22.7313 29.1505 22.7268 29.1414C22.6998 29.0848 22.7245 29.0168 22.7807 28.9896C22.837 28.9624 22.9044 28.9873 22.9314 29.044C22.9494 29.0825 23.379 30.0073 23.2013 30.6738C23.1855 30.7237 23.1406 30.7577 23.0911 30.7577Z" fill="black"/>
<path d="M23.2986 29.3077C23.2492 29.3077 23.2042 29.276 23.1907 29.2261L23.031 28.6571C23.013 28.5959 23.049 28.5347 23.1097 28.5166C23.1682 28.5007 23.2312 28.5347 23.2492 28.5959L23.4088 29.1649C23.4268 29.2261 23.3908 29.2873 23.3301 29.3054C23.3189 29.3054 23.3099 29.3077 23.2986 29.3077Z" fill="black"/>
<path d="M21.6316 29.3516C21.5822 29.3516 21.5372 29.3199 21.5237 29.27L21.364 28.7011C21.346 28.6399 21.382 28.5787 21.4427 28.5605C21.5012 28.5447 21.5642 28.5787 21.5822 28.6399L21.7418 29.2088C21.7598 29.27 21.7238 29.3312 21.6631 29.3494C21.6519 29.3494 21.6429 29.3516 21.6316 29.3516Z" fill="black"/>
<path d="M23.364 27.3556C23.364 27.3556 23.1818 27.1063 22.5656 27.1085C21.9494 27.1108 21.5941 27.5506 21.5941 27.5506C21.5941 27.5506 21.5424 28.6749 20.7103 29.2371C19.8782 29.7992 19.5588 29.568 19.5588 29.568L18.9494 29.3549L18.4951 28.4641L20.2358 26.5396L22.3272 25.6396L23.364 26.8002V27.3556Z" fill="black"/>
<path d="M22.4687 31.4802C22.2933 31.4802 21.8345 31.4326 21.6096 30.9589C21.5826 30.9022 21.6074 30.8342 21.6614 30.807C21.7176 30.7798 21.785 30.8047 21.812 30.8591C22.0189 31.2943 22.4957 31.2513 22.5159 31.249C22.5789 31.2422 22.6329 31.2875 22.6396 31.351C22.6464 31.4122 22.6014 31.4689 22.5407 31.4757C22.5339 31.478 22.5092 31.4802 22.4687 31.4802Z" fill="black"/>
<path d="M17.7657 30.4158C17.3339 29.9715 16.9764 28.8766 17.0641 28.26L17.0821 28.1354C17.0821 28.1354 16.3669 28.056 16.6053 27.0949C16.8437 26.1338 18.0603 24.8508 19.9607 24.368C21.861 23.8874 23.3655 26.8025 23.3655 26.8025C23.3655 26.8025 21.7778 26.7186 20.5836 27.6276C19.3894 28.5366 18.9531 29.3549 18.9531 29.3549L17.7657 30.4158Z" fill="#7C6053"/>
<path d="M21.9605 35.3137C20.4627 35.3137 19.3315 34.5543 19.2731 34.5158C19.2213 34.4795 19.2079 34.4093 19.2438 34.3594C19.2798 34.3073 19.3495 34.2937 19.399 34.3299C19.4148 34.3413 21.0812 35.4565 22.9793 34.9601C23.04 34.9442 23.1007 34.9805 23.1164 35.0417C23.1322 35.1029 23.0962 35.1641 23.0355 35.18C22.6644 35.2752 22.3023 35.3137 21.9605 35.3137Z" fill="#F7734F"/>
<path d="M17.0641 28.3722C17.0461 28.3722 17.0258 28.3677 17.0078 28.3564C16.9539 28.3246 16.9359 28.2566 16.9651 28.2022L17.3227 27.5698C17.3542 27.5154 17.4216 27.4973 17.4756 27.5267C17.5296 27.5585 17.5476 27.6265 17.5183 27.6809L17.1608 28.3133C17.1405 28.3518 17.1023 28.3722 17.0641 28.3722Z" fill="#FFBF69"/>
<path d="M26.7993 41.3974C26.7948 41.4042 26.7881 41.4065 26.7836 41.411C26.7229 41.4563 26.6621 41.5017 26.5992 41.5425L26.0234 38.65C26.0122 38.5888 26.0504 38.5276 26.1111 38.5163C26.1719 38.5027 26.2326 38.5435 26.2438 38.6047L26.7993 41.3974Z" fill="#F7734F"/>
<path d="M110.542 63.6254C110.542 64.489 110.43 65.3274 110.219 66.1242C109.126 70.2854 105.366 73.3495 100.894 73.3495C97.8855 73.3495 95.1995 71.9624 93.4302 69.789C92.0665 68.1099 91.2471 65.9636 91.2471 63.6254C91.2471 58.2545 95.5658 53.9014 100.894 53.9014C106.223 53.9014 110.542 58.2545 110.542 63.6254Z" fill="#D6EDE5"/>
<path d="M110.219 66.1231C109.127 70.2843 105.367 73.3483 100.895 73.3483C97.886 73.3483 95.2 71.9613 93.4307 69.7878C96.2533 66.3066 99.2973 65.9353 99.2973 65.9353C99.2973 65.9353 99.2248 65.4097 99.2973 65.2679C99.349 65.1678 99.5394 65.076 99.6449 65.0322C99.6863 65.0155 99.7132 65.0051 99.7132 65.0051C99.7132 65.0051 99.8663 64.978 100.106 64.9404C100.589 64.8632 101.42 64.7402 102.066 64.6922C102.263 64.6755 102.443 64.6672 102.59 64.6693C102.749 64.6713 102.871 64.6859 102.937 64.7172C103.018 64.7548 103.111 65.0051 103.111 65.0051C103.111 65.0051 104.305 64.8194 105.954 65.0051C106.648 65.0843 108.371 65.4056 110.219 66.1231Z" fill="#7C6053"/>
<path d="M99.2633 60.6737C99.2633 60.6737 97.5768 60.1272 97.5665 61.4058C97.5561 62.8867 99.2964 62.7366 99.2964 62.7366L99.2633 60.6737Z" fill="#F27E64"/>
<path d="M98.568 62.0712C98.5349 62.0712 98.5039 62.0566 98.4832 62.0274L97.8562 61.143C97.8231 61.0971 97.8334 61.0303 97.881 60.997C97.9286 60.9636 97.9928 60.974 98.0259 61.022L98.6529 61.9064C98.686 61.9523 98.6757 62.019 98.6281 62.0524C98.6094 62.0649 98.5887 62.0712 98.568 62.0712Z" fill="black"/>
<path d="M97.9127 61.8502C97.8609 61.8502 97.8154 61.8106 97.8092 61.7564C97.803 61.7 97.8444 61.6479 97.9003 61.6416L98.3617 61.5895C98.4197 61.5832 98.4693 61.6249 98.4755 61.6813C98.4817 61.7376 98.4404 61.7897 98.3845 61.796L97.923 61.8481C97.921 61.8502 97.9168 61.8502 97.9127 61.8502Z" fill="black"/>
<path d="M102.511 63.8809L102.683 65.5975C102.683 65.5975 102.058 66.0168 101.236 66.1085C100.127 66.2316 99.6926 65.6038 99.6926 65.6038L99.5146 63.5889L102.511 63.8809Z" fill="#F27E64"/>
<path d="M102.51 63.8734C102.51 63.8734 102.107 65.3126 100.83 65.2417C99.7992 65.1833 99.375 63.7607 99.375 63.7607L102.51 63.8734Z" fill="black"/>
<path d="M98.6179 59.3122C98.6179 59.3122 98.1978 62.5223 99.218 63.8301C100.315 65.2318 101.815 64.6415 102.351 64.1409C103.073 63.4651 103.156 62.612 103.156 62.612C103.156 62.612 104.247 62.7267 104.522 61.8131C104.811 60.8536 104.075 60.1716 103.537 60.1778C102.997 60.1841 102.945 60.2884 102.945 60.2884L103.011 59.2872C103.009 59.283 99.4167 55.9436 98.6179 59.3122Z" fill="#F27E64"/>
<path d="M103.241 61.6997C103.217 61.6997 103.19 61.6893 103.169 61.6705C103.128 61.6309 103.128 61.5641 103.167 61.5224L103.926 60.7298C103.966 60.6881 104.032 60.6881 104.073 60.7277C104.115 60.7673 104.115 60.8341 104.075 60.8758L103.316 61.6684C103.295 61.6893 103.268 61.6997 103.241 61.6997Z" fill="black"/>
<path d="M104.018 61.7606C103.999 61.7606 103.981 61.7565 103.964 61.746L103.442 61.4227C103.395 61.3935 103.378 61.3289 103.409 61.2788C103.438 61.2308 103.502 61.2141 103.552 61.2454L104.074 61.5687C104.121 61.5979 104.138 61.6626 104.107 61.7127C104.086 61.7419 104.053 61.7606 104.018 61.7606Z" fill="black"/>
<path d="M101.551 60.9842C101.495 60.9842 101.449 60.9404 101.447 60.884L101.429 60.3522C101.427 60.2938 101.472 60.2458 101.528 60.2437C101.584 60.2374 101.634 60.2875 101.636 60.3438L101.654 60.8757C101.656 60.9341 101.611 60.9821 101.555 60.9842C101.553 60.9842 101.553 60.9842 101.551 60.9842Z" fill="black"/>
<path d="M99.5333 61.0618C99.4774 61.0618 99.4319 61.018 99.4298 60.9617L99.4112 60.4298C99.4091 60.3714 99.4547 60.3234 99.5105 60.3214C99.5685 60.3193 99.6161 60.3652 99.6181 60.4215L99.6368 60.9534C99.6388 61.0118 99.5933 61.0597 99.5374 61.0618C99.5354 61.0618 99.5354 61.0618 99.5333 61.0618Z" fill="black"/>
<path d="M100.59 62.3732C100.544 62.3732 100.503 62.344 100.49 62.2981C100.248 61.4763 100.451 60.7734 100.459 60.7442C100.476 60.6899 100.534 60.6566 100.588 60.6733C100.642 60.6899 100.675 60.7484 100.658 60.8026C100.656 60.8088 100.466 61.4784 100.689 62.2376C100.706 62.2919 100.675 62.3503 100.619 62.3669C100.608 62.3732 100.598 62.3732 100.59 62.3732Z" fill="black"/>
<path d="M99.1741 59.974C99.1493 59.974 99.1224 59.9636 99.1017 59.9448C99.0603 59.9052 99.0583 59.8385 99.0976 59.7967C99.3066 59.5757 99.6873 59.5423 99.7039 59.5423C99.7618 59.5381 99.8115 59.5798 99.8156 59.6382C99.8198 59.6945 99.7784 59.7467 99.7204 59.7509C99.7163 59.7509 99.4038 59.778 99.2486 59.9428C99.2279 59.9636 99.201 59.974 99.1741 59.974Z" fill="black"/>
<path d="M101.768 59.9334C101.749 59.9334 101.732 59.9293 101.716 59.9188C101.521 59.8041 101.213 59.8667 101.209 59.8667C101.153 59.8771 101.099 59.8416 101.087 59.7853C101.076 59.729 101.112 59.6748 101.167 59.6623C101.184 59.6581 101.557 59.583 101.819 59.7394C101.869 59.7686 101.886 59.8333 101.857 59.8813C101.838 59.9147 101.803 59.9334 101.768 59.9334Z" fill="black"/>
<path d="M103.191 60.266C103.191 60.266 102.945 61.2672 102.817 61.238C102.688 61.2109 102.757 59.6612 103.113 59.5673C103.469 59.4734 103.191 60.266 103.191 60.266Z" fill="black"/>
<path d="M100.745 63.2816C100.689 63.2816 100.644 63.2378 100.642 63.1815C100.64 63.1231 100.683 63.0751 100.741 63.073C100.762 63.073 101.269 63.0459 101.465 62.6079C101.488 62.5558 101.55 62.5328 101.602 62.5558C101.654 62.5787 101.676 62.6413 101.654 62.6934C101.403 63.2482 100.776 63.2795 100.749 63.2795C100.747 63.2816 100.745 63.2816 100.745 63.2816Z" fill="black"/>
<path d="M103.025 60.1354C103.025 60.1354 101.939 60.0916 101.188 59.5577C100.555 59.1071 100.288 58.4355 100.288 58.4355C100.288 58.4355 99.82 58.3959 99.1744 58.836C98.5287 59.2761 98.5308 60.5505 98.5308 60.5505C98.5308 60.5505 97.2106 58.4522 97.7631 57.6637C98.3135 56.8753 99.2965 57.4677 99.2965 57.4677C99.2965 57.4677 99.0668 56.0681 101.022 56.527C102.98 56.9858 103.493 58.6482 103.493 58.6482C103.493 58.6482 104.151 58.5606 104.259 59.1739C104.366 59.7871 104.145 60.4233 104.145 60.4233C104.145 60.4233 103.847 60.1605 103.412 60.3461C102.978 60.5296 102.978 60.5296 102.978 60.5296L103.025 60.1354Z" fill="black"/>
<path d="M99.7134 65.0047C99.7134 65.0047 100.09 65.3635 100.959 65.3864C101.83 65.4073 102.592 64.7002 102.592 64.7002L103.153 65.7368L101.766 66.5899L99.4443 66.3939V65.3447L99.7134 65.0047Z" fill="#7C6053"/>
<path d="M100.674 66.7004C99.7341 66.7004 99.2209 66.0079 99.2147 65.9995C99.1816 65.9537 99.192 65.889 99.2375 65.8535C99.283 65.8202 99.3492 65.8306 99.3823 65.8765C99.4092 65.914 100.049 66.7692 101.245 66.4021C101.301 66.3854 101.356 66.4167 101.373 66.4709C101.39 66.5252 101.359 66.5836 101.305 66.6003C101.077 66.6712 100.866 66.7004 100.674 66.7004Z" fill="white"/>
<path d="M33.4622 29.4459C34.6896 28.2089 34.6896 26.2033 33.4622 24.9662C32.2348 23.7292 30.2448 23.7292 29.0173 24.9662C27.7899 26.2032 27.7899 28.2089 29.0173 29.4459C30.2448 30.6829 32.2348 30.6829 33.4622 29.4459Z" fill="#C1C765"/>
<path d="M29.7401 28.8875C29.2759 26.0887 31.4016 26.0198 31.4016 26.0198V25.1904L33.0859 26.8879L31.4632 28.5233V27.5745C31.4632 27.5745 30.6474 27.609 30.3388 28.0581C30.0302 28.5072 29.7401 28.8875 29.7401 28.8875Z" fill="white"/>
<path d="M82.9001 12.3818C82.9001 14.6174 82.1001 16.6655 80.7751 18.249C80.6085 18.4481 80.4322 18.6414 80.2502 18.825C79.9557 19.1217 79.64 19.399 79.3049 19.6509C79.1422 19.7758 78.9736 19.8949 78.8012 20.0082C78.7819 20.0218 78.7625 20.0335 78.7412 20.0453C78.4971 20.2054 78.2434 20.3538 77.9819 20.4865C77.9218 20.5178 77.8618 20.549 77.7998 20.5783C77.5189 20.715 77.2303 20.838 76.9358 20.9454C76.5446 21.0879 76.1416 21.205 75.7271 21.2909C75.1266 21.4179 74.5068 21.4842 73.8695 21.4842C73.5963 21.4842 73.3251 21.4725 73.0578 21.4471C72.7789 21.4218 72.5038 21.3847 72.2326 21.3319C72.0815 21.3046 71.9324 21.2734 71.7852 21.2382C71.3551 21.1367 70.9387 21.0039 70.5358 20.8399C70.1774 20.6974 69.8307 20.5314 69.4956 20.344C69.4568 20.3225 69.4181 20.301 69.3813 20.2776C69.1527 20.1487 68.9319 20.0101 68.7188 19.8578C68.5348 19.7309 68.3546 19.5942 68.1803 19.4498C68.159 19.4341 68.1396 19.4185 68.1183 19.4009C67.8723 19.194 67.636 18.9753 67.4113 18.7449C67.3474 18.6805 67.2854 18.6141 67.2253 18.5477C67.0529 18.3603 66.8883 18.165 66.7333 17.9639C66.5803 17.7648 66.435 17.5597 66.2994 17.3489C65.3754 15.9197 64.8369 14.2151 64.8369 12.3818C64.8369 7.35413 68.8815 3.2793 73.8695 3.2793C78.8574 3.2793 82.9001 7.35413 82.9001 12.3818Z" fill="#D6E2ED"/>
<path d="M80.7751 18.2493C80.6085 18.4484 80.4323 18.6417 80.2502 18.8253C79.9558 19.122 79.64 19.3993 79.3049 19.6512C79.1422 19.7761 78.9737 19.8952 78.8013 20.0085C78.7819 20.0221 78.7625 20.0338 78.7412 20.0456L78.7954 16.043C78.7954 16.043 79.7311 16.9216 80.7751 18.2493Z" fill="#FFBF69"/>
<path d="M77.9812 20.4894C77.9212 20.5206 77.8611 20.5519 77.7992 20.5811C77.1483 20.8994 76.4529 21.1415 75.7265 21.2938C75.126 21.4207 74.5061 21.4871 73.8689 21.4871C73.5957 21.4871 73.3245 21.4754 73.0572 21.45C72.7783 21.4246 72.5032 21.3875 72.232 21.3348C72.0809 21.3075 71.9318 21.2762 71.7846 21.2411C71.3545 21.1395 70.9381 21.0068 70.5352 20.8428L72.418 14.4074C72.418 14.4074 73.8863 14.1848 75.5502 14.3605C76.6369 14.4757 77.5067 18.0312 77.9812 20.4894Z" fill="#7772D3"/>
<path d="M75.5501 14.3583L72.6871 14.5399C72.6871 14.5399 72.4005 17.5389 72.2319 21.3326C72.0808 21.3053 71.9317 21.274 71.7845 21.2389C70.9728 21.0456 70.2058 20.7429 69.4949 20.3446C69.4561 20.3232 69.4174 20.3017 69.3806 20.2782C69.152 20.1494 68.9312 20.0108 68.7181 19.8585C68.5341 19.7316 68.3539 19.5949 68.1796 19.4504C68.1583 19.4348 68.1389 19.4192 68.1176 19.4016C67.8716 19.1946 67.6353 18.9759 67.4106 18.7456C67.3466 18.6811 67.2847 18.6147 67.2246 18.5484C67.2788 17.3085 67.4474 16.385 67.7902 16.0628C69.3128 14.6356 73.0901 14.1592 73.0901 14.1592L74.8567 14.1338C74.8567 14.1338 75.1356 14.2158 75.5501 14.3583Z" fill="#FFBF69"/>
<path d="M79.3049 19.6545C79.1422 19.7795 78.9736 19.8986 78.8012 20.0118C78.5378 20.1856 78.2647 20.3457 77.9818 20.4902C77.9218 20.5214 77.8618 20.5526 77.7998 20.5819C77.5189 20.7186 77.2303 20.8416 76.9358 20.949C76.9339 20.9256 76.932 20.9021 76.93 20.8787C76.4225 15.5641 75.607 14.4316 75.5566 14.3633C76.6472 14.7401 78.6734 15.5426 79.0453 16.4075C79.1867 16.7375 79.2661 17.9988 79.3049 19.6545Z" fill="#FFBF69"/>
<path d="M73.7528 7.53525C73.7528 7.53525 71.8913 3.34913 69.7682 5.47538C67.9919 7.25409 70.7465 9.99733 72.3407 9.21439C73.9329 8.43339 73.7528 7.53525 73.7528 7.53525Z" fill="black"/>
<path d="M76.5872 10.9553C76.5872 10.9553 77.3523 10.0787 77.1102 8.73925C76.9455 7.83135 76.5407 7.54238 76.5407 7.54238C76.5407 7.54238 77.1354 6.29279 75.3145 6.39237C73.4937 6.4939 72.436 7.40961 72.436 7.40961C72.436 7.40961 71.5973 7.00935 71.2389 7.9934C70.8786 8.97746 71.2719 10.4145 71.2719 10.4145L76.5872 10.9553Z" fill="black"/>
<path d="M72.6113 12.5244L72.6985 14.7639C72.6985 14.7639 73.1247 15.3926 74.4283 15.4473C75.4007 15.4883 75.6874 14.9748 75.6874 14.9748L75.3775 13.0242L73.0084 12.5967L72.6113 12.5244Z" fill="#F27E64"/>
<path d="M72.6084 12.3838C72.6161 12.4443 72.6413 12.5166 72.682 12.5966C73.2224 13.6959 74.991 14.0922 75.5508 14.1215L75.3745 13.0223L72.6084 12.3838Z" fill="black"/>
<path d="M75.6731 7.89987C75.6731 7.89987 76.9477 10.6626 76.5486 12.2402C76.1496 13.8178 74.7259 13.605 73.8716 13.3219C73.0174 13.0388 72.6106 12.5233 72.6106 12.5233C72.6106 12.5233 71.8241 12.8123 71.2779 12.0821C70.7316 11.3519 71.0377 10.4908 71.4851 10.2858C71.9326 10.0788 72.4789 10.3951 72.4789 10.3951L72.0391 9.59462C72.0372 9.59658 73.7147 5.43193 75.6731 7.89987Z" fill="#F27E64"/>
<path d="M72.4766 10.3965C72.4766 10.3965 73.6717 10.621 74.4795 9.27382C75.2892 7.92661 75.204 7.37796 75.204 7.37796L76.0466 8.7447C76.0466 8.7447 76.217 7.78603 75.8296 7.18076C75.4422 6.57744 75.049 6.70826 75.049 6.70826L72.432 7.40725L71.7695 9.53936L72.4766 10.3965Z" fill="black"/>
<path d="M75.6267 11.4573C75.617 11.4573 75.6093 11.4554 75.5996 11.4534C75.5473 11.4378 75.5182 11.3851 75.5337 11.3324C75.6809 10.8208 75.2935 10.2741 75.2896 10.2683C75.2587 10.2253 75.2683 10.1628 75.311 10.1316C75.3536 10.1004 75.4136 10.1101 75.4466 10.1531C75.464 10.1784 75.894 10.7818 75.7197 11.3851C75.7081 11.43 75.6693 11.4573 75.6267 11.4573Z" fill="black"/>
<path d="M72.3798 11.7167C72.3546 11.7167 72.3295 11.707 72.3101 11.6874L71.5449 10.8967C71.5081 10.8576 71.5081 10.7971 71.5469 10.7581C71.5856 10.721 71.6476 10.721 71.6844 10.76L72.4496 11.5508C72.4864 11.5898 72.4864 11.6503 72.4476 11.6894C72.4282 11.7089 72.405 11.7167 72.3798 11.7167Z" fill="black"/>
<path d="M71.5799 11.5147C71.5334 11.5147 71.4927 11.4815 71.4849 11.4327C71.4753 11.3799 71.5121 11.3292 71.5644 11.3194L72.0835 11.2316C72.1358 11.2237 72.1862 11.2589 72.1959 11.3116C72.2055 11.3643 72.1687 11.4151 72.1164 11.4248L71.5973 11.5127C71.5915 11.5147 71.5857 11.5147 71.5799 11.5147Z" fill="black"/>
<path d="M76.128 9.16306C76.1222 9.16306 76.1183 9.16306 76.1125 9.16111L75.6205 9.08105C75.5682 9.07324 75.5314 9.02248 75.5391 8.96976C75.5469 8.91704 75.5972 8.87995 75.6495 8.88776L76.1415 8.96781C76.1938 8.97562 76.2306 9.02638 76.2229 9.0791C76.2152 9.12987 76.1745 9.16306 76.128 9.16306Z" fill="black"/>
<path d="M74.0875 9.51783C74.0527 9.51783 74.0197 9.4983 74.0023 9.46511C73.9771 9.41825 73.9965 9.35773 74.043 9.3343L74.843 8.91061C74.8914 8.88523 74.9495 8.90475 74.9747 8.95161C74.9999 8.99847 74.9805 9.059 74.934 9.08243L74.134 9.50611C74.1185 9.51392 74.103 9.51783 74.0875 9.51783Z" fill="black"/>
<path d="M76.1431 10.3062C76.1024 10.3062 76.0637 10.2808 76.0501 10.2378L75.8894 9.73606C75.8797 9.70482 75.8855 9.67163 75.9049 9.64624L76.056 9.4549C76.0889 9.41195 76.1509 9.40609 76.1915 9.43928C76.2342 9.47247 76.24 9.53495 76.207 9.57596L76.0889 9.7263L76.2342 10.1773C76.2497 10.2281 76.2225 10.2828 76.1722 10.3003C76.1625 10.3042 76.1528 10.3062 76.1431 10.3062Z" fill="black"/>
<path d="M74.5532 10.4622C74.5125 10.4622 74.4738 10.4368 74.4602 10.3939L74.2995 9.8921C74.2898 9.86086 74.2956 9.82572 74.3169 9.80033L74.5261 9.54846C74.561 9.50746 74.621 9.5016 74.6617 9.53675C74.7024 9.57189 74.7082 9.63242 74.6733 9.67342L74.499 9.88429L74.6423 10.3353C74.6578 10.3861 74.6307 10.4407 74.5803 10.4583C74.5726 10.4603 74.5629 10.4622 74.5532 10.4622Z" fill="black"/>
<path d="M75.2345 12.1961C74.8878 12.1961 74.5042 11.8232 74.4539 11.7724C74.4151 11.7353 74.4151 11.6728 74.4539 11.6338C74.4926 11.5947 74.5527 11.5947 74.5914 11.6338C74.7192 11.7607 75.1299 12.0965 75.3449 11.9735C75.3914 11.9462 75.4495 11.9637 75.4766 12.0106C75.5038 12.0575 75.4863 12.118 75.4398 12.1434C75.3759 12.1805 75.3062 12.1961 75.2345 12.1961Z" fill="black"/>
<path d="M68.7182 19.8619C68.5342 19.7349 68.3541 19.5983 68.1797 19.4538C68.1584 19.4382 68.139 19.4225 68.1177 19.405C67.8717 19.198 67.6354 18.9793 67.4107 18.7489C67.1705 18.501 66.9439 18.2413 66.7327 17.9679C66.5797 17.7688 66.4344 17.5638 66.2988 17.3529C67.5153 16.1795 68.5226 15.5352 68.5226 15.5352L68.7182 19.8619Z" fill="#FFBF69"/>
<path d="M74.6228 15.5534C74.557 15.5534 74.4892 15.5495 74.4175 15.5436C73.5458 15.4636 72.678 14.8681 72.6412 14.8427C72.5967 14.8114 72.585 14.7509 72.616 14.708C72.647 14.6631 72.7051 14.6513 72.7516 14.6826C72.7594 14.6884 73.6136 15.2722 74.4349 15.3484C75.295 15.4284 75.5894 14.9442 75.6011 14.9247C75.6282 14.8778 75.6882 14.8622 75.7328 14.8895C75.7793 14.9169 75.7948 14.9755 75.7676 15.0223C75.756 15.0457 75.4577 15.5534 74.6228 15.5534Z" fill="white"/>
<path d="M64.14 19.419C65.8294 19.017 66.8755 17.3109 66.4766 15.6083C66.0777 13.9058 64.3848 12.8515 62.6955 13.2535C61.0062 13.6555 59.9601 15.3616 60.359 17.0642C60.7579 18.7667 62.4507 19.821 64.14 19.419Z" fill="#3E6BAB"/>
<path d="M63.3492 14.2523C63.7569 14.1957 64.1081 15.2155 64.0799 15.541C64.0516 15.8669 64.8387 15.4985 65.2182 15.7819C65.5976 16.0653 65.4851 17.538 65.2182 17.6374C64.9513 17.7364 63.8741 17.7509 63.5271 17.5665C63.1802 17.3825 62.9462 17.4169 62.9462 17.4169L62.7674 15.8762C62.7674 15.8762 62.9837 15.8104 63.2223 15.5979C63.4618 15.3855 63.3492 14.2523 63.3492 14.2523ZM61.5364 17.8639C61.6346 17.9489 62.7451 18.2178 62.8012 17.6515C62.8572 17.0851 62.5764 15.8809 62.5764 15.8809C62.5764 15.8809 61.8041 15.8418 61.5364 15.9795C61.4335 16.033 61.4381 17.7789 61.5364 17.8639Z" fill="white"/>
<path d="M100.897 54.1142H86.5922C86.1361 54.1142 85.7678 53.7384 85.7735 53.2787L85.8487 47.2892C85.8544 46.8295 86.2325 46.4531 86.6886 46.4531H100.994C101.45 46.4531 101.818 46.829 101.813 47.2892L101.737 53.2787C101.732 53.7384 101.354 54.1142 100.897 54.1142Z" fill="#FF9EE4"/>
<path d="M100.194 53.4886H87.3117C86.9164 53.4886 86.5974 53.1631 86.6026 52.7647L86.6651 47.805C86.6703 47.4066 86.9973 47.0811 87.3926 47.0811H100.275C100.67 47.0811 100.989 47.4066 100.984 47.805L100.922 52.7647C100.917 53.1625 100.589 53.4886 100.194 53.4886Z" fill="white"/>
<path d="M94.0986 53.7656C94.1049 56.9232 95.5667 57.898 95.5667 57.898C95.5667 57.898 94.9443 56.0871 95.4623 55.2048C95.9804 54.3224 96.814 53.9512 96.814 53.9512L94.0986 53.7656Z" fill="#FF9EE4"/>
<path d="M95.2243 49.2635H88.2171C88.0915 49.2635 87.9905 49.16 87.9922 49.0334L87.9928 48.9825C87.9945 48.8559 88.0983 48.7529 88.224 48.7529H95.2312C95.3569 48.7529 95.4578 48.8564 95.4561 48.9825L95.4555 49.0334C95.4538 49.16 95.35 49.2635 95.2243 49.2635Z" fill="#FF9EE4"/>
<path d="M95.2116 50.3289H88.2044C88.0788 50.3289 87.9778 50.2254 87.9795 50.0988L87.9801 50.0479C87.9818 49.9213 88.0857 49.8184 88.2113 49.8184H95.2185C95.3442 49.8184 95.4451 49.9219 95.4434 50.0479L95.4428 50.0988C95.4411 50.2254 95.3367 50.3289 95.2116 50.3289Z" fill="#FF9EE4"/>
<path d="M95.1956 51.5354H88.1884C88.0627 51.5354 87.9618 51.4319 87.9629 51.3058L87.9635 51.2549C87.9652 51.1283 88.069 51.0254 88.1947 51.0254H95.2019C95.3275 51.0254 95.4285 51.1289 95.4268 51.2549L95.4262 51.3058C95.4251 51.4319 95.3212 51.5354 95.1956 51.5354Z" fill="#FF9EE4"/>
<path d="M98.5981 51.9551H97.5844C97.1283 51.9551 96.76 51.5793 96.7657 51.119L96.7921 49.0294C96.7978 48.5698 97.1759 48.1934 97.632 48.1934H98.6457C99.1018 48.1934 99.4701 48.5692 99.4644 49.0294L99.438 51.119C99.4323 51.5787 99.0542 51.9551 98.5981 51.9551Z" fill="#FF9EE4"/>
<path d="M132.817 36.5889H116.925C116.418 36.5889 116.009 36.1714 116.016 35.6608L116.099 29.0069C116.106 28.4963 116.526 28.0781 117.032 28.0781H132.924C133.431 28.0781 133.84 28.4956 133.834 29.0069L133.75 35.6608C133.744 36.1714 133.324 36.5889 132.817 36.5889Z" fill="#FF9E9E"/>
<path d="M132.036 35.8936H117.724C117.285 35.8936 116.931 35.532 116.937 35.0894L117.006 29.5796C117.012 29.137 117.375 28.7754 117.814 28.7754H132.126C132.565 28.7754 132.919 29.137 132.913 29.5796L132.844 35.0894C132.838 35.5314 132.474 35.8936 132.036 35.8936Z" fill="white"/>
<path d="M125.264 36.2031C125.271 39.7109 126.895 40.7938 126.895 40.7938C126.895 40.7938 126.203 38.7821 126.779 37.8019C127.354 36.8217 128.28 36.4093 128.28 36.4093L125.264 36.2031Z" fill="#FF9E9E"/>
<path d="M126.515 31.198H118.73C118.591 31.198 118.479 31.0831 118.48 30.9424L118.481 30.8859C118.483 30.7452 118.598 30.6309 118.738 30.6309H126.522C126.662 30.6309 126.774 30.7458 126.772 30.8859L126.772 30.9424C126.77 31.0831 126.654 31.198 126.515 31.198Z" fill="#FF9E9E"/>
<path d="M126.501 32.3855H118.717C118.577 32.3855 118.465 32.2706 118.467 32.1299L118.467 32.0734C118.469 31.9327 118.585 31.8184 118.724 31.8184H126.509C126.648 31.8184 126.76 31.9333 126.759 32.0734L126.758 32.1299C126.756 32.2706 126.64 32.3855 126.501 32.3855Z" fill="#FF9E9E"/>
<path d="M126.483 33.7257H118.699C118.559 33.7257 118.447 33.6107 118.448 33.4707L118.449 33.4142C118.451 33.2735 118.566 33.1592 118.706 33.1592H126.49C126.63 33.1592 126.742 33.2742 126.74 33.4142L126.739 33.4707C126.738 33.6107 126.623 33.7257 126.483 33.7257Z" fill="#FF9E9E"/>
<path d="M130.262 34.1917H129.136C128.629 34.1917 128.22 33.7741 128.227 33.2629L128.256 30.9415C128.262 30.4308 128.682 30.0127 129.189 30.0127H130.315C130.822 30.0127 131.231 30.4302 131.225 30.9415L131.195 33.2629C131.189 33.7735 130.769 34.1917 130.262 34.1917Z" fill="#FF9E9E"/>
</g>
<defs>
<filter id="filter0_dd_7463_58535" x="0.499609" y="0.796875" width="154.4" height="95.2049" filterUnits="userSpaceOnUse" color-interpolation-filters="sRGB">
<feFlood flood-opacity="0" result="BackgroundImageFix"/>
<feColorMatrix in="SourceAlpha" type="matrix" values="0 0 0 0 0 0 0 0 0 0 0 0 0 0 0 0 0 0 127 0" result="hardAlpha"/>
<feMorphology radius="1.6" operator="erode" in="SourceAlpha" result="effect1_dropShadow_7463_58535"/>
<feOffset dy="3.2"/>
<feGaussianBlur stdDeviation="2.4"/>
<feColorMatrix type="matrix" values="0 0 0 0 0.0627451 0 0 0 0 0.0941176 0 0 0 0 0.156863 0 0 0 0.03 0"/>
<feBlend mode="normal" in2="BackgroundImageFix" result="effect1_dropShadow_7463_58535"/>
<feColorMatrix in="SourceAlpha" type="matrix" values="0 0 0 0 0 0 0 0 0 0 0 0 0 0 0 0 0 0 127 0" result="hardAlpha"/>
<feMorphology radius="3.2" operator="erode" in="SourceAlpha" result="effect2_dropShadow_7463_58535"/>
<feOffset dy="9.6"/>
<feGaussianBlur stdDeviation="6.4"/>
<feColorMatrix type="matrix" values="0 0 0 0 0.0627451 0 0 0 0 0.0941176 0 0 0 0 0.156863 0 0 0 0.04 0"/>
<feBlend mode="normal" in2="effect1_dropShadow_7463_58535" result="effect2_dropShadow_7463_58535"/>
<feBlend mode="normal" in="SourceGraphic" in2="effect2_dropShadow_7463_58535" result="shape"/>
</filter>
</defs>
</svg>
