<svg width="138" height="145" viewBox="0 0 138 145" fill="none" xmlns="http://www.w3.org/2000/svg">
<path d="M74.1311 15.9868H16.2024C13.9864 15.9868 12.1899 17.7833 12.1899 19.9993V134.838C12.1899 137.054 13.9864 138.85 16.2024 138.85H74.1311C76.3472 138.85 78.1436 137.054 78.1436 134.838V19.9993C78.1436 17.7833 76.3472 15.9868 74.1311 15.9868Z" fill="#473388" fill-opacity="0.12"/>
<path d="M78.144 65.3855V43.812C75.6808 45.2886 73.311 46.9157 71.0481 48.6839L69.7788 52.722L70.9559 56.7407C70.9559 56.7407 73.0982 61.1044 78.144 65.3855Z" fill="#473388" fill-opacity="0.5"/>
<path d="M19.3784 28.7761H70.9559V126.06H19.3784V28.7761Z" fill="white"/>
<path d="M70.9558 56.7388V47.7441L62.1821 55.7312L70.9558 56.7388Z" fill="#E6EBEF"/>
<path d="M59.0353 85.3205L53.3314 79.6165L59.0353 73.9121L51.572 66.4487L45.8675 72.1531L40.1636 66.4487L32.7002 73.9121L38.4042 79.6165L32.7002 85.3205L40.1636 92.7839L45.8675 87.0799L51.572 92.7839L59.0353 85.3205Z" fill="#FF3875"/>
<path d="M48.1244 23.8889H36.2779C35.8099 23.8889 35.361 23.703 35.0301 23.3721C34.6991 23.0411 34.5132 22.5923 34.5132 22.1242C34.5132 21.6562 34.6991 21.2073 35.0301 20.8764C35.361 20.5454 35.8099 20.3595 36.2779 20.3595H48.1244C48.5924 20.3595 49.0412 20.5454 49.3722 20.8764C49.7031 21.2073 49.8891 21.6562 49.8891 22.1242C49.8891 22.5923 49.7031 23.0411 49.3722 23.3721C49.0412 23.703 48.5924 23.8889 48.1244 23.8889ZM56.021 23.8881C55.7309 23.8878 55.4453 23.8161 55.1895 23.6792C54.9338 23.5423 54.7157 23.3444 54.5546 23.1031C54.3936 22.8618 54.2945 22.5845 54.2661 22.2958C54.2378 22.0071 54.281 21.7158 54.3921 21.4478C54.5031 21.1798 54.6785 20.9433 54.9028 20.7593C55.127 20.5752 55.3932 20.4493 55.6777 20.3926C55.9622 20.336 56.2563 20.3503 56.534 20.4344C56.8116 20.5185 57.0643 20.6698 57.2695 20.8748C57.5995 21.2066 57.785 21.6554 57.7857 22.1233C57.7874 22.2391 57.7754 22.3546 57.75 22.4675C57.7292 22.5808 57.6967 22.6917 57.6529 22.7984C57.6084 22.9047 57.5539 23.0067 57.4901 23.1028C57.4249 23.199 57.351 23.289 57.2695 23.3719C56.9374 23.7015 56.4889 23.8869 56.021 23.8881Z" fill="#473388" fill-opacity="0.5"/>
<path d="M103.24 1.34688e-08C98.2609 0.00292237 93.3413 1.08066 88.8171 3.15958C84.2929 5.23849 80.2709 8.26958 77.0258 12.0457C73.7807 15.8219 71.389 20.2541 70.0142 25.0395C68.6393 29.8248 68.3138 34.8506 69.0598 39.7734L59.2246 48.7266L72.429 50.2429C75.2156 55.7209 79.4122 60.3568 84.5865 63.6733C89.7607 66.9898 95.7257 68.8669 101.867 69.1112C108.008 69.3555 114.103 67.9582 119.524 65.0632C124.946 62.1682 129.497 57.8803 132.71 52.641C135.923 47.4018 137.681 41.4007 137.803 35.256C137.925 29.1113 136.407 23.0451 133.405 17.6824C130.403 12.3196 126.025 7.85424 120.723 4.74619C115.421 1.63815 109.386 -0.000171522 103.24 1.34688e-08Z" fill="#FF3875"/>
<path d="M106.489 15.0754L124.897 41.8151C125.304 42.4071 125.542 43.0993 125.585 43.8168C125.628 44.5344 125.474 45.2499 125.139 45.8862C124.805 46.5224 124.303 47.0552 123.688 47.4268C123.072 47.7984 122.367 47.9948 121.648 47.9947H84.8335C84.1147 47.9948 83.4095 47.7984 82.7943 47.4268C82.179 47.0552 81.677 46.5224 81.3425 45.8862C81.0081 45.2499 80.8539 44.5344 80.8966 43.8168C80.9394 43.0993 81.1775 42.4071 81.5851 41.8151L99.9923 15.0754C100.355 14.5488 100.84 14.1182 101.406 13.8208C101.972 13.5233 102.601 13.3679 103.241 13.3679C103.88 13.3679 104.51 13.5233 105.076 13.8208C105.642 14.1182 106.127 14.5488 106.489 15.0754Z" fill="white"/>
<path d="M103.242 35.2243C102.773 35.2243 102.325 35.0384 101.994 34.7075C101.663 34.3765 101.477 33.9277 101.477 33.4596V26.1846C101.477 25.7166 101.663 25.2677 101.994 24.9368C102.325 24.6058 102.773 24.4199 103.242 24.4199C103.71 24.4199 104.158 24.6058 104.489 24.9368C104.82 25.2677 105.006 25.7166 105.006 26.1846V33.4596C105.006 33.9277 104.82 34.3765 104.489 34.7075C104.158 35.0384 103.71 35.2243 103.242 35.2243ZM103.24 41.5746C103.125 41.5738 103.009 41.562 102.896 41.5393C102.783 41.5163 102.672 41.4823 102.565 41.4379C102.459 41.3938 102.357 41.3406 102.26 41.279C102.165 41.2129 102.075 41.1392 101.992 41.0585C101.805 40.8752 101.662 40.6524 101.573 40.4065C101.483 40.1606 101.451 39.8978 101.476 39.6375C101.502 39.3772 101.586 39.126 101.722 38.9023C101.857 38.6787 102.041 38.4883 102.26 38.3452C102.356 38.2805 102.458 38.2258 102.565 38.182C102.806 38.0811 103.067 38.035 103.328 38.0471C103.589 38.0593 103.845 38.1293 104.075 38.2521C104.306 38.3749 104.507 38.5475 104.663 38.7574C104.819 38.9672 104.926 39.2091 104.977 39.4656C105.028 39.722 105.022 39.9866 104.958 40.2402C104.894 40.4937 104.775 40.73 104.609 40.9318C104.442 41.1336 104.233 41.296 103.997 41.4072C103.76 41.5183 103.502 41.5755 103.24 41.5746Z" fill="#FF3875"/>
</svg>
