<svg width="223" height="116" viewBox="0 0 223 116" fill="none" xmlns="http://www.w3.org/2000/svg">
<g id="Frame">
<g id="Group 9687">
<rect id="Rectangle 30113" x="9.84375" y="24" width="33" height="11" rx="3" fill="#BAB8FF"/>
<g id="...">
<path d="M17.09 32C16.0317 32 15.1523 31.0923 15.1523 30C15.1523 28.8923 16.0317 28 17.09 28C18.1632 28 19.0277 28.8923 19.0277 30C19.0277 31.0923 18.1632 32 17.09 32Z" fill="white"/>
<path d="M26.1523 32C25.0941 32 24.2147 31.0923 24.2147 30C24.2147 28.8923 25.0941 28 26.1523 28C27.2255 28 28.09 28.8923 28.09 30C28.09 31.0923 27.2255 32 26.1523 32Z" fill="white"/>
<path d="M35.2147 32C34.1564 32 33.277 31.0923 33.277 30C33.277 28.8923 34.1564 28 35.2147 28C36.2878 28 37.1523 28.8923 37.1523 30C37.1523 31.0923 36.2878 32 35.2147 32Z" fill="white"/>
</g>
</g>
<g id="Group 9690">
<rect id="Rectangle 30115" x="29.1562" y="47" width="33" height="11" rx="3" fill="#A09DF6"/>
<g id="..._2">
<path d="M37.0939 55C36.0357 55 35.1562 54.0923 35.1562 53C35.1562 51.8923 36.0357 51 37.0939 51C38.1671 51 39.0316 51.8923 39.0316 53C39.0316 54.0923 38.1671 55 37.0939 55Z" fill="white"/>
<path d="M46.1562 55C45.098 55 44.2186 54.0923 44.2186 53C44.2186 51.8923 45.098 51 46.1562 51C47.2294 51 48.0939 51.8923 48.0939 53C48.0939 54.0923 47.2294 55 46.1562 55Z" fill="white"/>
<path d="M55.2186 55C54.1603 55 53.2809 54.0923 53.2809 53C53.2809 51.8923 54.1603 51 55.2186 51C56.2918 51 57.1562 51.8923 57.1562 53C57.1562 54.0923 56.2918 55 55.2186 55Z" fill="white"/>
</g>
</g>
<g id="Group 9691">
<rect id="Rectangle 30117" x="10.1562" y="74" width="33" height="11" rx="3" fill="#BAB8FF"/>
<g id="..._3">
<path d="M18.0939 82C17.0357 82 16.1562 81.0923 16.1562 80C16.1562 78.8923 17.0357 78 18.0939 78C19.1671 78 20.0316 78.8923 20.0316 80C20.0316 81.0923 19.1671 82 18.0939 82Z" fill="white"/>
<path d="M27.1562 82C26.098 82 25.2186 81.0923 25.2186 80C25.2186 78.8923 26.098 78 27.1562 78C28.2294 78 29.0939 78.8923 29.0939 80C29.0939 81.0923 28.2294 82 27.1562 82Z" fill="white"/>
<path d="M36.2186 82C35.1603 82 34.2809 81.0923 34.2809 80C34.2809 78.8923 35.1603 78 36.2186 78C37.2918 78 38.1562 78.8923 38.1562 80C38.1562 81.0923 37.2918 82 36.2186 82Z" fill="white"/>
</g>
</g>
<g id="Group 9694">
<rect id="Rectangle 30118" x="180" y="83" width="33" height="11" rx="3" fill="#A09DF6"/>
<g id="..._4">
<path d="M187.938 91C186.879 91 186 90.0923 186 89C186 87.8923 186.879 87 187.938 87C189.011 87 189.875 87.8923 189.875 89C189.875 90.0923 189.011 91 187.938 91Z" fill="white"/>
<path d="M197 91C195.942 91 195.062 90.0923 195.062 89C195.062 87.8923 195.942 87 197 87C198.073 87 198.938 87.8923 198.938 89C198.938 90.0923 198.073 91 197 91Z" fill="white"/>
<path d="M206.062 91C205.004 91 204.125 90.0923 204.125 89C204.125 87.8923 205.004 87 206.062 87C207.136 87 208 87.8923 208 89C208 90.0923 207.136 91 206.062 91Z" fill="white"/>
</g>
</g>
<g id="Group 9692">
<rect id="Rectangle 30114" x="174.156" y="24" width="33" height="11" rx="3" fill="#A09DF6"/>
<g id="..._5">
<path d="M182.094 32C181.036 32 180.156 31.0923 180.156 30C180.156 28.8923 181.036 28 182.094 28C183.167 28 184.032 28.8923 184.032 30C184.032 31.0923 183.167 32 182.094 32Z" fill="white"/>
<path d="M191.156 32C190.098 32 189.219 31.0923 189.219 30C189.219 28.8923 190.098 28 191.156 28C192.229 28 193.094 28.8923 193.094 30C193.094 31.0923 192.229 32 191.156 32Z" fill="white"/>
<path d="M200.219 32C199.16 32 198.281 31.0923 198.281 30C198.281 28.8923 199.16 28 200.219 28C201.292 28 202.156 28.8923 202.156 30C202.156 31.0923 201.292 32 200.219 32Z" fill="white"/>
</g>
</g>
<g id="Group 9688">
<path id="Vector" d="M133.008 29.9916C123.729 20.6695 108.597 20.6695 99.3181 29.9916C92.9441 36.3222 90.7328 45.688 93.5078 54.1862C83.7087 63.9421 76.4064 71.2445 66.6505 81.0438C66.2168 81.4338 66 81.9975 66 82.5612V94.832C66 95.4389 66.2168 95.9591 66.6505 96.3495C67.0406 96.7831 67.5609 97 68.168 97H80.4388C81.0025 97 81.5662 96.7831 81.9563 96.3495C83.0836 95.2655 83.9074 94.3983 85.0349 93.3143C85.5119 92.8374 85.7285 92.187 85.642 91.5367C85.5117 90.3225 85.3818 89.4121 85.2516 88.2414C86.8992 88.0681 88.1565 87.9379 89.8477 87.808C90.8883 87.6777 91.6686 86.8973 91.7988 85.8568C91.9288 84.2091 92.059 82.9084 92.2323 81.2607C93.4031 81.434 94.3137 81.5209 95.5276 81.6508C96.7418 81.8244 97.9124 80.827 97.9124 79.5262V75.4649H101.902C102.465 75.4649 103.029 75.3203 103.419 74.8866C105.414 72.8922 106.819 71.53 108.814 69.4922C117.312 72.2671 126.678 70.0559 133.008 63.6819C142.331 54.4029 142.331 39.2706 133.008 29.9916ZM126.895 45.2976C124.38 47.8559 120.217 47.8559 117.702 45.2976C115.144 42.7826 115.144 38.6204 117.702 36.1054C120.217 33.5471 124.38 33.5471 126.895 36.1054C129.453 38.6204 129.453 42.7827 126.895 45.2976Z" fill="#FCBF29"/>
<path id="Vector_2" d="M132.946 63.6863C126.56 70.0594 117.111 72.2702 108.537 69.4958C106.525 71.5333 105.107 72.8955 103.095 74.8895C102.701 75.3232 102.132 75.4677 101.564 75.4677H97.5392V79.5284C97.5392 80.829 96.3583 81.8263 95.1333 81.6527C93.9086 81.5228 92.9899 81.4359 91.8088 81.2627C91.6339 82.9101 91.5026 84.2107 91.3715 85.8582C91.2401 86.8987 90.4527 87.6789 89.403 87.8091C87.697 87.939 86.4284 88.0692 84.7661 88.2425C84.8975 89.4132 85.0286 90.3234 85.16 91.5374C85.2473 92.1876 85.0286 92.838 84.5476 93.3148C83.4102 94.3986 82.5791 95.2657 81.4416 96.3495C81.0481 96.7829 80.4794 97 79.9107 97H67.5309C66.9185 97 66.3935 96.7831 66 96.3495L117.505 45.3041C120.042 47.8621 124.241 47.8621 126.779 45.3041C129.359 42.7894 129.359 38.6277 126.779 36.113L132.946 30C142.351 39.278 142.351 54.4084 132.946 63.6863Z" fill="#FE9923"/>
</g>
<g id="Group 9689">
<path id="Vector_3" fill-rule="evenodd" clip-rule="evenodd" d="M125.156 75.7906C125.664 80.7881 126.835 84.9334 128.825 88.5363L128.942 88.7688C130.386 91.3257 132.221 93.5726 134.524 95.6646C134.641 95.7809 134.797 95.8584 134.914 95.9746C136.319 97.2143 137.88 98.3765 139.637 99.5C148.809 93.6501 152.985 86.7155 154.156 75.7906C148.731 73.7373 143.54 70.4443 139.637 67.5C135.773 70.4443 130.543 73.7373 125.156 75.7906Z" fill="white"/>
<path id="Vector_4" d="M140.003 94C139.639 94 139.284 93.9004 138.981 93.7138C138.679 93.5273 138.443 93.2621 138.304 92.9518C138.165 92.6415 138.128 92.3001 138.199 91.9707C138.27 91.6413 138.445 91.3388 138.702 91.1013C138.96 90.8638 139.287 90.7021 139.644 90.6366C140.001 90.5711 140.371 90.6047 140.707 90.7332C141.043 90.8617 141.33 91.0794 141.532 91.3586C141.734 91.6378 141.842 91.9661 141.842 92.302C141.842 92.525 141.794 92.7458 141.702 92.9518C141.609 93.1578 141.474 93.345 141.303 93.5027C141.132 93.6603 140.93 93.7854 140.707 93.8707C140.483 93.9561 140.244 94 140.003 94ZM142 76.9222L141.472 87.2801C141.472 87.6404 141.317 87.9859 141.041 88.2406C140.765 88.4954 140.391 88.6385 140.001 88.6385C139.611 88.6385 139.237 88.4954 138.961 88.2406C138.685 87.9859 138.53 87.6404 138.53 87.2801L138.002 76.9264C137.99 76.679 138.032 76.4319 138.126 76.1999C138.22 75.9679 138.363 75.7556 138.548 75.5759C138.732 75.3961 138.954 75.2525 139.2 75.1535C139.446 75.0546 139.711 75.0024 139.979 75H139.998C140.268 74.9999 140.536 75.0503 140.784 75.1481C141.032 75.246 141.257 75.3893 141.443 75.5694C141.63 75.7495 141.775 75.9627 141.87 76.1961C141.965 76.4294 142.008 76.6782 141.996 76.9273L142 76.9222Z" fill="#F3B136"/>
<path id="Vector_5" d="M125.198 75.8262C126.353 86.7965 130.434 93.7599 139.481 99.6341C148.528 93.7599 152.648 86.7965 153.803 75.8262C148.451 73.7644 143.331 70.4577 139.481 67.5012C135.67 70.4577 130.511 73.7644 125.198 75.8262ZM126.815 91.348C124.082 86.8743 122.58 81.5447 122.003 74.9314C121.964 74.2312 122.349 73.5699 123.042 73.3364C128.701 71.3135 134.977 67.2678 138.519 64.3501C139.058 63.8833 139.866 63.8833 140.443 64.3501C143.446 66.8009 150.723 71.6637 155.843 73.2975C156.536 73.492 157.036 74.1534 156.998 74.9314C155.881 88.0413 151.069 95.8995 140.328 102.746C139.828 103.057 139.212 103.096 138.673 102.785C133.437 99.5174 129.548 95.8606 126.815 91.348Z" fill="#F3B136"/>
</g>
<g id="Group 9693">
<rect id="Rectangle 30116" x="162.156" y="57" width="33" height="11" rx="3" fill="#BAB8FF"/>
<g id="..._6">
<path d="M170.094 65C169.036 65 168.156 64.0923 168.156 63C168.156 61.8923 169.036 61 170.094 61C171.167 61 172.032 61.8923 172.032 63C172.032 64.0923 171.167 65 170.094 65Z" fill="white"/>
<path d="M179.156 65C178.098 65 177.219 64.0923 177.219 63C177.219 61.8923 178.098 61 179.156 61C180.229 61 181.094 61.8923 181.094 63C181.094 64.0923 180.229 65 179.156 65Z" fill="white"/>
<path d="M188.219 65C187.16 65 186.281 64.0923 186.281 63C186.281 61.8923 187.16 61 188.219 61C189.292 61 190.156 61.8923 190.156 63C190.156 64.0923 189.292 65 188.219 65Z" fill="white"/>
</g>
</g>
</g>
</svg>
